;TYPE=PLATED
;Layer: PTH_Through_Via
;EasyEDA Pro Client v3.2.149.88089769, 2026-07-13 20:44:55
;Gerber Generator version 0.3
M48
METRIC,LZ,0000.00000
;Hole size 1 = 0.30500 METRIC
T01C0.30500
%
G05
G90
T01
X16.256Y-3.048
X16.256Y-2.159
X7.3025Y-7.69
X7.3025Y-8.49
X7.3025Y-10.09
X7.3025Y-10.89
X13.081Y-23.749
X13.843Y-23.749
X16.0655Y-9.29
X16.0655Y-10.09
X9.684Y-13.2588
X20.40801Y-11.85113
X20.36788Y-16.891
X15.31249Y-14.351
X0.79007Y-11.01697
X5.08Y-5.334
X24.638Y-8.509
X25.527Y-20.193
X8.89Y-0.68907
X8.128Y-26.67
X9.398Y-23.81402
X9.39799Y-20.35301
X12.065Y-20.89302
X14.351Y-20.89302
X14.30807Y-17.23301
X12.10793Y-15.53299
X9.398Y-15.37564
X18.923Y-5.26898
X20.955Y-5.26898
X22.987Y-5.26898
X17.21002Y-4.191
X11.284Y-4.5212
X6.58056Y-9.16013
X6.08946Y-26.71554
X6.49605Y-2.94259
X10.484Y-14.10881
X25.527Y-9.398
X24.64194Y-9.398
X25.527Y-8.51754
X25.527Y-19.304
X24.638Y-20.193
X24.638Y-19.304
X6.35Y-16.256
X6.72402Y-18.28
X6.72402Y-17.28
X6.35Y-19.304
X7.09905Y-16.27995
X7.09905Y-19.27995
M30