G04 Layer: TopSolderMaskLayer*
G04 EasyEDA Pro v3.2.149.88089769, 2026-07-13 20:44:55*
G04 Gerber Generator version 0.3*
G04 Scale: 100 percent, Rotated: No, Reflected: No*
G04 Dimensions in millimeters*
G04 Leading zeros omitted, absolute positions, 4 integers and 5 decimals*
G04 Generated by one-click*
G04 Object Configs: Pad,Via,Track,Text,Image,Dimension,BoardOutline,BoardCutout,CopperFilled,SolidRegion,FPCStiffener,Line,PlaneZone,ComponentProperty,ComponentSilkscreen,TearDrop*
G04 Layer Configs: 1,2,3,4,5,6,7,8,9,10,11,13,14,56*
G04 Copper Areas: 0*
%FSLAX45Y45*%
%MOMM*%
%AMRoundRect*1,1,$1,$2,$3*1,1,$1,$4,$5*1,1,$1,0-$2,0-$3*1,1,$1,0-$4,0-$5*20,1,$1,$2,$3,$4,$5,0*20,1,$1,$4,$5,0-$2,0-$3,0*20,1,$1,0-$2,0-$3,0-$4,0-$5,0*20,1,$1,0-$4,0-$5,$2,$3,0*4,1,4,$2,$3,$4,$5,0-$2,0-$3,0-$4,0-$5,$2,$3,0*%
%ADD10RoundRect,0.1016X-0.45X-0.4X-0.45X0.4*%
%ADD11RoundRect,0.1016X-0.4X0.45X0.4X0.45*%
%ADD12RoundRect,0.1016X-0.3X0.3X0.3X0.3*%
%ADD13C,1.8016*%
%ADD14RoundRect,0.1016X-0.85X0.85X0.85X0.85*%
%ADD15RoundRect,0.1016X-0.40324X0.432X0.40324X0.432*%
%ADD16RoundRect,0.1031X-0.175X-0.25X-0.175X0.25*%
%ADD17RoundRect,0.1016X-0.175X-0.25X-0.175X0.25*%
%ADD18O,1.75161X0.55161*%
%ADD19O,0.55161X1.75161*%
%ADD20RoundRect,0.10003X-0.8X-0.8X-0.8X0.8*%
%ADD21RoundRect,0.10003X-0.95X-0.95X-0.95X0.95*%
%ADD22O,2.0016X1.2016*%
%ADD23RoundRect,0.1016X-0.7X0.6X0.7X0.6*%
%ADD24C,1.90002*%
%ADD25RoundRect,0.1016X-0.432X-0.40324X-0.432X0.40324*%
%ADD26C,0.7016*%
%ADD27RoundRect,0.1016X-0.35X-0.85X-0.35X0.85*%
%ADD28RoundRect,0.1016X-0.217X-0.2445X-0.217X0.2445*%
%ADD29RoundRect,0.1016X-0.147X-0.2445X-0.147X0.2445*%
G75*


G04 Pad Start*
G54D10*
G01X1206500Y-1949298D03*
G01X1206500Y-2089302D03*
G01X1435100Y-1949298D03*
G01X1435100Y-2089302D03*
G54D11*
G01X1721002Y-419100D03*
G01X1580998Y-419100D03*
G54D10*
G01X939800Y-2381402D03*
G01X939800Y-2241398D03*
G01X2298700Y-666902D03*
G01X2298700Y-526898D03*
G01X2095500Y-666902D03*
G01X2095500Y-526898D03*
G01X1892300Y-666902D03*
G01X1892300Y-526898D03*
G54D12*
G01X587997Y-533400D03*
G01X428003Y-533400D03*
G54D13*
G01X1727203Y-2667000D03*
G01X1473203Y-2667000D03*
G01X1219203Y-2667000D03*
G54D14*
G01X965203Y-2667000D03*
G54D15*
G01X1677264Y-1689100D03*
G01X1827936Y-1689100D03*
G01X1677264Y-1524000D03*
G01X1827936Y-1524000D03*
G01X1677264Y-1358900D03*
G01X1827936Y-1358900D03*
G54D17*
G01X723400Y-382900D03*
G01X643400Y-382900D03*
G01X480700Y-380500D03*
G01X560700Y-380500D03*
G54D18*
G01X730250Y-1168999D03*
G01X730250Y-1089000D03*
G01X730250Y-1009000D03*
G01X730250Y-929000D03*
G01X730250Y-849000D03*
G01X730250Y-769000D03*
G01X730250Y-689000D03*
G01X730250Y-609001D03*
G54D19*
G01X888401Y-452120D03*
G01X968400Y-452120D03*
G01X1048400Y-452120D03*
G01X1128400Y-452120D03*
G01X1208400Y-452120D03*
G01X1288400Y-452120D03*
G01X1368400Y-452120D03*
G01X1448399Y-452120D03*
G54D18*
G01X1606550Y-609001D03*
G01X1606550Y-689000D03*
G01X1606550Y-769000D03*
G01X1606550Y-849000D03*
G01X1606550Y-929000D03*
G01X1606550Y-1009000D03*
G01X1606550Y-1089000D03*
G01X1606550Y-1168999D03*
G54D19*
G01X1448399Y-1325880D03*
G01X1368400Y-1325880D03*
G01X1288400Y-1325880D03*
G01X1208400Y-1325880D03*
G01X1128400Y-1325880D03*
G01X1048400Y-1325880D03*
G01X968400Y-1325880D03*
G01X888401Y-1325880D03*
G54D20*
G01X2505799Y-895096D03*
G01X2505799Y-1975104D03*
G54D21*
G01X2040801Y-1185113D03*
G01X2040801Y-1435100D03*
G01X2040801Y-1685087D03*
G54D22*
G01X267399Y-1346009D03*
G01X267399Y-2209990D03*
G01X647408Y-1346009D03*
G01X647408Y-2209990D03*
G54D23*
G01X1430807Y-1553299D03*
G01X1210793Y-1553299D03*
G01X1210793Y-1723301D03*
G01X1430807Y-1723301D03*
G54D24*
G01X990600Y-152403D03*
G01X1244600Y-152403D03*
G01X1498600Y-152403D03*
G01X1752600Y-152403D03*
G54D25*
G01X939800Y-1537564D03*
G01X939800Y-1688236D03*
G01X939800Y-1880464D03*
G01X939800Y-2031136D03*
G54D26*
G01X608946Y-2671554D03*
G54D27*
G01X428993Y-701703D03*
G01X428993Y-1101697D03*
G01X79007Y-1101697D03*
G54D28*
G01X609600Y-188341D03*
G54D29*
G01X649605Y-294259D03*
G01X569595Y-294259D03*
G04 Pad End*

M02*

