G04 Layer: TopLayer*
G04 EasyEDA Pro v3.2.149.88089769, 2026-07-13 20:44:55*
G04 Gerber Generator version 0.3*
G04 Scale: 100 percent, Rotated: No, Reflected: No*
G04 Dimensions in millimeters*
G04 Leading zeros omitted, absolute positions, 4 integers and 5 decimals*
G04 Generated by one-click*
G04 Object Configs: Pad,Via,Track,Text,Image,Dimension,BoardOutline,BoardCutout,CopperFilled,SolidRegion,FPCStiffener,Line,PlaneZone,ComponentProperty,ComponentSilkscreen,TearDrop*
G04 Layer Configs: 1,2,3,4,5,6,7,8,9,10,11,13,14,56*
G04 Copper Areas: 28*
%FSLAX45Y45*%
%MOMM*%
%ADD10C,0.2032*%
%ADD11C,0.254*%
%ADD12R,0.9X0.8*%
%ADD13R,0.8X0.9*%
%ADD14R,0.6X0.6*%
%ADD15C,1.7*%
%ADD16R,1.7080X1.7*%
%ADD17R,1.7X1.7*%
%ADD18R,0.80648X0.86401*%
%ADD19R,0.35X0.5*%
%ADD20O,1.65001X0.45001*%
%ADD21O,0.45001X1.65001*%
%ADD22R,1.6X1.6*%
%ADD23R,1.9X1.9*%
%ADD24O,1.9X1.1*%
%ADD25R,1.4X1.2*%
%ADD26C,1.8*%
%ADD27R,0.86401X0.80648*%
%ADD28C,0.6*%
%ADD29R,0.7X1.7*%
%ADD30R,0.43401X0.489*%
%ADD31R,0.29401X0.489*%
%ADD32C,0.61*%
G75*


G04 Copper Start*
G36*
G01X2695702Y-44249D02*
G01X2695702Y-185024D01*
G01X2690057Y-160332D01*
G01X2680604Y-136833D01*
G01X2667580Y-115110D01*
G01X2651306Y-95701D01*
G01X2632186Y-79088D01*
G01X2610695Y-65683D01*
G01X2587366Y-55819D01*
G01X2562778Y-49740D01*
G01X2537540Y-47597D01*
G01X2512278Y-49444D01*
G01X2487620Y-55234D01*
G01X2464177Y-64824D01*
G01X2442530Y-77976D01*
G01X2423217Y-94363D01*
G01X2406716Y-113580D01*
G01X2393438Y-135149D01*
G01X2383711Y-158536D01*
G01X2377776Y-183159D01*
G01X2375781Y-208410D01*
G01X2377776Y-233660D01*
G01X2383711Y-258283D01*
G01X2393438Y-281670D01*
G01X2406716Y-303239D01*
G01X2423217Y-322456D01*
G01X2442530Y-338843D01*
G01X2464177Y-351995D01*
G01X2487620Y-361585D01*
G01X2512278Y-367375D01*
G01X2537540Y-369222D01*
G01X2562778Y-367079D01*
G01X2587366Y-361000D01*
G01X2610695Y-351136D01*
G01X2632186Y-337731D01*
G01X2651306Y-321118D01*
G01X2667580Y-301709D01*
G01X2680604Y-279986D01*
G01X2690057Y-256487D01*
G01X2695702Y-231795D01*
G01X2695702Y-2565004D01*
G01X2690057Y-2540312D01*
G01X2680604Y-2516813D01*
G01X2667580Y-2495090D01*
G01X2651306Y-2475681D01*
G01X2632186Y-2459068D01*
G01X2610695Y-2445663D01*
G01X2587366Y-2435799D01*
G01X2562778Y-2429720D01*
G01X2537540Y-2427577D01*
G01X2512278Y-2429424D01*
G01X2487620Y-2435214D01*
G01X2464177Y-2444804D01*
G01X2442530Y-2457956D01*
G01X2423217Y-2474343D01*
G01X2406716Y-2493560D01*
G01X2393438Y-2515129D01*
G01X2383711Y-2538516D01*
G01X2377776Y-2563139D01*
G01X2375781Y-2588390D01*
G01X2377776Y-2613640D01*
G01X2383711Y-2638263D01*
G01X2393438Y-2661650D01*
G01X2406716Y-2683219D01*
G01X2423217Y-2702436D01*
G01X2442530Y-2718823D01*
G01X2464177Y-2731975D01*
G01X2487620Y-2741565D01*
G01X2512278Y-2747355D01*
G01X2537540Y-2749202D01*
G01X2562778Y-2747059D01*
G01X2587366Y-2740980D01*
G01X2610695Y-2731116D01*
G01X2632186Y-2717711D01*
G01X2651306Y-2701098D01*
G01X2667580Y-2681689D01*
G01X2680604Y-2659966D01*
G01X2690057Y-2636467D01*
G01X2695702Y-2611775D01*
G01X2695702Y-2752651D01*
G01X1812407Y-2752651D01*
G01X1826464Y-2735870D01*
G01X1837263Y-2716827D01*
G01X1844447Y-2696148D01*
G01X1847783Y-2674513D01*
G01X1847159Y-2652630D01*
G01X1842597Y-2631220D01*
G01X1834246Y-2610984D01*
G01X1822380Y-2592588D01*
G01X1807390Y-2576634D01*
G01X1789766Y-2563648D01*
G01X1770089Y-2554054D01*
G01X1749004Y-2548169D01*
G01X1727203Y-2546186D01*
G01X1705401Y-2548169D01*
G01X1684316Y-2554054D01*
G01X1664639Y-2563648D01*
G01X1647015Y-2576634D01*
G01X1632025Y-2592588D01*
G01X1620160Y-2610984D01*
G01X1611809Y-2631220D01*
G01X1607246Y-2652630D01*
G01X1606623Y-2674513D01*
G01X1609958Y-2696148D01*
G01X1617142Y-2716827D01*
G01X1627941Y-2735870D01*
G01X1641998Y-2752651D01*
G01X1558407Y-2752651D01*
G01X1571718Y-2736934D01*
G01X1582165Y-2719184D01*
G01X1589446Y-2699917D01*
G01X1593348Y-2679694D01*
G01X1593758Y-2659102D01*
G01X1590664Y-2638739D01*
G01X1584157Y-2619198D01*
G01X1574425Y-2601046D01*
G01X1561751Y-2584811D01*
G01X1546504Y-2570964D01*
G01X1529126Y-2559909D01*
G01X1510123Y-2551966D01*
G01X1490047Y-2547366D01*
G01X1469481Y-2546243D01*
G01X1449024Y-2548630D01*
G01X1429269Y-2554457D01*
G01X1415036Y-2540224D01*
G01X1415035Y-2468675D01*
G01X1418605Y-2465105D01*
G01X1426315Y-2455057D01*
G01X1431161Y-2443356D01*
G01X1432814Y-2430800D01*
G01X1432814Y-2421056D01*
G01X1433680Y-2419483D01*
G01X1435266Y-2417327D01*
G01X1443883Y-2404011D01*
G01X1449092Y-2389030D01*
G01X1450594Y-2373240D01*
G01X1448303Y-2357545D01*
G01X1442351Y-2342843D01*
G01X1433078Y-2329975D01*
G01X1421015Y-2319677D01*
G01X1406851Y-2312538D01*
G01X1391397Y-2308967D01*
G01X1375537Y-2309167D01*
G01X1360179Y-2313129D01*
G01X1346200Y-2320624D01*
G01X1332222Y-2313129D01*
G01X1316863Y-2309167D01*
G01X1301003Y-2308967D01*
G01X1285549Y-2312538D01*
G01X1271386Y-2319677D01*
G01X1259322Y-2329975D01*
G01X1250049Y-2342843D01*
G01X1244097Y-2357545D01*
G01X1241807Y-2373240D01*
G01X1243309Y-2389030D01*
G01X1248517Y-2404011D01*
G01X1257134Y-2417327D01*
G01X1258720Y-2419483D01*
G01X1259586Y-2421056D01*
G01X1259586Y-2430800D01*
G01X1261239Y-2443357D01*
G01X1266086Y-2455057D01*
G01X1273796Y-2465105D01*
G01X1277367Y-2468676D01*
G01X1277368Y-2540225D01*
G01X1263136Y-2554457D01*
G01X1243381Y-2548630D01*
G01X1222924Y-2546243D01*
G01X1202358Y-2547366D01*
G01X1182282Y-2551966D01*
G01X1163279Y-2559909D01*
G01X1145901Y-2570964D01*
G01X1130654Y-2584811D01*
G01X1117980Y-2601046D01*
G01X1108248Y-2619198D01*
G01X1101741Y-2638739D01*
G01X1098647Y-2659102D01*
G01X1099057Y-2679694D01*
G01X1102960Y-2699917D01*
G01X1110240Y-2719184D01*
G01X1120687Y-2736934D01*
G01X1133998Y-2752651D01*
G01X1086010Y-2752651D01*
G01X1086016Y-2752000D01*
G01X1086016Y-2582000D01*
G01X1084264Y-2570933D01*
G01X1079177Y-2560949D01*
G01X1071253Y-2553026D01*
G01X1061270Y-2547939D01*
G01X1050202Y-2546186D01*
G01X880203Y-2546186D01*
G01X869136Y-2547939D01*
G01X859152Y-2553026D01*
G01X851229Y-2560949D01*
G01X846142Y-2570933D01*
G01X844389Y-2582000D01*
G01X844389Y-2608693D01*
G01X830283Y-2603032D01*
G01X815260Y-2600732D01*
G01X800107Y-2601912D01*
G01X785621Y-2606512D01*
G01X772562Y-2614289D01*
G01X761618Y-2624835D01*
G01X753361Y-2637596D01*
G01X748228Y-2651901D01*
G01X746486Y-2667000D01*
G01X748228Y-2682099D01*
G01X753361Y-2696404D01*
G01X761618Y-2709165D01*
G01X772562Y-2719711D01*
G01X785621Y-2727488D01*
G01X800107Y-2732088D01*
G01X815260Y-2733268D01*
G01X830283Y-2730968D01*
G01X844389Y-2725307D01*
G01X844389Y-2752000D01*
G01X844395Y-2752651D01*
G01X47417Y-2752651D01*
G01X47417Y-2611215D01*
G01X52984Y-2635955D01*
G01X62371Y-2659512D01*
G01X75344Y-2681301D01*
G01X91582Y-2700779D01*
G01X110679Y-2717463D01*
G01X132161Y-2730937D01*
G01X155495Y-2740867D01*
G01X180099Y-2747005D01*
G01X205363Y-2749200D01*
G01X230657Y-2747396D01*
G01X255353Y-2741638D01*
G01X278837Y-2732069D01*
G01X300525Y-2718928D01*
G01X319877Y-2702541D01*
G01X336413Y-2683315D01*
G01X343664Y-2671554D01*
G01X542632Y-2671554D01*
G01X544559Y-2687424D01*
G01X550228Y-2702372D01*
G01X559309Y-2715528D01*
G01X571275Y-2726129D01*
G01X585431Y-2733559D01*
G01X600953Y-2737385D01*
G01X616939Y-2737385D01*
G01X632461Y-2733559D01*
G01X646617Y-2726129D01*
G01X658583Y-2715528D01*
G01X667664Y-2702372D01*
G01X673333Y-2687424D01*
G01X675260Y-2671554D01*
G01X673333Y-2655684D01*
G01X667664Y-2640736D01*
G01X658583Y-2627580D01*
G01X646617Y-2616979D01*
G01X632461Y-2609549D01*
G01X616939Y-2605723D01*
G01X600953Y-2605723D01*
G01X585431Y-2609549D01*
G01X571275Y-2616979D01*
G01X559309Y-2627580D01*
G01X550228Y-2640736D01*
G01X544559Y-2655684D01*
G01X542632Y-2671554D01*
G01X542632Y-2671554D01*
G01X343664Y-2671554D01*
G01X349721Y-2661730D01*
G01X359471Y-2638320D01*
G01X365419Y-2613669D01*
G01X367419Y-2588390D01*
G01X365419Y-2563110D01*
G01X359471Y-2538459D01*
G01X349721Y-2515050D01*
G01X336413Y-2493464D01*
G01X319877Y-2474238D01*
G01X300525Y-2457851D01*
G01X278837Y-2444710D01*
G01X255353Y-2435142D01*
G01X230657Y-2429384D01*
G01X205363Y-2427579D01*
G01X180099Y-2429774D01*
G01X155495Y-2435912D01*
G01X132161Y-2445842D01*
G01X110679Y-2459316D01*
G01X91582Y-2476000D01*
G01X75344Y-2495478D01*
G01X62371Y-2517267D01*
G01X52984Y-2540824D01*
G01X47417Y-2565564D01*
G01X47417Y-2200498D01*
G01X137082Y-2200498D01*
G01X137082Y-2219483D01*
G01X141029Y-2238054D01*
G01X148751Y-2255397D01*
G01X159911Y-2270757D01*
G01X174020Y-2283460D01*
G01X190461Y-2292953D01*
G01X208517Y-2298820D01*
G01X227399Y-2300804D01*
G01X307398Y-2300804D01*
G01X325569Y-2298968D01*
G01X343004Y-2293533D01*
G01X359000Y-2284720D01*
G01X372909Y-2272884D01*
G01X384168Y-2258504D01*
G01X530638Y-2258504D01*
G01X530638Y-2258504D01*
G01X541898Y-2272884D01*
G01X555806Y-2284720D01*
G01X571802Y-2293533D01*
G01X589238Y-2298968D01*
G01X607408Y-2300804D01*
G01X687408Y-2300804D01*
G01X706289Y-2298820D01*
G01X724345Y-2292953D01*
G01X740787Y-2283460D01*
G01X743078Y-2281398D01*
G01X858986Y-2281398D01*
G01X860931Y-2293038D01*
G01X866553Y-2303414D01*
G01X875243Y-2311400D01*
G01X866553Y-2319386D01*
G01X860931Y-2329762D01*
G01X858986Y-2341402D01*
G01X858986Y-2421402D01*
G01X860739Y-2432469D01*
G01X865826Y-2442453D01*
G01X873749Y-2450376D01*
G01X883733Y-2455463D01*
G01X894800Y-2457216D01*
G01X984800Y-2457216D01*
G01X995867Y-2455463D01*
G01X1005851Y-2450376D01*
G01X1013774Y-2442453D01*
G01X1018861Y-2432469D01*
G01X1020614Y-2421402D01*
G01X1020614Y-2341402D01*
G01X1018669Y-2329762D01*
G01X1013047Y-2319386D01*
G01X1004357Y-2311400D01*
G01X1013047Y-2303414D01*
G01X1018669Y-2293038D01*
G01X1020614Y-2281398D01*
G01X1020614Y-2281398D01*
G01X1020614Y-2201398D01*
G01X1018861Y-2190331D01*
G01X1013774Y-2180347D01*
G01X1005851Y-2172424D01*
G01X995867Y-2167337D01*
G01X984800Y-2165584D01*
G01X894800Y-2165584D01*
G01X883733Y-2167337D01*
G01X873749Y-2172424D01*
G01X865826Y-2180347D01*
G01X860739Y-2190331D01*
G01X858986Y-2201398D01*
G01X858986Y-2281398D01*
G01X743078Y-2281398D01*
G01X754896Y-2270757D01*
G01X766055Y-2255397D01*
G01X773777Y-2238054D01*
G01X777724Y-2219483D01*
G01X777724Y-2200498D01*
G01X773777Y-2181927D01*
G01X766055Y-2164584D01*
G01X754896Y-2149224D01*
G01X740787Y-2136521D01*
G01X724345Y-2127028D01*
G01X706289Y-2121161D01*
G01X687408Y-2119177D01*
G01X607408Y-2119177D01*
G01X589238Y-2121013D01*
G01X571802Y-2126448D01*
G01X555806Y-2135261D01*
G01X541898Y-2147097D01*
G01X530638Y-2161476D01*
G01X384168Y-2161476D01*
G01X372909Y-2147097D01*
G01X359000Y-2135261D01*
G01X343004Y-2126448D01*
G01X325569Y-2121013D01*
G01X307398Y-2119177D01*
G01X227399Y-2119177D01*
G01X208517Y-2121161D01*
G01X190461Y-2127028D01*
G01X174020Y-2136521D01*
G01X159911Y-2149224D01*
G01X148751Y-2164584D01*
G01X141029Y-2181927D01*
G01X137082Y-2200498D01*
G01X47417Y-2200498D01*
G01X47417Y-1832962D01*
G01X606273Y-1832962D01*
G01X609191Y-1848049D01*
G01X615503Y-1862060D01*
G01X624870Y-1874241D01*
G01X636789Y-1883940D01*
G01X650621Y-1890635D01*
G01X665622Y-1893967D01*
G01X680988Y-1893756D01*
G01X695892Y-1890014D01*
G01X860786Y-1890014D01*
G01X860786Y-1920787D01*
G01X862100Y-1930401D01*
G01X865947Y-1939309D01*
G01X872044Y-1946858D01*
G01X879944Y-1952493D01*
G01X889066Y-1955800D01*
G01X879944Y-1959107D01*
G01X872044Y-1964742D01*
G01X865947Y-1972291D01*
G01X862100Y-1981199D01*
G01X860786Y-1990813D01*
G01X860786Y-2071460D01*
G01X862539Y-2082527D01*
G01X867626Y-2092511D01*
G01X875549Y-2100434D01*
G01X885533Y-2105521D01*
G01X896600Y-2107274D01*
G01X983000Y-2107274D01*
G01X994067Y-2105521D01*
G01X1004051Y-2100434D01*
G01X1011974Y-2092511D01*
G01X1017061Y-2082527D01*
G01X1018814Y-2071460D01*
G01X1018814Y-1990813D01*
G01X1017500Y-1981199D01*
G01X1013653Y-1972291D01*
G01X1007556Y-1964742D01*
G01X999656Y-1959107D01*
G01X990534Y-1955800D01*
G01X999656Y-1952493D01*
G01X1007556Y-1946858D01*
G01X1013653Y-1939309D01*
G01X1017500Y-1930401D01*
G01X1018814Y-1920787D01*
G01X1018814Y-1840140D01*
G01X1017061Y-1829073D01*
G01X1011974Y-1819089D01*
G01X1004051Y-1811166D01*
G01X994067Y-1806079D01*
G01X983000Y-1804326D01*
G01X932008Y-1804326D01*
G01X922600Y-1798142D01*
G01X912019Y-1794292D01*
G01X900836Y-1792986D01*
G01X728718Y-1792986D01*
G01X722899Y-1785017D01*
G01X715963Y-1778000D01*
G01X722899Y-1770983D01*
G01X728718Y-1763014D01*
G01X886823Y-1763014D01*
G01X896600Y-1764374D01*
G01X983000Y-1764374D01*
G01X994067Y-1762621D01*
G01X1004051Y-1757534D01*
G01X1011974Y-1749611D01*
G01X1017061Y-1739627D01*
G01X1018814Y-1728560D01*
G01X1018814Y-1647913D01*
G01X1017500Y-1638299D01*
G01X1013653Y-1629391D01*
G01X1007556Y-1621842D01*
G01X999656Y-1616207D01*
G01X990534Y-1612900D01*
G01X999656Y-1609593D01*
G01X1007556Y-1603958D01*
G01X1013653Y-1596409D01*
G01X1017500Y-1587501D01*
G01X1018814Y-1577887D01*
G01X1018814Y-1497240D01*
G01X1017061Y-1486173D01*
G01X1011974Y-1476189D01*
G01X1004051Y-1468266D01*
G01X994067Y-1463179D01*
G01X983000Y-1461426D01*
G01X896600Y-1461426D01*
G01X885533Y-1463179D01*
G01X875549Y-1468266D01*
G01X867626Y-1476189D01*
G01X862539Y-1486173D01*
G01X860786Y-1497240D01*
G01X860786Y-1577887D01*
G01X862100Y-1587501D01*
G01X865947Y-1596409D01*
G01X872044Y-1603958D01*
G01X879944Y-1609593D01*
G01X889066Y-1612900D01*
G01X879944Y-1616207D01*
G01X872044Y-1621842D01*
G01X865947Y-1629391D01*
G01X862100Y-1638299D01*
G01X860786Y-1647913D01*
G01X860786Y-1665986D01*
G01X695892Y-1665986D01*
G01X680988Y-1662244D01*
G01X665622Y-1662033D01*
G01X650621Y-1665365D01*
G01X636789Y-1672060D01*
G01X624870Y-1681759D01*
G01X615503Y-1693940D01*
G01X615503Y-1693940D01*
G01X609191Y-1707951D01*
G01X606273Y-1723038D01*
G01X606907Y-1738392D01*
G01X611057Y-1753188D01*
G01X618502Y-1766631D01*
G01X628840Y-1778000D01*
G01X618502Y-1789369D01*
G01X611057Y-1802812D01*
G01X606907Y-1817608D01*
G01X606273Y-1832962D01*
G01X47417Y-1832962D01*
G01X47417Y-1336517D01*
G01X137082Y-1336517D01*
G01X137082Y-1355502D01*
G01X141029Y-1374073D01*
G01X148751Y-1391416D01*
G01X159911Y-1406776D01*
G01X174020Y-1419479D01*
G01X190461Y-1428972D01*
G01X208517Y-1434839D01*
G01X227399Y-1436823D01*
G01X307398Y-1436823D01*
G01X325569Y-1434987D01*
G01X343004Y-1429552D01*
G01X359000Y-1420739D01*
G01X372909Y-1408903D01*
G01X384168Y-1394523D01*
G01X530638Y-1394523D01*
G01X530638Y-1394523D01*
G01X541898Y-1408903D01*
G01X555806Y-1420739D01*
G01X571802Y-1429552D01*
G01X589238Y-1434987D01*
G01X607408Y-1436823D01*
G01X687408Y-1436823D01*
G01X706289Y-1434839D01*
G01X724345Y-1428972D01*
G01X740787Y-1419479D01*
G01X754896Y-1406776D01*
G01X766055Y-1391416D01*
G01X773777Y-1374073D01*
G01X777724Y-1355502D01*
G01X777724Y-1336517D01*
G01X773777Y-1317946D01*
G01X766055Y-1300603D01*
G01X754896Y-1285243D01*
G01X740787Y-1272540D01*
G01X729252Y-1265880D01*
G01X830086Y-1265880D01*
G01X830086Y-1385880D01*
G01X832024Y-1400788D01*
G01X837709Y-1414705D01*
G01X846762Y-1426707D01*
G01X858583Y-1435995D01*
G01X872386Y-1441952D01*
G01X887253Y-1444183D01*
G01X902197Y-1442539D01*
G01X916223Y-1437129D01*
G01X928400Y-1428313D01*
G01X938800Y-1436124D01*
G01X950673Y-1441435D01*
G01X963427Y-1443982D01*
G01X976428Y-1443639D01*
G01X989030Y-1440423D01*
G01X996899Y-1452656D01*
G01X1007245Y-1462879D01*
G01X1019572Y-1470600D01*
G01X1033285Y-1475449D01*
G01X1047725Y-1477191D01*
G01X1047725Y-1477191D01*
G01X1060220Y-1482855D01*
G01X1073800Y-1484795D01*
G01X1106003Y-1484795D01*
G01X1104979Y-1493299D01*
G01X1104979Y-1613299D01*
G01X1106160Y-1622422D01*
G01X1109627Y-1630943D01*
G01X1115149Y-1638300D01*
G01X1109627Y-1645657D01*
G01X1106160Y-1654178D01*
G01X1104979Y-1663301D01*
G01X1104979Y-1783301D01*
G01X1106732Y-1794368D01*
G01X1111819Y-1804352D01*
G01X1119742Y-1812275D01*
G01X1129726Y-1817362D01*
G01X1140793Y-1819115D01*
G01X1157763Y-1819115D01*
G01X1157986Y-1821401D01*
G01X1157986Y-1871198D01*
G01X1157721Y-1873684D01*
G01X1147596Y-1876293D01*
G01X1138655Y-1881716D01*
G01X1131662Y-1889490D01*
G01X1127213Y-1898953D01*
G01X1125686Y-1909298D01*
G01X1125686Y-1989298D01*
G01X1127631Y-2000938D01*
G01X1133253Y-2011314D01*
G01X1141943Y-2019300D01*
G01X1133253Y-2027286D01*
G01X1127631Y-2037662D01*
G01X1125686Y-2049302D01*
G01X1125686Y-2129302D01*
G01X1127439Y-2140369D01*
G01X1132526Y-2150353D01*
G01X1140449Y-2158276D01*
G01X1150433Y-2163363D01*
G01X1161500Y-2165116D01*
G01X1251500Y-2165116D01*
G01X1262567Y-2163363D01*
G01X1272551Y-2158276D01*
G01X1280474Y-2150353D01*
G01X1285561Y-2140369D01*
G01X1287314Y-2129302D01*
G01X1287314Y-2049302D01*
G01X1285369Y-2037662D01*
G01X1279747Y-2027286D01*
G01X1271057Y-2019300D01*
G01X1279747Y-2011314D01*
G01X1285369Y-2000938D01*
G01X1287314Y-1989298D01*
G01X1287314Y-1909298D01*
G01X1285787Y-1898953D01*
G01X1281338Y-1889490D01*
G01X1274345Y-1881716D01*
G01X1265404Y-1876293D01*
G01X1255279Y-1873684D01*
G01X1255014Y-1871198D01*
G01X1255014Y-1821401D01*
G01X1255237Y-1819115D01*
G01X1280792Y-1819115D01*
G01X1291860Y-1817362D01*
G01X1301843Y-1812275D01*
G01X1309767Y-1804352D01*
G01X1314854Y-1794368D01*
G01X1316606Y-1783301D01*
G01X1316606Y-1698203D01*
G01X1317914Y-1689217D01*
G01X1321727Y-1680976D01*
G01X1324994Y-1677709D01*
G01X1324994Y-1783301D01*
G01X1326746Y-1794368D01*
G01X1331833Y-1804352D01*
G01X1339757Y-1812275D01*
G01X1349740Y-1817362D01*
G01X1360808Y-1819115D01*
G01X1496674Y-1819115D01*
G01X1447425Y-1868363D01*
G01X1439184Y-1872176D01*
G01X1430199Y-1873484D01*
G01X1390100Y-1873484D01*
G01X1379033Y-1875237D01*
G01X1369049Y-1880324D01*
G01X1361126Y-1888247D01*
G01X1356039Y-1898231D01*
G01X1354286Y-1909298D01*
G01X1354286Y-1989298D01*
G01X1356231Y-2000938D01*
G01X1361853Y-2011314D01*
G01X1370543Y-2019300D01*
G01X1361853Y-2027286D01*
G01X1356231Y-2037662D01*
G01X1354286Y-2049302D01*
G01X1354286Y-2129302D01*
G01X1356039Y-2140369D01*
G01X1361126Y-2150353D01*
G01X1369049Y-2158276D01*
G01X1379033Y-2163363D01*
G01X1390100Y-2165116D01*
G01X1480100Y-2165116D01*
G01X1491167Y-2163363D01*
G01X1501151Y-2158276D01*
G01X1509074Y-2150353D01*
G01X1514161Y-2140369D01*
G01X1515914Y-2129302D01*
G01X1515914Y-2055104D01*
G01X2389985Y-2055104D01*
G01X2391738Y-2066171D01*
G01X2396825Y-2076155D01*
G01X2404748Y-2084078D01*
G01X2414732Y-2089165D01*
G01X2425799Y-2090918D01*
G01X2585799Y-2090918D01*
G01X2596866Y-2089165D01*
G01X2606850Y-2084078D01*
G01X2614773Y-2076155D01*
G01X2619860Y-2066171D01*
G01X2621613Y-2055104D01*
G01X2621613Y-1895104D01*
G01X2619860Y-1884037D01*
G01X2614773Y-1874053D01*
G01X2606850Y-1866130D01*
G01X2596866Y-1861043D01*
G01X2585799Y-1859290D01*
G01X2425799Y-1859290D01*
G01X2425799Y-1859290D01*
G01X2414732Y-1861043D01*
G01X2404748Y-1866130D01*
G01X2396825Y-1874053D01*
G01X2391738Y-1884037D01*
G01X2389985Y-1895104D01*
G01X2389985Y-2055104D01*
G01X1515914Y-2055104D01*
G01X1515914Y-2049302D01*
G01X1513969Y-2037662D01*
G01X1508347Y-2027286D01*
G01X1499657Y-2019300D01*
G01X1508347Y-2011314D01*
G01X1513969Y-2000938D01*
G01X1515914Y-1989298D01*
G01X1515914Y-1949199D01*
G01X1517221Y-1940213D01*
G01X1521034Y-1931972D01*
G01X1583705Y-1869302D01*
G01X1591414Y-1859255D01*
G01X1596261Y-1847554D01*
G01X1597914Y-1834998D01*
G01X1597914Y-1651000D01*
G01X1596261Y-1638444D01*
G01X1591414Y-1626743D01*
G01X1583705Y-1616695D01*
G01X1541742Y-1574733D01*
G01X1537928Y-1566492D01*
G01X1536621Y-1557506D01*
G01X1536621Y-1501196D01*
G01X1551107Y-1498371D01*
G01X1564609Y-1492412D01*
G01X1576459Y-1483614D01*
G01X1601126Y-1483614D01*
G01X1601126Y-1567200D01*
G01X1602879Y-1578267D01*
G01X1607966Y-1588251D01*
G01X1615889Y-1596174D01*
G01X1625873Y-1601261D01*
G01X1636940Y-1603014D01*
G01X1717587Y-1603014D01*
G01X1727201Y-1601700D01*
G01X1736109Y-1597853D01*
G01X1743658Y-1591756D01*
G01X1749293Y-1583856D01*
G01X1752600Y-1574734D01*
G01X1755907Y-1583856D01*
G01X1761542Y-1591756D01*
G01X1769091Y-1597853D01*
G01X1777999Y-1601700D01*
G01X1787613Y-1603014D01*
G01X1868260Y-1603014D01*
G01X1878246Y-1601594D01*
G01X1887440Y-1597446D01*
G01X1895112Y-1590899D01*
G01X1900655Y-1582472D01*
G01X1903628Y-1572834D01*
G01X1906360Y-1572514D01*
G01X1914595Y-1572514D01*
G01X1911158Y-1581003D01*
G01X1909987Y-1590087D01*
G01X1909987Y-1640363D01*
G01X1907701Y-1640586D01*
G01X1906360Y-1640586D01*
G01X1903628Y-1640266D01*
G01X1900655Y-1630628D01*
G01X1895112Y-1622201D01*
G01X1887440Y-1615654D01*
G01X1878246Y-1611506D01*
G01X1868260Y-1610086D01*
G01X1787613Y-1610086D01*
G01X1777999Y-1611400D01*
G01X1769091Y-1615247D01*
G01X1761542Y-1621344D01*
G01X1755907Y-1629244D01*
G01X1752600Y-1638366D01*
G01X1749293Y-1629244D01*
G01X1743658Y-1621344D01*
G01X1736109Y-1615247D01*
G01X1727201Y-1611400D01*
G01X1717587Y-1610086D01*
G01X1636940Y-1610086D01*
G01X1625873Y-1611839D01*
G01X1615889Y-1616926D01*
G01X1607966Y-1624849D01*
G01X1602879Y-1634833D01*
G01X1601126Y-1645900D01*
G01X1601126Y-1732300D01*
G01X1602879Y-1743367D01*
G01X1607966Y-1753351D01*
G01X1615889Y-1761274D01*
G01X1625873Y-1766361D01*
G01X1636940Y-1768114D01*
G01X1717587Y-1768114D01*
G01X1727201Y-1766800D01*
G01X1736109Y-1762953D01*
G01X1743658Y-1756856D01*
G01X1749293Y-1748956D01*
G01X1752600Y-1739834D01*
G01X1755907Y-1748956D01*
G01X1761542Y-1756856D01*
G01X1769091Y-1762953D01*
G01X1777999Y-1766800D01*
G01X1787613Y-1768114D01*
G01X1868260Y-1768114D01*
G01X1878246Y-1766694D01*
G01X1887440Y-1762546D01*
G01X1895112Y-1755999D01*
G01X1900655Y-1747572D01*
G01X1903628Y-1737934D01*
G01X1906360Y-1737614D01*
G01X1907701Y-1737614D01*
G01X1909987Y-1737837D01*
G01X1909987Y-1780087D01*
G01X1911740Y-1791154D01*
G01X1916827Y-1801138D01*
G01X1924750Y-1809061D01*
G01X1934734Y-1814148D01*
G01X1945801Y-1815901D01*
G01X2135801Y-1815901D01*
G01X2146868Y-1814148D01*
G01X2156852Y-1809061D01*
G01X2164775Y-1801138D01*
G01X2169862Y-1791154D01*
G01X2171615Y-1780087D01*
G01X2171615Y-1685112D01*
G01X2317486Y-1685112D01*
G01X2319416Y-1703474D01*
G01X2325121Y-1721032D01*
G01X2334352Y-1737021D01*
G01X2346706Y-1750742D01*
G01X2361642Y-1761594D01*
G01X2378509Y-1769103D01*
G01X2396568Y-1772942D01*
G01X2415030Y-1772942D01*
G01X2433089Y-1769103D01*
G01X2449956Y-1761594D01*
G01X2464892Y-1750742D01*
G01X2477246Y-1737021D01*
G01X2486477Y-1721032D01*
G01X2492183Y-1703474D01*
G01X2494112Y-1685112D01*
G01X2492183Y-1666751D01*
G01X2486477Y-1649192D01*
G01X2477246Y-1633203D01*
G01X2464892Y-1619483D01*
G01X2449956Y-1608631D01*
G01X2433089Y-1601121D01*
G01X2415030Y-1597283D01*
G01X2396568Y-1597283D01*
G01X2378509Y-1601121D01*
G01X2361642Y-1608631D01*
G01X2346706Y-1619483D01*
G01X2334352Y-1633203D01*
G01X2325121Y-1649192D01*
G01X2319416Y-1666751D01*
G01X2317486Y-1685112D01*
G01X2317486Y-1685112D01*
G01X2171615Y-1685112D01*
G01X2171615Y-1673760D01*
G01X2175640Y-1666112D01*
G01X2181099Y-1659411D01*
G01X2233605Y-1606904D01*
G01X2241315Y-1596856D01*
G01X2246162Y-1585155D01*
G01X2247815Y-1572599D01*
G01X2247815Y-1185113D01*
G01X2317486Y-1185113D01*
G01X2319416Y-1203475D01*
G01X2325121Y-1221033D01*
G01X2334352Y-1237022D01*
G01X2346706Y-1250743D01*
G01X2361642Y-1261595D01*
G01X2378509Y-1269104D01*
G01X2396568Y-1272943D01*
G01X2415030Y-1272943D01*
G01X2433089Y-1269104D01*
G01X2449956Y-1261595D01*
G01X2464892Y-1250743D01*
G01X2477246Y-1237022D01*
G01X2486477Y-1221033D01*
G01X2492183Y-1203475D01*
G01X2494112Y-1185113D01*
G01X2492183Y-1166752D01*
G01X2486477Y-1149193D01*
G01X2477246Y-1133204D01*
G01X2464892Y-1119484D01*
G01X2449956Y-1108632D01*
G01X2433089Y-1101122D01*
G01X2415030Y-1097284D01*
G01X2396568Y-1097284D01*
G01X2378509Y-1101122D01*
G01X2361642Y-1108632D01*
G01X2346706Y-1119484D01*
G01X2334352Y-1133204D01*
G01X2325121Y-1149193D01*
G01X2319416Y-1166752D01*
G01X2317486Y-1185113D01*
G01X2317486Y-1185113D01*
G01X2247815Y-1185113D01*
G01X2247815Y-1063811D01*
G01X2246162Y-1051255D01*
G01X2241315Y-1039554D01*
G01X2233605Y-1029506D01*
G01X2179614Y-975515D01*
G01X2179614Y-854598D01*
G01X2219115Y-815096D01*
G01X2389985Y-815096D01*
G01X2389985Y-975096D01*
G01X2391738Y-986163D01*
G01X2396825Y-996147D01*
G01X2404748Y-1004070D01*
G01X2414732Y-1009157D01*
G01X2425799Y-1010910D01*
G01X2585799Y-1010910D01*
G01X2596866Y-1009157D01*
G01X2606850Y-1004070D01*
G01X2614773Y-996147D01*
G01X2619860Y-986163D01*
G01X2621613Y-975096D01*
G01X2621613Y-815096D01*
G01X2619860Y-804029D01*
G01X2614773Y-794045D01*
G01X2606850Y-786122D01*
G01X2596866Y-781035D01*
G01X2585799Y-779282D01*
G01X2425799Y-779282D01*
G01X2425799Y-779282D01*
G01X2414732Y-781035D01*
G01X2404748Y-786122D01*
G01X2396825Y-794045D01*
G01X2391738Y-804029D01*
G01X2389985Y-815096D01*
G01X2219115Y-815096D01*
G01X2286375Y-747837D01*
G01X2294616Y-744024D01*
G01X2303601Y-742716D01*
G01X2343700Y-742716D01*
G01X2354767Y-740963D01*
G01X2364751Y-735876D01*
G01X2372674Y-727953D01*
G01X2377761Y-717969D01*
G01X2379514Y-706902D01*
G01X2379514Y-626902D01*
G01X2377569Y-615262D01*
G01X2371947Y-604886D01*
G01X2363257Y-596900D01*
G01X2371947Y-588914D01*
G01X2377569Y-578538D01*
G01X2379514Y-566898D01*
G01X2379514Y-486898D01*
G01X2377761Y-475831D01*
G01X2372674Y-465847D01*
G01X2364751Y-457924D01*
G01X2354767Y-452837D01*
G01X2343700Y-451084D01*
G01X2253700Y-451084D01*
G01X2242633Y-452837D01*
G01X2232649Y-457924D01*
G01X2224726Y-465847D01*
G01X2219639Y-475831D01*
G01X2217886Y-486898D01*
G01X2217886Y-566898D01*
G01X2219831Y-578538D01*
G01X2225453Y-588914D01*
G01X2234143Y-596900D01*
G01X2225453Y-604886D01*
G01X2219831Y-615262D01*
G01X2217886Y-626902D01*
G01X2217886Y-667001D01*
G01X2216579Y-675987D01*
G01X2212766Y-684228D01*
G01X2170444Y-726550D01*
G01X2174815Y-717155D01*
G01X2176314Y-706902D01*
G01X2176314Y-626902D01*
G01X2174369Y-615262D01*
G01X2168747Y-604886D01*
G01X2160057Y-596900D01*
G01X2168747Y-588914D01*
G01X2174369Y-578538D01*
G01X2176314Y-566898D01*
G01X2176314Y-486898D01*
G01X2174561Y-475831D01*
G01X2169474Y-465847D01*
G01X2161551Y-457924D01*
G01X2151567Y-452837D01*
G01X2140500Y-451084D01*
G01X2050500Y-451084D01*
G01X2039433Y-452837D01*
G01X2029449Y-457924D01*
G01X2021526Y-465847D01*
G01X2016439Y-475831D01*
G01X2014686Y-486898D01*
G01X2014686Y-566898D01*
G01X2016631Y-578538D01*
G01X2022253Y-588914D01*
G01X2030943Y-596900D01*
G01X2022253Y-604886D01*
G01X2016631Y-615262D01*
G01X2014686Y-626902D01*
G01X2014686Y-706902D01*
G01X2016185Y-717155D01*
G01X2020556Y-726550D01*
G01X1978234Y-684228D01*
G01X1974421Y-675987D01*
G01X1973114Y-667001D01*
G01X1973114Y-626902D01*
G01X1971169Y-615262D01*
G01X1965547Y-604886D01*
G01X1956857Y-596900D01*
G01X1965547Y-588914D01*
G01X1971169Y-578538D01*
G01X1973114Y-566898D01*
G01X1973114Y-486898D01*
G01X1971361Y-475831D01*
G01X1966274Y-465847D01*
G01X1958351Y-457924D01*
G01X1948367Y-452837D01*
G01X1937300Y-451084D01*
G01X1847300Y-451084D01*
G01X1836233Y-452837D01*
G01X1826249Y-457924D01*
G01X1818326Y-465847D01*
G01X1813239Y-475831D01*
G01X1811486Y-486898D01*
G01X1811486Y-566898D01*
G01X1813431Y-578538D01*
G01X1819053Y-588914D01*
G01X1827743Y-596900D01*
G01X1819053Y-604886D01*
G01X1813431Y-615262D01*
G01X1811486Y-626902D01*
G01X1811486Y-706902D01*
G01X1813239Y-717969D01*
G01X1818326Y-727953D01*
G01X1826249Y-735876D01*
G01X1836233Y-740963D01*
G01X1847300Y-742716D01*
G01X1887399Y-742716D01*
G01X1896384Y-744024D01*
G01X1904625Y-747837D01*
G01X2011386Y-854598D01*
G01X2011386Y-1052013D01*
G01X2011163Y-1054299D01*
G01X1945801Y-1054299D01*
G01X1934734Y-1056052D01*
G01X1924750Y-1061139D01*
G01X1916827Y-1069062D01*
G01X1911740Y-1079046D01*
G01X1909987Y-1090113D01*
G01X1909987Y-1235212D01*
G01X1908680Y-1244197D01*
G01X1904867Y-1252438D01*
G01X1881874Y-1275432D01*
G01X1876485Y-1278931D01*
G01X1870139Y-1279935D01*
G01X1868260Y-1279886D01*
G01X1787613Y-1279886D01*
G01X1777999Y-1281200D01*
G01X1769091Y-1285047D01*
G01X1761542Y-1291144D01*
G01X1755907Y-1299044D01*
G01X1752600Y-1308166D01*
G01X1749293Y-1299044D01*
G01X1743658Y-1291144D01*
G01X1736109Y-1285047D01*
G01X1727201Y-1281200D01*
G01X1717587Y-1279886D01*
G01X1636940Y-1279886D01*
G01X1625873Y-1281639D01*
G01X1615889Y-1286726D01*
G01X1607966Y-1294649D01*
G01X1602879Y-1304633D01*
G01X1601126Y-1315700D01*
G01X1601126Y-1386586D01*
G01X1576459Y-1386586D01*
G01X1564448Y-1377695D01*
G01X1550751Y-1371718D01*
G01X1536064Y-1368961D01*
G01X1521132Y-1369562D01*
G01X1506714Y-1373492D01*
G01X1506714Y-1265880D01*
G01X1504776Y-1250972D01*
G01X1499091Y-1237055D01*
G01X1490038Y-1225053D01*
G01X1478217Y-1215765D01*
G01X1464414Y-1209808D01*
G01X1449547Y-1207577D01*
G01X1434603Y-1209221D01*
G01X1420577Y-1214631D01*
G01X1408400Y-1223447D01*
G01X1396558Y-1214814D01*
G01X1382938Y-1209407D01*
G01X1368400Y-1207566D01*
G01X1353862Y-1209407D01*
G01X1340242Y-1214814D01*
G01X1328400Y-1223447D01*
G01X1316558Y-1214814D01*
G01X1302938Y-1209407D01*
G01X1288400Y-1207566D01*
G01X1273862Y-1209407D01*
G01X1260242Y-1214814D01*
G01X1248400Y-1223447D01*
G01X1236558Y-1214814D01*
G01X1222938Y-1209407D01*
G01X1208400Y-1207566D01*
G01X1193862Y-1209407D01*
G01X1180242Y-1214814D01*
G01X1168400Y-1223447D01*
G01X1156558Y-1214814D01*
G01X1142938Y-1209407D01*
G01X1128400Y-1207566D01*
G01X1113862Y-1209407D01*
G01X1100242Y-1214814D01*
G01X1088400Y-1223447D01*
G01X1076558Y-1214814D01*
G01X1062938Y-1209407D01*
G01X1048400Y-1207566D01*
G01X1033862Y-1209407D01*
G01X1020242Y-1214814D01*
G01X1008400Y-1223447D01*
G01X996558Y-1214814D01*
G01X982938Y-1209407D01*
G01X968400Y-1207566D01*
G01X953862Y-1209407D01*
G01X940242Y-1214814D01*
G01X928400Y-1223447D01*
G01X916223Y-1214631D01*
G01X902197Y-1209221D01*
G01X887253Y-1207577D01*
G01X872386Y-1209808D01*
G01X858583Y-1215765D01*
G01X846762Y-1225053D01*
G01X837709Y-1237055D01*
G01X832024Y-1250972D01*
G01X830086Y-1265880D01*
G01X729252Y-1265880D01*
G01X724345Y-1263047D01*
G01X706289Y-1257180D01*
G01X687408Y-1255196D01*
G01X607408Y-1255196D01*
G01X589238Y-1257032D01*
G01X571802Y-1262467D01*
G01X555806Y-1271280D01*
G01X541898Y-1283116D01*
G01X530638Y-1297495D01*
G01X384168Y-1297495D01*
G01X372909Y-1283116D01*
G01X359000Y-1271280D01*
G01X343004Y-1262467D01*
G01X325569Y-1257032D01*
G01X307398Y-1255196D01*
G01X227399Y-1255196D01*
G01X208517Y-1257180D01*
G01X190461Y-1263047D01*
G01X174020Y-1272540D01*
G01X159911Y-1285243D01*
G01X148751Y-1300603D01*
G01X141029Y-1317946D01*
G01X137082Y-1336517D01*
G01X47417Y-1336517D01*
G01X47417Y-1222511D01*
G01X114007Y-1222511D01*
G01X125074Y-1220758D01*
G01X135058Y-1215671D01*
G01X142981Y-1207748D01*
G01X148068Y-1197764D01*
G01X149821Y-1186697D01*
G01X149821Y-1016697D01*
G01X358179Y-1016697D01*
G01X358179Y-1186697D01*
G01X359932Y-1197764D01*
G01X365019Y-1207748D01*
G01X372942Y-1215671D01*
G01X382926Y-1220758D01*
G01X393993Y-1222511D01*
G01X463993Y-1222511D01*
G01X463993Y-1222511D01*
G01X475060Y-1220758D01*
G01X485044Y-1215671D01*
G01X492967Y-1207748D01*
G01X498054Y-1197764D01*
G01X499807Y-1186697D01*
G01X499807Y-1016697D01*
G01X498054Y-1005630D01*
G01X492967Y-995646D01*
G01X485044Y-987723D01*
G01X475060Y-982636D01*
G01X463993Y-980883D01*
G01X393993Y-980883D01*
G01X382926Y-982636D01*
G01X372942Y-987723D01*
G01X365019Y-995646D01*
G01X359932Y-1005630D01*
G01X358179Y-1016697D01*
G01X149821Y-1016697D01*
G01X148068Y-1005630D01*
G01X142981Y-995646D01*
G01X135058Y-987723D01*
G01X125074Y-982636D01*
G01X114007Y-980883D01*
G01X47417Y-980883D01*
G01X47417Y-231235D01*
G01X52984Y-255975D01*
G01X62371Y-279532D01*
G01X75344Y-301321D01*
G01X91582Y-320799D01*
G01X110679Y-337483D01*
G01X132161Y-350957D01*
G01X155495Y-360887D01*
G01X180099Y-367025D01*
G01X205363Y-369220D01*
G01X230657Y-367416D01*
G01X255353Y-361658D01*
G01X278837Y-352089D01*
G01X300525Y-338948D01*
G01X319877Y-322561D01*
G01X336413Y-303335D01*
G01X349721Y-281750D01*
G01X359471Y-258340D01*
G01X365419Y-233689D01*
G01X367419Y-208410D01*
G01X365419Y-183130D01*
G01X359471Y-158479D01*
G01X349721Y-135070D01*
G01X336413Y-113484D01*
G01X319877Y-94258D01*
G01X300525Y-77871D01*
G01X278837Y-64730D01*
G01X255353Y-55162D01*
G01X230657Y-49404D01*
G01X205363Y-47599D01*
G01X180099Y-49794D01*
G01X155495Y-55932D01*
G01X132161Y-65862D01*
G01X110679Y-79336D01*
G01X91582Y-96020D01*
G01X75344Y-115498D01*
G01X62371Y-137287D01*
G01X52984Y-160844D01*
G01X47417Y-185584D01*
G01X47417Y-44249D01*
G01X827441Y-44249D01*
G01X823445Y-58902D01*
G01X822888Y-74079D01*
G01X825798Y-88985D01*
G01X832024Y-102838D01*
G01X841238Y-114911D01*
G01X852957Y-124571D01*
G01X866567Y-131312D01*
G01X864965Y-145699D01*
G01X865026Y-160175D01*
G01X868358Y-182092D01*
G01X875483Y-203084D01*
G01X886180Y-222500D01*
G01X900118Y-239739D01*
G01X916864Y-254264D01*
G01X935899Y-265627D01*
G01X956632Y-273473D01*
G01X978421Y-277560D01*
G01X1000588Y-277761D01*
G01X1022447Y-274070D01*
G01X1043319Y-266601D01*
G01X1062557Y-255586D01*
G01X1079564Y-241366D01*
G01X1092987Y-225490D01*
G01X1103613Y-207621D01*
G01X1111153Y-188246D01*
G01X1115401Y-167894D01*
G01X1116240Y-147120D01*
G01X1113648Y-126492D01*
G01X1107696Y-106572D01*
G01X1098545Y-87904D01*
G01X1086446Y-70996D01*
G01X1071729Y-56311D01*
G01X1054796Y-44249D01*
G01X1180319Y-44249D01*
G01X1162596Y-56985D01*
G01X1147340Y-72593D01*
G01X1135011Y-90602D01*
G01X1125979Y-110471D01*
G01X1120518Y-131601D01*
G01X1118790Y-153358D01*
G01X1120848Y-175086D01*
G01X1126630Y-196131D01*
G01X1135962Y-215860D01*
G01X1148563Y-233680D01*
G01X1164054Y-249054D01*
G01X1181969Y-261519D01*
G01X1201769Y-270701D01*
G01X1222857Y-276323D01*
G01X1244600Y-278216D01*
G01X1266343Y-276323D01*
G01X1287431Y-270701D01*
G01X1307231Y-261519D01*
G01X1325146Y-249054D01*
G01X1340637Y-233680D01*
G01X1353238Y-215860D01*
G01X1362570Y-196131D01*
G01X1368352Y-175086D01*
G01X1370410Y-153358D01*
G01X1368682Y-131601D01*
G01X1363221Y-110471D01*
G01X1354189Y-90602D01*
G01X1341860Y-72593D01*
G01X1326604Y-56985D01*
G01X1308881Y-44249D01*
G01X1434319Y-44249D01*
G01X1416268Y-57268D01*
G01X1400793Y-73264D01*
G01X1388379Y-91737D01*
G01X1379413Y-112107D01*
G01X1374178Y-133739D01*
G01X1372836Y-155955D01*
G01X1375430Y-178060D01*
G01X1381878Y-199362D01*
G01X1391979Y-219194D01*
G01X1405416Y-236936D01*
G01X1421770Y-252033D01*
G01X1440527Y-264012D01*
G01X1461102Y-272498D01*
G01X1482851Y-277227D01*
G01X1505092Y-278049D01*
G01X1527130Y-274939D01*
G01X1558659Y-306468D01*
G01X1559158Y-308191D01*
G01X1559561Y-310837D01*
G01X1562452Y-325046D01*
G01X1568362Y-338286D01*
G01X1540998Y-338286D01*
G01X1529931Y-340039D01*
G01X1519947Y-345126D01*
G01X1512024Y-353049D01*
G01X1506937Y-363033D01*
G01X1505184Y-374100D01*
G01X1505184Y-378848D01*
G01X1499805Y-364586D01*
G01X1490913Y-352206D01*
G01X1479117Y-342552D01*
G01X1465223Y-336285D01*
G01X1450179Y-333833D01*
G01X1435013Y-335363D01*
G01X1420762Y-340771D01*
G01X1408400Y-349687D01*
G01X1396558Y-341054D01*
G01X1382938Y-335647D01*
G01X1368400Y-333806D01*
G01X1353862Y-335647D01*
G01X1340242Y-341054D01*
G01X1328400Y-349687D01*
G01X1316558Y-341054D01*
G01X1302938Y-335647D01*
G01X1288400Y-333806D01*
G01X1273862Y-335647D01*
G01X1260242Y-341054D01*
G01X1248400Y-349687D01*
G01X1236558Y-341054D01*
G01X1222938Y-335647D01*
G01X1208400Y-333806D01*
G01X1193862Y-335647D01*
G01X1180242Y-341054D01*
G01X1168400Y-349687D01*
G01X1156558Y-341054D01*
G01X1142938Y-335647D01*
G01X1128400Y-333806D01*
G01X1113862Y-335647D01*
G01X1100242Y-341054D01*
G01X1088400Y-349687D01*
G01X1076558Y-341054D01*
G01X1062938Y-335647D01*
G01X1048400Y-333806D01*
G01X1033862Y-335647D01*
G01X1020242Y-341054D01*
G01X1008400Y-349687D01*
G01X996558Y-341054D01*
G01X982938Y-335647D01*
G01X968400Y-333806D01*
G01X953862Y-335647D01*
G01X940242Y-341054D01*
G01X928400Y-349687D01*
G01X916223Y-340871D01*
G01X902197Y-335461D01*
G01X887253Y-333817D01*
G01X872386Y-336048D01*
G01X858583Y-342005D01*
G01X846762Y-351293D01*
G01X837709Y-363295D01*
G01X832024Y-377212D01*
G01X830086Y-392120D01*
G01X830086Y-456474D01*
G01X776714Y-403101D01*
G01X776714Y-357900D01*
G01X774961Y-346833D01*
G01X769874Y-336849D01*
G01X761951Y-328926D01*
G01X751967Y-323839D01*
G01X740900Y-322086D01*
G01X709798Y-322086D01*
G01X714488Y-307960D01*
G01X715910Y-293144D01*
G01X713991Y-278384D01*
G01X708829Y-264424D01*
G01X700683Y-251967D01*
G01X689964Y-241640D01*
G01X677212Y-233965D01*
G01X663069Y-229326D01*
G01X666088Y-221302D01*
G01X667114Y-212791D01*
G01X667114Y-163891D01*
G01X665362Y-152824D01*
G01X660275Y-142840D01*
G01X652351Y-134917D01*
G01X642368Y-129830D01*
G01X631300Y-128077D01*
G01X587900Y-128077D01*
G01X577880Y-129507D01*
G01X568661Y-133683D01*
G01X560978Y-140271D01*
G01X555446Y-148746D01*
G01X548892Y-160103D01*
G01X540476Y-170158D01*
G01X393698Y-316936D01*
G01X385988Y-326984D01*
G01X381142Y-338684D01*
G01X379489Y-351241D01*
G01X379489Y-465300D01*
G01X378165Y-471415D01*
G01X374432Y-476436D01*
G01X367818Y-484125D01*
G01X363625Y-493360D01*
G01X362189Y-503400D01*
G01X362189Y-563400D01*
G01X363354Y-572461D01*
G01X366774Y-580933D01*
G01X372226Y-588263D01*
G01X364673Y-596137D01*
G01X359841Y-605920D01*
G01X358179Y-616703D01*
G01X358179Y-786703D01*
G01X359932Y-797770D01*
G01X365019Y-807754D01*
G01X372942Y-815677D01*
G01X382926Y-820764D01*
G01X393993Y-822517D01*
G01X463993Y-822517D01*
G01X475060Y-820764D01*
G01X485044Y-815677D01*
G01X492967Y-807754D01*
G01X498054Y-797770D01*
G01X499807Y-786703D01*
G01X499807Y-616703D01*
G01X498524Y-607201D01*
G01X494765Y-598380D01*
G01X509315Y-599701D01*
G01X523800Y-597804D01*
G01X537519Y-592782D01*
G01X547265Y-597568D01*
G01X557997Y-599214D01*
G01X612763Y-599214D01*
G01X612049Y-612643D01*
G01X614431Y-625879D01*
G01X619782Y-638216D01*
G01X627817Y-649000D01*
G01X619184Y-660842D01*
G01X613777Y-674462D01*
G01X611936Y-689000D01*
G01X613777Y-703538D01*
G01X619184Y-717158D01*
G01X627817Y-729000D01*
G01X619184Y-740842D01*
G01X613777Y-754462D01*
G01X611936Y-769000D01*
G01X613777Y-783538D01*
G01X619184Y-797158D01*
G01X627817Y-809000D01*
G01X618875Y-821410D01*
G01X613468Y-835718D01*
G01X611968Y-850940D01*
G01X614477Y-866029D01*
G01X603986Y-877620D01*
G01X596500Y-891346D01*
G01X592436Y-906443D01*
G01X592019Y-922072D01*
G01X595273Y-937365D01*
G01X602016Y-951470D01*
G01X611875Y-963605D01*
G01X624301Y-973094D01*
G01X617166Y-984861D01*
G01X612988Y-997972D01*
G01X611998Y-1011698D01*
G01X614252Y-1025273D01*
G01X619625Y-1037942D01*
G01X627817Y-1049000D01*
G01X619184Y-1060842D01*
G01X613777Y-1074462D01*
G01X611936Y-1089000D01*
G01X613777Y-1103538D01*
G01X619184Y-1117158D01*
G01X627817Y-1129000D01*
G01X619001Y-1141177D01*
G01X613591Y-1155203D01*
G01X611947Y-1170147D01*
G01X614178Y-1185014D01*
G01X620135Y-1198817D01*
G01X629423Y-1210638D01*
G01X641425Y-1219691D01*
G01X655342Y-1225376D01*
G01X670250Y-1227314D01*
G01X790250Y-1227314D01*
G01X805158Y-1225376D01*
G01X819075Y-1219691D01*
G01X831077Y-1210638D01*
G01X840365Y-1198817D01*
G01X846322Y-1185014D01*
G01X848553Y-1170147D01*
G01X846909Y-1155203D01*
G01X841499Y-1141177D01*
G01X832683Y-1129000D01*
G01X841316Y-1117158D01*
G01X846723Y-1103538D01*
G01X848564Y-1089000D01*
G01X846723Y-1074462D01*
G01X841316Y-1060842D01*
G01X832683Y-1049000D01*
G01X841316Y-1037158D01*
G01X846723Y-1023538D01*
G01X848564Y-1009000D01*
G01X846723Y-994462D01*
G01X841316Y-980842D01*
G01X832683Y-969000D01*
G01X841316Y-957158D01*
G01X846723Y-943538D01*
G01X848564Y-929000D01*
G01X846723Y-914462D01*
G01X841316Y-900842D01*
G01X832683Y-889000D01*
G01X841316Y-877158D01*
G01X846723Y-863538D01*
G01X848564Y-849000D01*
G01X846723Y-834462D01*
G01X841316Y-820842D01*
G01X832683Y-809000D01*
G01X841316Y-797158D01*
G01X846723Y-783538D01*
G01X848564Y-769000D01*
G01X846723Y-754462D01*
G01X841316Y-740842D01*
G01X832683Y-729000D01*
G01X841316Y-717158D01*
G01X846723Y-703538D01*
G01X848564Y-689000D01*
G01X846723Y-674462D01*
G01X841316Y-660842D01*
G01X832683Y-649000D01*
G01X841608Y-636621D01*
G01X847016Y-622350D01*
G01X848536Y-607164D01*
G01X857834Y-610057D01*
G01X867524Y-611035D01*
G01X1152025Y-611035D01*
G01X1173416Y-632425D01*
G01X1183463Y-640135D01*
G01X1195164Y-644981D01*
G01X1207720Y-646634D01*
G01X1439175Y-646634D01*
G01X1447635Y-655095D01*
G01X1447635Y-1153249D01*
G01X1449288Y-1165806D01*
G01X1454135Y-1177506D01*
G01X1461845Y-1187554D01*
G01X1477595Y-1203304D01*
G01X1487089Y-1210689D01*
G01X1498108Y-1215512D01*
G01X1509975Y-1217475D01*
G01X1511769Y-1217621D01*
G01X1512341Y-1217746D01*
G01X1517494Y-1219560D01*
G01X1531514Y-1225342D01*
G01X1546550Y-1227314D01*
G01X1666550Y-1227314D01*
G01X1681458Y-1225376D01*
G01X1695375Y-1219691D01*
G01X1707377Y-1210638D01*
G01X1716665Y-1198817D01*
G01X1722622Y-1185014D01*
G01X1724853Y-1170147D01*
G01X1723209Y-1155203D01*
G01X1717799Y-1141177D01*
G01X1708983Y-1129000D01*
G01X1717616Y-1117158D01*
G01X1723023Y-1103538D01*
G01X1724864Y-1089000D01*
G01X1723023Y-1074462D01*
G01X1717616Y-1060842D01*
G01X1708983Y-1049000D01*
G01X1717616Y-1037158D01*
G01X1723023Y-1023538D01*
G01X1724864Y-1009000D01*
G01X1723023Y-994462D01*
G01X1717616Y-980842D01*
G01X1708983Y-969000D01*
G01X1717616Y-957158D01*
G01X1723023Y-943538D01*
G01X1724864Y-929000D01*
G01X1723023Y-914462D01*
G01X1717616Y-900842D01*
G01X1708983Y-889000D01*
G01X1717616Y-877158D01*
G01X1723023Y-863538D01*
G01X1724864Y-849000D01*
G01X1723023Y-834462D01*
G01X1717616Y-820842D01*
G01X1708983Y-809000D01*
G01X1717616Y-797158D01*
G01X1723023Y-783538D01*
G01X1724864Y-769000D01*
G01X1723023Y-754462D01*
G01X1717616Y-740842D01*
G01X1708983Y-729000D01*
G01X1717616Y-717158D01*
G01X1723023Y-703538D01*
G01X1724864Y-689000D01*
G01X1723023Y-674462D01*
G01X1717616Y-660842D01*
G01X1708983Y-649000D01*
G01X1717799Y-636823D01*
G01X1723209Y-622797D01*
G01X1724853Y-607853D01*
G01X1722622Y-592986D01*
G01X1716665Y-579183D01*
G01X1707377Y-567362D01*
G01X1695375Y-558309D01*
G01X1681458Y-552624D01*
G01X1666550Y-550686D01*
G01X1575323Y-550686D01*
G01X1615302Y-510707D01*
G01X1623481Y-499828D01*
G01X1634192Y-497395D01*
G01X1643662Y-491830D01*
G01X1651000Y-483657D01*
G01X1658986Y-492347D01*
G01X1669362Y-497969D01*
G01X1681002Y-499914D01*
G01X1761002Y-499914D01*
G01X1772069Y-498161D01*
G01X1782053Y-493074D01*
G01X1789976Y-485151D01*
G01X1795063Y-475167D01*
G01X1796816Y-464100D01*
G01X1796816Y-374100D01*
G01X1795063Y-363033D01*
G01X1789976Y-353049D01*
G01X1782053Y-345126D01*
G01X1772069Y-340039D01*
G01X1761002Y-338286D01*
G01X1682838Y-338286D01*
G01X1688569Y-325597D01*
G01X1691523Y-311990D01*
G01X1691571Y-298067D01*
G01X1688711Y-284440D01*
G01X1690771Y-282716D01*
G01X1703763Y-281706D01*
G01X1760585Y-277963D01*
G01X1780348Y-275118D01*
G01X1799412Y-269183D01*
G01X1817297Y-260307D01*
G01X1833552Y-248714D01*
G01X1847769Y-234695D01*
G01X1859589Y-218603D01*
G01X1868714Y-200844D01*
G01X1874915Y-181865D01*
G01X1878036Y-162144D01*
G01X1877998Y-142178D01*
G01X1874801Y-122469D01*
G01X1868527Y-103514D01*
G01X1859333Y-85791D01*
G01X1847451Y-69745D01*
G01X1833181Y-55780D01*
G01X1816881Y-44249D01*
G01X2695702Y-44249D01*
G37*
G36*
G01X653811Y-503400D02*
G01X652058Y-492333D01*
G01X646971Y-482349D01*
G01X639048Y-474426D01*
G01X629064Y-469339D01*
G01X617997Y-467586D01*
G01X557997Y-467586D01*
G01X556514Y-467617D01*
G01X556514Y-441314D01*
G01X578200Y-441314D01*
G01X586244Y-440399D01*
G01X593877Y-437700D01*
G01X600709Y-433356D01*
G01X608101Y-438978D01*
G01X616691Y-442510D01*
G01X625900Y-443714D01*
G01X660900Y-443714D01*
G01X670447Y-442418D01*
G01X679304Y-438624D01*
G01X683573Y-446098D01*
G01X689095Y-452701D01*
G01X787080Y-550686D01*
G01X670250Y-550686D01*
G01X661946Y-551280D01*
G01X653811Y-553051D01*
G01X653811Y-503400D01*
G37*
G54D10*
G01X2695702Y-44249D02*
G01X2695702Y-185024D01*
G03X2375781Y-208410I-159106J-23385D01*
G03X2695702Y-231795I160815J0D01*
G01X2695702Y-2565004D01*
G03X2375781Y-2588390I-159106J-23385D01*
G03X2695702Y-2611775I160815J0D01*
G01X2695702Y-2752651D01*
G01X1812407Y-2752651D01*
G03X1727203Y-2546186I-85205J85651D01*
G03X1641998Y-2752651I0J-120814D01*
G01X1558407Y-2752651D01*
G03X1574425Y-2601046I-85205J85651D01*
G03X1429269Y-2554457I-101223J-65954D01*
G01X1415036Y-2540224D01*
G01X1415035Y-2468675D01*
G01X1418605Y-2465105D01*
G03X1432814Y-2430800I-34305J34305D01*
G01X1432814Y-2421056D01*
G01X1433680Y-2419483D01*
G01X1435266Y-2417327D01*
G03X1433078Y-2329975I-50966J42427D01*
G03X1346200Y-2320624I-48778J-44925D01*
G03X1259322Y-2329975I-38100J-54276D01*
G03X1257134Y-2417327I48778J-44925D01*
G01X1258720Y-2419483D01*
G01X1259586Y-2421056D01*
G01X1259586Y-2430800D01*
G03X1273796Y-2465105I48514J0D01*
G01X1277367Y-2468676D01*
G01X1277368Y-2540225D01*
G01X1263136Y-2554457D01*
G03X1117980Y-2601046I-43933J-112543D01*
G03X1133998Y-2752651I101223J-65954D01*
G01X1086010Y-2752651D01*
G01X1086016Y-2752000D01*
G01X1086016Y-2582000D01*
G03X1050202Y-2546186I-35814J0D01*
G01X880203Y-2546186D01*
G03X844389Y-2582000I0J-35814D01*
G01X844389Y-2608693D01*
G03X746486Y-2667000I-31589J-58307D01*
G03X844389Y-2725307I66314J0D01*
G01X844389Y-2752000D01*
G01X844395Y-2752651D01*
G01X47417Y-2752651D01*
G01X47417Y-2611215D01*
G03X367419Y-2588390I159187J22826D01*
G03X47417Y-2565564I-160815J0D01*
G01X47417Y-1222511D01*
G01X114007Y-1222511D01*
G03X149821Y-1186697I0J35814D01*
G01X149821Y-1016697D01*
G03X114007Y-980883I-35814J0D01*
G01X47417Y-980883D01*
G01X47417Y-231235D01*
G03X367419Y-208410I159187J22826D01*
G03X47417Y-185584I-160815J0D01*
G01X47417Y-44249D01*
G01X827441Y-44249D01*
G03X866567Y-131312I61559J-24658D01*
G03X864965Y-145699I124033J-21091D01*
G03X865026Y-160175I125635J-6704D01*
G03X1079564Y-241366I125615J7882D01*
G03X1054796Y-44249I-89073J88922D01*
G01X1180319Y-44249D01*
G03X1244600Y-278216I64281J-108153D01*
G03X1308881Y-44249I0J125814D01*
G01X1434319Y-44249D01*
G03X1381878Y-199362I64281J-108153D01*
G03X1527130Y-274939I116722J46959D01*
G01X1558659Y-306468D01*
G01X1559158Y-308191D01*
G01X1559561Y-310837D01*
G03X1568362Y-338286I66039J6037D01*
G01X1540998Y-338286D01*
G03X1505184Y-374100I0J-35814D01*
G01X1505184Y-378848D01*
G03X1408400Y-349687I-56784J-13272D01*
G03X1328400Y-349687I-40000J-42433D01*
G03X1248400Y-349687I-40000J-42433D01*
G03X1168400Y-349687I-40000J-42433D01*
G03X1088400Y-349687I-40000J-42433D01*
G03X1008400Y-349687I-40000J-42433D01*
G03X928400Y-349687I-40000J-42433D01*
G03X830086Y-392120I-40000J-42433D01*
G01X830086Y-456474D01*
G01X776714Y-403101D01*
G01X776714Y-357900D01*
G03X740900Y-322086I-35814J0D01*
G01X709798Y-322086D01*
G03X708829Y-264424I-60193J27827D01*
G03X663069Y-229326I-59224J-29835D01*
G03X667114Y-212791I-31768J16535D01*
G01X667114Y-163891D01*
G03X631300Y-128077I-35814J0D01*
G01X587900Y-128077D01*
G03X555446Y-148746I0J-35814D01*
G02X540476Y-170158I-68576J32003D01*
G01X393698Y-316936D01*
G03X379489Y-351241I34305J-34305D01*
G01X379489Y-465300D01*
G02X374432Y-476436I-14790J0D01*
G03X362189Y-503400I23570J-26964D01*
G01X362189Y-563400D01*
G03X372226Y-588263I35814J0D01*
G03X358179Y-616703I21768J-28440D01*
G01X358179Y-786703D01*
G03X393993Y-822517I35814J0D01*
G01X463993Y-822517D01*
G03X499807Y-786703I0J35814D01*
G01X499807Y-616703D01*
G03X494765Y-598380I-35814J0D01*
G03X537519Y-592782I13235J64980D01*
G03X557997Y-599214I20478J29382D01*
G01X612763Y-599214D01*
G03X627817Y-649000I57488J-9787D01*
G03X627817Y-729000I42433J-40000D01*
G03X627817Y-809000I42433J-40000D01*
G03X614477Y-866029I42433J-40000D01*
G03X592019Y-922072I43578J-49985D01*
G03X624301Y-973094I66037J6059D01*
G03X627817Y-1049000I45949J-35906D01*
G03X627817Y-1129000I42433J-40000D01*
G03X670250Y-1227314I42433J-40000D01*
G01X790250Y-1227314D01*
G03X832683Y-1129000I0J58315D01*
G03X832683Y-1049000I-42433J40000D01*
G03X832683Y-969000I-42433J40000D01*
G03X832683Y-889000I-42433J40000D01*
G03X832683Y-809000I-42433J40000D01*
G03X832683Y-729000I-42433J40000D01*
G03X832683Y-649000I-42433J40000D01*
G03X848536Y-607164I-42433J40000D01*
G03X867524Y-611035I18988J44644D01*
G01X1152025Y-611035D01*
G01X1173416Y-632425D01*
G03X1207720Y-646634I34305J34305D01*
G01X1439175Y-646634D01*
G01X1447635Y-655095D01*
G01X1447635Y-1153249D01*
G03X1461845Y-1187554I48514J0D01*
G01X1477595Y-1203304D01*
G03X1509975Y-1217475I34305J34305D01*
G01X1511769Y-1217621D01*
G01X1512341Y-1217746D01*
G01X1517494Y-1219560D01*
G03X1546550Y-1227314I29056J50560D01*
G01X1666550Y-1227314D01*
G03X1708983Y-1129000I0J58315D01*
G03X1708983Y-1049000I-42433J40000D01*
G03X1708983Y-969000I-42433J40000D01*
G03X1708983Y-889000I-42433J40000D01*
G03X1708983Y-809000I-42433J40000D01*
G03X1708983Y-729000I-42433J40000D01*
G03X1708983Y-649000I-42433J40000D01*
G03X1666550Y-550686I-42433J40000D01*
G01X1575323Y-550686D01*
G01X1615302Y-510707D01*
G03X1623481Y-499828I-34305J34305D01*
G03X1651000Y-483657I-2484J35728D01*
G03X1681002Y-499914I30002J19557D01*
G01X1761002Y-499914D01*
G03X1796816Y-464100I0J35814D01*
G01X1796816Y-374100D01*
G03X1761002Y-338286I-35814J0D01*
G01X1682838Y-338286D01*
G03X1688711Y-284440I-57238J33486D01*
G03X1690771Y-282716I-30109J38041D01*
G01X1703763Y-281706D01*
G01X1760585Y-277963D01*
G03X1874915Y-181865I-7985J125560D01*
G03X1816881Y-44249I-122315J29463D01*
G01X2695702Y-44249D01*
G01X530638Y-2258504D02*
G03X607408Y-2300804I76769J48514D01*
G01X687408Y-2300804D01*
G03X687408Y-2119177I0J90814D01*
G01X607408Y-2119177D01*
G03X530638Y-2161476I0J-90814D01*
G01X384168Y-2161476D01*
G03X307398Y-2119177I-76769J-48514D01*
G01X227399Y-2119177D01*
G03X227399Y-2300804I0J-90814D01*
G01X307398Y-2300804D01*
G03X384168Y-2258504I0J90814D01*
G01X530638Y-2258504D01*
G01X530638Y-1394523D02*
G03X607408Y-1436823I76769J48514D01*
G01X687408Y-1436823D01*
G03X687408Y-1255196I0J90814D01*
G01X607408Y-1255196D01*
G03X530638Y-1297495I0J-90814D01*
G01X384168Y-1297495D01*
G03X307398Y-1255196I-76769J-48514D01*
G01X227399Y-1255196D01*
G03X227399Y-1436823I0J-90814D01*
G01X307398Y-1436823D01*
G03X384168Y-1394523I0J90814D01*
G01X530638Y-1394523D01*
G01X463993Y-1222511D02*
G03X499807Y-1186697I0J35814D01*
G01X499807Y-1016697D01*
G03X463993Y-980883I-35814J0D01*
G01X393993Y-980883D01*
G03X358179Y-1016697I0J-35814D01*
G01X358179Y-1186697D01*
G03X393993Y-1222511I35814J0D01*
G01X463993Y-1222511D01*
G01X542632Y-2671554D02*
G03X675260Y-2671554I66314J0D01*
G03X542632Y-2671554I-66314J0D01*
G01X615503Y-1693940D02*
G03X628840Y-1778000I56899J-34060D01*
G03X615503Y-1862060I43561J-50000D01*
G03X695892Y-1890014I56899J34060D01*
G01X860786Y-1890014D01*
G01X860786Y-1920787D01*
G03X889066Y-1955800I35814J0D01*
G03X860786Y-1990813I7534J-35013D01*
G01X860786Y-2071460D01*
G03X896600Y-2107274I35814J0D01*
G01X983000Y-2107274D01*
G03X1018814Y-2071460I0J35814D01*
G01X1018814Y-1990813D01*
G03X990534Y-1955800I-35814J0D01*
G03X1018814Y-1920787I-7534J35013D01*
G01X1018814Y-1840140D01*
G03X983000Y-1804326I-35814J0D01*
G01X932008Y-1804326D01*
G03X900836Y-1792986I-31172J-37174D01*
G01X728718Y-1792986D01*
G03X715963Y-1778000I-56317J-35014D01*
G03X728718Y-1763014I-43561J50000D01*
G01X886823Y-1763014D01*
G03X896600Y-1764374I9776J34454D01*
G01X983000Y-1764374D01*
G03X1018814Y-1728560I0J35814D01*
G01X1018814Y-1647913D01*
G03X990534Y-1612900I-35814J0D01*
G03X1018814Y-1577887I-7534J35013D01*
G01X1018814Y-1497240D01*
G03X983000Y-1461426I-35814J0D01*
G01X896600Y-1461426D01*
G03X860786Y-1497240I0J-35814D01*
G01X860786Y-1577887D01*
G03X889066Y-1612900I35814J0D01*
G03X860786Y-1647913I7534J-35013D01*
G01X860786Y-1665986D01*
G01X695892Y-1665986D01*
G03X615503Y-1693940I-23491J-62014D01*
G01X1047725Y-1477191D02*
G03X1073800Y-1484795I26075J40911D01*
G01X1106003Y-1484795D01*
G03X1104979Y-1493299I34790J-8504D01*
G01X1104979Y-1613299D01*
G03X1115149Y-1638300I35814J0D01*
G03X1104979Y-1663301I25643J-25001D01*
G01X1104979Y-1783301D01*
G03X1140793Y-1819115I35814J0D01*
G01X1157763Y-1819115D01*
G01X1157986Y-1821401D01*
G01X1157986Y-1871198D01*
G01X1157721Y-1873684D01*
G03X1125686Y-1909298I3779J-35614D01*
G01X1125686Y-1989298D01*
G03X1141943Y-2019300I35814J0D01*
G03X1125686Y-2049302I19557J-30002D01*
G01X1125686Y-2129302D01*
G03X1161500Y-2165116I35814J0D01*
G01X1251500Y-2165116D01*
G03X1287314Y-2129302I0J35814D01*
G01X1287314Y-2049302D01*
G03X1271057Y-2019300I-35814J0D01*
G03X1287314Y-1989298I-19557J30002D01*
G01X1287314Y-1909298D01*
G03X1255279Y-1873684I-35814J0D01*
G01X1255014Y-1871198D01*
G01X1255014Y-1821401D01*
G01X1255237Y-1819115D01*
G01X1280792Y-1819115D01*
G03X1316606Y-1783301I0J35814D01*
G01X1316606Y-1698203D01*
G02X1321727Y-1680976I31538J0D01*
G01X1324994Y-1677709D01*
G01X1324994Y-1783301D01*
G03X1360808Y-1819115I35814J0D01*
G01X1496674Y-1819115D01*
G01X1447425Y-1868363D01*
G02X1430199Y-1873484I-17227J26417D01*
G01X1390100Y-1873484D01*
G03X1354286Y-1909298I0J-35814D01*
G01X1354286Y-1989298D01*
G03X1370543Y-2019300I35814J0D01*
G03X1354286Y-2049302I19557J-30002D01*
G01X1354286Y-2129302D01*
G03X1390100Y-2165116I35814J0D01*
G01X1480100Y-2165116D01*
G03X1515914Y-2129302I0J35814D01*
G01X1515914Y-2049302D01*
G03X1499657Y-2019300I-35814J0D01*
G03X1515914Y-1989298I-19557J30002D01*
G01X1515914Y-1949199D01*
G02X1521034Y-1931972I31538J0D01*
G01X1583705Y-1869302D01*
G03X1597914Y-1834998I-34305J34305D01*
G01X1597914Y-1651000D01*
G03X1583705Y-1616695I-48514J0D01*
G01X1541742Y-1574733D01*
G02X1536621Y-1557506I26417J17227D01*
G01X1536621Y-1501196D01*
G03X1576459Y-1483614I-5372J66096D01*
G01X1601126Y-1483614D01*
G01X1601126Y-1567200D01*
G03X1636940Y-1603014I35814J0D01*
G01X1717587Y-1603014D01*
G03X1752600Y-1574734I0J35814D01*
G03X1787613Y-1603014I35013J7534D01*
G01X1868260Y-1603014D01*
G03X1903628Y-1572834I0J35814D01*
G02X1906360Y-1572514I2732J-11491D01*
G01X1914595Y-1572514D01*
G03X1909987Y-1590087I31206J-17573D01*
G01X1909987Y-1640363D01*
G01X1907701Y-1640586D01*
G01X1906360Y-1640586D01*
G02X1903628Y-1640266I0J11811D01*
G03X1868260Y-1610086I-35368J-5634D01*
G01X1787613Y-1610086D01*
G03X1752600Y-1638366I0J-35814D01*
G03X1717587Y-1610086I-35013J-7534D01*
G01X1636940Y-1610086D01*
G03X1601126Y-1645900I0J-35814D01*
G01X1601126Y-1732300D01*
G03X1636940Y-1768114I35814J0D01*
G01X1717587Y-1768114D01*
G03X1752600Y-1739834I0J35814D01*
G03X1787613Y-1768114I35013J7534D01*
G01X1868260Y-1768114D01*
G03X1903628Y-1737934I0J35814D01*
G02X1906360Y-1737614I2732J-11491D01*
G01X1907701Y-1737614D01*
G01X1909987Y-1737837D01*
G01X1909987Y-1780087D01*
G03X1945801Y-1815901I35814J0D01*
G01X2135801Y-1815901D01*
G03X2171615Y-1780087I0J35814D01*
G01X2171615Y-1673760D01*
G02X2181099Y-1659411I40314J-16335D01*
G01X2233605Y-1606904D01*
G03X2247815Y-1572599I-34305J34305D01*
G01X2247815Y-1063811D01*
G03X2233605Y-1029506I-48514J0D01*
G01X2179614Y-975515D01*
G01X2179614Y-854598D01*
G01X2286375Y-747837D01*
G02X2303601Y-742716I17227J-26417D01*
G01X2343700Y-742716D01*
G03X2379514Y-706902I0J35814D01*
G01X2379514Y-626902D01*
G03X2363257Y-596900I-35814J0D01*
G03X2379514Y-566898I-19557J30002D01*
G01X2379514Y-486898D01*
G03X2343700Y-451084I-35814J0D01*
G01X2253700Y-451084D01*
G03X2217886Y-486898I0J-35814D01*
G01X2217886Y-566898D01*
G03X2234143Y-596900I35814J0D01*
G03X2217886Y-626902I19557J-30002D01*
G01X2217886Y-667001D01*
G02X2212766Y-684228I-31538J0D01*
G01X2170444Y-726550D01*
G03X2176314Y-706902I-29944J19647D01*
G01X2176314Y-626902D01*
G03X2160057Y-596900I-35814J0D01*
G03X2176314Y-566898I-19557J30002D01*
G01X2176314Y-486898D01*
G03X2140500Y-451084I-35814J0D01*
G01X2050500Y-451084D01*
G03X2014686Y-486898I0J-35814D01*
G01X2014686Y-566898D01*
G03X2030943Y-596900I35814J0D01*
G03X2014686Y-626902I19557J-30002D01*
G01X2014686Y-706902D01*
G03X2020556Y-726550I35814J0D01*
G01X1978234Y-684228D01*
G02X1973114Y-667001I26417J17227D01*
G01X1973114Y-626902D01*
G03X1956857Y-596900I-35814J0D01*
G03X1973114Y-566898I-19557J30002D01*
G01X1973114Y-486898D01*
G03X1937300Y-451084I-35814J0D01*
G01X1847300Y-451084D01*
G03X1811486Y-486898I0J-35814D01*
G01X1811486Y-566898D01*
G03X1827743Y-596900I35814J0D01*
G03X1811486Y-626902I19557J-30002D01*
G01X1811486Y-706902D01*
G03X1847300Y-742716I35814J0D01*
G01X1887399Y-742716D01*
G02X1904625Y-747837I0J-31538D01*
G01X2011386Y-854598D01*
G01X2011386Y-1052013D01*
G01X2011163Y-1054299D01*
G01X1945801Y-1054299D01*
G03X1909987Y-1090113I0J-35814D01*
G01X1909987Y-1235212D01*
G02X1904867Y-1252438I-31538J0D01*
G01X1881874Y-1275432D01*
G02X1870139Y-1279935I-10924J10924D01*
G01X1868260Y-1279886D01*
G01X1787613Y-1279886D01*
G03X1752600Y-1308166I0J-35814D01*
G03X1717587Y-1279886I-35013J-7534D01*
G01X1636940Y-1279886D01*
G03X1601126Y-1315700I0J-35814D01*
G01X1601126Y-1386586D01*
G01X1576459Y-1386586D01*
G03X1506714Y-1373492I-45210J-48514D01*
G01X1506714Y-1265880D01*
G03X1408400Y-1223447I-58315J0D01*
G03X1328400Y-1223447I-40000J-42433D01*
G03X1248400Y-1223447I-40000J-42433D01*
G03X1168400Y-1223447I-40000J-42433D01*
G03X1088400Y-1223447I-40000J-42433D01*
G03X1008400Y-1223447I-40000J-42433D01*
G03X928400Y-1223447I-40000J-42433D01*
G03X830086Y-1265880I-40000J-42433D01*
G01X830086Y-1385880D01*
G03X928400Y-1428313I58315J0D01*
G03X989030Y-1440423I40000J42433D01*
G03X1047725Y-1477191I59370J29543D01*
G01X1020614Y-2281398D02*
G01X1020614Y-2201398D01*
G03X984800Y-2165584I-35814J0D01*
G01X894800Y-2165584D01*
G03X858986Y-2201398I0J-35814D01*
G01X858986Y-2281398D01*
G03X875243Y-2311400I35814J0D01*
G03X858986Y-2341402I19557J-30002D01*
G01X858986Y-2421402D01*
G03X894800Y-2457216I35814J0D01*
G01X984800Y-2457216D01*
G03X1020614Y-2421402I0J35814D01*
G01X1020614Y-2341402D01*
G03X1004357Y-2311400I-35814J0D01*
G03X1020614Y-2281398I-19557J30002D01*
G01X2317486Y-1185113D02*
G03X2494112Y-1185113I88313J0D01*
G03X2317486Y-1185113I-88313J0D01*
G01X2317486Y-1685112D02*
G03X2494112Y-1685112I88313J0D01*
G03X2317486Y-1685112I-88313J0D01*
G01X2425799Y-779282D02*
G03X2389985Y-815096I0J-35814D01*
G01X2389985Y-975096D01*
G03X2425799Y-1010910I35814J0D01*
G01X2585799Y-1010910D01*
G03X2621613Y-975096I0J35814D01*
G01X2621613Y-815096D01*
G03X2585799Y-779282I-35814J0D01*
G01X2425799Y-779282D01*
G01X2425799Y-1859290D02*
G03X2389985Y-1895104I0J-35814D01*
G01X2389985Y-2055104D01*
G03X2425799Y-2090918I35814J0D01*
G01X2585799Y-2090918D01*
G03X2621613Y-2055104I0J35814D01*
G01X2621613Y-1895104D01*
G03X2585799Y-1859290I-35814J0D01*
G01X2425799Y-1859290D01*
G01X653811Y-503400D02*
G03X617997Y-467586I-35814J0D01*
G01X557997Y-467586D01*
G01X556514Y-467617D01*
G01X556514Y-441314D01*
G01X578200Y-441314D01*
G03X600709Y-433356I0J35814D01*
G03X625900Y-443714I25191J25457D01*
G01X660900Y-443714D01*
G03X679304Y-438624I0J35814D01*
G03X689095Y-452701I44096J20227D01*
G01X787080Y-550686D01*
G01X670250Y-550686D01*
G03X653811Y-553051I0J-58315D01*
G01X653811Y-503400D01*
G54D11*
G01X428993Y-1101697D02*
G01X428993Y-1212351D01*
G01X428993Y-1101697D02*
G01X428993Y-991043D01*
G01X428993Y-1101697D02*
G01X368339Y-1101697D01*
G01X428993Y-1101697D02*
G01X489647Y-1101697D01*
G01X587997Y-533400D02*
G01X643651Y-533400D01*
G01X587997Y-533400D02*
G01X587997Y-589054D01*
G01X587997Y-533400D02*
G01X587997Y-477746D01*
G01X939800Y-2241398D02*
G01X939800Y-2175744D01*
G01X939800Y-2241398D02*
G01X1010454Y-2241398D01*
G01X939800Y-2241398D02*
G01X869146Y-2241398D01*
G01X1128400Y-1325880D02*
G01X1128400Y-1217726D01*
G01X1288400Y-1325880D02*
G01X1288400Y-1217726D01*
G01X1368400Y-452120D02*
G01X1368400Y-343966D01*
G01X1677264Y-1524000D02*
G01X1611286Y-1524000D01*
G01X1677264Y-1524000D02*
G01X1677264Y-1592854D01*
G01X1677264Y-1689100D02*
G01X1611286Y-1689100D01*
G01X1677264Y-1689100D02*
G01X1677264Y-1757954D01*
G01X1677264Y-1689100D02*
G01X1677264Y-1620246D01*
G01X1677264Y-1358900D02*
G01X1611286Y-1358900D01*
G01X1677264Y-1358900D02*
G01X1677264Y-1290046D01*
G01X1244600Y-152403D02*
G01X1128946Y-152403D01*
G01X1244600Y-152403D02*
G01X1360254Y-152403D01*
G01X1244600Y-152403D02*
G01X1244600Y-268056D01*
G01X1727203Y-2667000D02*
G01X1616549Y-2667000D01*
G01X1727203Y-2667000D02*
G01X1837856Y-2667000D01*
G01X1727203Y-2667000D02*
G01X1727203Y-2556346D01*
G04 Copper End*

G04 PolygonModel Start*
G01X560700Y-380500D02*
G01X641000Y-380500D01*
G01X643400Y-382900D01*
G01X560700Y-380500D02*
G01X560700Y-303154D01*
G01X569595Y-294259D01*
G01X2040801Y-1435100D02*
G01X1534932Y-1435100D01*

G04 TearDrop Start*
G36*
G01X1193800Y-1871198D02*
G01X1219200Y-1871198D01*
G03X1238250Y-1909298I47625J0D01*
G01X1174750Y-1909298D01*
G03X1193800Y-1871198I-28575J38100D01*
G37*
G36*
G01X1470610Y-1895827D02*
G01X1493570Y-1908788D01*
G03X1480100Y-1949199I53882J-40411D01*
G01X1430199Y-1909298D01*
G03X1470610Y-1895827I0J67352D01*
G37*
G36*
G01X1593698Y-476402D02*
G01X1568298Y-476402D01*
G03X1549248Y-464100I-19050J-8598D01*
G01X1612748Y-464100D01*
G03X1593698Y-476402I0J-20900D01*
G37*
G36*
G01X2263190Y-720373D02*
G01X2240230Y-707412D01*
G03X2253700Y-667001I-53882J40411D01*
G01X2303601Y-706902D01*
G03X2263190Y-720373I0J-67352D01*
G37*
G36*
G01X2108200Y-745002D02*
G01X2082800Y-745002D01*
G03X2063750Y-706902I-47625J0D01*
G01X2127250Y-706902D01*
G03X2108200Y-745002I28575J-38100D01*
G37*
G36*
G01X1950770Y-707412D02*
G01X1927810Y-720373D01*
G03X1887399Y-706902I-40411J-53882D01*
G01X1937300Y-667001D01*
G03X1950770Y-707412I67352J0D01*
G37*
G36*
G01X1906360Y-1676400D02*
G01X1906360Y-1701800D01*
G03X1868260Y-1720850I0J-47625D01*
G01X1868260Y-1657350D01*
G03X1906360Y-1676400I38100J28575D01*
G37*
G36*
G01X1906360Y-1511300D02*
G01X1906360Y-1536700D01*
G03X1868260Y-1555750I0J-47625D01*
G01X1868260Y-1492250D01*
G03X1906360Y-1511300I38100J28575D01*
G37*
G36*
G01X1907198Y-1300756D02*
G01X1881958Y-1361917D01*
G03X1868260Y-1402100I52091J-40184D01*
G01X1868260Y-1315700D01*
G03X1907198Y-1300756I2690J51192D01*
G37*
G36*
G01X736100Y-418397D02*
G01X710700Y-418397D01*
G03X705900Y-407900I-13878J0D01*
G01X740900Y-407900D01*
G03X736100Y-418397I9078J-10497D01*
G37*
G36*
G01X512871Y-394710D02*
G01X499020Y-416780D01*
G03X463200Y-405500I-35819J-51231D01*
G01X498200Y-355500D01*
G03X512871Y-394710I59733J0D01*
G37*
G36*
G01X1221100Y-535300D02*
G01X1195700Y-535300D01*
G01X1195279Y-531848D01*
G01X1194169Y-528474D01*
G01X1190800Y-522120D01*
G01X1187431Y-516561D01*
G01X1186320Y-514181D01*
G01X1185899Y-512120D01*
G01X1230901Y-512120D01*
G01X1230479Y-514181D01*
G01X1229369Y-516561D01*
G01X1226000Y-522120D01*
G01X1222631Y-528474D01*
G01X1221521Y-531848D01*
G01X1221100Y-535300D01*
G37*
G36*
G01X1511899Y-1181699D02*
G01X1511899Y-1156299D01*
G01X1517072Y-1155878D01*
G01X1522148Y-1154768D01*
G01X1531722Y-1151399D01*
G01X1540047Y-1148030D01*
G01X1543562Y-1146920D01*
G01X1546550Y-1146499D01*
G01X1546550Y-1191500D01*
G01X1543562Y-1191079D01*
G01X1540047Y-1189969D01*
G01X1531722Y-1186600D01*
G01X1522148Y-1183231D01*
G01X1517072Y-1182121D01*
G01X1511899Y-1181699D01*
G37*
G36*
G01X1461099Y-1423980D02*
G01X1435699Y-1423980D01*
G01X1435278Y-1418290D01*
G01X1434168Y-1412704D01*
G01X1430799Y-1402165D01*
G01X1427430Y-1393009D01*
G01X1426320Y-1389151D01*
G01X1425899Y-1385880D01*
G01X1470900Y-1385880D01*
G01X1470479Y-1389151D01*
G01X1469369Y-1393009D01*
G01X1466000Y-1402165D01*
G01X1462631Y-1412704D01*
G01X1461521Y-1418290D01*
G01X1461099Y-1423980D01*
G37*
G36*
G01X1381100Y-1421499D02*
G01X1355700Y-1421499D01*
G01X1355278Y-1416181D01*
G01X1354168Y-1410962D01*
G01X1350799Y-1401117D01*
G01X1347430Y-1392559D01*
G01X1346320Y-1388947D01*
G01X1345899Y-1385880D01*
G01X1390900Y-1385880D01*
G01X1390479Y-1388947D01*
G01X1389369Y-1392559D01*
G01X1386000Y-1401117D01*
G01X1382631Y-1410962D01*
G01X1381521Y-1416181D01*
G01X1381100Y-1421499D01*
G37*
G36*
G01X1212650Y-1421511D02*
G01X1172189Y-1426051D01*
G01X1174746Y-1422899D01*
G01X1177223Y-1418742D01*
G01X1179539Y-1413816D01*
G01X1181615Y-1408356D01*
G01X1183369Y-1402597D01*
G01X1184721Y-1396774D01*
G01X1185591Y-1391123D01*
G01X1185899Y-1385880D01*
G01X1230901Y-1385880D01*
G01X1230491Y-1389532D01*
G01X1229332Y-1393830D01*
G01X1227532Y-1398566D01*
G01X1225197Y-1403532D01*
G01X1219351Y-1413316D01*
G01X1216054Y-1417716D01*
G01X1212650Y-1421511D01*
G37*
G36*
G01X1061100Y-1410881D02*
G01X1035700Y-1410881D01*
G01X1035279Y-1407155D01*
G01X1034169Y-1403511D01*
G01X1030800Y-1396644D01*
G01X1027431Y-1390646D01*
G01X1026321Y-1388086D01*
G01X1025900Y-1385880D01*
G01X1070901Y-1385880D01*
G01X1070480Y-1388086D01*
G01X1069369Y-1390646D01*
G01X1066001Y-1396644D01*
G01X1062632Y-1403511D01*
G01X1061521Y-1407155D01*
G01X1061100Y-1410881D01*
G37*
G36*
G01X1950292Y-1293583D02*
G01X1932331Y-1275623D01*
G03X1945801Y-1235212I-53882J40411D01*
G01X1990703Y-1280113D01*
G03X1950292Y-1293583I0J-67352D01*
G37*
G36*
G01X2047200Y-1052013D02*
G01X2072600Y-1052013D01*
G03X2091650Y-1090113I47625J0D01*
G01X2028150Y-1090113D01*
G03X2047200Y-1052013I-28575J38100D01*
G37*
G36*
G01X1907701Y-1536700D02*
G01X1907701Y-1511300D01*
G03X1945801Y-1492250I0J47625D01*
G01X1945801Y-1530100D01*
G03X1907701Y-1536700I0J-113267D01*
G37*
G36*
G01X2131311Y-1326630D02*
G01X2149271Y-1344590D01*
G03X2135801Y-1385002I53882J-40411D01*
G01X2090900Y-1340100D01*
G03X2131311Y-1326630I0J67352D01*
G37*
G36*
G01X1907701Y-1701800D02*
G01X1907701Y-1676400D01*
G03X1945801Y-1657350I0J47625D01*
G01X1945801Y-1720850D01*
G03X1907701Y-1701800I-38100J-28575D01*
G37*
G36*
G01X2169637Y-1584303D02*
G01X2155847Y-1634013D01*
G03X2135801Y-1667849I56082J-56082D01*
G01X2135801Y-1604349D01*
G03X2169637Y-1584303I-22246J76128D01*
G37*
G36*
G01X1435699Y-1455199D02*
G01X1461099Y-1455199D01*
G03X1480149Y-1493299I47625J0D01*
G01X1416649Y-1493299D01*
G03X1435699Y-1455199I-28575J38100D01*
G37*
G36*
G01X1514278Y-1597917D02*
G01X1507209Y-1626769D01*
G03X1466797Y-1613299I-40411J-53882D01*
G01X1500807Y-1557506D01*
G03X1514278Y-1597917I67352J0D01*
G37*
G36*
G01X1219200Y-1821401D02*
G01X1193800Y-1821401D01*
G03X1174750Y-1783301I-47625J0D01*
G01X1238250Y-1783301D01*
G03X1219200Y-1821401I28575J-38100D01*
G37*
G36*
G01X1266302Y-1649831D02*
G01X1294263Y-1657791D01*
G03X1280792Y-1698203I53882J-40411D01*
G01X1225891Y-1663301D01*
G03X1266302Y-1649831I0J67352D01*
G37*
G36*
G01X896240Y-76002D02*
G01X914200Y-58042D01*
G01X917794Y-60935D01*
G01X922024Y-63166D01*
G01X926795Y-64802D01*
G01X932016Y-65911D01*
G01X937596Y-66559D01*
G01X943441Y-66815D01*
G01X955561Y-66418D01*
G01X967638Y-65257D01*
G01X978934Y-63871D01*
G01X988713Y-62799D01*
G01X996236Y-62579D01*
G01X900777Y-158039D01*
G01X900997Y-150515D01*
G01X902069Y-140737D01*
G01X903454Y-129440D01*
G01X904615Y-117363D01*
G01X905013Y-105244D01*
G01X904757Y-99399D01*
G01X904108Y-93819D01*
G01X902999Y-88597D01*
G01X901363Y-83826D01*
G01X899133Y-79597D01*
G01X896240Y-76002D01*
G37*
G36*
G01X1674939Y-248024D02*
G01X1656979Y-230064D01*
G01X1659019Y-203805D01*
G01X1662777Y-146767D01*
G01X1758236Y-242226D01*
G01X1701198Y-245983D01*
G01X1674939Y-248024D01*
G37*
G36*
G01X1587258Y-284418D02*
G01X1605218Y-266458D01*
G01X1609085Y-269088D01*
G01X1614786Y-271529D01*
G01X1621276Y-273410D01*
G01X1627510Y-274360D01*
G01X1595160Y-306710D01*
G01X1594210Y-300476D01*
G01X1592329Y-293986D01*
G01X1589888Y-288285D01*
G01X1587258Y-284418D01*
G37*
G36*
G01X1320800Y-2416424D02*
G01X1295400Y-2416424D01*
G01X1294525Y-2411829D01*
G01X1292220Y-2406072D01*
G01X1288961Y-2400153D01*
G01X1285225Y-2395074D01*
G01X1330975Y-2395074D01*
G01X1327239Y-2400153D01*
G01X1323980Y-2406072D01*
G01X1321675Y-2411829D01*
G01X1320800Y-2416424D01*
G37*
G36*
G01X1397000Y-2416424D02*
G01X1371600Y-2416424D01*
G01X1370726Y-2411829D01*
G01X1368420Y-2406072D01*
G01X1365161Y-2400153D01*
G01X1361425Y-2395074D01*
G01X1407175Y-2395074D01*
G01X1403439Y-2400153D01*
G01X1400180Y-2406072D01*
G01X1397875Y-2411829D01*
G01X1397000Y-2416424D01*
G37*
G36*
G01X2020419Y-1223455D02*
G01X2002459Y-1205495D01*
G01X2005089Y-1201628D01*
G01X2007530Y-1195927D01*
G01X2009411Y-1189437D01*
G01X2010361Y-1183203D01*
G01X2042711Y-1215553D01*
G01X2036477Y-1216504D01*
G01X2029988Y-1218384D01*
G01X2024287Y-1220825D01*
G01X2020419Y-1223455D01*
G37*
G36*
G01X2047200Y-1133516D02*
G01X2072600Y-1162359D01*
G01X2072364Y-1168696D01*
G01X2071860Y-1174633D01*
G01X2071269Y-1183709D01*
G01X2036885Y-1154866D01*
G01X2038809Y-1154167D01*
G01X2040673Y-1152655D01*
G01X2042415Y-1150455D01*
G01X2043977Y-1147693D01*
G01X2045296Y-1144493D01*
G01X2046314Y-1140979D01*
G01X2046968Y-1137279D01*
G01X2047200Y-1133516D01*
G37*
G36*
G01X1995264Y-1701800D02*
G01X1995264Y-1676400D01*
G01X1999859Y-1675525D01*
G01X2005615Y-1673220D01*
G01X2011534Y-1669961D01*
G01X2016614Y-1666225D01*
G01X2016614Y-1711975D01*
G01X2011534Y-1708239D01*
G01X2005615Y-1704980D01*
G01X1999859Y-1702675D01*
G01X1995264Y-1701800D01*
G37*
G36*
G01X495300Y-491876D02*
G01X520700Y-491876D01*
G01X521575Y-496471D01*
G01X523880Y-502228D01*
G01X527139Y-508147D01*
G01X530875Y-513226D01*
G01X485125Y-513226D01*
G01X488861Y-508147D01*
G01X492120Y-502228D01*
G01X494425Y-496471D01*
G01X495300Y-491876D01*
G37*
G36*
G01X928288Y-72130D02*
G01X923906Y-103669D01*
G01X921526Y-101683D01*
G01X918695Y-99965D01*
G01X915552Y-98550D01*
G01X912235Y-97477D01*
G01X908887Y-96782D01*
G01X905645Y-96503D01*
G01X902651Y-96675D01*
G01X900043Y-97338D01*
G01X915827Y-54397D01*
G01X922050Y-64245D01*
G01X925459Y-68848D01*
G01X928288Y-72130D01*
G37*
G36*
G01X854324Y-2654300D02*
G01X854324Y-2679700D01*
G01X849729Y-2680575D01*
G01X843972Y-2682880D01*
G01X838053Y-2686139D01*
G01X832974Y-2689875D01*
G01X832974Y-2644125D01*
G01X838053Y-2647861D01*
G01X843972Y-2651120D01*
G01X849729Y-2653425D01*
G01X854324Y-2654300D01*
G37*
G04 TearDrop End*

G04 Pad Start*
G54D12*
G01X1206500Y-1949298D03*
G01X1206500Y-2089302D03*
G01X1435100Y-1949298D03*
G01X1435100Y-2089302D03*
G54D13*
G01X1721002Y-419100D03*
G01X1580998Y-419100D03*
G54D12*
G01X939800Y-2381402D03*
G01X939800Y-2241398D03*
G01X2298700Y-666902D03*
G01X2298700Y-526898D03*
G01X2095500Y-666902D03*
G01X2095500Y-526898D03*
G01X1892300Y-666902D03*
G01X1892300Y-526898D03*
G54D14*
G01X587997Y-533400D03*
G01X428003Y-533400D03*
G54D15*
G01X1727203Y-2667000D03*
G01X1473203Y-2667000D03*
G01X1219203Y-2667000D03*
G54D17*
G01X965203Y-2667000D03*
G54D18*
G01X1677264Y-1689100D03*
G01X1827936Y-1689100D03*
G01X1677264Y-1524000D03*
G01X1827936Y-1524000D03*
G01X1677264Y-1358900D03*
G01X1827936Y-1358900D03*
G54D19*
G01X723400Y-382900D03*
G01X643400Y-382900D03*
G01X480700Y-380500D03*
G01X560700Y-380500D03*
G54D20*
G01X730250Y-1168999D03*
G01X730250Y-1089000D03*
G01X730250Y-1009000D03*
G01X730250Y-929000D03*
G01X730250Y-849000D03*
G01X730250Y-769000D03*
G01X730250Y-689000D03*
G01X730250Y-609001D03*
G54D21*
G01X888401Y-452120D03*
G01X968400Y-452120D03*
G01X1048400Y-452120D03*
G01X1128400Y-452120D03*
G01X1208400Y-452120D03*
G01X1288400Y-452120D03*
G01X1368400Y-452120D03*
G01X1448399Y-452120D03*
G54D20*
G01X1606550Y-609001D03*
G01X1606550Y-689000D03*
G01X1606550Y-769000D03*
G01X1606550Y-849000D03*
G01X1606550Y-929000D03*
G01X1606550Y-1009000D03*
G01X1606550Y-1089000D03*
G01X1606550Y-1168999D03*
G54D21*
G01X1448399Y-1325880D03*
G01X1368400Y-1325880D03*
G01X1288400Y-1325880D03*
G01X1208400Y-1325880D03*
G01X1128400Y-1325880D03*
G01X1048400Y-1325880D03*
G01X968400Y-1325880D03*
G01X888401Y-1325880D03*
G54D22*
G01X2505799Y-895096D03*
G01X2505799Y-1975104D03*
G54D23*
G01X2040801Y-1185113D03*
G01X2040801Y-1435100D03*
G01X2040801Y-1685087D03*
G54D24*
G01X267399Y-1346009D03*
G01X267399Y-2209990D03*
G01X647408Y-1346009D03*
G01X647408Y-2209990D03*
G54D25*
G01X1430807Y-1553299D03*
G01X1210793Y-1553299D03*
G01X1210793Y-1723301D03*
G01X1430807Y-1723301D03*
G54D26*
G01X990600Y-152403D03*
G01X1244600Y-152403D03*
G01X1498600Y-152403D03*
G01X1752600Y-152403D03*
G54D27*
G01X939800Y-1537564D03*
G01X939800Y-1688236D03*
G01X939800Y-1880464D03*
G01X939800Y-2031136D03*
G54D28*
G01X608946Y-2671554D03*
G54D29*
G01X428993Y-701703D03*
G01X428993Y-1101697D03*
G01X79007Y-1101697D03*
G54D30*
G01X609600Y-188341D03*
G54D31*
G01X649605Y-294259D03*
G01X569595Y-294259D03*
G04 Pad End*

G04 Via Start*
G54D32*
G01X1625600Y-304800D03*
G01X1625600Y-215900D03*
G01X730250Y-769000D03*
G01X730250Y-849000D03*
G01X730250Y-1009000D03*
G01X730250Y-1089000D03*
G01X1308100Y-2374900D03*
G01X1384300Y-2374900D03*
G01X1606550Y-929000D03*
G01X1606550Y-1009000D03*
G01X968400Y-1325880D03*
G01X2040801Y-1185113D03*
G01X2036788Y-1689100D03*
G01X1531249Y-1435100D03*
G01X79007Y-1101697D03*
G01X508000Y-533400D03*
G01X2463800Y-850900D03*
G01X2552700Y-2019300D03*
G01X889000Y-68907D03*
G01X812800Y-2667000D03*
G01X939800Y-2381402D03*
G01X939799Y-2035301D03*
G01X1206500Y-2089302D03*
G01X1435100Y-2089302D03*
G01X1430807Y-1723301D03*
G01X1210793Y-1553299D03*
G01X939800Y-1537564D03*
G01X1892300Y-526898D03*
G01X2095500Y-526898D03*
G01X2298700Y-526898D03*
G01X1721002Y-419100D03*
G01X1128400Y-452120D03*
G01X658056Y-916013D03*
G01X608946Y-2671554D03*
G01X649605Y-294259D03*
G01X1048400Y-1410881D03*
G01X2552700Y-939800D03*
G01X2464194Y-939800D03*
G01X2552700Y-851754D03*
G01X2552700Y-1930400D03*
G01X2463800Y-2019300D03*
G01X2463800Y-1930400D03*
G01X635000Y-1625600D03*
G01X672402Y-1828000D03*
G01X672402Y-1728000D03*
G01X635000Y-1930400D03*
G01X709905Y-1627995D03*
G01X709905Y-1927995D03*
G04 Via End*

G04 Track Start*
G54D11*
G01X672402Y-1828000D02*
G01X685902Y-1841500D01*
G01X900836Y-1841500D01*
G01X939800Y-1880464D01*
G01X672402Y-1728000D02*
G01X685902Y-1714500D01*
G01X913536Y-1714500D01*
G01X939800Y-1688236D01*
G01X590902Y-188341D02*
G01X609600Y-188341D01*
G01X428003Y-533400D02*
G01X428003Y-351241D01*
G01X590902Y-188341D01*
G01X1206500Y-1949298D02*
G01X1206500Y-1727594D01*
G01X1210793Y-1723301D01*
G01X1435100Y-1949298D02*
G01X1549400Y-1834998D01*
G01X1549400Y-1651000D01*
G01X1451699Y-1553299D01*
G01X1827936Y-1689100D02*
G01X2036788Y-1689100D01*
G01X2040801Y-1685087D01*
G01X1827936Y-1358900D02*
G01X1867014Y-1358900D01*
G01X2040801Y-1185113D01*
G01X2199301Y-1572599D02*
G01X2086813Y-1685087D01*
G01X2040801Y-1685087D01*
G01X2040801Y-1435100D02*
G01X2163701Y-1312200D01*
G01X2163701Y-1078557D01*
G01X2095500Y-1010356D01*
G01X2095500Y-666902D01*
G01X2199301Y-1063811D02*
G01X2199301Y-1572599D01*
G01X2298700Y-666902D02*
G01X2131100Y-834503D01*
G01X2131100Y-995610D01*
G01X2199301Y-1063811D01*
G01X1892300Y-666902D02*
G01X2059900Y-834503D01*
G01X2059900Y-1166014D01*
G01X2040801Y-1185113D01*
G01X1308100Y-2430800D02*
G01X1308100Y-2374900D01*
G01X1384300Y-2430800D02*
G01X1384300Y-2374900D01*
G01X1219203Y-2667000D02*
G01X1325883Y-2560320D01*
G01X1325880Y-2448580D02*
G01X1308100Y-2430800D01*
G01X1366520Y-2448580D02*
G01X1384300Y-2430800D01*
G01X1473203Y-2667000D02*
G01X1366523Y-2560320D01*
G01X1366520Y-2448580D02*
G01X1366523Y-2560320D01*
G01X1325880Y-2448580D02*
G01X1325883Y-2560320D01*
G01X1752600Y-152403D02*
G01X1658603Y-246400D01*
G01X1639266Y-246400D01*
G01X1625600Y-232734D01*
G01X1625600Y-215900D01*
G01X1498600Y-152403D02*
G01X1498600Y-177800D01*
G01X1625600Y-304800D01*
G01X1210793Y-1723301D02*
G01X1320800Y-1613294D01*
G01X1320800Y-1469099D01*
G01X1448399Y-1511506D02*
G01X1448399Y-1325880D01*
G01X1320800Y-1469099D02*
G01X1368400Y-1421499D01*
G01X1368400Y-1325880D01*
G01X1827936Y-1524000D02*
G01X1951901Y-1524000D01*
G01X2040801Y-1435100D01*
G01X1208400Y-1407800D02*
G01X1208400Y-1325880D01*
G01X1048400Y-1325880D02*
G01X1048400Y-1410881D01*
G01X1073800Y-1436281D01*
G01X1179919Y-1436281D01*
G01X1208400Y-1407800D01*
G01X1580998Y-476402D02*
G01X1580998Y-419100D01*
G01X1208400Y-452120D02*
G01X1208400Y-535300D01*
G01X1235621Y-562521D01*
G01X1494879Y-562521D01*
G01X1580998Y-476402D01*
G01X428993Y-701703D02*
G01X428993Y-534391D01*
G01X428003Y-533400D01*
G01X1606550Y-1168999D02*
G01X1511899Y-1168999D01*
G01X1496149Y-1153249D01*
G01X1496149Y-635000D01*
G01X1459270Y-598120D01*
G01X1207720Y-598120D02*
G01X1172121Y-562521D01*
G01X867524Y-562521D01*
G01X1459270Y-598120D02*
G01X1207720Y-598120D01*
G01X723400Y-418397D02*
G01X723400Y-382900D01*
G01X723400Y-418397D02*
G01X867524Y-562521D01*
G01X480700Y-380500D02*
G01X508000Y-407800D01*
G01X508000Y-533400D01*
G01X267399Y-2209990D02*
G01X647408Y-2209990D01*
G01X267399Y-1346009D02*
G01X647408Y-1346009D01*
G01X990600Y-152403D02*
G01X905220Y-67022D01*
G01X889000Y-67022D01*
G01X965203Y-2667000D02*
G01X812800Y-2667000D01*
G04 Track End*

M02*

