G04 Layer: TopSilkscreenLayer*
G04 EasyEDA Pro v3.2.149.88089769, 2026-07-13 20:44:55*
G04 Gerber Generator version 0.3*
G04 Scale: 100 percent, Rotated: No, Reflected: No*
G04 Dimensions in millimeters*
G04 Leading zeros omitted, absolute positions, 4 integers and 5 decimals*
G04 Generated by one-click*
G04 Object Configs: Pad,Via,Track,Text,Image,Dimension,BoardOutline,BoardCutout,CopperFilled,SolidRegion,FPCStiffener,Line,PlaneZone,ComponentProperty,ComponentSilkscreen,TearDrop*
G04 Layer Configs: 1,2,3,4,5,6,7,8,9,10,11,13,14,56*
G04 Copper Areas: 0*
%FSLAX45Y45*%
%MOMM*%
%ADD10C,0.1524*%
%ADD11C,0.254*%
%ADD12C,0.13*%
%ADD13C,0.3*%
%ADD14C,0.4*%
%ADD15C,0.127*%
%ADD16C,0.1038*%
%ADD17C,0.1*%
G75*


G04 Text Start*
G54D10*
G01X1202944Y-2230120D02*
G01X1200404Y-2224786D01*
G01X1195070Y-2219452D01*
G01X1189736Y-2216912D01*
G01X1179322Y-2216912D01*
G01X1173988Y-2219452D01*
G01X1168654Y-2224786D01*
G01X1165860Y-2230120D01*
G01X1163320Y-2237994D01*
G01X1163320Y-2251456D01*
G01X1165860Y-2259330D01*
G01X1168654Y-2264664D01*
G01X1173988Y-2269998D01*
G01X1179322Y-2272538D01*
G01X1189736Y-2272538D01*
G01X1195070Y-2269998D01*
G01X1200404Y-2264664D01*
G01X1202944Y-2259330D01*
G01X1230884Y-2227580D02*
G01X1236218Y-2224786D01*
G01X1244092Y-2216912D01*
G01X1244092Y-2272538D01*
G01X1406144Y-2230120D02*
G01X1403604Y-2224786D01*
G01X1398270Y-2219452D01*
G01X1392936Y-2216912D01*
G01X1382522Y-2216912D01*
G01X1377188Y-2219452D01*
G01X1371854Y-2224786D01*
G01X1369060Y-2230120D01*
G01X1366520Y-2237994D01*
G01X1366520Y-2251456D01*
G01X1369060Y-2259330D01*
G01X1371854Y-2264664D01*
G01X1377188Y-2269998D01*
G01X1382522Y-2272538D01*
G01X1392936Y-2272538D01*
G01X1398270Y-2269998D01*
G01X1403604Y-2264664D01*
G01X1406144Y-2259330D01*
G01X1436624Y-2230120D02*
G01X1436624Y-2227580D01*
G01X1439418Y-2222246D01*
G01X1441958Y-2219452D01*
G01X1447292Y-2216912D01*
G01X1457960Y-2216912D01*
G01X1463294Y-2219452D01*
G01X1465834Y-2222246D01*
G01X1468628Y-2227580D01*
G01X1468628Y-2232914D01*
G01X1465834Y-2237994D01*
G01X1460500Y-2246122D01*
G01X1434084Y-2272538D01*
G01X1471168Y-2272538D01*
G01X1876044Y-261620D02*
G01X1873504Y-256286D01*
G01X1868170Y-250952D01*
G01X1862836Y-248412D01*
G01X1852422Y-248412D01*
G01X1847088Y-250952D01*
G01X1841754Y-256286D01*
G01X1838960Y-261620D01*
G01X1836420Y-269494D01*
G01X1836420Y-282956D01*
G01X1838960Y-290830D01*
G01X1841754Y-296164D01*
G01X1847088Y-301498D01*
G01X1852422Y-304038D01*
G01X1862836Y-304038D01*
G01X1868170Y-301498D01*
G01X1873504Y-296164D01*
G01X1876044Y-290830D01*
G01X1909318Y-248412D02*
G01X1938528Y-248412D01*
G01X1922526Y-269494D01*
G01X1930400Y-269494D01*
G01X1935734Y-272288D01*
G01X1938528Y-274828D01*
G01X1941068Y-282956D01*
G01X1941068Y-288036D01*
G01X1938528Y-296164D01*
G01X1933194Y-301498D01*
G01X1925066Y-304038D01*
G01X1917192Y-304038D01*
G01X1909318Y-301498D01*
G01X1906524Y-298704D01*
G01X1903984Y-293370D01*
G01X805180Y-2371344D02*
G01X810514Y-2368804D01*
G01X815848Y-2363470D01*
G01X818388Y-2358136D01*
G01X818388Y-2347722D01*
G01X815848Y-2342388D01*
G01X810514Y-2337054D01*
G01X805180Y-2334260D01*
G01X797306Y-2331720D01*
G01X783844Y-2331720D01*
G01X775970Y-2334260D01*
G01X770636Y-2337054D01*
G01X765302Y-2342388D01*
G01X762762Y-2347722D01*
G01X762762Y-2358136D01*
G01X765302Y-2363470D01*
G01X770636Y-2368804D01*
G01X775970Y-2371344D01*
G01X818388Y-2425700D02*
G01X781304Y-2399284D01*
G01X781304Y-2438908D01*
G01X818388Y-2425700D02*
G01X762762Y-2425700D01*
G01X2282444Y-375920D02*
G01X2279904Y-370586D01*
G01X2274570Y-365252D01*
G01X2269236Y-362712D01*
G01X2258822Y-362712D01*
G01X2253488Y-365252D01*
G01X2248154Y-370586D01*
G01X2245360Y-375920D01*
G01X2242820Y-383794D01*
G01X2242820Y-397256D01*
G01X2245360Y-405130D01*
G01X2248154Y-410464D01*
G01X2253488Y-415798D01*
G01X2258822Y-418338D01*
G01X2269236Y-418338D01*
G01X2274570Y-415798D01*
G01X2279904Y-410464D01*
G01X2282444Y-405130D01*
G01X2342134Y-362712D02*
G01X2315718Y-362712D01*
G01X2312924Y-386588D01*
G01X2315718Y-383794D01*
G01X2323592Y-381254D01*
G01X2331466Y-381254D01*
G01X2339594Y-383794D01*
G01X2344928Y-389128D01*
G01X2347468Y-397256D01*
G01X2347468Y-402336D01*
G01X2344928Y-410464D01*
G01X2339594Y-415798D01*
G01X2331466Y-418338D01*
G01X2323592Y-418338D01*
G01X2315718Y-415798D01*
G01X2312924Y-413004D01*
G01X2310384Y-407670D01*
G01X2079244Y-375920D02*
G01X2076704Y-370586D01*
G01X2071370Y-365252D01*
G01X2066036Y-362712D01*
G01X2055622Y-362712D01*
G01X2050288Y-365252D01*
G01X2044954Y-370586D01*
G01X2042160Y-375920D01*
G01X2039620Y-383794D01*
G01X2039620Y-397256D01*
G01X2042160Y-405130D01*
G01X2044954Y-410464D01*
G01X2050288Y-415798D01*
G01X2055622Y-418338D01*
G01X2066036Y-418338D01*
G01X2071370Y-415798D01*
G01X2076704Y-410464D01*
G01X2079244Y-405130D01*
G01X2138934Y-370586D02*
G01X2136394Y-365252D01*
G01X2128266Y-362712D01*
G01X2123186Y-362712D01*
G01X2115058Y-365252D01*
G01X2109724Y-373380D01*
G01X2107184Y-386588D01*
G01X2107184Y-399796D01*
G01X2109724Y-410464D01*
G01X2115058Y-415798D01*
G01X2123186Y-418338D01*
G01X2125726Y-418338D01*
G01X2133600Y-415798D01*
G01X2138934Y-410464D01*
G01X2141728Y-402336D01*
G01X2141728Y-399796D01*
G01X2138934Y-391922D01*
G01X2133600Y-386588D01*
G01X2125726Y-383794D01*
G01X2123186Y-383794D01*
G01X2115058Y-386588D01*
G01X2109724Y-391922D01*
G01X2107184Y-399796D01*
G01X1876044Y-375920D02*
G01X1873504Y-370586D01*
G01X1868170Y-365252D01*
G01X1862836Y-362712D01*
G01X1852422Y-362712D01*
G01X1847088Y-365252D01*
G01X1841754Y-370586D01*
G01X1838960Y-375920D01*
G01X1836420Y-383794D01*
G01X1836420Y-397256D01*
G01X1838960Y-405130D01*
G01X1841754Y-410464D01*
G01X1847088Y-415798D01*
G01X1852422Y-418338D01*
G01X1862836Y-418338D01*
G01X1868170Y-415798D01*
G01X1873504Y-410464D01*
G01X1876044Y-405130D01*
G01X1941068Y-362712D02*
G01X1914652Y-418338D01*
G01X1903984Y-362712D02*
G01X1941068Y-362712D01*
G01X490220Y-680212D02*
G01X490220Y-735838D01*
G01X490220Y-680212D02*
G01X508762Y-680212D01*
G01X516636Y-682752D01*
G01X521970Y-688086D01*
G01X524764Y-693420D01*
G01X527304Y-701294D01*
G01X527304Y-714756D01*
G01X524764Y-722630D01*
G01X521970Y-727964D01*
G01X516636Y-733298D01*
G01X508762Y-735838D01*
G01X490220Y-735838D01*
G01X555244Y-690880D02*
G01X560578Y-688086D01*
G01X568452Y-680212D01*
G01X568452Y-735838D01*
G01X1798320Y-2064512D02*
G01X1798320Y-2120138D01*
G01X1798320Y-2064512D02*
G01X1822196Y-2064512D01*
G01X1830070Y-2067052D01*
G01X1832864Y-2069846D01*
G01X1835404Y-2075180D01*
G01X1835404Y-2080514D01*
G01X1832864Y-2085594D01*
G01X1830070Y-2088388D01*
G01X1822196Y-2090928D01*
G01X1798320Y-2090928D01*
G01X1816862Y-2090928D02*
G01X1835404Y-2120138D01*
G01X1863344Y-2075180D02*
G01X1868678Y-2072386D01*
G01X1876552Y-2064512D01*
G01X1876552Y-2120138D01*
G01X1798320Y-1937512D02*
G01X1798320Y-1993138D01*
G01X1798320Y-1937512D02*
G01X1822196Y-1937512D01*
G01X1830070Y-1940052D01*
G01X1832864Y-1942846D01*
G01X1835404Y-1948180D01*
G01X1835404Y-1953514D01*
G01X1832864Y-1958594D01*
G01X1830070Y-1961388D01*
G01X1822196Y-1963928D01*
G01X1798320Y-1963928D01*
G01X1816862Y-1963928D02*
G01X1835404Y-1993138D01*
G01X1865884Y-1950720D02*
G01X1865884Y-1948180D01*
G01X1868678Y-1942846D01*
G01X1871218Y-1940052D01*
G01X1876552Y-1937512D01*
G01X1887220Y-1937512D01*
G01X1892554Y-1940052D01*
G01X1895094Y-1942846D01*
G01X1897888Y-1948180D01*
G01X1897888Y-1953514D01*
G01X1895094Y-1958594D01*
G01X1889760Y-1966722D01*
G01X1863344Y-1993138D01*
G01X1900428Y-1993138D01*
G01X1798320Y-1810512D02*
G01X1798320Y-1866138D01*
G01X1798320Y-1810512D02*
G01X1822196Y-1810512D01*
G01X1830070Y-1813052D01*
G01X1832864Y-1815846D01*
G01X1835404Y-1821180D01*
G01X1835404Y-1826514D01*
G01X1832864Y-1831594D01*
G01X1830070Y-1834388D01*
G01X1822196Y-1836928D01*
G01X1798320Y-1836928D01*
G01X1816862Y-1836928D02*
G01X1835404Y-1866138D01*
G01X1868678Y-1810512D02*
G01X1897888Y-1810512D01*
G01X1881886Y-1831594D01*
G01X1889760Y-1831594D01*
G01X1895094Y-1834388D01*
G01X1897888Y-1836928D01*
G01X1900428Y-1845056D01*
G01X1900428Y-1850136D01*
G01X1897888Y-1858264D01*
G01X1892554Y-1863598D01*
G01X1884426Y-1866138D01*
G01X1876552Y-1866138D01*
G01X1868678Y-1863598D01*
G01X1865884Y-1860804D01*
G01X1863344Y-1855470D01*
G01X769620Y-273812D02*
G01X769620Y-329438D01*
G01X769620Y-273812D02*
G01X793496Y-273812D01*
G01X801370Y-276352D01*
G01X804164Y-279146D01*
G01X806704Y-284480D01*
G01X806704Y-289814D01*
G01X804164Y-294894D01*
G01X801370Y-297688D01*
G01X793496Y-300228D01*
G01X769620Y-300228D01*
G01X788162Y-300228D02*
G01X806704Y-329438D01*
G01X861060Y-273812D02*
G01X834644Y-310896D01*
G01X874268Y-310896D01*
G01X861060Y-273812D02*
G01X861060Y-329438D01*
G01X274320Y-400812D02*
G01X274320Y-456438D01*
G01X274320Y-400812D02*
G01X298196Y-400812D01*
G01X306070Y-403352D01*
G01X308864Y-406146D01*
G01X311404Y-411480D01*
G01X311404Y-416814D01*
G01X308864Y-421894D01*
G01X306070Y-424688D01*
G01X298196Y-427228D01*
G01X274320Y-427228D01*
G01X292862Y-427228D02*
G01X311404Y-456438D01*
G01X339344Y-411480D02*
G01X344678Y-408686D01*
G01X352552Y-400812D01*
G01X352552Y-456438D01*
G01X412242Y-408686D02*
G01X409702Y-403352D01*
G01X401574Y-400812D01*
G01X396494Y-400812D01*
G01X388366Y-403352D01*
G01X383032Y-411480D01*
G01X380492Y-424688D01*
G01X380492Y-437896D01*
G01X383032Y-448564D01*
G01X388366Y-453898D01*
G01X396494Y-456438D01*
G01X399034Y-456438D01*
G01X406908Y-453898D01*
G01X412242Y-448564D01*
G01X415036Y-440436D01*
G01X415036Y-437896D01*
G01X412242Y-430022D01*
G01X406908Y-424688D01*
G01X399034Y-421894D01*
G01X396494Y-421894D01*
G01X388366Y-424688D01*
G01X383032Y-430022D01*
G01X380492Y-437896D01*
G01X693420Y-438912D02*
G01X693420Y-478536D01*
G01X695960Y-486664D01*
G01X701294Y-491998D01*
G01X709422Y-494538D01*
G01X714502Y-494538D01*
G01X722630Y-491998D01*
G01X727964Y-486664D01*
G01X730504Y-478536D01*
G01X730504Y-438912D01*
G01X758444Y-449580D02*
G01X763778Y-446786D01*
G01X771652Y-438912D01*
G01X771652Y-494538D01*
G01X1899920Y-83312D02*
G01X1899920Y-122936D01*
G01X1902460Y-131064D01*
G01X1907794Y-136398D01*
G01X1915922Y-138938D01*
G01X1921002Y-138938D01*
G01X1929130Y-136398D01*
G01X1934464Y-131064D01*
G01X1937004Y-122936D01*
G01X1937004Y-83312D01*
G01X1967484Y-96520D02*
G01X1967484Y-93980D01*
G01X1970278Y-88646D01*
G01X1972818Y-85852D01*
G01X1978152Y-83312D01*
G01X1988820Y-83312D01*
G01X1994154Y-85852D01*
G01X1996694Y-88646D01*
G01X1999488Y-93980D01*
G01X1999488Y-99314D01*
G01X1996694Y-104394D01*
G01X1991360Y-112522D01*
G01X1964944Y-138938D01*
G01X2002028Y-138938D01*
G01X843534Y-1480820D02*
G01X778510Y-1480820D01*
G01X843534Y-1480820D02*
G01X843534Y-1508760D01*
G01X840486Y-1517904D01*
G01X837438Y-1520952D01*
G01X831088Y-1524254D01*
G01X824992Y-1524254D01*
G01X818896Y-1520952D01*
G01X815848Y-1517904D01*
G01X812546Y-1508760D01*
G01X812546Y-1480820D01*
G01X812546Y-1502410D02*
G01X778510Y-1524254D01*
G01X834390Y-1591564D02*
G01X840486Y-1588516D01*
G01X843534Y-1579118D01*
G01X843534Y-1573022D01*
G01X840486Y-1563624D01*
G01X831088Y-1557528D01*
G01X815848Y-1554480D01*
G01X800354Y-1554480D01*
G01X787908Y-1557528D01*
G01X781558Y-1563624D01*
G01X778510Y-1573022D01*
G01X778510Y-1576070D01*
G01X781558Y-1585214D01*
G01X787908Y-1591564D01*
G01X797052Y-1594612D01*
G01X800354Y-1594612D01*
G01X809498Y-1591564D01*
G01X815848Y-1585214D01*
G01X818896Y-1576070D01*
G01X818896Y-1573022D01*
G01X815848Y-1563624D01*
G01X809498Y-1557528D01*
G01X800354Y-1554480D01*
G01X831088Y-1988820D02*
G01X775462Y-1988820D01*
G01X831088Y-1988820D02*
G01X831088Y-2012696D01*
G01X828548Y-2020570D01*
G01X825754Y-2023364D01*
G01X820420Y-2025904D01*
G01X815086Y-2025904D01*
G01X810006Y-2023364D01*
G01X807212Y-2020570D01*
G01X804672Y-2012696D01*
G01X804672Y-1988820D01*
G01X804672Y-2007362D02*
G01X775462Y-2025904D01*
G01X831088Y-2085594D02*
G01X831088Y-2059178D01*
G01X807212Y-2056384D01*
G01X810006Y-2059178D01*
G01X812546Y-2067052D01*
G01X812546Y-2074926D01*
G01X810006Y-2083054D01*
G01X804672Y-2088388D01*
G01X796544Y-2090928D01*
G01X791464Y-2090928D01*
G01X783336Y-2088388D01*
G01X778002Y-2083054D01*
G01X775462Y-2074926D01*
G01X775462Y-2067052D01*
G01X778002Y-2059178D01*
G01X780796Y-2056384D01*
G01X786130Y-2053844D01*
G01X541020Y-2555748D02*
G01X541020Y-2605024D01*
G01X541020Y-2555748D02*
G01X562102Y-2555748D01*
G01X568960Y-2558288D01*
G01X571500Y-2560574D01*
G01X573786Y-2565146D01*
G01X573786Y-2569972D01*
G01X571500Y-2574544D01*
G01X568960Y-2576830D01*
G01X562102Y-2579116D01*
G01X541020Y-2579116D01*
G01X557276Y-2579116D02*
G01X573786Y-2605024D01*
G01X632968Y-2562860D02*
G01X628396Y-2558288D01*
G01X621284Y-2555748D01*
G01X611886Y-2555748D01*
G01X605028Y-2558288D01*
G01X600202Y-2562860D01*
G01X600202Y-2567432D01*
G01X602488Y-2572258D01*
G01X605028Y-2574544D01*
G01X609600Y-2576830D01*
G01X623570Y-2581656D01*
G01X628396Y-2583942D01*
G01X630682Y-2586228D01*
G01X632968Y-2590800D01*
G01X632968Y-2597912D01*
G01X628396Y-2602484D01*
G01X621284Y-2605024D01*
G01X611886Y-2605024D01*
G01X605028Y-2602484D01*
G01X600202Y-2597912D01*
G01X675894Y-2555748D02*
G01X675894Y-2605024D01*
G01X659384Y-2555748D02*
G01X692150Y-2555748D01*
G04 Text End*

G04 PolygonModel Start*
G54D11*
G01X1277457Y-2047319D02*
G01X1277457Y-2127316D01*
G01X1277503Y-1991274D02*
G01X1277503Y-1911276D01*
G01X1135489Y-2047319D02*
G01X1135489Y-2127316D01*
G01X1135537Y-1991274D02*
G01X1135537Y-1911276D01*
G01X1246475Y-2158291D02*
G01X1166470Y-2158291D01*
G01X1166523Y-1880298D02*
G01X1246525Y-1880298D01*
G01X1135537Y-1911281D02*
G02X1166523Y-1880298I30983J0D01*
G01X1246520Y-1880298D02*
G02X1277503Y-1911281I0J-30983D01*
G01X1277457Y-2127311D02*
G02X1246475Y-2158291I-30983J3D01*
G01X1166477Y-2158291D02*
G02X1135489Y-2127311I-5J30983D01*
G01X1506057Y-2047319D02*
G01X1506057Y-2127316D01*
G01X1506103Y-1991274D02*
G01X1506103Y-1911276D01*
G01X1364089Y-2047319D02*
G01X1364089Y-2127316D01*
G01X1364137Y-1991274D02*
G01X1364137Y-1911276D01*
G01X1475075Y-2158291D02*
G01X1395070Y-2158291D01*
G01X1395123Y-1880298D02*
G01X1475125Y-1880298D01*
G01X1364137Y-1911281D02*
G02X1395123Y-1880298I30983J0D01*
G01X1475120Y-1880298D02*
G02X1506103Y-1911281I0J-30983D01*
G01X1506057Y-2127311D02*
G02X1475075Y-2158291I-30983J3D01*
G01X1395077Y-2158291D02*
G02X1364089Y-2127311I-5J30983D01*
G01X1622981Y-490057D02*
G01X1542984Y-490057D01*
G01X1679026Y-490103D02*
G01X1759024Y-490103D01*
G01X1622981Y-348089D02*
G01X1542984Y-348089D01*
G01X1679026Y-348137D02*
G01X1759024Y-348137D01*
G01X1512009Y-459075D02*
G01X1512009Y-379070D01*
G01X1790002Y-379123D02*
G01X1790002Y-459125D01*
G01X1759019Y-348137D02*
G02X1790002Y-379123I0J-30983D01*
G01X1790002Y-459120D02*
G02X1759019Y-490103I-30983J0D01*
G01X1542989Y-490057D02*
G02X1512009Y-459075I3J30983D01*
G01X1512009Y-379077D02*
G02X1542989Y-348089I30983J5D01*
G01X868843Y-2283381D02*
G01X868843Y-2203384D01*
G01X868797Y-2339426D02*
G01X868797Y-2419424D01*
G01X1010811Y-2283381D02*
G01X1010811Y-2203384D01*
G01X1010763Y-2339426D02*
G01X1010763Y-2419424D01*
G01X899825Y-2172409D02*
G01X979830Y-2172409D01*
G01X979777Y-2450401D02*
G01X899775Y-2450401D01*
G01X1010763Y-2419419D02*
G02X979777Y-2450401I-30983J0D01*
G01X899780Y-2450401D02*
G02X868797Y-2419419I0J30983D01*
G01X868843Y-2203389D02*
G02X899825Y-2172409I30983J-3D01*
G01X979823Y-2172409D02*
G02X1010811Y-2203389I5J-30983D01*
G01X2227743Y-568881D02*
G01X2227743Y-488884D01*
G01X2227697Y-624926D02*
G01X2227697Y-704924D01*
G01X2369711Y-568881D02*
G01X2369711Y-488884D01*
G01X2369663Y-624926D02*
G01X2369663Y-704924D01*
G01X2258725Y-457909D02*
G01X2338730Y-457909D01*
G01X2338677Y-735901D02*
G01X2258675Y-735901D01*
G01X2369663Y-704919D02*
G02X2338677Y-735901I-30983J0D01*
G01X2258680Y-735901D02*
G02X2227697Y-704919I0J30983D01*
G01X2227743Y-488889D02*
G02X2258725Y-457909I30983J-3D01*
G01X2338723Y-457909D02*
G02X2369711Y-488889I5J-30983D01*
G01X2024543Y-568881D02*
G01X2024543Y-488884D01*
G01X2024497Y-624926D02*
G01X2024497Y-704924D01*
G01X2166511Y-568881D02*
G01X2166511Y-488884D01*
G01X2166463Y-624926D02*
G01X2166463Y-704924D01*
G01X2055525Y-457909D02*
G01X2135530Y-457909D01*
G01X2135477Y-735901D02*
G01X2055475Y-735901D01*
G01X2166463Y-704919D02*
G02X2135477Y-735901I-30983J0D01*
G01X2055480Y-735901D02*
G02X2024497Y-704919I0J30983D01*
G01X2024543Y-488889D02*
G02X2055525Y-457909I30983J-3D01*
G01X2135523Y-457909D02*
G02X2166511Y-488889I5J-30983D01*
G01X1821343Y-568881D02*
G01X1821343Y-488884D01*
G01X1821297Y-624926D02*
G01X1821297Y-704924D01*
G01X1963311Y-568881D02*
G01X1963311Y-488884D01*
G01X1963263Y-624926D02*
G01X1963263Y-704924D01*
G01X1852325Y-457909D02*
G01X1932330Y-457909D01*
G01X1932277Y-735901D02*
G01X1852275Y-735901D01*
G01X1963263Y-704919D02*
G02X1932277Y-735901I-30983J0D01*
G01X1852280Y-735901D02*
G02X1821297Y-704919I0J30983D01*
G01X1821343Y-488889D02*
G02X1852325Y-457909I30983J-3D01*
G01X1932323Y-457909D02*
G02X1963311Y-488889I5J-30983D01*
G54D12*
G01X442999Y-488399D02*
G01X573001Y-488399D01*
G01X535927Y-492760D02*
G01X535927Y-577774D01*
G01X442999Y-578401D02*
G01X573001Y-578401D01*
G54D10*
G01X1709979Y-1623040D02*
G01X1614091Y-1623040D01*
G01X1614091Y-1623040D02*
G01X1614091Y-1755160D01*
G01X1614091Y-1755160D02*
G01X1709979Y-1755160D01*
G01X1795221Y-1623040D02*
G01X1891109Y-1623040D01*
G01X1891109Y-1623040D02*
G01X1891109Y-1755160D01*
G01X1891109Y-1755160D02*
G01X1795221Y-1755160D01*
G01X1709979Y-1457940D02*
G01X1614091Y-1457940D01*
G01X1614091Y-1457940D02*
G01X1614091Y-1590060D01*
G01X1614091Y-1590060D02*
G01X1709979Y-1590060D01*
G01X1795221Y-1457940D02*
G01X1891109Y-1457940D01*
G01X1891109Y-1457940D02*
G01X1891109Y-1590060D01*
G01X1891109Y-1590060D02*
G01X1795221Y-1590060D01*
G01X1709979Y-1292840D02*
G01X1614091Y-1292840D01*
G01X1614091Y-1292840D02*
G01X1614091Y-1424960D01*
G01X1614091Y-1424960D02*
G01X1709979Y-1424960D01*
G01X1795221Y-1292840D02*
G01X1891109Y-1292840D01*
G01X1891109Y-1292840D02*
G01X1891109Y-1424960D01*
G01X1891109Y-1424960D02*
G01X1795221Y-1424960D01*
G54D11*
G01X872134Y-594004D02*
G01X872134Y-1183996D01*
G01X872134Y-1183996D02*
G01X1462126Y-1183996D01*
G01X1462126Y-1183996D02*
G01X1462126Y-594004D01*
G01X1462126Y-594004D02*
G01X872134Y-594004D01*
G54D13*
G01X792480Y-1295400D02*
G03X792607Y-1325402I127J-15001D01*
G03X792734Y-1295400I0J15001D01*
G54D14*
G01X947166Y-1088898D02*
G03X947293Y-1128898I127J-20000D01*
G03X947420Y-1088898I0J20000D01*
G54D10*
G01X1523660Y-1470452D02*
G01X1523660Y-1806174D01*
G01X1523660Y-1806174D02*
G01X1117940Y-1806174D01*
G01X1117940Y-1806174D02*
G01X1117940Y-1470452D01*
G01X1117940Y-1470452D02*
G01X1523660Y-1470452D01*
G01X1546520Y-1613311D02*
G01X1546520Y-1447592D01*
G01X1546520Y-1447592D02*
G01X1360800Y-1447592D01*
G01X1005860Y-1570279D02*
G01X1005860Y-1474391D01*
G01X1005860Y-1474391D02*
G01X873740Y-1474391D01*
G01X873740Y-1474391D02*
G01X873740Y-1570279D01*
G01X1005860Y-1655521D02*
G01X1005860Y-1751409D01*
G01X1005860Y-1751409D02*
G01X873740Y-1751409D01*
G01X873740Y-1751409D02*
G01X873740Y-1655521D01*
G01X1005860Y-1913179D02*
G01X1005860Y-1817291D01*
G01X1005860Y-1817291D02*
G01X873740Y-1817291D01*
G01X873740Y-1817291D02*
G01X873740Y-1913179D01*
G01X1005860Y-1998421D02*
G01X1005860Y-2094309D01*
G01X1005860Y-2094309D02*
G01X873740Y-2094309D01*
G01X873740Y-2094309D02*
G01X873740Y-1998421D01*
G54D15*
G01X541983Y-288920D02*
G01X541983Y-193680D01*
G01X541983Y-193680D02*
G01X572038Y-193680D01*
G01X677217Y-288920D02*
G01X677217Y-193680D01*
G01X677217Y-193680D02*
G01X647162Y-193680D01*
G01X612043Y-288920D02*
G01X607157Y-288920D01*

G04 Circle Start*
G54D17*
G01X678900Y-382400D02*
G03X687900Y-382400I4500J0D01*
G03X678900Y-382400I-4500J0D01*
G01X516200Y-381000D02*
G03X525200Y-381000I4500J0D01*
G03X516200Y-381000I-4500J0D01*
G04 Circle End*

M02*

