G04 Layer: BottomLayer*
G04 EasyEDA Pro v3.2.149.88089769, 2026-07-13 20:44:55*
G04 Gerber Generator version 0.3*
G04 Scale: 100 percent, Rotated: No, Reflected: No*
G04 Dimensions in millimeters*
G04 Leading zeros omitted, absolute positions, 4 integers and 5 decimals*
G04 Generated by one-click*
G04 Object Configs: Pad,Via,Track,Text,Image,Dimension,BoardOutline,BoardCutout,CopperFilled,SolidRegion,FPCStiffener,Line,PlaneZone,ComponentProperty,ComponentSilkscreen,TearDrop*
G04 Layer Configs: 1,2,3,4,5,6,7,8,9,10,11,13,14,56*
G04 Copper Areas: 25*
%FSLAX45Y45*%
%MOMM*%
%ADD10C,0.2032*%
%ADD11C,0.254*%
%ADD12C,1.7*%
%ADD13R,1.7X1.7*%
%ADD14R,1.2X0.8*%
%ADD15R,1.2X0.7*%
%ADD16O,1.9X1.1*%
%ADD17C,1.8*%
%ADD18C,0.6149*%
%ADD19C,0.61*%
G75*


G04 Copper Start*
G36*
G01X2695702Y-44249D02*
G01X2695702Y-185024D01*
G01X2690057Y-160332D01*
G01X2680604Y-136833D01*
G01X2667580Y-115110D01*
G01X2651306Y-95701D01*
G01X2632186Y-79088D01*
G01X2610695Y-65683D01*
G01X2587366Y-55819D01*
G01X2562778Y-49740D01*
G01X2537540Y-47597D01*
G01X2512278Y-49444D01*
G01X2487620Y-55234D01*
G01X2464177Y-64824D01*
G01X2442530Y-77976D01*
G01X2423217Y-94363D01*
G01X2406716Y-113580D01*
G01X2393438Y-135149D01*
G01X2383711Y-158536D01*
G01X2377776Y-183159D01*
G01X2375781Y-208410D01*
G01X2377776Y-233660D01*
G01X2383711Y-258283D01*
G01X2393438Y-281670D01*
G01X2406716Y-303239D01*
G01X2423217Y-322456D01*
G01X2442530Y-338843D01*
G01X2464177Y-351995D01*
G01X2487620Y-361585D01*
G01X2512278Y-367375D01*
G01X2537540Y-369222D01*
G01X2562778Y-367079D01*
G01X2587366Y-361000D01*
G01X2610695Y-351136D01*
G01X2632186Y-337731D01*
G01X2651306Y-321118D01*
G01X2667580Y-301709D01*
G01X2680604Y-279986D01*
G01X2690057Y-256487D01*
G01X2695702Y-231795D01*
G01X2695702Y-2565004D01*
G01X2690057Y-2540312D01*
G01X2680604Y-2516813D01*
G01X2667580Y-2495090D01*
G01X2651306Y-2475681D01*
G01X2632186Y-2459068D01*
G01X2610695Y-2445663D01*
G01X2587366Y-2435799D01*
G01X2562778Y-2429720D01*
G01X2537540Y-2427577D01*
G01X2512278Y-2429424D01*
G01X2487620Y-2435214D01*
G01X2464177Y-2444804D01*
G01X2442530Y-2457956D01*
G01X2423217Y-2474343D01*
G01X2406716Y-2493560D01*
G01X2393438Y-2515129D01*
G01X2383711Y-2538516D01*
G01X2377776Y-2563139D01*
G01X2375781Y-2588390D01*
G01X2377776Y-2613640D01*
G01X2383711Y-2638263D01*
G01X2393438Y-2661650D01*
G01X2406716Y-2683219D01*
G01X2423217Y-2702436D01*
G01X2442530Y-2718823D01*
G01X2464177Y-2731975D01*
G01X2487620Y-2741565D01*
G01X2512278Y-2747355D01*
G01X2537540Y-2749202D01*
G01X2562778Y-2747059D01*
G01X2587366Y-2740980D01*
G01X2610695Y-2731116D01*
G01X2632186Y-2717711D01*
G01X2651306Y-2701098D01*
G01X2667580Y-2681689D01*
G01X2680604Y-2659966D01*
G01X2690057Y-2636467D01*
G01X2695702Y-2611775D01*
G01X2695702Y-2752651D01*
G01X1812407Y-2752651D01*
G01X1826464Y-2735870D01*
G01X1837263Y-2716827D01*
G01X1844447Y-2696148D01*
G01X1847783Y-2674513D01*
G01X1847159Y-2652630D01*
G01X1842597Y-2631220D01*
G01X1834246Y-2610984D01*
G01X1822380Y-2592588D01*
G01X1807390Y-2576634D01*
G01X1789766Y-2563648D01*
G01X1770089Y-2554054D01*
G01X1749004Y-2548169D01*
G01X1727203Y-2546186D01*
G01X1705401Y-2548169D01*
G01X1684316Y-2554054D01*
G01X1664639Y-2563648D01*
G01X1647015Y-2576634D01*
G01X1632025Y-2592588D01*
G01X1620160Y-2610984D01*
G01X1611809Y-2631220D01*
G01X1607246Y-2652630D01*
G01X1606623Y-2674513D01*
G01X1609958Y-2696148D01*
G01X1617142Y-2716827D01*
G01X1627941Y-2735870D01*
G01X1641998Y-2752651D01*
G01X1558407Y-2752651D01*
G01X1572464Y-2735870D01*
G01X1583263Y-2716827D01*
G01X1590447Y-2696148D01*
G01X1593783Y-2674513D01*
G01X1593159Y-2652630D01*
G01X1588597Y-2631220D01*
G01X1580246Y-2610984D01*
G01X1568380Y-2592588D01*
G01X1553390Y-2576634D01*
G01X1535766Y-2563648D01*
G01X1516089Y-2554054D01*
G01X1495004Y-2548169D01*
G01X1473203Y-2546186D01*
G01X1451401Y-2548169D01*
G01X1430316Y-2554054D01*
G01X1410639Y-2563648D01*
G01X1393015Y-2576634D01*
G01X1378025Y-2592588D01*
G01X1366160Y-2610984D01*
G01X1357809Y-2631220D01*
G01X1353246Y-2652630D01*
G01X1352623Y-2674513D01*
G01X1355958Y-2696148D01*
G01X1363142Y-2716827D01*
G01X1373941Y-2735870D01*
G01X1387998Y-2752651D01*
G01X1304407Y-2752651D01*
G01X1318464Y-2735870D01*
G01X1329263Y-2716827D01*
G01X1336447Y-2696148D01*
G01X1339783Y-2674513D01*
G01X1339159Y-2652630D01*
G01X1334597Y-2631220D01*
G01X1326246Y-2610984D01*
G01X1314380Y-2592588D01*
G01X1299390Y-2576634D01*
G01X1281766Y-2563648D01*
G01X1262089Y-2554054D01*
G01X1241004Y-2548169D01*
G01X1219203Y-2546186D01*
G01X1197401Y-2548169D01*
G01X1176316Y-2554054D01*
G01X1156639Y-2563648D01*
G01X1139015Y-2576634D01*
G01X1124025Y-2592588D01*
G01X1112160Y-2610984D01*
G01X1103809Y-2631220D01*
G01X1099246Y-2652630D01*
G01X1098623Y-2674513D01*
G01X1101958Y-2696148D01*
G01X1109142Y-2716827D01*
G01X1119941Y-2735870D01*
G01X1133998Y-2752651D01*
G01X1086010Y-2752651D01*
G01X1086016Y-2752000D01*
G01X1086016Y-2582000D01*
G01X1084264Y-2570933D01*
G01X1079177Y-2560949D01*
G01X1071253Y-2553026D01*
G01X1061270Y-2547939D01*
G01X1050202Y-2546186D01*
G01X880203Y-2546186D01*
G01X869136Y-2547939D01*
G01X859152Y-2553026D01*
G01X851229Y-2560949D01*
G01X846142Y-2570933D01*
G01X844389Y-2582000D01*
G01X844389Y-2752000D01*
G01X844395Y-2752651D01*
G01X47417Y-2752651D01*
G01X47417Y-2611215D01*
G01X52984Y-2635955D01*
G01X62371Y-2659512D01*
G01X75344Y-2681301D01*
G01X91582Y-2700779D01*
G01X110679Y-2717463D01*
G01X132161Y-2730937D01*
G01X155495Y-2740867D01*
G01X180099Y-2747005D01*
G01X205363Y-2749200D01*
G01X230657Y-2747396D01*
G01X255353Y-2741638D01*
G01X278837Y-2732069D01*
G01X300525Y-2718928D01*
G01X319877Y-2702541D01*
G01X336413Y-2683315D01*
G01X349721Y-2661730D01*
G01X359471Y-2638320D01*
G01X365419Y-2613669D01*
G01X367419Y-2588390D01*
G01X365419Y-2563110D01*
G01X359471Y-2538459D01*
G01X349721Y-2515050D01*
G01X336413Y-2493464D01*
G01X319877Y-2474238D01*
G01X300525Y-2457851D01*
G01X278837Y-2444710D01*
G01X255353Y-2435142D01*
G01X230657Y-2429384D01*
G01X205363Y-2427579D01*
G01X180099Y-2429774D01*
G01X155495Y-2435912D01*
G01X132161Y-2445842D01*
G01X110679Y-2459316D01*
G01X91582Y-2476000D01*
G01X75344Y-2495478D01*
G01X62371Y-2517267D01*
G01X52984Y-2540824D01*
G01X47417Y-2565564D01*
G01X47417Y-2200498D01*
G01X137082Y-2200498D01*
G01X137082Y-2219483D01*
G01X141029Y-2238054D01*
G01X148751Y-2255397D01*
G01X159911Y-2270757D01*
G01X174020Y-2283460D01*
G01X190461Y-2292953D01*
G01X208517Y-2298820D01*
G01X227399Y-2300804D01*
G01X227399Y-2300804D01*
G01X307398Y-2300804D01*
G01X326280Y-2298820D01*
G01X344336Y-2292953D01*
G01X360777Y-2283460D01*
G01X374886Y-2270757D01*
G01X386046Y-2255397D01*
G01X393768Y-2238054D01*
G01X397715Y-2219483D01*
G01X397715Y-2206523D01*
G01X516660Y-2206523D01*
G01X517797Y-2224722D01*
G01X522546Y-2242327D01*
G01X530716Y-2258628D01*
G01X541979Y-2272968D01*
G01X555878Y-2284769D01*
G01X571856Y-2293556D01*
G01X589266Y-2298974D01*
G01X607408Y-2300804D01*
G01X687408Y-2300804D01*
G01X705583Y-2298967D01*
G01X723023Y-2293529D01*
G01X739022Y-2284711D01*
G01X752932Y-2272869D01*
G01X764191Y-2258483D01*
G01X772343Y-2242134D01*
G01X777058Y-2224485D01*
G01X778145Y-2206249D01*
G01X775560Y-2188164D01*
G01X769408Y-2170963D01*
G01X759938Y-2155341D01*
G01X747533Y-2141931D01*
G01X732695Y-2131274D01*
G01X716025Y-2123803D01*
G01X732401Y-2123803D01*
G01X743469Y-2122050D01*
G01X753452Y-2116963D01*
G01X761376Y-2109040D01*
G01X766463Y-2099056D01*
G01X768215Y-2087989D01*
G01X768215Y-2007989D01*
G01X767302Y-1999951D01*
G01X764607Y-1992323D01*
G01X760269Y-1985495D01*
G01X764607Y-1978666D01*
G01X767302Y-1971038D01*
G01X768215Y-1963000D01*
G01X768215Y-1959576D01*
G01X772621Y-1949541D01*
G01X775313Y-1938917D01*
G01X776219Y-1927995D01*
G01X775313Y-1917072D01*
G01X772621Y-1906448D01*
G01X768215Y-1896413D01*
G01X768215Y-1893000D01*
G01X767383Y-1885321D01*
G01X764923Y-1878000D01*
G01X767383Y-1870678D01*
G01X768215Y-1863000D01*
G01X768215Y-1793000D01*
G01X767383Y-1785321D01*
G01X764923Y-1778000D01*
G01X767383Y-1770679D01*
G01X768215Y-1763000D01*
G01X768215Y-1693000D01*
G01X767383Y-1685322D01*
G01X764923Y-1678000D01*
G01X767383Y-1670679D01*
G01X768215Y-1663000D01*
G01X768215Y-1659577D01*
G01X772621Y-1649542D01*
G01X775313Y-1638918D01*
G01X776219Y-1627995D01*
G01X775313Y-1617073D01*
G01X772621Y-1606449D01*
G01X768215Y-1596413D01*
G01X768215Y-1593000D01*
G01X767302Y-1584962D01*
G01X764607Y-1577334D01*
G01X760269Y-1570505D01*
G01X764607Y-1563677D01*
G01X767302Y-1556049D01*
G01X768215Y-1548011D01*
G01X768215Y-1468011D01*
G01X766463Y-1456944D01*
G01X761376Y-1446960D01*
G01X753452Y-1439037D01*
G01X743469Y-1433950D01*
G01X732401Y-1432197D01*
G01X716025Y-1432197D01*
G01X732695Y-1424726D01*
G01X747533Y-1414069D01*
G01X759938Y-1400659D01*
G01X769408Y-1385037D01*
G01X775560Y-1367836D01*
G01X778145Y-1349751D01*
G01X777058Y-1331515D01*
G01X772343Y-1313866D01*
G01X764191Y-1297517D01*
G01X752932Y-1283131D01*
G01X739022Y-1271289D01*
G01X723023Y-1262471D01*
G01X705583Y-1257033D01*
G01X687408Y-1255196D01*
G01X607408Y-1255196D01*
G01X589266Y-1257026D01*
G01X571856Y-1262444D01*
G01X555878Y-1271231D01*
G01X541979Y-1283032D01*
G01X530716Y-1297372D01*
G01X522546Y-1313673D01*
G01X517797Y-1331278D01*
G01X516660Y-1349477D01*
G01X519182Y-1367535D01*
G01X525261Y-1384726D01*
G01X534651Y-1400356D01*
G01X546974Y-1413796D01*
G01X561734Y-1424502D01*
G01X578335Y-1432044D01*
G01X596108Y-1436118D01*
G01X588070Y-1441731D01*
G01X581855Y-1449314D01*
G01X577930Y-1458299D01*
G01X576588Y-1468011D01*
G01X576588Y-1468011D01*
G01X576588Y-1548011D01*
G01X577501Y-1556049D01*
G01X580196Y-1563677D01*
G01X584534Y-1570505D01*
G01X580196Y-1577334D01*
G01X577501Y-1584962D01*
G01X576588Y-1593000D01*
G01X576588Y-1594207D01*
G01X570692Y-1609414D01*
G01X568686Y-1625600D01*
G01X570692Y-1641786D01*
G01X576588Y-1656993D01*
G01X576588Y-1663000D01*
G01X577420Y-1670679D01*
G01X579880Y-1678000D01*
G01X577420Y-1685322D01*
G01X576588Y-1693000D01*
G01X576588Y-1763000D01*
G01X577420Y-1770679D01*
G01X579880Y-1778000D01*
G01X577420Y-1785321D01*
G01X576588Y-1793000D01*
G01X576588Y-1863000D01*
G01X577420Y-1870678D01*
G01X579880Y-1878000D01*
G01X577420Y-1885321D01*
G01X576588Y-1893000D01*
G01X576588Y-1899007D01*
G01X570692Y-1914214D01*
G01X568686Y-1930400D01*
G01X570692Y-1946586D01*
G01X576588Y-1961793D01*
G01X576588Y-1963000D01*
G01X577501Y-1971038D01*
G01X580196Y-1978666D01*
G01X584534Y-1985495D01*
G01X580196Y-1992323D01*
G01X577501Y-1999951D01*
G01X576588Y-2007989D01*
G01X576588Y-2087989D01*
G01X577930Y-2097701D01*
G01X581855Y-2106686D01*
G01X588070Y-2114269D01*
G01X596108Y-2119882D01*
G01X578335Y-2123956D01*
G01X561734Y-2131498D01*
G01X546974Y-2142204D01*
G01X534651Y-2155644D01*
G01X525261Y-2171274D01*
G01X519182Y-2188465D01*
G01X516660Y-2206523D01*
G01X397715Y-2206523D01*
G01X397715Y-2200498D01*
G01X393768Y-2181927D01*
G01X386046Y-2164584D01*
G01X374886Y-2149224D01*
G01X360777Y-2136521D01*
G01X344336Y-2127028D01*
G01X326280Y-2121161D01*
G01X307398Y-2119177D01*
G01X227399Y-2119177D01*
G01X208517Y-2121161D01*
G01X190461Y-2127028D01*
G01X174020Y-2136521D01*
G01X159911Y-2149224D01*
G01X148751Y-2164584D01*
G01X141029Y-2181927D01*
G01X137082Y-2200498D01*
G01X47417Y-2200498D01*
G01X47417Y-1336517D01*
G01X137082Y-1336517D01*
G01X137082Y-1355502D01*
G01X141029Y-1374073D01*
G01X148751Y-1391416D01*
G01X159911Y-1406776D01*
G01X174020Y-1419479D01*
G01X190461Y-1428972D01*
G01X208517Y-1434839D01*
G01X227399Y-1436823D01*
G01X227399Y-1436823D01*
G01X307398Y-1436823D01*
G01X326280Y-1434839D01*
G01X344336Y-1428972D01*
G01X360777Y-1419479D01*
G01X374886Y-1406776D01*
G01X386046Y-1391416D01*
G01X393768Y-1374073D01*
G01X397715Y-1355502D01*
G01X397715Y-1336517D01*
G01X393768Y-1317946D01*
G01X386046Y-1300603D01*
G01X374886Y-1285243D01*
G01X360777Y-1272540D01*
G01X344336Y-1263047D01*
G01X326280Y-1257180D01*
G01X307398Y-1255196D01*
G01X227399Y-1255196D01*
G01X208517Y-1257180D01*
G01X190461Y-1263047D01*
G01X174020Y-1272540D01*
G01X159911Y-1285243D01*
G01X148751Y-1300603D01*
G01X141029Y-1317946D01*
G01X137082Y-1336517D01*
G01X47417Y-1336517D01*
G01X47417Y-231235D01*
G01X52984Y-255975D01*
G01X62371Y-279532D01*
G01X75344Y-301321D01*
G01X91582Y-320799D01*
G01X110679Y-337483D01*
G01X132161Y-350957D01*
G01X155495Y-360887D01*
G01X180099Y-367025D01*
G01X205363Y-369220D01*
G01X230657Y-367416D01*
G01X255353Y-361658D01*
G01X278837Y-352089D01*
G01X300525Y-338948D01*
G01X319877Y-322561D01*
G01X336413Y-303335D01*
G01X349721Y-281750D01*
G01X359471Y-258340D01*
G01X365419Y-233689D01*
G01X367419Y-208410D01*
G01X365419Y-183130D01*
G01X359471Y-158479D01*
G01X349721Y-135070D01*
G01X336413Y-113484D01*
G01X319877Y-94258D01*
G01X300525Y-77871D01*
G01X278837Y-64730D01*
G01X255353Y-55162D01*
G01X230657Y-49404D01*
G01X205363Y-47599D01*
G01X180099Y-49794D01*
G01X155495Y-55932D01*
G01X132161Y-65862D01*
G01X110679Y-79336D01*
G01X91582Y-96020D01*
G01X75344Y-115498D01*
G01X62371Y-137287D01*
G01X52984Y-160844D01*
G01X47417Y-185584D01*
G01X47417Y-44249D01*
G01X926319Y-44249D01*
G01X908596Y-56985D01*
G01X893340Y-72593D01*
G01X881011Y-90602D01*
G01X871979Y-110471D01*
G01X866518Y-131601D01*
G01X864790Y-153358D01*
G01X866848Y-175086D01*
G01X872630Y-196131D01*
G01X881962Y-215860D01*
G01X894563Y-233680D01*
G01X910054Y-249054D01*
G01X927969Y-261519D01*
G01X947769Y-270701D01*
G01X968857Y-276323D01*
G01X990600Y-278216D01*
G01X1012343Y-276323D01*
G01X1033431Y-270701D01*
G01X1053231Y-261519D01*
G01X1071146Y-249054D01*
G01X1086637Y-233680D01*
G01X1099238Y-215860D01*
G01X1108570Y-196131D01*
G01X1114352Y-175086D01*
G01X1116410Y-153358D01*
G01X1114682Y-131601D01*
G01X1109221Y-110471D01*
G01X1100189Y-90602D01*
G01X1087860Y-72593D01*
G01X1072604Y-56985D01*
G01X1054881Y-44249D01*
G01X1180319Y-44249D01*
G01X1162596Y-56985D01*
G01X1147340Y-72593D01*
G01X1135011Y-90602D01*
G01X1125979Y-110471D01*
G01X1120518Y-131601D01*
G01X1118790Y-153358D01*
G01X1120848Y-175086D01*
G01X1126630Y-196131D01*
G01X1135962Y-215860D01*
G01X1148563Y-233680D01*
G01X1164054Y-249054D01*
G01X1181969Y-261519D01*
G01X1201769Y-270701D01*
G01X1222857Y-276323D01*
G01X1244600Y-278216D01*
G01X1266343Y-276323D01*
G01X1287431Y-270701D01*
G01X1307231Y-261519D01*
G01X1325146Y-249054D01*
G01X1340637Y-233680D01*
G01X1353238Y-215860D01*
G01X1362570Y-196131D01*
G01X1368352Y-175086D01*
G01X1370410Y-153358D01*
G01X1368682Y-131601D01*
G01X1363221Y-110471D01*
G01X1354189Y-90602D01*
G01X1341860Y-72593D01*
G01X1326604Y-56985D01*
G01X1308881Y-44249D01*
G01X1434319Y-44249D01*
G01X1416460Y-57102D01*
G01X1401114Y-72870D01*
G01X1388748Y-91070D01*
G01X1379743Y-111145D01*
G01X1374373Y-132483D01*
G01X1372803Y-154430D01*
G01X1375080Y-176315D01*
G01X1381134Y-197469D01*
G01X1390782Y-217244D01*
G01X1403727Y-235036D01*
G01X1419574Y-250301D01*
G01X1437838Y-262571D01*
G01X1457961Y-271472D01*
G01X1479326Y-276731D01*
G01X1015891Y-740166D01*
G01X825925Y-740166D01*
G01X820455Y-734696D01*
G01X810407Y-726986D01*
G01X798706Y-722139D01*
G01X786150Y-720486D01*
G01X776406Y-720486D01*
G01X774833Y-719621D01*
G01X772677Y-718035D01*
G01X759185Y-709332D01*
G01X743997Y-704127D01*
G01X728002Y-702724D01*
G01X712140Y-705207D01*
G01X697339Y-711429D01*
G01X684467Y-721026D01*
G01X674279Y-733436D01*
G01X667372Y-747930D01*
G01X664151Y-763659D01*
G01X664805Y-779701D01*
G01X669295Y-795116D01*
G01X677358Y-809000D01*
G01X669885Y-821547D01*
G01X665340Y-835425D01*
G01X663943Y-849961D01*
G01X649119Y-850304D01*
G01X634741Y-853933D01*
G01X621530Y-860665D01*
G01X610144Y-870165D01*
G01X601154Y-881958D01*
G01X595009Y-895453D01*
G01X592017Y-909976D01*
G01X591614Y-912622D01*
G01X591114Y-914346D01*
G01X565096Y-940364D01*
G01X557386Y-950412D01*
G01X552539Y-962113D01*
G01X550886Y-974669D01*
G01X550886Y-1106946D01*
G01X552539Y-1119502D01*
G01X557386Y-1131203D01*
G01X565096Y-1141251D01*
G01X641149Y-1217304D01*
G01X651197Y-1225014D01*
G01X662897Y-1229861D01*
G01X675454Y-1231514D01*
G01X743092Y-1231514D01*
G01X832886Y-1321308D01*
G01X832886Y-2387805D01*
G01X615166Y-2605525D01*
G01X600239Y-2605829D01*
G01X585759Y-2609462D01*
G01X572456Y-2616240D01*
G01X561005Y-2625819D01*
G01X551986Y-2637716D01*
G01X545854Y-2651328D01*
G01X542919Y-2665966D01*
G01X543331Y-2680890D01*
G01X547069Y-2695344D01*
G01X553943Y-2708597D01*
G01X563658Y-2719995D01*
G01X575683Y-2728922D01*
G01X589404Y-2734923D01*
G01X604122Y-2737692D01*
G01X619086Y-2737088D01*
G01X633533Y-2733141D01*
G01X646726Y-2726053D01*
G01X657992Y-2716186D01*
G01X666757Y-2704042D01*
G01X672573Y-2690241D01*
G01X673830Y-2686481D01*
G01X675255Y-2683162D01*
G01X675827Y-2682082D01*
G01X915704Y-2442205D01*
G01X923414Y-2432157D01*
G01X928261Y-2420457D01*
G01X929914Y-2407900D01*
G01X929914Y-1379883D01*
G01X944291Y-1387656D01*
G01X960133Y-1391677D01*
G01X976478Y-1391700D01*
G01X992331Y-1387725D01*
G01X1006731Y-1379994D01*
G01X1018803Y-1368975D01*
G01X1027812Y-1355338D01*
G01X1033213Y-1339912D01*
G01X1277366Y-1584065D01*
G01X1277366Y-2281125D01*
G01X1273795Y-2284695D01*
G01X1266086Y-2294743D01*
G01X1261239Y-2306444D01*
G01X1259586Y-2319000D01*
G01X1259586Y-2328744D01*
G01X1258720Y-2330317D01*
G01X1257134Y-2332473D01*
G01X1248517Y-2345789D01*
G01X1243309Y-2360770D01*
G01X1241807Y-2376560D01*
G01X1244097Y-2392255D01*
G01X1250049Y-2406957D01*
G01X1259322Y-2419825D01*
G01X1271386Y-2430123D01*
G01X1285549Y-2437262D01*
G01X1301003Y-2440833D01*
G01X1316863Y-2440633D01*
G01X1332222Y-2436671D01*
G01X1346200Y-2429176D01*
G01X1360179Y-2436671D01*
G01X1375537Y-2440633D01*
G01X1391397Y-2440833D01*
G01X1406851Y-2437262D01*
G01X1421015Y-2430123D01*
G01X1433078Y-2419825D01*
G01X1442351Y-2406957D01*
G01X1448303Y-2392255D01*
G01X1450594Y-2376560D01*
G01X1449092Y-2360770D01*
G01X1443883Y-2345789D01*
G01X1435266Y-2332473D01*
G01X1433680Y-2330317D01*
G01X1432814Y-2328744D01*
G01X1432814Y-2319000D01*
G01X1431161Y-2306444D01*
G01X1426315Y-2294743D01*
G01X1418605Y-2284696D01*
G01X1415034Y-2281125D01*
G01X1415034Y-2222500D01*
G01X1678965Y-2222500D01*
G01X1680718Y-2233567D01*
G01X1685805Y-2243551D01*
G01X1693728Y-2251474D01*
G01X1703712Y-2256561D01*
G01X1714779Y-2258314D01*
G01X1866900Y-2258314D01*
G01X1877967Y-2256561D01*
G01X1887951Y-2251474D01*
G01X1895874Y-2243551D01*
G01X1900961Y-2233567D01*
G01X1902714Y-2222500D01*
G01X1902714Y-2090682D01*
G01X1900961Y-2079615D01*
G01X1895874Y-2069631D01*
G01X1887951Y-2061708D01*
G01X1877967Y-2056621D01*
G01X1866900Y-2054868D01*
G01X1714779Y-2054868D01*
G01X1703712Y-2056621D01*
G01X1693728Y-2061708D01*
G01X1685805Y-2069631D01*
G01X1680718Y-2079615D01*
G01X1678965Y-2090682D01*
G01X1678965Y-2222500D01*
G01X1678965Y-2222500D01*
G01X1415034Y-2222500D01*
G01X1415034Y-1547136D01*
G01X1413381Y-1534580D01*
G01X1408535Y-1522879D01*
G01X1400825Y-1512832D01*
G01X1371607Y-1483614D01*
G01X1485094Y-1483614D01*
G01X1486666Y-1484480D01*
G01X1488822Y-1486066D01*
G01X1501351Y-1494292D01*
G01X1515407Y-1499494D01*
G01X1530273Y-1501407D01*
G01X1545189Y-1499932D01*
G01X1559392Y-1495146D01*
G01X1572158Y-1487292D01*
G01X1582834Y-1476772D01*
G01X1590875Y-1464124D01*
G01X1595869Y-1449992D01*
G01X1597563Y-1435100D01*
G01X1595869Y-1420208D01*
G01X1590875Y-1406076D01*
G01X1582834Y-1393428D01*
G01X1572158Y-1382908D01*
G01X1559392Y-1375054D01*
G01X1545189Y-1370268D01*
G01X1530273Y-1368793D01*
G01X1515407Y-1370706D01*
G01X1501351Y-1375908D01*
G01X1488822Y-1384134D01*
G01X1486666Y-1385720D01*
G01X1485094Y-1386586D01*
G01X1378995Y-1386586D01*
G01X1006750Y-1014341D01*
G01X1540451Y-1014341D01*
G01X1543672Y-1030070D01*
G01X1550579Y-1044564D01*
G01X1560767Y-1056974D01*
G01X1573639Y-1066571D01*
G01X1588440Y-1072793D01*
G01X1604302Y-1075276D01*
G01X1620297Y-1073873D01*
G01X1635485Y-1068668D01*
G01X1648977Y-1059965D01*
G01X1651133Y-1058379D01*
G01X1652706Y-1057514D01*
G01X1844593Y-1057514D01*
G01X1973860Y-1186781D01*
G01X1974359Y-1188504D01*
G01X1974762Y-1191151D01*
G01X1977936Y-1206220D01*
G01X1984499Y-1220151D01*
G01X1994099Y-1232193D01*
G01X2006218Y-1241695D01*
G01X2020201Y-1248147D01*
G01X2035296Y-1251198D01*
G01X2050687Y-1250686D01*
G01X2050687Y-1606591D01*
G01X2035120Y-1622159D01*
G01X2035120Y-1622159D01*
G01X2033397Y-1622658D01*
G01X2030750Y-1623061D01*
G01X2016074Y-1626104D01*
G01X2002456Y-1632365D01*
G01X1990592Y-1641524D01*
G01X1981088Y-1653113D01*
G01X1974429Y-1666541D01*
G01X1970956Y-1681121D01*
G01X1970845Y-1696109D01*
G01X1974104Y-1710739D01*
G01X1980564Y-1724263D01*
G01X1989897Y-1735991D01*
G01X2001625Y-1745324D01*
G01X2015149Y-1751784D01*
G01X2029779Y-1755043D01*
G01X2044767Y-1754932D01*
G01X2059347Y-1751459D01*
G01X2072775Y-1744800D01*
G01X2084364Y-1735296D01*
G01X2093523Y-1723432D01*
G01X2099784Y-1709814D01*
G01X2102827Y-1695137D01*
G01X2103230Y-1692491D01*
G01X2103729Y-1690768D01*
G01X2109385Y-1685112D01*
G01X2317486Y-1685112D01*
G01X2319416Y-1703474D01*
G01X2325121Y-1721032D01*
G01X2334352Y-1737021D01*
G01X2346706Y-1750742D01*
G01X2361642Y-1761594D01*
G01X2378509Y-1769103D01*
G01X2396568Y-1772942D01*
G01X2415030Y-1772942D01*
G01X2433089Y-1769103D01*
G01X2449956Y-1761594D01*
G01X2464892Y-1750742D01*
G01X2477246Y-1737021D01*
G01X2486477Y-1721032D01*
G01X2492183Y-1703474D01*
G01X2494112Y-1685112D01*
G01X2492183Y-1666751D01*
G01X2486477Y-1649192D01*
G01X2477246Y-1633203D01*
G01X2464892Y-1619483D01*
G01X2449956Y-1608631D01*
G01X2433089Y-1601121D01*
G01X2415030Y-1597283D01*
G01X2396568Y-1597283D01*
G01X2378509Y-1601121D01*
G01X2361642Y-1608631D01*
G01X2346706Y-1619483D01*
G01X2334352Y-1633203D01*
G01X2325121Y-1649192D01*
G01X2319416Y-1666751D01*
G01X2317486Y-1685112D01*
G01X2317486Y-1685112D01*
G01X2109385Y-1685112D01*
G01X2133506Y-1660991D01*
G01X2141216Y-1650944D01*
G01X2146062Y-1639243D01*
G01X2147715Y-1626687D01*
G01X2147715Y-1185113D01*
G01X2317486Y-1185113D01*
G01X2319416Y-1203475D01*
G01X2325121Y-1221033D01*
G01X2334352Y-1237022D01*
G01X2346706Y-1250743D01*
G01X2361642Y-1261595D01*
G01X2378509Y-1269104D01*
G01X2396568Y-1272943D01*
G01X2415030Y-1272943D01*
G01X2433089Y-1269104D01*
G01X2449956Y-1261595D01*
G01X2464892Y-1250743D01*
G01X2477246Y-1237022D01*
G01X2486477Y-1221033D01*
G01X2492183Y-1203475D01*
G01X2494112Y-1185113D01*
G01X2492183Y-1166752D01*
G01X2486477Y-1149193D01*
G01X2477246Y-1133204D01*
G01X2464892Y-1119484D01*
G01X2449956Y-1108632D01*
G01X2433089Y-1101122D01*
G01X2415030Y-1097284D01*
G01X2396568Y-1097284D01*
G01X2378509Y-1101122D01*
G01X2361642Y-1108632D01*
G01X2346706Y-1119484D01*
G01X2334352Y-1133204D01*
G01X2325121Y-1149193D01*
G01X2319416Y-1166752D01*
G01X2317486Y-1185113D01*
G01X2317486Y-1185113D01*
G01X2147715Y-1185113D01*
G01X2147715Y-1160923D01*
G01X2146062Y-1148367D01*
G01X2141216Y-1136666D01*
G01X2133506Y-1126618D01*
G01X1901583Y-894695D01*
G01X1891535Y-886986D01*
G01X1879835Y-882139D01*
G01X1867278Y-880486D01*
G01X1652706Y-880486D01*
G01X1651133Y-879620D01*
G01X1648977Y-878034D01*
G01X1635485Y-869331D01*
G01X1620297Y-864126D01*
G01X1604302Y-862724D01*
G01X1588440Y-865207D01*
G01X1573639Y-871429D01*
G01X1560767Y-881026D01*
G01X1550579Y-893435D01*
G01X1543672Y-907929D01*
G01X1540451Y-923658D01*
G01X1541105Y-939701D01*
G01X1545595Y-955116D01*
G01X1553658Y-969000D01*
G01X1545595Y-982884D01*
G01X1541105Y-998299D01*
G01X1540451Y-1014341D01*
G01X1006750Y-1014341D01*
G01X905344Y-912935D01*
G01X895296Y-905225D01*
G01X883596Y-900378D01*
G01X871039Y-898725D01*
G01X774363Y-898725D01*
G01X774833Y-898380D01*
G01X776406Y-897514D01*
G01X786150Y-897514D01*
G01X798706Y-895861D01*
G01X810407Y-891014D01*
G01X820455Y-883305D01*
G01X825925Y-877834D01*
G01X1101080Y-877834D01*
G01X1113636Y-876181D01*
G01X1125337Y-871335D01*
G01X1135384Y-863625D01*
G01X1627268Y-371741D01*
G01X1628991Y-371242D01*
G01X1631637Y-370839D01*
G01X1647539Y-367380D01*
G01X1662120Y-360152D01*
G01X1674502Y-349591D01*
G01X1683938Y-336332D01*
G01X1689861Y-321174D01*
G01X1691914Y-305030D01*
G01X1689973Y-288872D01*
G01X1684155Y-273674D01*
G01X1674811Y-260350D01*
G01X1679372Y-254709D01*
G01X1698786Y-266127D01*
G01X1719925Y-273899D01*
G01X1742110Y-277778D01*
G01X1764632Y-277640D01*
G01X1786769Y-273488D01*
G01X1807810Y-265455D01*
G01X1827082Y-253800D01*
G01X1843968Y-238896D01*
G01X1857925Y-221219D01*
G01X1868507Y-201338D01*
G01X1875375Y-179888D01*
G01X1878308Y-157557D01*
G01X1877213Y-135061D01*
G01X1872124Y-113121D01*
G01X1863206Y-92440D01*
G01X1850742Y-73680D01*
G01X1835134Y-57443D01*
G01X1816881Y-44249D01*
G01X2695702Y-44249D01*
G37*
G54D10*
G01X2695702Y-44249D02*
G01X2695702Y-185024D01*
G03X2375781Y-208410I-159106J-23385D01*
G03X2695702Y-231795I160815J0D01*
G01X2695702Y-2565004D01*
G03X2375781Y-2588390I-159106J-23385D01*
G03X2695702Y-2611775I160815J0D01*
G01X2695702Y-2752651D01*
G01X1812407Y-2752651D01*
G03X1727203Y-2546186I-85205J85651D01*
G03X1641998Y-2752651I0J-120814D01*
G01X1558407Y-2752651D01*
G03X1473203Y-2546186I-85205J85651D01*
G03X1387998Y-2752651I0J-120814D01*
G01X1304407Y-2752651D01*
G03X1219203Y-2546186I-85205J85651D01*
G03X1133998Y-2752651I0J-120814D01*
G01X1086010Y-2752651D01*
G01X1086016Y-2752000D01*
G01X1086016Y-2582000D01*
G03X1050202Y-2546186I-35814J0D01*
G01X880203Y-2546186D01*
G03X844389Y-2582000I0J-35814D01*
G01X844389Y-2752000D01*
G01X844395Y-2752651D01*
G01X47417Y-2752651D01*
G01X47417Y-2611215D01*
G03X367419Y-2588390I159187J22826D01*
G03X47417Y-2565564I-160815J0D01*
G01X47417Y-231235D01*
G03X367419Y-208410I159187J22826D01*
G03X47417Y-185584I-160815J0D01*
G01X47417Y-44249D01*
G01X926319Y-44249D01*
G03X990600Y-278216I64281J-108153D01*
G03X1054881Y-44249I0J125814D01*
G01X1180319Y-44249D01*
G03X1244600Y-278216I64281J-108153D01*
G03X1308881Y-44249I0J125814D01*
G01X1434319Y-44249D01*
G03X1375080Y-176315I64281J-108153D01*
G03X1479326Y-276731I123520J23913D01*
G01X1015891Y-740166D01*
G01X825925Y-740166D01*
G01X820455Y-734696D01*
G03X786150Y-720486I-34305J-34305D01*
G01X776406Y-720486D01*
G01X774833Y-719621D01*
G01X772677Y-718035D01*
G03X684467Y-721026I-42427J-50966D01*
G03X677358Y-809000I45783J-47974D01*
G03X663943Y-849961I52892J-40000D01*
G03X592017Y-909976I-5887J-66052D01*
G01X591614Y-912622D01*
G01X591114Y-914346D01*
G01X565096Y-940364D01*
G03X550886Y-974669I34305J-34305D01*
G01X550886Y-1106946D01*
G03X565096Y-1141251I48514J0D01*
G01X641149Y-1217304D01*
G03X675454Y-1231514I34305J34305D01*
G01X743092Y-1231514D01*
G01X832886Y-1321308D01*
G01X832886Y-2387805D01*
G01X615166Y-2605525D01*
G03X553943Y-2708597I-6120J-66083D01*
G03X672573Y-2690241I55003J37043D01*
G01X673830Y-2686481D01*
G01X675255Y-2683162D01*
G01X675827Y-2682082D01*
G01X915704Y-2442205D01*
G03X929914Y-2407900I-34305J34305D01*
G01X929914Y-1379883D01*
G03X992331Y-1387725I38487J54003D01*
G03X1033213Y-1339912I-23931J61845D01*
G01X1277366Y-1584065D01*
G01X1277366Y-2281125D01*
G01X1273795Y-2284695D01*
G03X1259586Y-2319000I34305J-34305D01*
G01X1259586Y-2328744D01*
G01X1258720Y-2330317D01*
G01X1257134Y-2332473D01*
G03X1259322Y-2419825I50966J-42427D01*
G03X1346200Y-2429176I48778J44925D01*
G03X1433078Y-2419825I38100J54276D01*
G03X1435266Y-2332473I-48778J44925D01*
G01X1433680Y-2330317D01*
G01X1432814Y-2328744D01*
G01X1432814Y-2319000D01*
G03X1418605Y-2284696I-48514J0D01*
G01X1415034Y-2281125D01*
G01X1415034Y-1547136D01*
G03X1400825Y-1512832I-48514J0D01*
G01X1371607Y-1483614D01*
G01X1485094Y-1483614D01*
G01X1486666Y-1484480D01*
G01X1488822Y-1486066D01*
G03X1597563Y-1435100I42427J50966D01*
G03X1488822Y-1384134I-66314J0D01*
G01X1486666Y-1385720D01*
G01X1485094Y-1386586D01*
G01X1378995Y-1386586D01*
G01X905344Y-912935D01*
G03X871039Y-898725I-34305J-34305D01*
G01X774363Y-898725D01*
G01X774833Y-898380D01*
G01X776406Y-897514D01*
G01X786150Y-897514D01*
G03X820455Y-883305I0J48514D01*
G01X825925Y-877834D01*
G01X1101080Y-877834D01*
G03X1135384Y-863625I0J48514D01*
G01X1627268Y-371741D01*
G01X1628991Y-371242D01*
G01X1631637Y-370839D01*
G03X1674811Y-260350I-6037J66039D01*
G03X1679372Y-254709I-49211J44450D01*
G03X1857925Y-221219I73228J102307D01*
G03X1816881Y-44249I-105325J68817D01*
G01X2695702Y-44249D01*
G01X227399Y-2300804D02*
G01X307398Y-2300804D01*
G03X307398Y-2119177I0J90814D01*
G01X227399Y-2119177D01*
G03X227399Y-2300804I0J-90814D01*
G01X227399Y-1436823D02*
G01X307398Y-1436823D01*
G03X307398Y-1255196I0J90814D01*
G01X227399Y-1255196D01*
G03X227399Y-1436823I0J-90814D01*
G01X576588Y-1468011D02*
G01X576588Y-1548011D01*
G03X584534Y-1570505I35814J0D01*
G03X576588Y-1593000I27868J-22495D01*
G01X576588Y-1594207D01*
G03X576588Y-1656993I58412J-31393D01*
G01X576588Y-1663000D01*
G03X579880Y-1678000I35814J0D01*
G03X576588Y-1693000I32521J-15000D01*
G01X576588Y-1763000D01*
G03X579880Y-1778000I35814J0D01*
G03X576588Y-1793000I32521J-15000D01*
G01X576588Y-1863000D01*
G03X579880Y-1878000I35814J0D01*
G03X576588Y-1893000I32521J-15000D01*
G01X576588Y-1899007D01*
G03X576588Y-1961793I58412J-31393D01*
G01X576588Y-1963000D01*
G03X584534Y-1985495I35814J0D01*
G03X576588Y-2007989I27868J-22495D01*
G01X576588Y-2087989D01*
G03X596108Y-2119882I35814J0D01*
G03X607408Y-2300804I11300J-90108D01*
G01X687408Y-2300804D01*
G03X716025Y-2123803I0J90814D01*
G01X732401Y-2123803D01*
G03X768215Y-2087989I0J35814D01*
G01X768215Y-2007989D01*
G03X760269Y-1985495I-35814J0D01*
G03X768215Y-1963000I-27868J22495D01*
G01X768215Y-1959576D01*
G03X776219Y-1927995I-58311J31582D01*
G03X768215Y-1896413I-66314J0D01*
G01X768215Y-1893000D01*
G03X764923Y-1878000I-35814J0D01*
G03X768215Y-1863000I-32521J15000D01*
G01X768215Y-1793000D01*
G03X764923Y-1778000I-35814J0D01*
G03X768215Y-1763000I-32521J15000D01*
G01X768215Y-1693000D01*
G03X764923Y-1678000I-35814J0D01*
G03X768215Y-1663000I-32521J15000D01*
G01X768215Y-1659577D01*
G03X776219Y-1627995I-58311J31582D01*
G03X768215Y-1596413I-66314J0D01*
G01X768215Y-1593000D01*
G03X760269Y-1570505I-35814J0D01*
G03X768215Y-1548011I-27868J22495D01*
G01X768215Y-1468011D01*
G03X732401Y-1432197I-35814J0D01*
G01X716025Y-1432197D01*
G03X687408Y-1255196I-28617J86187D01*
G01X607408Y-1255196D01*
G03X596108Y-1436118I0J-90814D01*
G03X576588Y-1468011I16293J-31893D01*
G01X2035120Y-1622159D02*
G01X2033397Y-1622658D01*
G01X2030750Y-1623061D01*
G03X1989897Y-1735991I6037J-66039D01*
G03X2102827Y-1695137I46891J46891D01*
G01X2103230Y-1692491D01*
G01X2103729Y-1690768D01*
G01X2133506Y-1660991D01*
G03X2147715Y-1626687I-34305J34305D01*
G01X2147715Y-1160923D01*
G03X2133506Y-1126618I-48514J0D01*
G01X1901583Y-894695D01*
G03X1867278Y-880486I-34305J-34305D01*
G01X1652706Y-880486D01*
G01X1651133Y-879620D01*
G01X1648977Y-878034D01*
G03X1560767Y-881026I-42427J-50966D01*
G03X1553658Y-969000I45783J-47974D01*
G03X1560767Y-1056974I52892J-40000D01*
G03X1648977Y-1059965I45783J47974D01*
G01X1651133Y-1058379D01*
G01X1652706Y-1057514D01*
G01X1844593Y-1057514D01*
G01X1973860Y-1186781D01*
G01X1974359Y-1188504D01*
G01X1974762Y-1191151D01*
G03X2050687Y-1250686I66039J6037D01*
G01X2050687Y-1606591D01*
G01X2035120Y-1622159D01*
G01X1678965Y-2222500D02*
G03X1714779Y-2258314I35814J0D01*
G01X1866900Y-2258314D01*
G03X1902714Y-2222500I0J35814D01*
G01X1902714Y-2090682D01*
G03X1866900Y-2054868I-35814J0D01*
G01X1714779Y-2054868D01*
G03X1678965Y-2090682I0J-35814D01*
G01X1678965Y-2222500D01*
G01X2317486Y-1185113D02*
G03X2494112Y-1185113I88313J0D01*
G03X2317486Y-1185113I-88313J0D01*
G01X2317486Y-1685112D02*
G03X2494112Y-1685112I88313J0D01*
G03X2317486Y-1685112I-88313J0D01*
G54D11*
G01X965203Y-2667000D02*
G01X854549Y-2667000D01*
G01X965203Y-2667000D02*
G01X1075856Y-2667000D01*
G01X965203Y-2667000D02*
G01X965203Y-2556346D01*
G01X990600Y-152403D02*
G01X874946Y-152403D01*
G01X990600Y-152403D02*
G01X1106254Y-152403D01*
G01X990600Y-152403D02*
G01X990600Y-268056D01*
G01X267399Y-1346009D02*
G01X267399Y-1426663D01*
G01X267399Y-1346009D02*
G01X267399Y-1265356D01*
G01X267399Y-1346009D02*
G01X146745Y-1346009D01*
G01X267399Y-1346009D02*
G01X388052Y-1346009D01*
G01X267399Y-2209990D02*
G01X267399Y-2290644D01*
G01X267399Y-2209990D02*
G01X267399Y-2129337D01*
G01X267399Y-2209990D02*
G01X146745Y-2209990D01*
G01X267399Y-2209990D02*
G01X388052Y-2209990D01*
G01X647408Y-1346009D02*
G01X647408Y-1265356D01*
G01X647408Y-1346009D02*
G01X526754Y-1346009D01*
G01X647408Y-1346009D02*
G01X768062Y-1346009D01*
G01X647408Y-2209990D02*
G01X647408Y-2290644D01*
G01X647408Y-2209990D02*
G01X526754Y-2209990D01*
G01X647408Y-2209990D02*
G01X768062Y-2209990D01*
G01X672402Y-2047989D02*
G01X586748Y-2047989D01*
G01X672402Y-2047989D02*
G01X758055Y-2047989D01*
G01X672402Y-1508011D02*
G01X586748Y-1508011D01*
G01X672402Y-1508011D02*
G01X758055Y-1508011D01*
G04 Copper End*

G04 Text Start*
G36*
G01X1753718Y-2196591D02*
G01X1752506Y-2196894D01*
G01X1750688Y-2197197D01*
G01X1748718Y-2197500D01*
G01X1746445Y-2197651D01*
G01X1744324Y-2197500D01*
G01X1741294Y-2197197D01*
G01X1738567Y-2196591D01*
G01X1737203Y-2196136D01*
G01X1735839Y-2195530D01*
G01X1734779Y-2195076D01*
G01X1733870Y-2194621D01*
G01X1731597Y-2193106D01*
G01X1730385Y-2192197D01*
G01X1728112Y-2189924D01*
G01X1727203Y-2188712D01*
G01X1726142Y-2187348D01*
G01X1725233Y-2185985D01*
G01X1724324Y-2184470D01*
G01X1723567Y-2182954D01*
G01X1722960Y-2181439D01*
G01X1722354Y-2180076D01*
G01X1721445Y-2177348D01*
G01X1720991Y-2175833D01*
G01X1720688Y-2174470D01*
G01X1719779Y-2169924D01*
G01X1719476Y-2167803D01*
G01X1719324Y-2165985D01*
G01X1719173Y-2164773D01*
G01X1718870Y-2159015D01*
G01X1734779Y-2159015D01*
G01X1734930Y-2163258D01*
G01X1735233Y-2168106D01*
G01X1735536Y-2170833D01*
G01X1736142Y-2174167D01*
G01X1736445Y-2175530D01*
G01X1736900Y-2177045D01*
G01X1737809Y-2179470D01*
G01X1738567Y-2180833D01*
G01X1739324Y-2182045D01*
G01X1740233Y-2183258D01*
G01X1741294Y-2184167D01*
G01X1742203Y-2184621D01*
G01X1742203Y-2184621D01*
G01X1743718Y-2185227D01*
G01X1745991Y-2185530D01*
G01X1747354Y-2185379D01*
G01X1748112Y-2185227D01*
G01X1749173Y-2184924D01*
G01X1750385Y-2184167D01*
G01X1751445Y-2183258D01*
G01X1752203Y-2182500D01*
G01X1752809Y-2181742D01*
G01X1753870Y-2179621D01*
G01X1754476Y-2178258D01*
G01X1755082Y-2176591D01*
G01X1755536Y-2174621D01*
G01X1755839Y-2173258D01*
G01X1756142Y-2171742D01*
G01X1756445Y-2169621D01*
G01X1756597Y-2167955D01*
G01X1756748Y-2166894D01*
G01X1757051Y-2159621D01*
G01X1757051Y-2157803D01*
G01X1756900Y-2153561D01*
G01X1756748Y-2150227D01*
G01X1756445Y-2147197D01*
G01X1756142Y-2145076D01*
G01X1755536Y-2142045D01*
G01X1754476Y-2138864D01*
G01X1753870Y-2137500D01*
G01X1753263Y-2136288D01*
G01X1752506Y-2135227D01*
G01X1751294Y-2133712D01*
G01X1750233Y-2132955D01*
G01X1748870Y-2132197D01*
G01X1747354Y-2131742D01*
G01X1745082Y-2131591D01*
G01X1742960Y-2131894D01*
G01X1741748Y-2132500D01*
G01X1740839Y-2133258D01*
G01X1740082Y-2134015D01*
G01X1739173Y-2135076D01*
G01X1738415Y-2136288D01*
G01X1737809Y-2137652D01*
G01X1737203Y-2139167D01*
G01X1736748Y-2140682D01*
G01X1736445Y-2142045D01*
G01X1736142Y-2143258D01*
G01X1735839Y-2144773D01*
G01X1735536Y-2146894D01*
G01X1735233Y-2149621D01*
G01X1735082Y-2152652D01*
G01X1734930Y-2154773D01*
G01X1734779Y-2159015D01*
G01X1718870Y-2159015D01*
G01X1718718Y-2157348D01*
G01X1718870Y-2155682D01*
G01X1719173Y-2149318D01*
G01X1719476Y-2146591D01*
G01X1719779Y-2144167D01*
G01X1720385Y-2141136D01*
G01X1720839Y-2139621D01*
G01X1721294Y-2137803D01*
G01X1722203Y-2135076D01*
G01X1722657Y-2133864D01*
G01X1723870Y-2131439D01*
G01X1724627Y-2130227D01*
G01X1725536Y-2128712D01*
G01X1726445Y-2127652D01*
G01X1727657Y-2126136D01*
G01X1728415Y-2125379D01*
G01X1729476Y-2124470D01*
G01X1731597Y-2122955D01*
G01X1733112Y-2122045D01*
G01X1734476Y-2121439D01*
G01X1735688Y-2120985D01*
G01X1737203Y-2120530D01*
G01X1738567Y-2120227D01*
G01X1739779Y-2119924D01*
G01X1741900Y-2119621D01*
G01X1745839Y-2119470D01*
G01X1748870Y-2119621D01*
G01X1750536Y-2119924D01*
G01X1752354Y-2120379D01*
G01X1753870Y-2120833D01*
G01X1755233Y-2121288D01*
G01X1756294Y-2121742D01*
G01X1757506Y-2122348D01*
G01X1758870Y-2123106D01*
G01X1759930Y-2123864D01*
G01X1761748Y-2125379D01*
G01X1764021Y-2127652D01*
G01X1764779Y-2128561D01*
G01X1765385Y-2129470D01*
G01X1766142Y-2130530D01*
G01X1766900Y-2131742D01*
G01X1768718Y-2135379D01*
G01X1769324Y-2136742D01*
G01X1769779Y-2137955D01*
G01X1770082Y-2139015D01*
G01X1770536Y-2140379D01*
G01X1770991Y-2142197D01*
G01X1771294Y-2143561D01*
G01X1771900Y-2146591D01*
G01X1772203Y-2148409D01*
G01X1772506Y-2150833D01*
G01X1772658Y-2152955D01*
G01X1772809Y-2154470D01*
G01X1772961Y-2160076D01*
G01X1772809Y-2165682D01*
G01X1772506Y-2169318D01*
G01X1772203Y-2171742D01*
G01X1771597Y-2175076D01*
G01X1771294Y-2176439D01*
G01X1769930Y-2180985D01*
G01X1769324Y-2182500D01*
G01X1768718Y-2183864D01*
G01X1768112Y-2185076D01*
G01X1767355Y-2186439D01*
G01X1766597Y-2187651D01*
G01X1765991Y-2188561D01*
G01X1765385Y-2189318D01*
G01X1762354Y-2192348D01*
G01X1761597Y-2192954D01*
G01X1760839Y-2193409D01*
G01X1759779Y-2194167D01*
G01X1758264Y-2194924D01*
G01X1756900Y-2195530D01*
G01X1755385Y-2196136D01*
G01X1753718Y-2196591D01*
G37*
G36*
G01X1844627Y-2139470D02*
G01X1843567Y-2138864D01*
G01X1841142Y-2137349D01*
G01X1840536Y-2137046D01*
G01X1840536Y-2196136D01*
G01X1824779Y-2196136D01*
G01X1824779Y-2118864D01*
G01X1829627Y-2118864D01*
G01X1833453Y-2119015D01*
G01X1835233Y-2119470D01*
G01X1836748Y-2120530D01*
G01X1839476Y-2122348D01*
G01X1842506Y-2124167D01*
G01X1845233Y-2125530D01*
G01X1849324Y-2127349D01*
G01X1852354Y-2128561D01*
G01X1855991Y-2129773D01*
G01X1857354Y-2130379D01*
G01X1857696Y-2132235D01*
G01X1857809Y-2137197D01*
G01X1857809Y-2143712D01*
G01X1857051Y-2143712D01*
G01X1855839Y-2143561D01*
G01X1853112Y-2142955D01*
G01X1851748Y-2142500D01*
G01X1848415Y-2141288D01*
G01X1847051Y-2140682D01*
G01X1844627Y-2139470D01*
G37*
G36*
G01X1796749Y-2195985D02*
G01X1795839Y-2196439D01*
G01X1794476Y-2197045D01*
G01X1793112Y-2197500D01*
G01X1791142Y-2197651D01*
G01X1789173Y-2197500D01*
G01X1787961Y-2197197D01*
G01X1786749Y-2196742D01*
G01X1785688Y-2196136D01*
G01X1784779Y-2195379D01*
G01X1784021Y-2194621D01*
G01X1783112Y-2193561D01*
G01X1782355Y-2192045D01*
G01X1781900Y-2189924D01*
G01X1781900Y-2187651D01*
G01X1782506Y-2185985D01*
G01X1783415Y-2184470D01*
G01X1784627Y-2183258D01*
G01X1785688Y-2182500D01*
G01X1786749Y-2181894D01*
G01X1787961Y-2181439D01*
G01X1789173Y-2181136D01*
G01X1791749Y-2180985D01*
G01X1794173Y-2181288D01*
G01X1795385Y-2181742D01*
G01X1796294Y-2182197D01*
G01X1797355Y-2182954D01*
G01X1798567Y-2184167D01*
G01X1799324Y-2185227D01*
G01X1799930Y-2186439D01*
G01X1800385Y-2188409D01*
G01X1800385Y-2190530D01*
G01X1799930Y-2192197D01*
G01X1799173Y-2193561D01*
G01X1798264Y-2194621D01*
G01X1797506Y-2195379D01*
G01X1796749Y-2195985D01*
G37*
G04 Text End*

G04 TearDrop Start*
G36*
G01X1605218Y-343142D02*
G01X1587258Y-325182D01*
G01X1589888Y-321315D01*
G01X1592329Y-315614D01*
G01X1594210Y-309124D01*
G01X1595160Y-302890D01*
G01X1627510Y-335240D01*
G01X1621276Y-336190D01*
G01X1614786Y-338071D01*
G01X1609085Y-340512D01*
G01X1605218Y-343142D01*
G37*
G36*
G01X1591620Y-251007D02*
G01X1586285Y-220421D01*
G01X1588982Y-217198D01*
G01X1592262Y-212530D01*
G01X1598319Y-202262D01*
G01X1615479Y-244672D01*
G01X1612816Y-244066D01*
G01X1609782Y-243934D01*
G01X1606518Y-244238D01*
G01X1603162Y-244941D01*
G01X1596735Y-247398D01*
G01X1593943Y-249077D01*
G01X1591620Y-251007D01*
G37*
G36*
G01X771774Y-756300D02*
G01X771774Y-781700D01*
G01X767179Y-782575D01*
G01X761422Y-784880D01*
G01X755503Y-788139D01*
G01X750424Y-791875D01*
G01X750424Y-746125D01*
G01X755503Y-749861D01*
G01X761422Y-753120D01*
G01X767179Y-755426D01*
G01X771774Y-756300D01*
G37*
G36*
G01X771774Y-836300D02*
G01X771774Y-861700D01*
G01X767179Y-862575D01*
G01X761422Y-864880D01*
G01X755503Y-868139D01*
G01X750424Y-871875D01*
G01X750424Y-826125D01*
G01X755503Y-829861D01*
G01X761422Y-833120D01*
G01X767179Y-835426D01*
G01X771774Y-836300D01*
G37*
G36*
G01X771774Y-996300D02*
G01X771774Y-1021700D01*
G01X767179Y-1022574D01*
G01X761422Y-1024880D01*
G01X755503Y-1028139D01*
G01X750424Y-1031875D01*
G01X750424Y-986125D01*
G01X755503Y-989861D01*
G01X761422Y-993120D01*
G01X767179Y-995425D01*
G01X771774Y-996300D01*
G37*
G36*
G01X771774Y-1076300D02*
G01X771774Y-1101700D01*
G01X767179Y-1102574D01*
G01X761422Y-1104879D01*
G01X755503Y-1108138D01*
G01X750424Y-1111875D01*
G01X750424Y-1066125D01*
G01X755503Y-1069861D01*
G01X761422Y-1073120D01*
G01X767179Y-1075425D01*
G01X771774Y-1076300D01*
G37*
G36*
G01X1295400Y-2333376D02*
G01X1320800Y-2333376D01*
G01X1321675Y-2337971D01*
G01X1323980Y-2343728D01*
G01X1327239Y-2349647D01*
G01X1330975Y-2354726D01*
G01X1285225Y-2354726D01*
G01X1288961Y-2349647D01*
G01X1292220Y-2343728D01*
G01X1294525Y-2337971D01*
G01X1295400Y-2333376D01*
G37*
G36*
G01X1371600Y-2333376D02*
G01X1397000Y-2333376D01*
G01X1397875Y-2337971D01*
G01X1400180Y-2343728D01*
G01X1403439Y-2349647D01*
G01X1407175Y-2354726D01*
G01X1361425Y-2354726D01*
G01X1365161Y-2349647D01*
G01X1368420Y-2343728D01*
G01X1370726Y-2337971D01*
G01X1371600Y-2333376D01*
G37*
G36*
G01X1648074Y-916300D02*
G01X1648074Y-941700D01*
G01X1643479Y-942574D01*
G01X1637722Y-944880D01*
G01X1631803Y-948139D01*
G01X1626724Y-951875D01*
G01X1626724Y-906125D01*
G01X1631803Y-909861D01*
G01X1637722Y-913120D01*
G01X1643479Y-915425D01*
G01X1648074Y-916300D01*
G37*
G36*
G01X1648074Y-996300D02*
G01X1648074Y-1021700D01*
G01X1643479Y-1022574D01*
G01X1637722Y-1024880D01*
G01X1631803Y-1028139D01*
G01X1626724Y-1031875D01*
G01X1626724Y-986125D01*
G01X1631803Y-989861D01*
G01X1637722Y-993120D01*
G01X1643479Y-995425D01*
G01X1648074Y-996300D01*
G37*
G36*
G01X930058Y-1305498D02*
G01X948019Y-1287538D01*
G01X951886Y-1290168D01*
G01X957587Y-1292609D01*
G01X964077Y-1294490D01*
G01X970310Y-1295440D01*
G01X937960Y-1327790D01*
G01X937010Y-1321556D01*
G01X935130Y-1315066D01*
G01X932689Y-1309365D01*
G01X930058Y-1305498D01*
G37*
G36*
G01X2002459Y-1164731D02*
G01X2020419Y-1146771D01*
G01X2024287Y-1149402D01*
G01X2029988Y-1151843D01*
G01X2036477Y-1153723D01*
G01X2042711Y-1154673D01*
G01X2010361Y-1187023D01*
G01X2009411Y-1180789D01*
G01X2007530Y-1174300D01*
G01X2005089Y-1168599D01*
G01X2002459Y-1164731D01*
G37*
G36*
G01X2057170Y-1650758D02*
G01X2075130Y-1668718D01*
G01X2072500Y-1672585D01*
G01X2070059Y-1678286D01*
G01X2068178Y-1684776D01*
G01X2067228Y-1691010D01*
G01X2034878Y-1658660D01*
G01X2041112Y-1657710D01*
G01X2047601Y-1655829D01*
G01X2053302Y-1653388D01*
G01X2057170Y-1650758D01*
G37*
G36*
G01X1489725Y-1447800D02*
G01X1489725Y-1422400D01*
G01X1494320Y-1421525D01*
G01X1500077Y-1419220D01*
G01X1505996Y-1415961D01*
G01X1511075Y-1412225D01*
G01X1511075Y-1457975D01*
G01X1505996Y-1454239D01*
G01X1500077Y-1450980D01*
G01X1494320Y-1448675D01*
G01X1489725Y-1447800D01*
G37*
G36*
G01X637674Y-954355D02*
G01X619714Y-936395D01*
G01X622344Y-932528D01*
G01X624785Y-926827D01*
G01X626665Y-920337D01*
G01X627615Y-914103D01*
G01X659966Y-946454D01*
G01X653732Y-947404D01*
G01X647242Y-949284D01*
G01X641541Y-951725D01*
G01X637674Y-954355D01*
G37*
G36*
G01X636728Y-2634612D02*
G01X648088Y-2659172D01*
G01X645658Y-2662525D01*
G01X642922Y-2667692D01*
G01X640336Y-2673715D01*
G01X638356Y-2679634D01*
G01X613287Y-2641364D01*
G01X616207Y-2641557D01*
G01X619405Y-2641374D01*
G01X626083Y-2640041D01*
G01X632224Y-2637681D01*
G01X634749Y-2636215D01*
G01X636728Y-2634612D01*
G37*
G04 TearDrop End*

G04 Pad Start*
G54D12*
G01X1727203Y-2667000D03*
G01X1473203Y-2667000D03*
G01X1219203Y-2667000D03*
G54D13*
G01X965203Y-2667000D03*
G54D14*
G01X672402Y-2047989D03*
G54D15*
G01X672402Y-1928000D03*
G01X672402Y-1828000D03*
G01X672402Y-1728000D03*
G01X672402Y-1628000D03*
G54D14*
G01X672402Y-1508011D03*
G54D16*
G01X267399Y-1346009D03*
G01X267399Y-2209990D03*
G01X647408Y-1346009D03*
G01X647408Y-2209990D03*
G54D17*
G01X990600Y-152403D03*
G01X1244600Y-152403D03*
G01X1498600Y-152403D03*
G01X1752600Y-152403D03*
G04 Pad End*

G04 Via Start*
G54D19*
G01X1625600Y-304800D03*
G01X1625600Y-215900D03*
G01X730250Y-769000D03*
G01X730250Y-849000D03*
G01X730250Y-1009000D03*
G01X730250Y-1089000D03*
G01X1308100Y-2374900D03*
G01X1384300Y-2374900D03*
G01X1606550Y-929000D03*
G01X1606550Y-1009000D03*
G01X968400Y-1325880D03*
G01X2040801Y-1185113D03*
G01X2036788Y-1689100D03*
G01X1531249Y-1435100D03*
G01X79007Y-1101697D03*
G01X508000Y-533400D03*
G01X2463800Y-850900D03*
G01X2552700Y-2019300D03*
G01X889000Y-68907D03*
G01X812800Y-2667000D03*
G01X939800Y-2381402D03*
G01X939799Y-2035301D03*
G01X1206500Y-2089302D03*
G01X1435100Y-2089302D03*
G01X1430807Y-1723301D03*
G01X1210793Y-1553299D03*
G01X939800Y-1537564D03*
G01X1892300Y-526898D03*
G01X2095500Y-526898D03*
G01X2298700Y-526898D03*
G01X1721002Y-419100D03*
G01X1128400Y-452120D03*
G01X658056Y-916013D03*
G01X608946Y-2671554D03*
G01X649605Y-294259D03*
G01X1048400Y-1410881D03*
G01X2552700Y-939800D03*
G01X2464194Y-939800D03*
G01X2552700Y-851754D03*
G01X2552700Y-1930400D03*
G01X2463800Y-2019300D03*
G01X2463800Y-1930400D03*
G01X635000Y-1625600D03*
G01X672402Y-1828000D03*
G01X672402Y-1728000D03*
G01X635000Y-1930400D03*
G01X709905Y-1627995D03*
G01X709905Y-1927995D03*
G04 Via End*

G04 Track Start*
G54D11*
G01X730250Y-769000D02*
G01X786150Y-769000D01*
G01X1035986Y-788680D02*
G01X1608766Y-215900D01*
G01X730250Y-849000D02*
G01X786150Y-849000D01*
G01X1101080Y-829320D02*
G01X1625600Y-304800D01*
G01X1608766Y-215900D02*
G01X1625600Y-215900D01*
G01X786150Y-769000D02*
G01X805830Y-788680D01*
G01X1035986Y-788680D01*
G01X786150Y-849000D02*
G01X805830Y-829320D01*
G01X1101080Y-829320D01*
G01X1308100Y-2374900D02*
G01X1308100Y-2319000D01*
G01X1384300Y-2374900D02*
G01X1384300Y-2319000D01*
G01X786150Y-1089000D02*
G01X730250Y-1089000D01*
G01X786150Y-1009000D02*
G01X730250Y-1009000D01*
G01X831230Y-1069320D02*
G01X805830Y-1069320D01*
G01X786150Y-1089000D01*
G01X1384300Y-2319000D02*
G01X1366520Y-2301220D01*
G01X805830Y-1028680D02*
G01X786150Y-1009000D01*
G01X1308100Y-2319000D02*
G01X1325880Y-2301220D01*
G01X1325880Y-1563970D01*
G01X848064Y-1028680D02*
G01X805830Y-1028680D01*
G01X1325880Y-1563970D02*
G01X831230Y-1069320D01*
G01X1366520Y-2301220D02*
G01X1366520Y-1547136D01*
G01X848064Y-1028680D01*
G01X1606550Y-1009000D02*
G01X1864688Y-1009000D01*
G01X2040801Y-1185113D01*
G01X1606550Y-929000D02*
G01X1867278Y-929000D01*
G01X2099201Y-1160923D01*
G01X2099201Y-1626687D02*
G01X2036788Y-1689100D01*
G01X2099201Y-1160923D02*
G01X2099201Y-1626687D01*
G01X789920Y-1147400D02*
G01X968400Y-1325880D01*
G01X1358900Y-1435100D02*
G01X871039Y-947239D01*
G01X635000Y-1092200D02*
G01X690200Y-1147400D01*
G01X789920Y-1147400D01*
G01X1531249Y-1435100D02*
G01X1358900Y-1435100D01*
G01X871039Y-947239D02*
G01X709420Y-947239D01*
G01X635000Y-1021659D01*
G01X635000Y-1092200D01*
G01X763187Y-1183000D02*
G01X675454Y-1183000D01*
G01X599400Y-1106946D01*
G01X599400Y-974669D01*
G01X658056Y-916013D01*
G01X608946Y-2671554D02*
G01X617746Y-2671554D01*
G01X881400Y-2407900D01*
G01X881400Y-1301213D01*
G01X763187Y-1183000D01*
G04 Track End*

M02*

