G04 Layer: BottomPasteMaskLayer*
G04 EasyEDA Pro v3.2.149.88089769, 2026-07-13 20:44:55*
G04 Gerber Generator version 0.3*
G04 Scale: 100 percent, Rotated: No, Reflected: No*
G04 Dimensions in millimeters*
G04 Leading zeros omitted, absolute positions, 4 integers and 5 decimals*
G04 Generated by one-click*
G04 Object Configs: Pad,Via,Track,Text,Image,Dimension,BoardOutline,BoardCutout,CopperFilled,SolidRegion,FPCStiffener,Line,PlaneZone,ComponentProperty,ComponentSilkscreen,TearDrop*
G04 Layer Configs: 1,2,3,4,5,6,7,8,9,10,11,13,14,56*
G04 Copper Areas: 0*
%FSLAX45Y45*%
%MOMM*%
%ADD10C,0.254*%
%ADD11C,0.7214*%
G75*


G04 PolygonModel Start*
G36*
G01X709905Y-2087987D02*
G01X609905Y-2087987D01*
G01X609905Y-2007982D01*
G01X709905Y-2007982D01*
G01X709905Y-2087987D01*
G37*
G36*
G01X709905Y-1962998D02*
G01X609905Y-1962998D01*
G01X609905Y-1892991D01*
G01X709905Y-1892991D01*
G01X709905Y-1962998D01*
G37*
G36*
G01X709905Y-1862993D02*
G01X609905Y-1862993D01*
G01X609905Y-1792999D01*
G01X709905Y-1792999D01*
G01X709905Y-1862993D01*
G37*
G36*
G01X709905Y-1762996D02*
G01X609905Y-1762996D01*
G01X609905Y-1692994D01*
G01X709905Y-1692994D01*
G01X709905Y-1762996D01*
G37*
G36*
G01X709905Y-1662994D02*
G01X609905Y-1662994D01*
G01X609905Y-1592997D01*
G01X709905Y-1592997D01*
G01X709905Y-1662994D01*
G37*
G36*
G01X709905Y-1548008D02*
G01X609905Y-1548008D01*
G01X609905Y-1468003D01*
G01X709905Y-1468003D01*
G01X709905Y-1548008D01*
G37*
G36*
G01X742254Y-2205881D02*
G01X742391Y-2208619D01*
G01X742391Y-2211362D01*
G01X742254Y-2214100D01*
G01X741982Y-2216831D01*
G01X741573Y-2219541D01*
G01X741030Y-2222228D01*
G01X740354Y-2224888D01*
G01X739544Y-2227509D01*
G01X738607Y-2230084D01*
G01X737542Y-2232612D01*
G01X736351Y-2235083D01*
G01X735040Y-2237491D01*
G01X733610Y-2239830D01*
G01X732066Y-2242096D01*
G01X730410Y-2244283D01*
G01X728647Y-2246384D01*
G01X726780Y-2248395D01*
G01X724817Y-2250310D01*
G01X722762Y-2252124D01*
G01X720618Y-2253833D01*
G01X718391Y-2255434D01*
G01X716087Y-2256922D01*
G01X713712Y-2258294D01*
G01X711271Y-2259546D01*
G01X708772Y-2260674D01*
G01X706219Y-2261674D01*
G01X703621Y-2262548D01*
G01X700979Y-2263290D01*
G01X698307Y-2263902D01*
G01X695604Y-2264377D01*
G01X692884Y-2264717D01*
G01X690148Y-2264923D01*
G01X687408Y-2264992D01*
G01X607408Y-2264992D01*
G01X604667Y-2264923D01*
G01X601932Y-2264717D01*
G01X599211Y-2264377D01*
G01X596509Y-2263902D01*
G01X593837Y-2263290D01*
G01X591195Y-2262548D01*
G01X588597Y-2261674D01*
G01X586044Y-2260674D01*
G01X583545Y-2259546D01*
G01X581104Y-2258294D01*
G01X578729Y-2256922D01*
G01X576425Y-2255434D01*
G01X574197Y-2253833D01*
G01X572054Y-2252124D01*
G01X569999Y-2250310D01*
G01X568035Y-2248395D01*
G01X566169Y-2246384D01*
G01X564406Y-2244283D01*
G01X562750Y-2242096D01*
G01X561205Y-2239830D01*
G01X559775Y-2237491D01*
G01X558465Y-2235083D01*
G01X557273Y-2232612D01*
G01X556209Y-2230084D01*
G01X555272Y-2227509D01*
G01X554462Y-2224888D01*
G01X553786Y-2222228D01*
G01X553242Y-2219541D01*
G01X552834Y-2216831D01*
G01X552562Y-2214100D01*
G01X552425Y-2211362D01*
G01X552425Y-2208619D01*
G01X552562Y-2205881D01*
G01X552834Y-2203150D01*
G01X553242Y-2200440D01*
G01X553786Y-2197753D01*
G01X554462Y-2195093D01*
G01X555272Y-2192472D01*
G01X556209Y-2189897D01*
G01X557273Y-2187369D01*
G01X558465Y-2184898D01*
G01X559775Y-2182490D01*
G01X561205Y-2180151D01*
G01X562750Y-2177885D01*
G01X564406Y-2175698D01*
G01X566169Y-2173597D01*
G01X568035Y-2171586D01*
G01X569999Y-2169671D01*
G01X572054Y-2167857D01*
G01X574197Y-2166148D01*
G01X576425Y-2164547D01*
G01X578729Y-2163059D01*
G01X581104Y-2161687D01*
G01X583545Y-2160435D01*
G01X586044Y-2159307D01*
G01X588597Y-2158307D01*
G01X591195Y-2157433D01*
G01X593837Y-2156691D01*
G01X596509Y-2156079D01*
G01X599211Y-2155604D01*
G01X601932Y-2155264D01*
G01X604667Y-2155058D01*
G01X607408Y-2154989D01*
G01X687408Y-2154989D01*
G01X690148Y-2155058D01*
G01X692884Y-2155264D01*
G01X695604Y-2155604D01*
G01X698307Y-2156079D01*
G01X700979Y-2156691D01*
G01X703621Y-2157433D01*
G01X706219Y-2158307D01*
G01X708772Y-2159307D01*
G01X711271Y-2160435D01*
G01X713712Y-2161687D01*
G01X716087Y-2163059D01*
G01X718391Y-2164547D01*
G01X720618Y-2166148D01*
G01X722762Y-2167857D01*
G01X724817Y-2169671D01*
G01X726780Y-2171586D01*
G01X728647Y-2173597D01*
G01X730410Y-2175698D01*
G01X732066Y-2177885D01*
G01X733610Y-2180151D01*
G01X735040Y-2182490D01*
G01X736351Y-2184898D01*
G01X737542Y-2187369D01*
G01X738607Y-2189897D01*
G01X739544Y-2192472D01*
G01X740354Y-2195093D01*
G01X741030Y-2197753D01*
G01X741573Y-2200440D01*
G01X741982Y-2203150D01*
G01X742254Y-2205881D01*
G37*
G36*
G01X742254Y-1341900D02*
G01X742391Y-1344638D01*
G01X742391Y-1347381D01*
G01X742254Y-1350119D01*
G01X741982Y-1352850D01*
G01X741573Y-1355560D01*
G01X741030Y-1358247D01*
G01X740354Y-1360907D01*
G01X739544Y-1363528D01*
G01X738607Y-1366103D01*
G01X737542Y-1368631D01*
G01X736351Y-1371102D01*
G01X735040Y-1373510D01*
G01X733610Y-1375849D01*
G01X732066Y-1378115D01*
G01X730410Y-1380302D01*
G01X728647Y-1382403D01*
G01X726780Y-1384414D01*
G01X724817Y-1386329D01*
G01X722762Y-1388143D01*
G01X720618Y-1389852D01*
G01X718391Y-1391453D01*
G01X716087Y-1392941D01*
G01X713712Y-1394313D01*
G01X711271Y-1395565D01*
G01X708772Y-1396693D01*
G01X706219Y-1397693D01*
G01X703621Y-1398567D01*
G01X700979Y-1399309D01*
G01X698307Y-1399921D01*
G01X695604Y-1400396D01*
G01X692884Y-1400736D01*
G01X690148Y-1400942D01*
G01X687408Y-1401011D01*
G01X607408Y-1401011D01*
G01X604667Y-1400942D01*
G01X601932Y-1400736D01*
G01X599211Y-1400396D01*
G01X596509Y-1399921D01*
G01X593837Y-1399309D01*
G01X591195Y-1398567D01*
G01X588597Y-1397693D01*
G01X586044Y-1396693D01*
G01X583545Y-1395565D01*
G01X581104Y-1394313D01*
G01X578729Y-1392941D01*
G01X576425Y-1391453D01*
G01X574197Y-1389852D01*
G01X572054Y-1388143D01*
G01X569999Y-1386329D01*
G01X568035Y-1384414D01*
G01X566169Y-1382403D01*
G01X564406Y-1380302D01*
G01X562750Y-1378115D01*
G01X561205Y-1375849D01*
G01X559775Y-1373510D01*
G01X558465Y-1371102D01*
G01X557273Y-1368631D01*
G01X556209Y-1366103D01*
G01X555272Y-1363528D01*
G01X554462Y-1360907D01*
G01X553786Y-1358247D01*
G01X553242Y-1355560D01*
G01X552834Y-1352850D01*
G01X552562Y-1350119D01*
G01X552425Y-1347381D01*
G01X552425Y-1344638D01*
G01X552562Y-1341900D01*
G01X552834Y-1339169D01*
G01X553242Y-1336459D01*
G01X553786Y-1333772D01*
G01X554462Y-1331112D01*
G01X555272Y-1328491D01*
G01X556209Y-1325916D01*
G01X557273Y-1323388D01*
G01X558465Y-1320917D01*
G01X559775Y-1318509D01*
G01X561205Y-1316170D01*
G01X562750Y-1313904D01*
G01X564406Y-1311717D01*
G01X566169Y-1309616D01*
G01X568035Y-1307605D01*
G01X569999Y-1305690D01*
G01X572054Y-1303876D01*
G01X574197Y-1302167D01*
G01X576425Y-1300566D01*
G01X578729Y-1299078D01*
G01X581104Y-1297706D01*
G01X583545Y-1296454D01*
G01X586044Y-1295326D01*
G01X588597Y-1294326D01*
G01X591195Y-1293452D01*
G01X593837Y-1292710D01*
G01X596509Y-1292098D01*
G01X599211Y-1291623D01*
G01X601932Y-1291283D01*
G01X604667Y-1291077D01*
G01X607408Y-1291008D01*
G01X687408Y-1291008D01*
G01X690148Y-1291077D01*
G01X692884Y-1291283D01*
G01X695604Y-1291623D01*
G01X698307Y-1292098D01*
G01X700979Y-1292710D01*
G01X703621Y-1293452D01*
G01X706219Y-1294326D01*
G01X708772Y-1295326D01*
G01X711271Y-1296454D01*
G01X713712Y-1297706D01*
G01X716087Y-1299078D01*
G01X718391Y-1300566D01*
G01X720618Y-1302167D01*
G01X722762Y-1303876D01*
G01X724817Y-1305690D01*
G01X726780Y-1307605D01*
G01X728647Y-1309616D01*
G01X730410Y-1311717D01*
G01X732066Y-1313904D01*
G01X733610Y-1316170D01*
G01X735040Y-1318509D01*
G01X736351Y-1320917D01*
G01X737542Y-1323388D01*
G01X738607Y-1325916D01*
G01X739544Y-1328491D01*
G01X740354Y-1331112D01*
G01X741030Y-1333772D01*
G01X741573Y-1336459D01*
G01X741982Y-1339169D01*
G01X742254Y-1341900D01*
G37*
G36*
G01X362245Y-2205881D02*
G01X362382Y-2208619D01*
G01X362382Y-2211362D01*
G01X362245Y-2214100D01*
G01X361973Y-2216831D01*
G01X361564Y-2219541D01*
G01X361020Y-2222228D01*
G01X360345Y-2224888D01*
G01X359534Y-2227509D01*
G01X358597Y-2230084D01*
G01X357533Y-2232612D01*
G01X356342Y-2235083D01*
G01X355031Y-2237491D01*
G01X353601Y-2239830D01*
G01X352057Y-2242096D01*
G01X350401Y-2244283D01*
G01X348638Y-2246384D01*
G01X346771Y-2248395D01*
G01X344808Y-2250310D01*
G01X342753Y-2252124D01*
G01X340609Y-2253833D01*
G01X338381Y-2255434D01*
G01X336078Y-2256922D01*
G01X333703Y-2258294D01*
G01X331262Y-2259546D01*
G01X328762Y-2260674D01*
G01X326210Y-2261674D01*
G01X323611Y-2262548D01*
G01X320970Y-2263290D01*
G01X318298Y-2263902D01*
G01X315595Y-2264377D01*
G01X312875Y-2264717D01*
G01X310139Y-2264923D01*
G01X307398Y-2264992D01*
G01X227399Y-2264992D01*
G01X224658Y-2264923D01*
G01X221922Y-2264717D01*
G01X219202Y-2264377D01*
G01X216499Y-2263902D01*
G01X213827Y-2263290D01*
G01X211186Y-2262548D01*
G01X208587Y-2261674D01*
G01X206035Y-2260674D01*
G01X203535Y-2259546D01*
G01X201094Y-2258294D01*
G01X198719Y-2256922D01*
G01X196416Y-2255434D01*
G01X194188Y-2253833D01*
G01X192044Y-2252124D01*
G01X189989Y-2250310D01*
G01X188026Y-2248395D01*
G01X186159Y-2246384D01*
G01X184396Y-2244283D01*
G01X182740Y-2242096D01*
G01X181196Y-2239830D01*
G01X179766Y-2237491D01*
G01X178455Y-2235083D01*
G01X177264Y-2232612D01*
G01X176200Y-2230084D01*
G01X175263Y-2227509D01*
G01X174452Y-2224888D01*
G01X173777Y-2222228D01*
G01X173233Y-2219541D01*
G01X172824Y-2216831D01*
G01X172552Y-2214100D01*
G01X172415Y-2211362D01*
G01X172415Y-2208619D01*
G01X172552Y-2205881D01*
G01X172824Y-2203150D01*
G01X173233Y-2200440D01*
G01X173777Y-2197753D01*
G01X174452Y-2195093D01*
G01X175263Y-2192472D01*
G01X176200Y-2189897D01*
G01X177264Y-2187369D01*
G01X178455Y-2184898D01*
G01X179766Y-2182490D01*
G01X181196Y-2180151D01*
G01X182740Y-2177885D01*
G01X184396Y-2175698D01*
G01X186159Y-2173597D01*
G01X188026Y-2171586D01*
G01X189989Y-2169671D01*
G01X192044Y-2167857D01*
G01X194188Y-2166148D01*
G01X196416Y-2164547D01*
G01X198719Y-2163059D01*
G01X201094Y-2161687D01*
G01X203535Y-2160435D01*
G01X206035Y-2159307D01*
G01X208587Y-2158307D01*
G01X211186Y-2157433D01*
G01X213827Y-2156691D01*
G01X216499Y-2156079D01*
G01X219202Y-2155604D01*
G01X221922Y-2155264D01*
G01X224658Y-2155058D01*
G01X227399Y-2154989D01*
G01X307398Y-2154989D01*
G01X310139Y-2155058D01*
G01X312875Y-2155264D01*
G01X315595Y-2155604D01*
G01X318298Y-2156079D01*
G01X320970Y-2156691D01*
G01X323611Y-2157433D01*
G01X326210Y-2158307D01*
G01X328762Y-2159307D01*
G01X331262Y-2160435D01*
G01X333703Y-2161687D01*
G01X336078Y-2163059D01*
G01X338381Y-2164547D01*
G01X340609Y-2166148D01*
G01X342753Y-2167857D01*
G01X344808Y-2169671D01*
G01X346771Y-2171586D01*
G01X348638Y-2173597D01*
G01X350401Y-2175698D01*
G01X352057Y-2177885D01*
G01X353601Y-2180151D01*
G01X355031Y-2182490D01*
G01X356342Y-2184898D01*
G01X357533Y-2187369D01*
G01X358597Y-2189897D01*
G01X359534Y-2192472D01*
G01X360345Y-2195093D01*
G01X361020Y-2197753D01*
G01X361564Y-2200440D01*
G01X361973Y-2203150D01*
G01X362245Y-2205881D01*
G37*
G36*
G01X362245Y-1341900D02*
G01X362382Y-1344638D01*
G01X362382Y-1347381D01*
G01X362245Y-1350119D01*
G01X361973Y-1352850D01*
G01X361564Y-1355560D01*
G01X361020Y-1358247D01*
G01X360345Y-1360907D01*
G01X359534Y-1363528D01*
G01X358597Y-1366103D01*
G01X357533Y-1368631D01*
G01X356342Y-1371102D01*
G01X355031Y-1373510D01*
G01X353601Y-1375849D01*
G01X352057Y-1378115D01*
G01X350401Y-1380302D01*
G01X348638Y-1382403D01*
G01X346771Y-1384414D01*
G01X344808Y-1386329D01*
G01X342753Y-1388143D01*
G01X340609Y-1389852D01*
G01X338381Y-1391453D01*
G01X336078Y-1392941D01*
G01X333703Y-1394313D01*
G01X331262Y-1395565D01*
G01X328762Y-1396693D01*
G01X326210Y-1397693D01*
G01X323611Y-1398567D01*
G01X320970Y-1399309D01*
G01X318298Y-1399921D01*
G01X315595Y-1400396D01*
G01X312875Y-1400736D01*
G01X310139Y-1400942D01*
G01X307398Y-1401011D01*
G01X227399Y-1401011D01*
G01X224658Y-1400942D01*
G01X221922Y-1400736D01*
G01X219202Y-1400396D01*
G01X216499Y-1399921D01*
G01X213827Y-1399309D01*
G01X211186Y-1398567D01*
G01X208587Y-1397693D01*
G01X206035Y-1396693D01*
G01X203535Y-1395565D01*
G01X201094Y-1394313D01*
G01X198719Y-1392941D01*
G01X196416Y-1391453D01*
G01X194188Y-1389852D01*
G01X192044Y-1388143D01*
G01X189989Y-1386329D01*
G01X188026Y-1384414D01*
G01X186159Y-1382403D01*
G01X184396Y-1380302D01*
G01X182740Y-1378115D01*
G01X181196Y-1375849D01*
G01X179766Y-1373510D01*
G01X178455Y-1371102D01*
G01X177264Y-1368631D01*
G01X176200Y-1366103D01*
G01X175263Y-1363528D01*
G01X174452Y-1360907D01*
G01X173777Y-1358247D01*
G01X173233Y-1355560D01*
G01X172824Y-1352850D01*
G01X172552Y-1350119D01*
G01X172415Y-1347381D01*
G01X172415Y-1344638D01*
G01X172552Y-1341900D01*
G01X172824Y-1339169D01*
G01X173233Y-1336459D01*
G01X173777Y-1333772D01*
G01X174452Y-1331112D01*
G01X175263Y-1328491D01*
G01X176200Y-1325916D01*
G01X177264Y-1323388D01*
G01X178455Y-1320917D01*
G01X179766Y-1318509D01*
G01X181196Y-1316170D01*
G01X182740Y-1313904D01*
G01X184396Y-1311717D01*
G01X186159Y-1309616D01*
G01X188026Y-1307605D01*
G01X189989Y-1305690D01*
G01X192044Y-1303876D01*
G01X194188Y-1302167D01*
G01X196416Y-1300566D01*
G01X198719Y-1299078D01*
G01X201094Y-1297706D01*
G01X203535Y-1296454D01*
G01X206035Y-1295326D01*
G01X208587Y-1294326D01*
G01X211186Y-1293452D01*
G01X213827Y-1292710D01*
G01X216499Y-1292098D01*
G01X219202Y-1291623D01*
G01X221922Y-1291283D01*
G01X224658Y-1291077D01*
G01X227399Y-1291008D01*
G01X307398Y-1291008D01*
G01X310139Y-1291077D01*
G01X312875Y-1291283D01*
G01X315595Y-1291623D01*
G01X318298Y-1292098D01*
G01X320970Y-1292710D01*
G01X323611Y-1293452D01*
G01X326210Y-1294326D01*
G01X328762Y-1295326D01*
G01X331262Y-1296454D01*
G01X333703Y-1297706D01*
G01X336078Y-1299078D01*
G01X338381Y-1300566D01*
G01X340609Y-1302167D01*
G01X342753Y-1303876D01*
G01X344808Y-1305690D01*
G01X346771Y-1307605D01*
G01X348638Y-1309616D01*
G01X350401Y-1311717D01*
G01X352057Y-1313904D01*
G01X353601Y-1316170D01*
G01X355031Y-1318509D01*
G01X356342Y-1320917D01*
G01X357533Y-1323388D01*
G01X358597Y-1325916D01*
G01X359534Y-1328491D01*
G01X360345Y-1331112D01*
G01X361020Y-1333772D01*
G01X361564Y-1336459D01*
G01X361973Y-1339169D01*
G01X362245Y-1341900D01*
G37*

G04 Pad Start*
G04 Pad End*
G54D10*

M02*

