G04 Layer: BottomSilkscreenLayer*
G04 EasyEDA Pro v3.2.149.88089769, 2026-07-13 20:44:55*
G04 Gerber Generator version 0.3*
G04 Scale: 100 percent, Rotated: No, Reflected: No*
G04 Dimensions in millimeters*
G04 Leading zeros omitted, absolute positions, 4 integers and 5 decimals*
G04 Generated by one-click*
G04 Object Configs: Pad,Via,Track,Text,Image,Dimension,BoardOutline,BoardCutout,CopperFilled,SolidRegion,FPCStiffener,Line,PlaneZone,ComponentProperty,ComponentSilkscreen,TearDrop*
G04 Layer Configs: 1,2,3,4,5,6,7,8,9,10,11,13,14,56*
G04 Copper Areas: 0*
%FSLAX45Y45*%
%MOMM*%
%ADD10C,0.203*%
%ADD11C,0.7230*%
G75*


G04 Text Start*
G36*
G01X1939467Y-1864648D02*
G01X1948254Y-1864648D01*
G01X1948254Y-1876466D01*
G01X1939467Y-1876466D01*
G01X1939467Y-1918588D01*
G01X1923709Y-1918588D01*
G01X1923709Y-1876466D01*
G01X1911285Y-1876466D01*
G01X1911285Y-1864648D01*
G01X1923709Y-1864648D01*
G01X1923709Y-1861163D01*
G01X1923557Y-1857224D01*
G01X1923406Y-1856012D01*
G01X1923103Y-1854648D01*
G01X1922648Y-1853436D01*
G01X1922194Y-1852527D01*
G01X1921588Y-1851769D01*
G01X1920830Y-1851163D01*
G01X1919921Y-1850709D01*
G01X1918406Y-1850103D01*
G01X1914921Y-1849800D01*
G01X1912042Y-1849951D01*
G01X1910679Y-1850406D01*
G01X1909618Y-1850709D01*
G01X1909467Y-1844648D01*
G01X1909467Y-1838588D01*
G01X1910224Y-1838436D01*
G01X1911436Y-1838133D01*
G01X1913254Y-1837830D01*
G01X1917951Y-1837679D01*
G01X1921739Y-1837830D01*
G01X1924770Y-1838436D01*
G01X1926133Y-1838891D01*
G01X1927800Y-1839497D01*
G01X1929012Y-1840103D01*
G01X1930073Y-1840709D01*
G01X1931436Y-1841618D01*
G01X1932648Y-1842527D01*
G01X1934164Y-1844042D01*
G01X1935073Y-1845103D01*
G01X1936588Y-1847224D01*
G01X1937345Y-1848739D01*
G01X1937951Y-1850103D01*
G01X1938406Y-1851618D01*
G01X1938709Y-1852982D01*
G01X1939012Y-1854497D01*
G01X1939164Y-1856618D01*
G01X1939315Y-1858133D01*
G01X1939467Y-1861618D01*
G01X1939467Y-1864648D01*
G37*
G36*
G01X1837042Y-1895254D02*
G01X1808254Y-1895254D01*
G01X1808254Y-1884345D01*
G01X1837042Y-1884345D01*
G01X1837042Y-1895254D01*
G37*
G36*
G01X1884467Y-1919345D02*
G01X1882648Y-1919648D01*
G01X1880830Y-1919800D01*
G01X1879921Y-1919951D01*
G01X1877648Y-1920103D01*
G01X1875073Y-1919951D01*
G01X1871739Y-1919648D01*
G01X1868709Y-1919042D01*
G01X1867345Y-1918588D01*
G01X1865830Y-1918133D01*
G01X1862648Y-1916770D01*
G01X1860224Y-1915254D01*
G01X1857800Y-1913436D01*
G01X1855527Y-1911164D01*
G01X1853709Y-1908739D01*
G01X1853103Y-1907830D01*
G01X1852345Y-1906618D01*
G01X1851588Y-1905103D01*
G01X1850982Y-1903739D01*
G01X1850376Y-1902224D01*
G01X1849769Y-1900255D01*
G01X1849315Y-1897982D01*
G01X1849012Y-1896315D01*
G01X1848709Y-1893891D01*
G01X1848633Y-1892224D01*
G01X1864618Y-1892224D01*
G01X1864770Y-1896012D01*
G01X1865073Y-1898133D01*
G01X1866133Y-1901315D01*
G01X1866891Y-1902830D01*
G01X1867648Y-1903891D01*
G01X1869163Y-1905406D01*
G01X1870224Y-1906164D01*
G01X1871436Y-1906770D01*
G01X1872800Y-1907376D01*
G01X1874315Y-1907679D01*
G01X1874315Y-1907679D01*
G01X1875376Y-1907830D01*
G01X1877497Y-1907982D01*
G01X1879315Y-1907830D01*
G01X1880224Y-1907679D01*
G01X1881436Y-1907527D01*
G01X1882800Y-1907073D01*
G01X1884315Y-1906315D01*
G01X1885376Y-1905558D01*
G01X1886436Y-1904497D01*
G01X1887345Y-1903436D01*
G01X1888103Y-1902376D01*
G01X1888861Y-1900709D01*
G01X1889315Y-1899345D01*
G01X1889770Y-1897830D01*
G01X1890073Y-1896012D01*
G01X1890224Y-1894800D01*
G01X1890376Y-1891315D01*
G01X1890224Y-1887830D01*
G01X1889921Y-1885709D01*
G01X1889467Y-1884345D01*
G01X1888861Y-1882679D01*
G01X1888255Y-1881466D01*
G01X1887648Y-1880557D01*
G01X1886739Y-1879345D01*
G01X1885376Y-1878133D01*
G01X1884315Y-1877375D01*
G01X1883255Y-1876769D01*
G01X1881588Y-1876163D01*
G01X1879315Y-1875709D01*
G01X1876285Y-1875557D01*
G01X1874164Y-1875709D01*
G01X1872951Y-1876012D01*
G01X1871588Y-1876466D01*
G01X1870376Y-1877072D01*
G01X1869012Y-1877982D01*
G01X1867800Y-1879345D01*
G01X1867042Y-1880406D01*
G01X1866436Y-1881466D01*
G01X1865830Y-1882830D01*
G01X1865376Y-1884345D01*
G01X1865073Y-1885709D01*
G01X1864770Y-1887527D01*
G01X1864618Y-1892224D01*
G01X1848633Y-1892224D01*
G01X1848557Y-1890557D01*
G01X1848709Y-1887224D01*
G01X1849012Y-1884800D01*
G01X1849315Y-1883285D01*
G01X1849769Y-1881618D01*
G01X1850224Y-1880254D01*
G01X1850679Y-1879042D01*
G01X1851891Y-1876618D01*
G01X1852497Y-1875557D01*
G01X1853406Y-1874194D01*
G01X1854315Y-1872982D01*
G01X1857345Y-1869951D01*
G01X1858406Y-1869042D01*
G01X1859769Y-1868133D01*
G01X1860982Y-1867375D01*
G01X1862042Y-1866769D01*
G01X1863254Y-1866163D01*
G01X1864770Y-1865557D01*
G01X1866436Y-1864951D01*
G01X1868406Y-1864497D01*
G01X1871436Y-1863891D01*
G01X1873861Y-1863588D01*
G01X1877648Y-1863436D01*
G01X1880527Y-1863588D01*
G01X1883255Y-1863891D01*
G01X1886285Y-1864497D01*
G01X1889467Y-1865557D01*
G01X1890982Y-1866163D01*
G01X1892194Y-1866769D01*
G01X1894315Y-1867982D01*
G01X1895679Y-1868891D01*
G01X1896891Y-1869800D01*
G01X1899921Y-1872830D01*
G01X1900679Y-1873739D01*
G01X1901285Y-1874648D01*
G01X1902042Y-1875709D01*
G01X1902951Y-1877224D01*
G01X1903558Y-1878588D01*
G01X1904012Y-1879648D01*
G01X1904467Y-1880860D01*
G01X1904921Y-1882224D01*
G01X1905376Y-1884042D01*
G01X1905679Y-1885709D01*
G01X1905982Y-1887527D01*
G01X1906133Y-1889951D01*
G01X1906285Y-1891467D01*
G01X1906285Y-1893285D01*
G01X1906133Y-1895709D01*
G01X1905982Y-1897224D01*
G01X1905376Y-1900558D01*
G01X1904315Y-1903739D01*
G01X1903709Y-1905103D01*
G01X1902800Y-1906921D01*
G01X1902194Y-1907982D01*
G01X1901588Y-1908891D01*
G01X1900830Y-1909951D01*
G01X1899921Y-1911012D01*
G01X1897648Y-1913285D01*
G01X1896739Y-1914042D01*
G01X1895830Y-1914648D01*
G01X1894770Y-1915406D01*
G01X1893558Y-1916164D01*
G01X1891133Y-1917376D01*
G01X1890073Y-1917830D01*
G01X1889012Y-1918133D01*
G01X1887648Y-1918588D01*
G01X1885982Y-1919042D01*
G01X1884467Y-1919345D01*
G37*
G36*
G01X2048254Y-1919497D02*
G01X2047194Y-1919648D01*
G01X2045527Y-1919800D01*
G01X2044164Y-1919951D01*
G01X2041133Y-1920103D01*
G01X2037800Y-1919951D01*
G01X2033861Y-1919648D01*
G01X2031436Y-1919345D01*
G01X2028103Y-1918739D01*
G01X2026588Y-1918285D01*
G01X2024618Y-1917679D01*
G01X2022800Y-1917073D01*
G01X2021285Y-1916467D01*
G01X2020527Y-1915709D01*
G01X2020376Y-1908285D01*
G01X2020376Y-1901315D01*
G01X2021133Y-1901770D01*
G01X2023861Y-1903133D01*
G01X2026285Y-1904042D01*
G01X2027648Y-1904497D01*
G01X2029012Y-1904800D01*
G01X2030527Y-1905254D01*
G01X2032194Y-1905558D01*
G01X2033255Y-1905709D01*
G01X2035982Y-1906012D01*
G01X2038861Y-1906164D01*
G01X2041739Y-1906012D01*
G01X2044164Y-1905709D01*
G01X2045679Y-1905254D01*
G01X2047648Y-1904648D01*
G01X2049315Y-1904042D01*
G01X2050527Y-1903436D01*
G01X2051739Y-1902679D01*
G01X2053254Y-1901618D01*
G01X2054315Y-1900558D01*
G01X2055073Y-1899951D01*
G01X2055830Y-1899194D01*
G01X2057345Y-1897376D01*
G01X2058103Y-1896164D01*
G01X2058861Y-1894800D01*
G01X2059467Y-1893588D01*
G01X2060073Y-1892224D01*
G01X2060982Y-1889497D01*
G01X2061436Y-1887224D01*
G01X2061739Y-1885406D01*
G01X2061891Y-1880860D01*
G01X2061739Y-1876315D01*
G01X2061133Y-1872982D01*
G01X2060679Y-1871618D01*
G01X2060073Y-1869951D01*
G01X2058557Y-1866921D01*
G01X2057951Y-1865860D01*
G01X2057345Y-1865103D01*
G01X2056436Y-1863891D01*
G01X2053861Y-1861315D01*
G01X2052648Y-1860406D01*
G01X2051133Y-1859345D01*
G01X2049770Y-1858588D01*
G01X2047042Y-1857375D01*
G01X2045527Y-1856921D01*
G01X2044164Y-1856618D01*
G01X2042951Y-1856315D01*
G01X2040830Y-1856012D01*
G01X2036436Y-1855860D01*
G01X2032951Y-1856012D01*
G01X2030527Y-1856315D01*
G01X2027800Y-1856921D01*
G01X2026436Y-1857375D01*
G01X2024770Y-1857982D01*
G01X2023255Y-1858588D01*
G01X2022042Y-1859194D01*
G01X2020982Y-1859800D01*
G01X2020376Y-1860103D01*
G01X2020376Y-1844648D01*
G01X2021133Y-1844497D01*
G01X2022497Y-1844042D01*
G01X2024164Y-1843588D01*
G01X2028709Y-1842679D01*
G01X2030830Y-1842376D01*
G01X2033558Y-1842072D01*
G01X2038558Y-1841921D01*
G01X2043558Y-1842072D01*
G01X2045982Y-1842376D01*
G01X2049315Y-1842982D01*
G01X2050830Y-1843436D01*
G01X2052800Y-1844042D01*
G01X2054618Y-1844648D01*
G01X2055982Y-1845254D01*
G01X2058103Y-1846163D01*
G01X2059315Y-1846921D01*
G01X2060679Y-1847679D01*
G01X2061891Y-1848436D01*
G01X2062951Y-1849194D01*
G01X2064164Y-1850103D01*
G01X2065224Y-1851012D01*
G01X2065982Y-1851618D01*
G01X2068254Y-1853891D01*
G01X2069467Y-1855406D01*
G01X2070224Y-1856163D01*
G01X2070830Y-1856921D01*
G01X2071285Y-1857679D01*
G01X2072042Y-1858739D01*
G01X2072951Y-1860103D01*
G01X2073709Y-1861466D01*
G01X2074315Y-1862527D01*
G01X2074770Y-1863436D01*
G01X2075224Y-1864497D01*
G01X2075830Y-1865860D01*
G01X2076436Y-1867375D01*
G01X2076891Y-1868739D01*
G01X2077951Y-1872982D01*
G01X2078254Y-1874800D01*
G01X2078709Y-1878436D01*
G01X2078861Y-1882982D01*
G01X2078709Y-1887527D01*
G01X2078406Y-1889951D01*
G01X2077800Y-1893285D01*
G01X2077497Y-1894497D01*
G01X2076133Y-1898588D01*
G01X2074921Y-1901315D01*
G01X2074315Y-1902376D01*
G01X2073709Y-1903588D01*
G01X2072951Y-1904648D01*
G01X2072345Y-1905406D01*
G01X2071588Y-1906618D01*
G01X2070679Y-1907830D01*
G01X2066891Y-1911618D01*
G01X2064467Y-1913436D01*
G01X2063406Y-1914194D01*
G01X2062042Y-1914951D01*
G01X2059921Y-1916164D01*
G01X2058406Y-1916770D01*
G01X2057042Y-1917376D01*
G01X2054315Y-1918285D01*
G01X2052497Y-1918739D01*
G01X2050830Y-1919042D01*
G01X2049618Y-1919345D01*
G01X2048254Y-1919497D01*
G37*
G36*
G01X1999921Y-1917982D02*
G01X1998558Y-1918588D01*
G01X1996739Y-1919194D01*
G01X1992952Y-1919951D01*
G01X1990982Y-1920103D01*
G01X1988709Y-1919951D01*
G01X1986285Y-1919648D01*
G01X1985073Y-1919345D01*
G01X1983709Y-1918891D01*
G01X1982345Y-1918285D01*
G01X1980982Y-1917527D01*
G01X1979618Y-1916618D01*
G01X1978558Y-1915709D01*
G01X1977648Y-1914951D01*
G01X1976739Y-1914042D01*
G01X1975224Y-1912224D01*
G01X1974618Y-1911315D01*
G01X1974012Y-1910861D01*
G01X1973785Y-1911732D01*
G01X1973709Y-1914648D01*
G01X1973709Y-1918588D01*
G01X1957951Y-1918588D01*
G01X1957951Y-1864648D01*
G01X1973406Y-1864648D01*
G01X1973557Y-1865406D01*
G01X1973709Y-1882527D01*
G01X1973861Y-1899345D01*
G01X1974164Y-1900558D01*
G01X1974618Y-1901770D01*
G01X1975073Y-1902679D01*
G01X1975679Y-1903739D01*
G01X1976436Y-1904800D01*
G01X1977497Y-1905709D01*
G01X1978861Y-1906618D01*
G01X1980224Y-1907224D01*
G01X1981436Y-1907527D01*
G01X1982952Y-1907830D01*
G01X1984921Y-1907982D01*
G01X1986285Y-1907830D01*
G01X1987497Y-1907527D01*
G01X1988861Y-1906921D01*
G01X1989921Y-1906164D01*
G01X1990679Y-1905406D01*
G01X1991285Y-1904648D01*
G01X1991891Y-1903588D01*
G01X1992497Y-1902376D01*
G01X1992952Y-1900709D01*
G01X1993255Y-1899042D01*
G01X1993406Y-1881618D01*
G01X1993406Y-1864648D01*
G01X2009164Y-1864648D01*
G01X2009164Y-1883285D01*
G01X2009012Y-1902376D01*
G01X2008709Y-1904800D01*
G01X2008406Y-1906164D01*
G01X2007952Y-1907679D01*
G01X2007497Y-1909042D01*
G01X2007042Y-1910254D01*
G01X2006133Y-1912073D01*
G01X2005376Y-1913285D01*
G01X2004467Y-1914345D01*
G01X2002649Y-1916164D01*
G01X2001891Y-1916770D01*
G01X2000982Y-1917376D01*
G01X1999921Y-1917982D01*
G37*
G36*
G01X1666133Y-2059800D02*
G01X1666739Y-2061315D01*
G01X1667345Y-2062679D01*
G01X1667951Y-2063739D01*
G01X1668254Y-2064345D01*
G01X1661133Y-2064345D01*
G01X1655754Y-2064194D01*
G01X1653860Y-2063739D01*
G01X1652951Y-2061618D01*
G01X1652497Y-2060406D01*
G01X1651891Y-2059042D01*
G01X1650678Y-2056012D01*
G01X1650072Y-2054648D01*
G01X1649466Y-2053133D01*
G01X1648860Y-2051770D01*
G01X1648406Y-2050709D01*
G01X1647951Y-2049497D01*
G01X1647345Y-2048133D01*
G01X1646133Y-2045103D01*
G01X1645527Y-2043739D01*
G01X1644921Y-2042224D01*
G01X1644315Y-2040861D01*
G01X1643860Y-2039800D01*
G01X1643406Y-2038588D01*
G01X1642800Y-2037224D01*
G01X1641588Y-2034194D01*
G01X1640981Y-2032830D01*
G01X1640375Y-2031315D01*
G01X1639769Y-2029951D01*
G01X1638406Y-2026770D01*
G01X1637951Y-2025558D01*
G01X1637345Y-2024194D01*
G01X1636133Y-2021164D01*
G01X1635527Y-2019800D01*
G01X1634921Y-2018285D01*
G01X1634315Y-2016921D01*
G01X1633860Y-2015861D01*
G01X1633406Y-2014648D01*
G01X1632800Y-2013285D01*
G01X1631588Y-2010255D01*
G01X1630981Y-2008891D01*
G01X1630375Y-2007376D01*
G01X1629769Y-2006012D01*
G01X1629315Y-2004952D01*
G01X1628860Y-2003739D01*
G01X1628254Y-2002376D01*
G01X1627042Y-1999345D01*
G01X1626436Y-1997982D01*
G01X1625830Y-1996467D01*
G01X1625224Y-1995103D01*
G01X1624769Y-1994042D01*
G01X1624315Y-1992830D01*
G01X1623709Y-1991467D01*
G01X1622497Y-1988436D01*
G01X1621891Y-1987073D01*
G01X1621285Y-1985557D01*
G01X1620678Y-1984194D01*
G01X1620224Y-1983133D01*
G01X1619769Y-1981921D01*
G01X1619163Y-1980557D01*
G01X1617951Y-1977527D01*
G01X1617497Y-1976466D01*
G01X1619163Y-1976239D01*
G01X1624466Y-1976163D01*
G01X1631588Y-1976163D01*
G01X1631739Y-1976921D01*
G01X1632194Y-1978133D01*
G01X1633557Y-1981315D01*
G01X1634012Y-1982527D01*
G01X1634618Y-1983891D01*
G01X1635830Y-1986921D01*
G01X1636436Y-1988285D01*
G01X1637042Y-1989800D01*
G01X1637648Y-1991164D01*
G01X1638103Y-1992224D01*
G01X1638557Y-1993436D01*
G01X1639163Y-1994951D01*
G01X1639769Y-1996315D01*
G01X1640224Y-1997376D01*
G01X1640678Y-1998588D01*
G01X1641285Y-1999951D01*
G01X1642497Y-2002982D01*
G01X1643103Y-2004345D01*
G01X1643709Y-2005861D01*
G01X1644315Y-2007224D01*
G01X1644769Y-2008285D01*
G01X1645224Y-2009497D01*
G01X1645830Y-2011012D01*
G01X1646436Y-2012376D01*
G01X1646891Y-2013436D01*
G01X1647345Y-2014648D01*
G01X1647951Y-2016012D01*
G01X1649163Y-2019042D01*
G01X1649769Y-2020406D01*
G01X1650375Y-2021921D01*
G01X1650981Y-2023285D01*
G01X1651436Y-2024345D01*
G01X1651891Y-2025558D01*
G01X1652497Y-2026921D01*
G01X1654315Y-2031467D01*
G01X1654921Y-2032830D01*
G01X1655527Y-2034345D01*
G01X1656133Y-2035709D01*
G01X1656588Y-2036770D01*
G01X1657042Y-2037982D01*
G01X1657648Y-2039345D01*
G01X1658860Y-2042376D01*
G01X1659466Y-2043739D01*
G01X1660073Y-2045254D01*
G01X1660679Y-2046618D01*
G01X1661133Y-2047679D01*
G01X1661588Y-2048891D01*
G01X1662194Y-2050406D01*
G01X1662800Y-2051770D01*
G01X1663254Y-2052830D01*
G01X1663709Y-2054042D01*
G01X1664315Y-2055406D01*
G01X1665527Y-2058436D01*
G01X1666133Y-2059800D01*
G37*
G36*
G01X1597042Y-2051618D02*
G01X1595376Y-2052073D01*
G01X1593860Y-2052376D01*
G01X1590224Y-2052982D01*
G01X1588103Y-2053133D01*
G01X1585982Y-2052982D01*
G01X1582951Y-2052679D01*
G01X1580224Y-2052073D01*
G01X1578860Y-2051618D01*
G01X1577345Y-2051012D01*
G01X1575982Y-2050406D01*
G01X1574921Y-2049800D01*
G01X1574012Y-2049194D01*
G01X1573103Y-2048436D01*
G01X1571588Y-2047224D01*
G01X1569315Y-2044951D01*
G01X1567497Y-2042679D01*
G01X1567042Y-2041770D01*
G01X1566285Y-2040557D01*
G01X1564921Y-2037830D01*
G01X1564315Y-2036467D01*
G01X1563709Y-2034951D01*
G01X1563254Y-2033588D01*
G01X1562951Y-2032376D01*
G01X1562497Y-2031012D01*
G01X1562042Y-2028891D01*
G01X1561739Y-2027224D01*
G01X1561436Y-2026012D01*
G01X1561285Y-2024648D01*
G01X1560830Y-2021467D01*
G01X1560527Y-2017527D01*
G01X1560424Y-2014345D01*
G01X1576436Y-2014345D01*
G01X1576588Y-2020255D01*
G01X1576891Y-2024194D01*
G01X1577194Y-2026921D01*
G01X1577800Y-2030254D01*
G01X1578254Y-2031618D01*
G01X1578709Y-2033133D01*
G01X1579163Y-2034345D01*
G01X1579770Y-2035709D01*
G01X1580679Y-2037224D01*
G01X1581588Y-2038436D01*
G01X1582648Y-2039345D01*
G01X1583860Y-2040103D01*
G01X1583860Y-2040103D01*
G01X1585376Y-2040709D01*
G01X1587497Y-2041012D01*
G01X1588709Y-2040861D01*
G01X1589466Y-2040709D01*
G01X1590679Y-2040406D01*
G01X1592042Y-2039648D01*
G01X1593103Y-2038739D01*
G01X1594012Y-2037527D01*
G01X1595073Y-2036012D01*
G01X1595830Y-2034345D01*
G01X1596436Y-2032830D01*
G01X1596891Y-2031164D01*
G01X1597194Y-2029648D01*
G01X1597497Y-2028436D01*
G01X1597800Y-2026618D01*
G01X1598103Y-2024497D01*
G01X1598254Y-2022527D01*
G01X1598406Y-2021164D01*
G01X1598557Y-2014042D01*
G01X1598406Y-2006921D01*
G01X1598103Y-2003285D01*
G01X1597800Y-2001164D01*
G01X1597194Y-1997830D01*
G01X1596133Y-1994648D01*
G01X1595527Y-1992982D01*
G01X1594769Y-1991618D01*
G01X1594012Y-1990557D01*
G01X1593103Y-1989345D01*
G01X1592042Y-1988436D01*
G01X1591133Y-1987982D01*
G01X1589618Y-1987376D01*
G01X1586739Y-1987073D01*
G01X1584466Y-1987376D01*
G01X1583557Y-1987830D01*
G01X1582800Y-1988285D01*
G01X1582042Y-1988891D01*
G01X1581285Y-1989800D01*
G01X1580679Y-1990709D01*
G01X1580073Y-1991770D01*
G01X1579466Y-1992982D01*
G01X1578860Y-1994345D01*
G01X1578254Y-1996315D01*
G01X1577800Y-1998436D01*
G01X1577497Y-1999951D01*
G01X1577194Y-2001770D01*
G01X1576891Y-2004497D01*
G01X1576739Y-2006921D01*
G01X1576588Y-2008436D01*
G01X1576436Y-2014345D01*
G01X1560424Y-2014345D01*
G01X1560376Y-2012830D01*
G01X1560527Y-2008133D01*
G01X1560830Y-2003891D01*
G01X1561133Y-2001467D01*
G01X1561436Y-1999345D01*
G01X1561739Y-1997830D01*
G01X1562194Y-1995861D01*
G01X1562648Y-1994042D01*
G01X1563103Y-1992527D01*
G01X1564012Y-1990103D01*
G01X1565224Y-1987376D01*
G01X1566436Y-1985254D01*
G01X1567345Y-1983891D01*
G01X1568557Y-1982376D01*
G01X1570376Y-1980557D01*
G01X1572194Y-1979042D01*
G01X1573103Y-1978436D01*
G01X1574012Y-1977982D01*
G01X1575073Y-1977376D01*
G01X1576436Y-1976769D01*
G01X1578103Y-1976163D01*
G01X1579921Y-1975709D01*
G01X1581436Y-1975406D01*
G01X1583254Y-1975103D01*
G01X1587042Y-1974951D01*
G01X1590224Y-1975103D01*
G01X1592345Y-1975406D01*
G01X1594769Y-1976012D01*
G01X1595982Y-1976466D01*
G01X1597497Y-1977072D01*
G01X1599012Y-1977830D01*
G01X1600376Y-1978588D01*
G01X1601739Y-1979497D01*
G01X1603254Y-1980709D01*
G01X1605072Y-1982527D01*
G01X1605982Y-1983588D01*
G01X1607497Y-1985709D01*
G01X1608406Y-1987073D01*
G01X1609163Y-1988436D01*
G01X1610375Y-1990860D01*
G01X1610982Y-1992527D01*
G01X1611588Y-1994042D01*
G01X1612042Y-1995557D01*
G01X1612345Y-1996921D01*
G01X1612800Y-1998436D01*
G01X1613254Y-2000709D01*
G01X1613557Y-2002376D01*
G01X1613860Y-2004497D01*
G01X1614163Y-2007224D01*
G01X1614466Y-2011164D01*
G01X1614618Y-2015558D01*
G01X1614466Y-2019951D01*
G01X1614163Y-2024194D01*
G01X1613860Y-2026618D01*
G01X1613557Y-2028739D01*
G01X1612951Y-2031770D01*
G01X1612497Y-2033285D01*
G01X1611891Y-2035254D01*
G01X1611285Y-2037073D01*
G01X1610679Y-2038588D01*
G01X1610072Y-2039951D01*
G01X1609315Y-2041315D01*
G01X1608557Y-2042527D01*
G01X1607648Y-2043891D01*
G01X1606436Y-2045406D01*
G01X1604618Y-2047224D01*
G01X1603709Y-2047982D01*
G01X1602800Y-2048588D01*
G01X1601739Y-2049345D01*
G01X1600224Y-2050254D01*
G01X1598557Y-2051012D01*
G01X1597042Y-2051618D01*
G37*
G36*
G01X1538709Y-2052376D02*
G01X1536284Y-2052679D01*
G01X1534163Y-2052830D01*
G01X1532345Y-2052982D01*
G01X1530072Y-2053133D01*
G01X1527497Y-2052982D01*
G01X1524163Y-2052679D01*
G01X1520830Y-2052073D01*
G01X1519466Y-2051618D01*
G01X1517951Y-2051164D01*
G01X1516739Y-2050709D01*
G01X1515375Y-2050103D01*
G01X1514163Y-2049497D01*
G01X1512951Y-2048739D01*
G01X1511588Y-2047830D01*
G01X1510527Y-2047073D01*
G01X1509769Y-2046315D01*
G01X1509012Y-2045709D01*
G01X1508406Y-2045103D01*
G01X1507800Y-2044345D01*
G01X1507042Y-2043588D01*
G01X1506436Y-2042830D01*
G01X1505678Y-2041770D01*
G01X1504769Y-2040406D01*
G01X1504012Y-2039042D01*
G01X1503406Y-2037830D01*
G01X1502951Y-2036618D01*
G01X1502497Y-2035254D01*
G01X1502042Y-2033588D01*
G01X1501739Y-2032073D01*
G01X1501436Y-2029951D01*
G01X1501285Y-2026770D01*
G01X1501436Y-2023588D01*
G01X1501739Y-2021467D01*
G01X1502194Y-2019951D01*
G01X1502800Y-2017982D01*
G01X1503406Y-2016618D01*
G01X1504618Y-2014497D01*
G01X1505224Y-2013588D01*
G01X1506133Y-2012376D01*
G01X1507951Y-2010558D01*
G01X1508860Y-2009800D01*
G01X1509769Y-2009194D01*
G01X1510830Y-2008436D01*
G01X1513557Y-2007073D01*
G01X1514921Y-2006467D01*
G01X1516739Y-2005861D01*
G01X1518860Y-2005406D01*
G01X1520527Y-2005103D01*
G01X1523557Y-2004800D01*
G01X1526284Y-2004648D01*
G01X1529012Y-2004800D01*
G01X1530981Y-2004952D01*
G01X1532497Y-2004952D01*
G01X1532497Y-2002830D01*
G01X1532345Y-2000255D01*
G01X1531739Y-1991164D01*
G01X1531587Y-1989951D01*
G01X1531587Y-1989194D01*
G01X1504315Y-1989194D01*
G01X1504315Y-1976163D01*
G01X1544315Y-1976163D01*
G01X1544315Y-1977830D01*
G01X1544466Y-1979951D01*
G01X1544769Y-1984497D01*
G01X1545072Y-1988739D01*
G01X1545981Y-2002376D01*
G01X1546284Y-2006618D01*
G01X1546891Y-2015709D01*
G01X1547042Y-2016921D01*
G01X1547042Y-2017679D01*
G01X1545527Y-2017679D01*
G01X1543557Y-2017527D01*
G01X1539921Y-2017224D01*
G01X1534315Y-2017073D01*
G01X1528709Y-2017224D01*
G01X1527042Y-2017527D01*
G01X1525224Y-2017982D01*
G01X1524012Y-2018436D01*
G01X1522951Y-2018891D01*
G01X1521891Y-2019497D01*
G01X1520981Y-2020103D01*
G01X1520224Y-2020709D01*
G01X1519618Y-2021467D01*
G01X1519163Y-2022224D01*
G01X1518557Y-2023285D01*
G01X1517951Y-2024648D01*
G01X1517497Y-2026618D01*
G01X1517345Y-2029800D01*
G01X1517497Y-2032073D01*
G01X1517951Y-2033436D01*
G01X1518709Y-2034951D01*
G01X1519466Y-2036012D01*
G01X1520072Y-2036770D01*
G01X1520678Y-2037376D01*
G01X1521436Y-2037982D01*
G01X1522497Y-2038739D01*
G01X1524012Y-2039497D01*
G01X1525527Y-2040103D01*
G01X1526739Y-2040406D01*
G01X1529921Y-2040861D01*
G01X1532497Y-2041012D01*
G01X1535072Y-2040861D01*
G01X1537497Y-2040557D01*
G01X1538860Y-2040254D01*
G01X1540375Y-2039800D01*
G01X1543103Y-2038891D01*
G01X1544618Y-2038285D01*
G01X1545981Y-2037679D01*
G01X1547194Y-2036921D01*
G01X1548103Y-2036467D01*
G01X1548254Y-2043133D01*
G01X1548254Y-2049800D01*
G01X1544163Y-2051164D01*
G01X1542648Y-2051618D01*
G01X1540375Y-2052073D01*
G01X1538709Y-2052376D01*
G37*
G36*
G01X1767648Y-2051618D02*
G01X1765982Y-2052073D01*
G01X1764466Y-2052376D01*
G01X1760830Y-2052982D01*
G01X1758709Y-2053133D01*
G01X1756588Y-2052982D01*
G01X1753557Y-2052679D01*
G01X1750830Y-2052073D01*
G01X1749466Y-2051618D01*
G01X1747951Y-2051012D01*
G01X1746588Y-2050406D01*
G01X1745527Y-2049800D01*
G01X1744618Y-2049194D01*
G01X1743709Y-2048436D01*
G01X1742194Y-2047224D01*
G01X1739921Y-2044951D01*
G01X1739163Y-2044042D01*
G01X1738557Y-2043133D01*
G01X1737800Y-2042073D01*
G01X1736891Y-2040557D01*
G01X1735527Y-2037830D01*
G01X1734921Y-2036467D01*
G01X1734315Y-2034951D01*
G01X1733860Y-2033588D01*
G01X1733557Y-2032376D01*
G01X1733103Y-2031012D01*
G01X1732648Y-2028891D01*
G01X1732345Y-2027224D01*
G01X1732042Y-2026012D01*
G01X1731891Y-2024648D01*
G01X1731436Y-2021467D01*
G01X1731133Y-2017527D01*
G01X1731030Y-2014345D01*
G01X1747042Y-2014345D01*
G01X1747194Y-2020255D01*
G01X1747497Y-2024194D01*
G01X1747800Y-2026921D01*
G01X1748406Y-2030254D01*
G01X1748860Y-2031618D01*
G01X1749315Y-2033133D01*
G01X1749769Y-2034345D01*
G01X1750375Y-2035709D01*
G01X1751285Y-2037224D01*
G01X1752194Y-2038436D01*
G01X1753254Y-2039345D01*
G01X1754466Y-2040103D01*
G01X1754466Y-2040103D01*
G01X1755982Y-2040709D01*
G01X1758103Y-2041012D01*
G01X1759315Y-2040861D01*
G01X1760072Y-2040709D01*
G01X1761285Y-2040406D01*
G01X1762648Y-2039648D01*
G01X1763709Y-2038739D01*
G01X1764618Y-2037527D01*
G01X1765679Y-2036012D01*
G01X1766436Y-2034345D01*
G01X1767042Y-2032830D01*
G01X1767497Y-2031164D01*
G01X1767800Y-2029648D01*
G01X1768103Y-2028436D01*
G01X1768406Y-2026618D01*
G01X1768709Y-2024497D01*
G01X1768860Y-2022527D01*
G01X1769012Y-2021164D01*
G01X1769163Y-2014042D01*
G01X1769012Y-2006921D01*
G01X1768709Y-2003285D01*
G01X1768406Y-2001164D01*
G01X1767800Y-1997830D01*
G01X1766739Y-1994648D01*
G01X1766133Y-1992982D01*
G01X1765376Y-1991618D01*
G01X1764618Y-1990557D01*
G01X1763709Y-1989345D01*
G01X1762648Y-1988436D01*
G01X1761739Y-1987982D01*
G01X1760224Y-1987376D01*
G01X1757345Y-1987073D01*
G01X1755072Y-1987376D01*
G01X1754163Y-1987830D01*
G01X1753406Y-1988285D01*
G01X1752648Y-1988891D01*
G01X1751891Y-1989800D01*
G01X1751285Y-1990709D01*
G01X1750678Y-1991770D01*
G01X1750072Y-1992982D01*
G01X1749466Y-1994345D01*
G01X1748860Y-1996315D01*
G01X1748406Y-1998436D01*
G01X1748103Y-1999951D01*
G01X1747800Y-2001770D01*
G01X1747497Y-2004497D01*
G01X1747345Y-2006921D01*
G01X1747194Y-2008436D01*
G01X1747042Y-2014345D01*
G01X1731030Y-2014345D01*
G01X1730982Y-2012830D01*
G01X1731133Y-2008133D01*
G01X1731436Y-2003891D01*
G01X1731739Y-2001467D01*
G01X1732042Y-1999345D01*
G01X1732345Y-1997830D01*
G01X1732800Y-1995861D01*
G01X1733254Y-1994042D01*
G01X1733709Y-1992527D01*
G01X1734618Y-1990103D01*
G01X1735830Y-1987376D01*
G01X1737042Y-1985254D01*
G01X1737951Y-1983891D01*
G01X1739163Y-1982376D01*
G01X1740982Y-1980557D01*
G01X1742800Y-1979042D01*
G01X1743709Y-1978436D01*
G01X1744618Y-1977982D01*
G01X1745679Y-1977376D01*
G01X1747042Y-1976769D01*
G01X1748709Y-1976163D01*
G01X1750527Y-1975709D01*
G01X1752042Y-1975406D01*
G01X1753860Y-1975103D01*
G01X1757648Y-1974951D01*
G01X1760830Y-1975103D01*
G01X1762951Y-1975406D01*
G01X1765376Y-1976012D01*
G01X1766588Y-1976466D01*
G01X1768103Y-1977072D01*
G01X1769618Y-1977830D01*
G01X1770982Y-1978588D01*
G01X1772345Y-1979497D01*
G01X1773861Y-1980709D01*
G01X1775679Y-1982527D01*
G01X1776588Y-1983588D01*
G01X1778103Y-1985709D01*
G01X1779012Y-1987073D01*
G01X1779770Y-1988436D01*
G01X1780982Y-1990860D01*
G01X1781588Y-1992527D01*
G01X1782194Y-1994042D01*
G01X1782648Y-1995557D01*
G01X1782951Y-1996921D01*
G01X1783406Y-1998436D01*
G01X1783861Y-2000709D01*
G01X1784164Y-2002376D01*
G01X1784467Y-2004497D01*
G01X1784770Y-2007224D01*
G01X1785073Y-2011164D01*
G01X1785224Y-2015558D01*
G01X1785073Y-2019951D01*
G01X1784770Y-2024194D01*
G01X1784467Y-2026618D01*
G01X1784164Y-2028739D01*
G01X1783558Y-2031770D01*
G01X1783103Y-2033285D01*
G01X1782497Y-2035254D01*
G01X1781891Y-2037073D01*
G01X1781285Y-2038588D01*
G01X1780679Y-2039951D01*
G01X1779921Y-2041315D01*
G01X1779164Y-2042527D01*
G01X1778254Y-2043891D01*
G01X1777042Y-2045406D01*
G01X1775224Y-2047224D01*
G01X1774315Y-2047982D01*
G01X1773406Y-2048588D01*
G01X1772345Y-2049345D01*
G01X1770830Y-2050254D01*
G01X1769163Y-2051012D01*
G01X1767648Y-2051618D01*
G37*
G36*
G01X1710527Y-2044042D02*
G01X1710830Y-2045406D01*
G01X1711739Y-2049951D01*
G01X1712042Y-2051315D01*
G01X1710035Y-2051542D01*
G01X1703709Y-2051618D01*
G01X1695224Y-2051618D01*
G01X1695224Y-2050860D01*
G01X1695073Y-2049648D01*
G01X1694467Y-2046012D01*
G01X1693254Y-2039951D01*
G01X1692800Y-2038436D01*
G01X1692345Y-2036467D01*
G01X1692042Y-2035103D01*
G01X1691588Y-2033739D01*
G01X1691133Y-2032073D01*
G01X1690679Y-2030709D01*
G01X1689770Y-2027679D01*
G01X1689315Y-2026315D01*
G01X1688406Y-2023891D01*
G01X1687951Y-2022527D01*
G01X1687345Y-2021012D01*
G01X1686739Y-2019345D01*
G01X1685527Y-2016315D01*
G01X1684315Y-2013588D01*
G01X1683709Y-2012073D01*
G01X1682497Y-2009648D01*
G01X1681891Y-2008133D01*
G01X1677648Y-1999648D01*
G01X1676891Y-1998436D01*
G01X1674921Y-1994497D01*
G01X1673709Y-1992376D01*
G01X1673103Y-1991164D01*
G01X1672345Y-1989951D01*
G01X1671588Y-1988436D01*
G01X1670376Y-1986315D01*
G01X1670073Y-1980860D01*
G01X1670073Y-1976163D01*
G01X1722497Y-1976163D01*
G01X1722497Y-1989194D01*
G01X1686739Y-1989194D01*
G01X1686891Y-1989800D01*
G01X1687345Y-1990709D01*
G01X1687951Y-1991618D01*
G01X1688557Y-1992679D01*
G01X1689315Y-1993891D01*
G01X1690224Y-1995406D01*
G01X1690982Y-1996770D01*
G01X1694012Y-2002073D01*
G01X1695224Y-2004497D01*
G01X1695982Y-2005709D01*
G01X1699163Y-2012073D01*
G01X1699770Y-2013588D01*
G01X1700982Y-2016012D01*
G01X1701588Y-2017527D01*
G01X1702194Y-2018739D01*
G01X1702648Y-2019800D01*
G01X1703103Y-2021012D01*
G01X1704921Y-2025558D01*
G01X1706133Y-2028891D01*
G01X1707951Y-2034345D01*
G01X1708406Y-2036012D01*
G01X1708860Y-2037376D01*
G01X1709315Y-2039042D01*
G01X1709618Y-2040557D01*
G01X1710073Y-2042073D01*
G01X1710527Y-2044042D01*
G37*
G36*
G01X1939770Y-2178891D02*
G01X1939164Y-2180709D01*
G01X1938557Y-2182224D01*
G01X1938254Y-2183133D01*
G01X1929315Y-2183436D01*
G01X1920376Y-2183436D01*
G01X1920073Y-2182527D01*
G01X1919467Y-2181012D01*
G01X1900376Y-2130103D01*
G01X1900073Y-2129497D01*
G01X1916436Y-2129497D01*
G01X1916739Y-2130558D01*
G01X1917345Y-2132527D01*
G01X1917800Y-2134194D01*
G01X1918103Y-2135406D01*
G01X1918558Y-2136770D01*
G01X1919164Y-2138739D01*
G01X1919770Y-2140861D01*
G01X1920376Y-2142830D01*
G01X1920830Y-2144497D01*
G01X1921133Y-2145709D01*
G01X1921588Y-2147073D01*
G01X1922194Y-2149042D01*
G01X1922800Y-2151164D01*
G01X1923406Y-2153133D01*
G01X1923861Y-2154800D01*
G01X1924315Y-2156164D01*
G01X1924770Y-2157679D01*
G01X1925073Y-2159042D01*
G01X1925527Y-2160406D01*
G01X1926133Y-2162376D01*
G01X1927345Y-2166618D01*
G01X1927800Y-2168891D01*
G01X1928103Y-2170557D01*
G01X1928406Y-2171467D01*
G01X1928595Y-2171656D01*
G01X1928861Y-2171315D01*
G01X1929164Y-2169800D01*
G01X1929315Y-2168436D01*
G01X1930073Y-2165406D01*
G01X1931891Y-2159042D01*
G01X1932497Y-2157073D01*
G01X1932951Y-2155406D01*
G01X1933254Y-2154194D01*
G01X1933709Y-2152830D01*
G01X1934164Y-2151164D01*
G01X1934618Y-2149800D01*
G01X1935073Y-2148285D01*
G01X1935376Y-2146921D01*
G01X1935830Y-2145558D01*
G01X1936285Y-2143891D01*
G01X1936739Y-2142527D01*
G01X1937194Y-2141012D01*
G01X1937497Y-2139648D01*
G01X1937951Y-2138285D01*
G01X1938406Y-2136618D01*
G01X1938860Y-2135255D01*
G01X1939315Y-2133739D01*
G01X1939618Y-2132376D01*
G01X1940073Y-2131012D01*
G01X1940527Y-2129800D01*
G01X1949012Y-2129497D01*
G01X1957345Y-2129497D01*
G01X1957194Y-2130103D01*
G01X1956739Y-2131315D01*
G01X1955830Y-2134042D01*
G01X1955224Y-2135558D01*
G01X1954618Y-2137376D01*
G01X1953406Y-2140709D01*
G01X1952800Y-2142527D01*
G01X1952194Y-2144042D01*
G01X1951285Y-2146770D01*
G01X1950679Y-2148285D01*
G01X1950073Y-2150103D01*
G01X1948860Y-2153436D01*
G01X1948254Y-2155254D01*
G01X1947648Y-2156770D01*
G01X1946739Y-2159497D01*
G01X1946133Y-2161012D01*
G01X1945527Y-2162830D01*
G01X1944315Y-2166164D01*
G01X1943709Y-2167982D01*
G01X1943103Y-2169497D01*
G01X1942194Y-2172224D01*
G01X1941588Y-2173739D01*
G01X1940982Y-2175557D01*
G01X1939770Y-2178891D01*
G37*
G36*
G01X2059315Y-2107982D02*
G01X2074012Y-2107982D01*
G01X2074164Y-2108739D01*
G01X2074315Y-2146467D01*
G01X2074315Y-2183436D01*
G01X2058254Y-2183436D01*
G01X2058254Y-2154345D01*
G01X2054921Y-2154345D01*
G01X2051133Y-2154497D01*
G01X2049921Y-2154951D01*
G01X2048861Y-2155558D01*
G01X2048103Y-2156164D01*
G01X2046588Y-2157679D01*
G01X2045679Y-2158739D01*
G01X2043558Y-2161770D01*
G01X2042648Y-2163285D01*
G01X2041133Y-2165709D01*
G01X2032951Y-2179345D01*
G01X2030679Y-2182982D01*
G01X2028179Y-2183323D01*
G01X2021285Y-2183436D01*
G01X2014504Y-2183323D01*
G01X2012345Y-2182982D01*
G01X2012800Y-2182073D01*
G01X2013558Y-2180860D01*
G01X2014467Y-2179497D01*
G01X2015982Y-2177073D01*
G01X2016891Y-2175709D01*
G01X2017800Y-2174194D01*
G01X2018709Y-2172830D01*
G01X2020224Y-2170406D01*
G01X2021133Y-2169042D01*
G01X2022042Y-2167527D01*
G01X2022952Y-2166164D01*
G01X2024467Y-2163739D01*
G01X2025376Y-2162376D01*
G01X2026285Y-2160861D01*
G01X2028558Y-2157679D01*
G01X2029164Y-2156921D01*
G01X2030073Y-2155709D01*
G01X2033406Y-2152376D01*
G01X2034315Y-2151618D01*
G01X2035527Y-2150861D01*
G01X2036891Y-2150103D01*
G01X2037421Y-2149800D01*
G01X2037497Y-2149497D01*
G01X2036588Y-2149042D01*
G01X2035224Y-2148588D01*
G01X2034012Y-2148133D01*
G01X2032800Y-2147527D01*
G01X2031436Y-2146770D01*
G01X2030376Y-2146164D01*
G01X2028255Y-2144648D01*
G01X2027497Y-2144042D01*
G01X2026285Y-2142527D01*
G01X2025527Y-2141770D01*
G01X2024921Y-2141012D01*
G01X2024164Y-2139952D01*
G01X2023406Y-2138739D01*
G01X2022800Y-2137527D01*
G01X2022194Y-2136164D01*
G01X2021588Y-2134497D01*
G01X2021133Y-2132376D01*
G01X2020982Y-2131315D01*
G01X2037648Y-2131315D01*
G01X2037800Y-2133285D01*
G01X2038254Y-2134648D01*
G01X2038861Y-2136012D01*
G01X2039467Y-2136921D01*
G01X2040679Y-2138436D01*
G01X2041588Y-2139194D01*
G01X2042497Y-2139800D01*
G01X2043558Y-2140406D01*
G01X2044770Y-2141012D01*
G01X2046285Y-2141467D01*
G01X2046285Y-2141467D01*
G01X2047800Y-2141770D01*
G01X2053103Y-2141921D01*
G01X2058103Y-2141770D01*
G01X2058254Y-2130861D01*
G01X2058254Y-2120103D01*
G01X2053557Y-2120103D01*
G01X2048406Y-2120255D01*
G01X2045376Y-2120558D01*
G01X2044315Y-2120861D01*
G01X2043103Y-2121315D01*
G01X2041891Y-2121921D01*
G01X2040527Y-2122830D01*
G01X2039618Y-2123891D01*
G01X2039012Y-2124952D01*
G01X2038254Y-2126618D01*
G01X2037800Y-2128739D01*
G01X2037648Y-2131315D01*
G01X2020982Y-2131315D01*
G01X2020830Y-2130255D01*
G01X2020679Y-2127679D01*
G01X2020830Y-2125709D01*
G01X2021133Y-2123285D01*
G01X2021588Y-2121770D01*
G01X2022194Y-2120103D01*
G01X2022800Y-2118739D01*
G01X2023558Y-2117376D01*
G01X2024315Y-2116315D01*
G01X2025527Y-2114800D01*
G01X2027345Y-2113285D01*
G01X2028103Y-2112679D01*
G01X2029164Y-2112073D01*
G01X2030527Y-2111315D01*
G01X2031891Y-2110709D01*
G01X2033406Y-2110103D01*
G01X2035376Y-2109497D01*
G01X2037497Y-2109042D01*
G01X2039012Y-2108739D01*
G01X2041133Y-2108436D01*
G01X2044164Y-2108133D01*
G01X2059315Y-2107982D01*
G37*
G36*
G01X1992497Y-2184042D02*
G01X1991436Y-2184194D01*
G01X1989618Y-2184497D01*
G01X1987649Y-2184800D01*
G01X1984467Y-2184951D01*
G01X1981436Y-2184800D01*
G01X1977800Y-2184497D01*
G01X1975679Y-2184194D01*
G01X1972648Y-2183588D01*
G01X1969467Y-2182527D01*
G01X1967800Y-2181921D01*
G01X1966588Y-2181315D01*
G01X1965830Y-2180709D01*
G01X1965527Y-2174951D01*
G01X1965641Y-2170898D01*
G01X1965982Y-2169648D01*
G01X1968103Y-2170709D01*
G01X1969467Y-2171315D01*
G01X1970982Y-2171921D01*
G01X1972951Y-2172527D01*
G01X1975073Y-2172982D01*
G01X1976891Y-2173285D01*
G01X1979164Y-2173436D01*
G01X1981133Y-2173588D01*
G01X1982042Y-2173588D01*
G01X1985679Y-2173285D01*
G01X1987042Y-2172982D01*
G01X1988558Y-2172527D01*
G01X1989921Y-2171921D01*
G01X1990982Y-2171315D01*
G01X1991891Y-2170709D01*
G01X1992800Y-2169800D01*
G01X1993558Y-2168891D01*
G01X1994315Y-2167830D01*
G01X1994921Y-2166618D01*
G01X1995376Y-2165406D01*
G01X1995982Y-2162982D01*
G01X1996133Y-2161618D01*
G01X1991701Y-2161164D01*
G01X1978406Y-2161012D01*
G01X1960679Y-2161012D01*
G01X1960679Y-2156618D01*
G01X1960830Y-2151770D01*
G01X1960996Y-2149951D01*
G01X1975527Y-2149951D01*
G01X1975527Y-2151315D01*
G01X1985830Y-2151315D01*
G01X1996285Y-2151164D01*
G01X1996285Y-2150255D01*
G01X1995830Y-2148436D01*
G01X1995224Y-2146618D01*
G01X1994618Y-2145406D01*
G01X1994012Y-2144345D01*
G01X1993103Y-2142982D01*
G01X1991285Y-2141164D01*
G01X1990376Y-2140558D01*
G01X1989467Y-2140103D01*
G01X1988406Y-2139648D01*
G01X1987194Y-2139345D01*
G01X1984618Y-2139194D01*
G01X1981891Y-2139497D01*
G01X1980679Y-2139952D01*
G01X1979315Y-2140709D01*
G01X1978254Y-2141770D01*
G01X1977648Y-2142527D01*
G01X1977042Y-2143588D01*
G01X1976436Y-2144951D01*
G01X1975982Y-2146618D01*
G01X1975679Y-2148133D01*
G01X1975527Y-2149951D01*
G01X1975527Y-2149951D01*
G01X1960996Y-2149951D01*
G01X1961133Y-2148436D01*
G01X1961436Y-2146921D01*
G01X1961891Y-2145255D01*
G01X1962345Y-2143739D01*
G01X1962800Y-2142376D01*
G01X1963709Y-2140255D01*
G01X1964315Y-2139194D01*
G01X1965073Y-2137982D01*
G01X1965830Y-2136921D01*
G01X1966588Y-2136164D01*
G01X1967800Y-2134648D01*
G01X1969315Y-2133436D01*
G01X1970527Y-2132527D01*
G01X1971891Y-2131618D01*
G01X1972951Y-2131012D01*
G01X1975073Y-2130103D01*
G01X1976285Y-2129649D01*
G01X1977497Y-2129345D01*
G01X1980224Y-2128739D01*
G01X1982648Y-2128436D01*
G01X1985527Y-2128285D01*
G01X1988406Y-2128436D01*
G01X1990527Y-2128739D01*
G01X1991891Y-2129042D01*
G01X1993406Y-2129497D01*
G01X1994770Y-2129952D01*
G01X1995982Y-2130406D01*
G01X1997194Y-2131012D01*
G01X1998558Y-2131770D01*
G01X1999921Y-2132679D01*
G01X2000982Y-2133436D01*
G01X2001739Y-2134042D01*
G01X2004770Y-2137073D01*
G01X2005679Y-2138133D01*
G01X2007194Y-2140255D01*
G01X2008103Y-2141770D01*
G01X2008861Y-2143285D01*
G01X2009467Y-2144800D01*
G01X2009921Y-2146012D01*
G01X2010376Y-2147376D01*
G01X2010830Y-2149042D01*
G01X2011436Y-2152073D01*
G01X2011588Y-2153588D01*
G01X2011739Y-2154800D01*
G01X2011891Y-2157982D01*
G01X2011739Y-2161164D01*
G01X2011436Y-2163891D01*
G01X2011133Y-2165406D01*
G01X2010679Y-2167073D01*
G01X2009770Y-2169800D01*
G01X2009164Y-2171164D01*
G01X2008558Y-2172376D01*
G01X2007952Y-2173436D01*
G01X2007194Y-2174648D01*
G01X2006436Y-2175709D01*
G01X2005679Y-2176467D01*
G01X2005073Y-2177224D01*
G01X2004315Y-2177982D01*
G01X2003406Y-2178739D01*
G01X2002346Y-2179648D01*
G01X2000982Y-2180557D01*
G01X1999770Y-2181315D01*
G01X1998709Y-2181921D01*
G01X1996588Y-2182830D01*
G01X1995224Y-2183285D01*
G01X1993709Y-2183739D01*
G01X1992497Y-2184042D01*
G37*
G36*
G01X1836891Y-2060103D02*
G01X1837345Y-2061315D01*
G01X1837951Y-2062679D01*
G01X1838557Y-2063891D01*
G01X1837004Y-2064232D01*
G01X1831739Y-2064345D01*
G01X1826361Y-2064194D01*
G01X1824467Y-2063739D01*
G01X1823557Y-2061618D01*
G01X1823103Y-2060406D01*
G01X1822497Y-2059042D01*
G01X1821285Y-2056012D01*
G01X1820679Y-2054648D01*
G01X1820073Y-2053133D01*
G01X1819467Y-2051770D01*
G01X1819012Y-2050709D01*
G01X1818557Y-2049497D01*
G01X1817951Y-2048133D01*
G01X1816739Y-2045103D01*
G01X1816133Y-2043739D01*
G01X1815527Y-2042224D01*
G01X1814921Y-2040861D01*
G01X1814467Y-2039800D01*
G01X1814012Y-2038588D01*
G01X1813406Y-2037224D01*
G01X1812194Y-2034194D01*
G01X1810982Y-2031467D01*
G01X1809770Y-2028436D01*
G01X1809164Y-2027073D01*
G01X1808557Y-2025558D01*
G01X1807951Y-2024194D01*
G01X1807497Y-2023133D01*
G01X1807042Y-2021921D01*
G01X1806436Y-2020558D01*
G01X1805224Y-2017527D01*
G01X1804618Y-2016164D01*
G01X1804012Y-2014648D01*
G01X1803406Y-2013285D01*
G01X1802951Y-2012224D01*
G01X1802497Y-2011012D01*
G01X1801891Y-2009648D01*
G01X1800679Y-2006618D01*
G01X1800073Y-2005255D01*
G01X1799467Y-2003739D01*
G01X1798861Y-2002376D01*
G01X1798406Y-2001315D01*
G01X1797951Y-2000103D01*
G01X1797345Y-1998739D01*
G01X1796133Y-1995709D01*
G01X1795527Y-1994345D01*
G01X1794921Y-1992830D01*
G01X1794315Y-1991467D01*
G01X1793861Y-1990406D01*
G01X1793406Y-1989194D01*
G01X1792800Y-1987830D01*
G01X1791588Y-1984800D01*
G01X1790982Y-1983436D01*
G01X1790376Y-1981921D01*
G01X1789770Y-1980557D01*
G01X1789315Y-1979497D01*
G01X1788861Y-1978285D01*
G01X1788254Y-1976921D01*
G01X1787951Y-1976163D01*
G01X1802194Y-1976163D01*
G01X1802345Y-1976921D01*
G01X1802800Y-1978133D01*
G01X1804164Y-1981315D01*
G01X1804618Y-1982527D01*
G01X1805224Y-1983891D01*
G01X1806436Y-1986921D01*
G01X1807042Y-1988285D01*
G01X1807648Y-1989800D01*
G01X1808254Y-1991164D01*
G01X1808709Y-1992224D01*
G01X1809164Y-1993436D01*
G01X1809770Y-1994951D01*
G01X1810376Y-1996315D01*
G01X1810830Y-1997376D01*
G01X1811285Y-1998588D01*
G01X1811891Y-1999951D01*
G01X1813103Y-2002982D01*
G01X1813709Y-2004345D01*
G01X1814315Y-2005861D01*
G01X1814921Y-2007224D01*
G01X1815376Y-2008285D01*
G01X1815830Y-2009497D01*
G01X1816436Y-2010861D01*
G01X1818254Y-2015406D01*
G01X1818860Y-2016770D01*
G01X1819467Y-2018285D01*
G01X1820073Y-2019648D01*
G01X1820527Y-2020709D01*
G01X1820982Y-2021921D01*
G01X1821588Y-2023285D01*
G01X1822800Y-2026315D01*
G01X1823406Y-2027679D01*
G01X1824618Y-2030709D01*
G01X1825224Y-2032073D01*
G01X1826436Y-2035103D01*
G01X1827042Y-2036467D01*
G01X1827648Y-2037982D01*
G01X1828254Y-2039345D01*
G01X1828709Y-2040406D01*
G01X1829163Y-2041618D01*
G01X1829770Y-2042982D01*
G01X1830982Y-2046012D01*
G01X1831588Y-2047376D01*
G01X1832800Y-2050406D01*
G01X1833406Y-2051770D01*
G01X1834618Y-2054800D01*
G01X1835224Y-2056164D01*
G01X1835830Y-2057679D01*
G01X1836436Y-2059042D01*
G01X1836891Y-2060103D01*
G37*
G36*
G01X1870982Y-2052527D02*
G01X1869921Y-2052679D01*
G01X1868557Y-2052830D01*
G01X1867497Y-2052982D01*
G01X1865527Y-2053133D01*
G01X1863254Y-2052982D01*
G01X1860527Y-2052679D01*
G01X1859163Y-2052376D01*
G01X1857648Y-2051921D01*
G01X1856285Y-2051467D01*
G01X1855072Y-2051012D01*
G01X1852648Y-2049800D01*
G01X1851436Y-2049042D01*
G01X1849921Y-2047982D01*
G01X1848406Y-2046770D01*
G01X1847345Y-2045709D01*
G01X1846133Y-2044194D01*
G01X1845376Y-2043436D01*
G01X1844769Y-2042679D01*
G01X1844163Y-2041618D01*
G01X1843406Y-2040406D01*
G01X1842800Y-2039345D01*
G01X1841891Y-2037224D01*
G01X1841436Y-2036012D01*
G01X1841133Y-2034800D01*
G01X1840679Y-2033285D01*
G01X1840376Y-2031618D01*
G01X1840224Y-2030558D01*
G01X1840073Y-2028436D01*
G01X1840003Y-2027527D01*
G01X1855376Y-2027527D01*
G01X1855376Y-2028739D01*
G01X1855527Y-2030406D01*
G01X1855679Y-2031770D01*
G01X1855982Y-2032982D01*
G01X1856436Y-2034194D01*
G01X1856891Y-2035254D01*
G01X1857345Y-2036164D01*
G01X1857951Y-2037073D01*
G01X1858709Y-2037982D01*
G01X1859466Y-2038739D01*
G01X1860224Y-2039345D01*
G01X1860224Y-2039345D01*
G01X1862345Y-2040406D01*
G01X1864466Y-2040861D01*
G01X1866436Y-2040861D01*
G01X1867800Y-2040709D01*
G01X1869163Y-2040406D01*
G01X1870376Y-2039800D01*
G01X1871285Y-2039194D01*
G01X1872042Y-2038588D01*
G01X1872800Y-2037679D01*
G01X1873406Y-2036770D01*
G01X1874164Y-2035709D01*
G01X1874921Y-2034194D01*
G01X1875527Y-2032679D01*
G01X1875982Y-2030558D01*
G01X1876285Y-2028739D01*
G01X1876436Y-2026467D01*
G01X1876285Y-2024194D01*
G01X1875982Y-2022830D01*
G01X1875527Y-2021467D01*
G01X1874921Y-2020255D01*
G01X1874164Y-2019194D01*
G01X1872951Y-2017679D01*
G01X1872194Y-2017073D01*
G01X1871133Y-2016467D01*
G01X1869921Y-2015861D01*
G01X1868406Y-2015406D01*
G01X1866285Y-2015103D01*
G01X1864466Y-2015103D01*
G01X1863103Y-2015255D01*
G01X1861891Y-2015558D01*
G01X1860830Y-2016012D01*
G01X1859921Y-2016467D01*
G01X1859012Y-2017073D01*
G01X1858254Y-2017830D01*
G01X1857497Y-2018891D01*
G01X1856739Y-2020255D01*
G01X1856133Y-2021921D01*
G01X1855679Y-2024194D01*
G01X1855527Y-2026315D01*
G01X1855376Y-2027527D01*
G01X1840003Y-2027527D01*
G01X1839921Y-2026467D01*
G01X1839921Y-2025709D01*
G01X1840224Y-2021770D01*
G01X1840527Y-2020103D01*
G01X1840982Y-2018285D01*
G01X1841891Y-2015558D01*
G01X1842497Y-2014194D01*
G01X1843103Y-2013133D01*
G01X1844618Y-2010861D01*
G01X1845830Y-2009345D01*
G01X1847194Y-2008133D01*
G01X1848254Y-2007224D01*
G01X1849012Y-2006618D01*
G01X1850073Y-2006012D01*
G01X1851436Y-2005255D01*
G01X1853103Y-2004648D01*
G01X1854466Y-2004194D01*
G01X1855679Y-2003891D01*
G01X1857497Y-2003588D01*
G01X1861133Y-2003436D01*
G01X1864163Y-2003588D01*
G01X1865679Y-2003891D01*
G01X1867345Y-2004345D01*
G01X1868860Y-2004952D01*
G01X1870376Y-2005709D01*
G01X1871588Y-2006467D01*
G01X1872497Y-2007073D01*
G01X1873254Y-2007679D01*
G01X1874770Y-2009194D01*
G01X1875376Y-2009952D01*
G01X1875830Y-2010709D01*
G01X1876436Y-2011315D01*
G01X1876701Y-2011429D01*
G01X1876891Y-2011164D01*
G01X1877042Y-2009800D01*
G01X1876891Y-2008436D01*
G01X1876588Y-2005406D01*
G01X1875982Y-2002376D01*
G01X1874921Y-1999194D01*
G01X1874315Y-1997830D01*
G01X1873709Y-1996618D01*
G01X1873103Y-1995557D01*
G01X1872345Y-1994497D01*
G01X1871436Y-1993436D01*
G01X1870224Y-1991921D01*
G01X1869467Y-1991164D01*
G01X1868709Y-1990557D01*
G01X1867951Y-1990103D01*
G01X1866891Y-1989345D01*
G01X1865376Y-1988588D01*
G01X1863860Y-1987982D01*
G01X1862042Y-1987527D01*
G01X1860527Y-1987224D01*
G01X1857042Y-1987073D01*
G01X1853557Y-1987224D01*
G01X1852042Y-1987527D01*
G01X1850376Y-1987982D01*
G01X1847648Y-1988891D01*
G01X1846285Y-1989497D01*
G01X1845376Y-1989800D01*
G01X1845224Y-1983285D01*
G01X1845224Y-1976769D01*
G01X1846133Y-1976618D01*
G01X1847648Y-1976163D01*
G01X1848860Y-1975860D01*
G01X1849921Y-1975709D01*
G01X1851436Y-1975406D01*
G01X1853103Y-1975254D01*
G01X1854163Y-1975103D01*
G01X1858557Y-1974951D01*
G01X1862951Y-1975103D01*
G01X1866588Y-1975709D01*
G01X1868103Y-1976163D01*
G01X1870073Y-1976769D01*
G01X1871588Y-1977376D01*
G01X1872951Y-1977982D01*
G01X1874164Y-1978588D01*
G01X1876588Y-1980103D01*
G01X1879012Y-1981921D01*
G01X1881285Y-1984194D01*
G01X1882497Y-1985709D01*
G01X1883255Y-1986466D01*
G01X1883861Y-1987224D01*
G01X1884467Y-1988285D01*
G01X1885376Y-1989648D01*
G01X1886285Y-1991164D01*
G01X1887648Y-1993891D01*
G01X1888861Y-1996618D01*
G01X1889315Y-1997830D01*
G01X1889770Y-1999194D01*
G01X1890224Y-2000709D01*
G01X1890527Y-2002073D01*
G01X1890982Y-2003588D01*
G01X1891436Y-2006012D01*
G01X1891739Y-2007830D01*
G01X1892042Y-2009952D01*
G01X1892345Y-2013285D01*
G01X1892497Y-2018285D01*
G01X1892345Y-2023285D01*
G01X1892042Y-2026618D01*
G01X1891436Y-2030254D01*
G01X1890982Y-2031770D01*
G01X1890527Y-2033588D01*
G01X1890073Y-2034951D01*
G01X1889164Y-2037376D01*
G01X1888558Y-2038739D01*
G01X1887952Y-2039951D01*
G01X1887345Y-2041012D01*
G01X1886588Y-2042224D01*
G01X1885679Y-2043588D01*
G01X1884770Y-2044648D01*
G01X1883255Y-2046467D01*
G01X1882042Y-2047376D01*
G01X1880982Y-2048285D01*
G01X1879921Y-2049042D01*
G01X1878709Y-2049800D01*
G01X1877497Y-2050406D01*
G01X1876133Y-2051012D01*
G01X1874618Y-2051618D01*
G01X1872648Y-2052224D01*
G01X1870982Y-2052527D01*
G37*
G36*
G01X1953557Y-2040103D02*
G01X1953860Y-2041467D01*
G01X1954163Y-2043588D01*
G01X1954315Y-2047830D01*
G01X1954315Y-2051618D01*
G01X1904012Y-2051618D01*
G01X1904012Y-2038588D01*
G01X1920073Y-2038588D01*
G01X1932118Y-2038436D01*
G01X1936133Y-2037982D01*
G01X1935830Y-2036770D01*
G01X1935224Y-2035558D01*
G01X1934315Y-2034194D01*
G01X1930982Y-2030861D01*
G01X1928254Y-2028588D01*
G01X1927345Y-2027982D01*
G01X1926588Y-2027376D01*
G01X1925376Y-2026467D01*
G01X1923861Y-2025406D01*
G01X1922800Y-2024648D01*
G01X1922042Y-2024042D01*
G01X1919921Y-2022527D01*
G01X1918406Y-2021315D01*
G01X1917194Y-2020406D01*
G01X1916133Y-2019497D01*
G01X1915376Y-2018891D01*
G01X1911588Y-2015103D01*
G01X1909770Y-2012830D01*
G01X1909012Y-2011770D01*
G01X1907497Y-2009345D01*
G01X1906739Y-2007830D01*
G01X1906133Y-2006467D01*
G01X1905679Y-2005103D01*
G01X1905376Y-2003891D01*
G01X1904921Y-2002376D01*
G01X1904618Y-2000558D01*
G01X1904467Y-1999345D01*
G01X1904315Y-1996164D01*
G01X1904467Y-1992982D01*
G01X1904770Y-1991315D01*
G01X1905224Y-1989497D01*
G01X1905679Y-1988133D01*
G01X1906133Y-1986921D01*
G01X1906739Y-1985860D01*
G01X1907497Y-1984648D01*
G01X1908255Y-1983588D01*
G01X1909164Y-1982376D01*
G01X1910224Y-1981315D01*
G01X1912497Y-1979497D01*
G01X1913406Y-1978891D01*
G01X1914467Y-1978285D01*
G01X1915679Y-1977679D01*
G01X1917042Y-1977072D01*
G01X1918558Y-1976466D01*
G01X1920224Y-1976012D01*
G01X1921436Y-1975709D01*
G01X1923254Y-1975406D01*
G01X1925376Y-1975103D01*
G01X1929467Y-1974951D01*
G01X1933254Y-1975103D01*
G01X1935982Y-1975406D01*
G01X1939012Y-1976012D01*
G01X1940376Y-1976466D01*
G01X1942345Y-1977072D01*
G01X1944012Y-1977679D01*
G01X1945527Y-1978285D01*
G01X1946891Y-1978891D01*
G01X1949012Y-1980103D01*
G01X1950224Y-1980860D01*
G01X1950982Y-1981315D01*
G01X1950982Y-1994951D01*
G01X1950376Y-1994648D01*
G01X1949467Y-1993891D01*
G01X1948709Y-1993285D01*
G01X1947497Y-1992527D01*
G01X1946133Y-1991618D01*
G01X1945073Y-1991012D01*
G01X1942648Y-1989800D01*
G01X1941285Y-1989194D01*
G01X1939467Y-1988588D01*
G01X1937497Y-1988133D01*
G01X1935982Y-1987830D01*
G01X1932951Y-1987527D01*
G01X1931436Y-1987527D01*
G01X1929618Y-1987679D01*
G01X1928406Y-1987830D01*
G01X1927345Y-1988133D01*
G01X1926285Y-1988588D01*
G01X1925224Y-1989194D01*
G01X1924164Y-1989951D01*
G01X1923406Y-1990860D01*
G01X1922800Y-1991618D01*
G01X1922194Y-1992679D01*
G01X1921739Y-1994345D01*
G01X1921436Y-1995709D01*
G01X1921285Y-1998285D01*
G01X1921436Y-2000861D01*
G01X1921891Y-2002376D01*
G01X1922497Y-2004042D01*
G01X1923254Y-2005406D01*
G01X1924012Y-2006618D01*
G01X1924921Y-2007830D01*
G01X1926133Y-2009345D01*
G01X1927951Y-2011164D01*
G01X1929770Y-2012679D01*
G01X1931891Y-2014497D01*
G01X1934164Y-2016315D01*
G01X1934921Y-2016770D01*
G01X1937042Y-2018285D01*
G01X1937800Y-2018891D01*
G01X1939012Y-2019800D01*
G01X1940527Y-2021012D01*
G01X1941588Y-2021921D01*
G01X1942345Y-2022527D01*
G01X1946133Y-2026315D01*
G01X1948557Y-2029345D01*
G01X1949315Y-2030406D01*
G01X1950073Y-2031618D01*
G01X1950679Y-2032679D01*
G01X1951891Y-2035103D01*
G01X1952497Y-2036467D01*
G01X1953103Y-2038285D01*
G01X1953557Y-2040103D01*
G37*
G36*
G01X1996133Y-2052527D02*
G01X1995073Y-2052679D01*
G01X1993709Y-2052830D01*
G01X1992649Y-2052982D01*
G01X1990830Y-2053133D01*
G01X1988709Y-2052982D01*
G01X1985679Y-2052679D01*
G01X1982952Y-2052073D01*
G01X1981739Y-2051618D01*
G01X1980224Y-2051012D01*
G01X1978709Y-2050254D01*
G01X1977194Y-2049345D01*
G01X1975679Y-2048285D01*
G01X1974467Y-2047376D01*
G01X1972951Y-2045861D01*
G01X1971436Y-2044042D01*
G01X1970830Y-2043285D01*
G01X1970224Y-2042224D01*
G01X1969315Y-2040861D01*
G01X1967345Y-2036921D01*
G01X1966739Y-2035254D01*
G01X1966133Y-2033739D01*
G01X1965224Y-2030406D01*
G01X1964921Y-2029194D01*
G01X1964770Y-2028133D01*
G01X1964466Y-2026618D01*
G01X1964163Y-2024800D01*
G01X1963860Y-2022679D01*
G01X1963709Y-2020558D01*
G01X1963557Y-2019345D01*
G01X1963444Y-2014345D01*
G01X1979467Y-2014345D01*
G01X1979618Y-2022679D01*
G01X1979921Y-2025709D01*
G01X1980224Y-2027830D01*
G01X1980830Y-2030861D01*
G01X1981891Y-2034042D01*
G01X1982497Y-2035406D01*
G01X1983103Y-2036467D01*
G01X1984012Y-2037830D01*
G01X1985073Y-2038891D01*
G01X1985830Y-2039497D01*
G01X1986739Y-2040103D01*
G01X1986739Y-2040103D01*
G01X1988255Y-2040709D01*
G01X1990376Y-2041012D01*
G01X1991739Y-2040861D01*
G01X1992497Y-2040709D01*
G01X1993558Y-2040406D01*
G01X1994618Y-2039800D01*
G01X1995527Y-2039042D01*
G01X1996285Y-2038285D01*
G01X1997194Y-2037224D01*
G01X1998103Y-2035709D01*
G01X1998709Y-2034345D01*
G01X1999164Y-2033133D01*
G01X1999618Y-2031770D01*
G01X1999921Y-2030558D01*
G01X2000527Y-2027527D01*
G01X2000830Y-2025709D01*
G01X2001133Y-2023285D01*
G01X2001285Y-2020558D01*
G01X2001436Y-2018436D01*
G01X2001588Y-2014042D01*
G01X2001436Y-2009648D01*
G01X2001133Y-2004800D01*
G01X2000830Y-2002073D01*
G01X2000224Y-1998436D01*
G01X1999770Y-1996921D01*
G01X1999164Y-1994951D01*
G01X1998558Y-1993285D01*
G01X1997800Y-1991921D01*
G01X1997042Y-1990709D01*
G01X1996285Y-1989800D01*
G01X1995527Y-1989042D01*
G01X1994467Y-1988285D01*
G01X1993255Y-1987679D01*
G01X1991739Y-1987224D01*
G01X1989315Y-1987073D01*
G01X1987345Y-1987376D01*
G01X1986133Y-1987982D01*
G01X1985224Y-1988739D01*
G01X1984467Y-1989497D01*
G01X1983709Y-1990406D01*
G01X1983103Y-1991467D01*
G01X1982497Y-1992679D01*
G01X1981891Y-1994042D01*
G01X1981436Y-1995406D01*
G01X1980830Y-1997830D01*
G01X1980224Y-2000861D01*
G01X1979921Y-2002982D01*
G01X1979770Y-2004952D01*
G01X1979618Y-2006012D01*
G01X1979467Y-2014345D01*
G01X1963444Y-2014345D01*
G01X1963406Y-2012679D01*
G01X1963557Y-2006012D01*
G01X1963860Y-2002679D01*
G01X1964163Y-2000255D01*
G01X1964770Y-1996921D01*
G01X1965224Y-1995406D01*
G01X1965679Y-1993588D01*
G01X1966588Y-1990860D01*
G01X1967042Y-1989648D01*
G01X1967648Y-1988436D01*
G01X1968254Y-1987073D01*
G01X1968860Y-1986012D01*
G01X1969618Y-1984800D01*
G01X1970376Y-1983739D01*
G01X1970982Y-1982982D01*
G01X1971891Y-1981769D01*
G01X1972951Y-1980709D01*
G01X1974164Y-1979800D01*
G01X1975679Y-1978739D01*
G01X1976891Y-1977982D01*
G01X1979315Y-1976769D01*
G01X1980527Y-1976315D01*
G01X1981739Y-1976012D01*
G01X1983255Y-1975557D01*
G01X1985073Y-1975254D01*
G01X1986285Y-1975103D01*
G01X1989770Y-1974951D01*
G01X1993255Y-1975103D01*
G01X1996588Y-1975709D01*
G01X1997952Y-1976163D01*
G01X1999618Y-1976769D01*
G01X2001133Y-1977376D01*
G01X2002497Y-1978133D01*
G01X2003709Y-1978891D01*
G01X2004618Y-1979497D01*
G01X2005376Y-1980103D01*
G01X2006588Y-1981012D01*
G01X2007649Y-1982073D01*
G01X2008558Y-1983285D01*
G01X2009770Y-1984800D01*
G01X2010830Y-1986315D01*
G01X2011739Y-1987830D01*
G01X2013103Y-1990557D01*
G01X2013558Y-1991618D01*
G01X2014012Y-1992830D01*
G01X2014921Y-1995557D01*
G01X2015376Y-1997224D01*
G01X2015679Y-1998739D01*
G01X2015982Y-1999951D01*
G01X2016285Y-2001467D01*
G01X2016891Y-2005709D01*
G01X2017042Y-2007527D01*
G01X2017194Y-2009042D01*
G01X2017345Y-2015558D01*
G01X2017194Y-2022073D01*
G01X2016891Y-2025406D01*
G01X2016588Y-2027830D01*
G01X2015982Y-2031164D01*
G01X2015527Y-2032679D01*
G01X2014921Y-2034800D01*
G01X2014315Y-2036618D01*
G01X2013709Y-2038285D01*
G01X2013103Y-2039648D01*
G01X2012497Y-2040861D01*
G01X2011891Y-2041921D01*
G01X2011133Y-2042982D01*
G01X2010073Y-2044497D01*
G01X2008861Y-2046012D01*
G01X2007649Y-2047073D01*
G01X2005830Y-2048588D01*
G01X2004921Y-2049194D01*
G01X2003861Y-2049800D01*
G01X2001436Y-2051012D01*
G01X1999770Y-2051618D01*
G01X1997800Y-2052224D01*
G01X1996133Y-2052527D01*
G37*
G36*
G01X2076891Y-2040103D02*
G01X2077194Y-2041467D01*
G01X2077497Y-2043588D01*
G01X2077648Y-2047830D01*
G01X2077648Y-2051618D01*
G01X2027345Y-2051618D01*
G01X2027345Y-2038588D01*
G01X2059467Y-2038588D01*
G01X2059467Y-2037830D01*
G01X2059164Y-2036618D01*
G01X2058557Y-2035558D01*
G01X2057648Y-2034194D01*
G01X2056739Y-2033133D01*
G01X2055679Y-2032224D01*
G01X2053861Y-2030406D01*
G01X2052648Y-2029497D01*
G01X2051133Y-2028285D01*
G01X2048709Y-2026467D01*
G01X2047194Y-2025406D01*
G01X2046133Y-2024648D01*
G01X2045376Y-2024042D01*
G01X2043254Y-2022527D01*
G01X2041739Y-2021315D01*
G01X2040527Y-2020406D01*
G01X2039467Y-2019497D01*
G01X2038709Y-2018891D01*
G01X2034921Y-2015103D01*
G01X2033103Y-2012830D01*
G01X2032345Y-2011770D01*
G01X2030830Y-2009345D01*
G01X2030073Y-2007830D01*
G01X2029467Y-2006467D01*
G01X2029012Y-2005103D01*
G01X2028709Y-2003891D01*
G01X2028255Y-2002376D01*
G01X2027951Y-2000558D01*
G01X2027800Y-1999345D01*
G01X2027648Y-1996164D01*
G01X2027800Y-1992982D01*
G01X2028406Y-1989951D01*
G01X2028861Y-1988588D01*
G01X2029467Y-1986921D01*
G01X2030224Y-1985557D01*
G01X2031133Y-1984194D01*
G01X2031891Y-1983133D01*
G01X2032497Y-1982376D01*
G01X2034012Y-1980860D01*
G01X2035527Y-1979648D01*
G01X2036436Y-1979042D01*
G01X2037345Y-1978588D01*
G01X2038406Y-1977982D01*
G01X2039618Y-1977376D01*
G01X2040679Y-1976921D01*
G01X2041891Y-1976466D01*
G01X2043406Y-1976012D01*
G01X2044770Y-1975709D01*
G01X2046588Y-1975406D01*
G01X2048709Y-1975103D01*
G01X2052800Y-1974951D01*
G01X2056588Y-1975103D01*
G01X2059315Y-1975406D01*
G01X2062345Y-1976012D01*
G01X2063709Y-1976466D01*
G01X2065376Y-1976921D01*
G01X2066588Y-1977376D01*
G01X2067648Y-1977830D01*
G01X2068860Y-1978285D01*
G01X2070224Y-1978891D01*
G01X2072951Y-1980406D01*
G01X2074012Y-1981315D01*
G01X2074315Y-1988436D01*
G01X2074315Y-1994951D01*
G01X2073709Y-1994648D01*
G01X2072800Y-1993891D01*
G01X2072042Y-1993285D01*
G01X2071285Y-1992830D01*
G01X2070224Y-1992073D01*
G01X2068709Y-1991164D01*
G01X2065982Y-1989800D01*
G01X2064618Y-1989194D01*
G01X2062800Y-1988588D01*
G01X2060830Y-1988133D01*
G01X2059315Y-1987830D01*
G01X2056285Y-1987527D01*
G01X2054770Y-1987527D01*
G01X2052951Y-1987679D01*
G01X2051739Y-1987830D01*
G01X2050679Y-1988133D01*
G01X2049618Y-1988588D01*
G01X2048557Y-1989194D01*
G01X2047497Y-1989951D01*
G01X2046739Y-1990860D01*
G01X2046133Y-1991618D01*
G01X2045527Y-1992679D01*
G01X2045073Y-1994345D01*
G01X2044770Y-1995709D01*
G01X2044618Y-1998285D01*
G01X2044770Y-2000861D01*
G01X2045224Y-2002376D01*
G01X2045830Y-2004042D01*
G01X2046588Y-2005406D01*
G01X2047345Y-2006618D01*
G01X2048254Y-2007830D01*
G01X2049467Y-2009345D01*
G01X2051285Y-2011164D01*
G01X2052800Y-2012376D01*
G01X2053557Y-2013133D01*
G01X2054770Y-2014042D01*
G01X2057800Y-2016467D01*
G01X2059315Y-2017527D01*
G01X2060376Y-2018285D01*
G01X2061133Y-2018891D01*
G01X2062345Y-2019800D01*
G01X2063860Y-2021012D01*
G01X2064921Y-2021921D01*
G01X2065679Y-2022527D01*
G01X2069467Y-2026315D01*
G01X2071891Y-2029345D01*
G01X2072648Y-2030406D01*
G01X2073406Y-2031618D01*
G01X2074012Y-2032679D01*
G01X2075224Y-2035103D01*
G01X2075830Y-2036467D01*
G01X2076436Y-2038285D01*
G01X2076891Y-2040103D01*
G37*
G36*
G01X1687951Y-1942830D02*
G01X1687042Y-1942982D01*
G01X1685679Y-1943285D01*
G01X1682648Y-1943891D01*
G01X1679164Y-1944042D01*
G01X1675679Y-1943891D01*
G01X1674164Y-1943588D01*
G01X1672497Y-1943133D01*
G01X1670073Y-1942224D01*
G01X1668709Y-1941467D01*
G01X1667194Y-1940557D01*
G01X1666133Y-1939648D01*
G01X1664618Y-1938436D01*
G01X1663103Y-1936921D01*
G01X1662194Y-1935709D01*
G01X1661133Y-1934345D01*
G01X1660224Y-1932982D01*
G01X1658709Y-1930557D01*
G01X1656739Y-1926618D01*
G01X1655527Y-1923588D01*
G01X1654921Y-1921921D01*
G01X1653709Y-1918891D01*
G01X1652497Y-1915557D01*
G01X1651891Y-1914042D01*
G01X1650072Y-1909194D01*
G01X1649466Y-1907679D01*
G01X1648254Y-1904345D01*
G01X1647648Y-1902830D01*
G01X1645830Y-1897982D01*
G01X1645224Y-1896467D01*
G01X1644012Y-1893133D01*
G01X1643406Y-1891618D01*
G01X1641588Y-1886770D01*
G01X1640981Y-1885254D01*
G01X1639769Y-1881921D01*
G01X1639163Y-1880406D01*
G01X1637345Y-1875557D01*
G01X1636739Y-1874042D01*
G01X1635527Y-1870709D01*
G01X1634921Y-1869194D01*
G01X1634012Y-1866769D01*
G01X1633557Y-1865406D01*
G01X1633406Y-1864648D01*
G01X1648557Y-1864648D01*
G01X1650072Y-1869194D01*
G01X1650527Y-1870860D01*
G01X1651891Y-1874951D01*
G01X1652800Y-1877982D01*
G01X1654163Y-1882073D01*
G01X1654466Y-1883285D01*
G01X1656133Y-1888285D01*
G01X1657345Y-1892224D01*
G01X1658557Y-1895861D01*
G01X1659012Y-1897527D01*
G01X1659466Y-1898891D01*
G01X1659921Y-1900406D01*
G01X1660224Y-1901770D01*
G01X1660527Y-1902982D01*
G01X1660830Y-1904497D01*
G01X1661285Y-1905406D01*
G01X1661512Y-1905254D01*
G01X1661739Y-1902982D01*
G01X1662042Y-1901467D01*
G01X1662497Y-1899800D01*
G01X1664315Y-1893739D01*
G01X1664770Y-1892376D01*
G01X1665073Y-1891164D01*
G01X1666133Y-1887982D01*
G01X1666588Y-1886315D01*
G01X1667497Y-1883588D01*
G01X1667800Y-1882376D01*
G01X1668860Y-1879194D01*
G01X1670073Y-1875254D01*
G01X1670679Y-1873436D01*
G01X1671133Y-1871769D01*
G01X1672042Y-1869042D01*
G01X1672345Y-1867830D01*
G01X1672800Y-1866466D01*
G01X1673406Y-1865103D01*
G01X1675754Y-1864762D01*
G01X1682194Y-1864648D01*
G01X1690679Y-1864648D01*
G01X1690527Y-1865406D01*
G01X1690073Y-1866618D01*
G01X1689618Y-1867678D01*
G01X1689164Y-1868891D01*
G01X1687345Y-1873436D01*
G01X1686739Y-1874800D01*
G01X1686285Y-1875860D01*
G01X1685830Y-1877072D01*
G01X1682194Y-1886163D01*
G01X1681588Y-1887527D01*
G01X1676739Y-1899648D01*
G01X1676133Y-1901012D01*
G01X1672497Y-1910103D01*
G01X1671891Y-1911467D01*
G01X1669467Y-1917527D01*
G01X1669164Y-1918891D01*
G01X1669467Y-1919951D01*
G01X1672194Y-1926315D01*
G01X1672800Y-1927376D01*
G01X1673709Y-1928739D01*
G01X1674770Y-1929800D01*
G01X1675527Y-1930406D01*
G01X1676588Y-1931012D01*
G01X1678254Y-1931618D01*
G01X1681285Y-1931921D01*
G01X1683860Y-1931770D01*
G01X1685073Y-1931467D01*
G01X1686436Y-1931012D01*
G01X1687497Y-1930557D01*
G01X1687838Y-1931997D01*
G01X1687951Y-1936618D01*
G01X1687951Y-1942830D01*
G37*
G36*
G01X1739921Y-1905861D02*
G01X1743557Y-1911315D01*
G01X1745072Y-1913436D01*
G01X1748406Y-1918436D01*
G01X1739618Y-1918588D01*
G01X1730679Y-1918588D01*
G01X1730376Y-1917830D01*
G01X1729163Y-1915709D01*
G01X1728557Y-1914497D01*
G01X1727800Y-1913285D01*
G01X1727042Y-1911770D01*
G01X1725527Y-1909042D01*
G01X1724921Y-1907830D01*
G01X1724163Y-1906618D01*
G01X1723406Y-1905103D01*
G01X1721891Y-1902376D01*
G01X1721285Y-1901164D01*
G01X1720830Y-1900103D01*
G01X1720224Y-1899345D01*
G01X1719845Y-1899421D01*
G01X1719618Y-1899951D01*
G01X1719163Y-1901164D01*
G01X1718557Y-1902376D01*
G01X1717042Y-1905103D01*
G01X1716436Y-1906315D01*
G01X1715224Y-1908436D01*
G01X1714618Y-1909648D01*
G01X1713103Y-1912376D01*
G01X1712497Y-1913588D01*
G01X1711285Y-1915709D01*
G01X1710679Y-1916921D01*
G01X1709921Y-1918133D01*
G01X1707345Y-1918474D01*
G01X1700527Y-1918588D01*
G01X1691588Y-1918588D01*
G01X1692042Y-1917830D01*
G01X1692951Y-1916467D01*
G01X1694467Y-1914042D01*
G01X1695376Y-1912679D01*
G01X1696891Y-1910254D01*
G01X1697800Y-1908891D01*
G01X1699315Y-1906467D01*
G01X1700224Y-1905103D01*
G01X1701739Y-1902679D01*
G01X1702648Y-1901315D01*
G01X1704163Y-1898891D01*
G01X1705073Y-1897527D01*
G01X1706588Y-1895103D01*
G01X1707497Y-1893739D01*
G01X1708254Y-1892527D01*
G01X1708860Y-1891467D01*
G01X1708860Y-1890406D01*
G01X1708103Y-1889194D01*
G01X1705376Y-1885103D01*
G01X1703254Y-1882073D01*
G01X1699618Y-1876618D01*
G01X1697497Y-1873588D01*
G01X1693860Y-1868133D01*
G01X1692800Y-1866618D01*
G01X1691739Y-1865254D01*
G01X1691285Y-1864648D01*
G01X1699921Y-1864648D01*
G01X1706436Y-1864800D01*
G01X1708709Y-1865254D01*
G01X1709315Y-1866466D01*
G01X1710073Y-1867830D01*
G01X1711285Y-1870254D01*
G01X1712497Y-1872375D01*
G01X1713709Y-1874800D01*
G01X1714921Y-1876921D01*
G01X1716133Y-1879345D01*
G01X1717345Y-1881466D01*
G01X1717951Y-1882982D01*
G01X1718557Y-1884194D01*
G01X1719163Y-1884800D01*
G01X1719429Y-1884762D01*
G01X1719618Y-1884345D01*
G01X1720073Y-1883133D01*
G01X1720679Y-1881769D01*
G01X1724921Y-1873285D01*
G01X1725679Y-1872072D01*
G01X1728860Y-1865709D01*
G01X1729277Y-1865103D01*
G01X1729921Y-1864800D01*
G01X1739163Y-1864648D01*
G01X1747648Y-1864648D01*
G01X1746285Y-1866921D01*
G01X1745375Y-1868285D01*
G01X1742345Y-1873133D01*
G01X1741436Y-1874497D01*
G01X1740527Y-1876012D01*
G01X1739012Y-1878436D01*
G01X1738103Y-1879800D01*
G01X1736588Y-1882224D01*
G01X1735679Y-1883588D01*
G01X1734769Y-1885103D01*
G01X1733254Y-1887527D01*
G01X1732345Y-1888891D01*
G01X1731588Y-1890103D01*
G01X1730982Y-1891164D01*
G01X1730830Y-1892224D01*
G01X1731436Y-1893436D01*
G01X1733254Y-1896164D01*
G01X1734769Y-1898285D01*
G01X1738406Y-1903739D01*
G01X1739921Y-1905861D01*
G37*
G36*
G01X1777194Y-1919042D02*
G01X1774164Y-1919648D01*
G01X1772648Y-1919800D01*
G01X1771739Y-1919951D01*
G01X1769012Y-1920103D01*
G01X1765982Y-1919951D01*
G01X1762648Y-1919648D01*
G01X1759315Y-1919042D01*
G01X1757800Y-1918588D01*
G01X1755982Y-1917982D01*
G01X1754466Y-1917376D01*
G01X1753860Y-1916959D01*
G01X1753557Y-1916315D01*
G01X1753406Y-1909800D01*
G01X1753406Y-1904042D01*
G01X1755679Y-1905406D01*
G01X1757042Y-1906012D01*
G01X1758103Y-1906467D01*
G01X1759466Y-1906921D01*
G01X1760830Y-1907224D01*
G01X1762042Y-1907527D01*
G01X1764163Y-1907830D01*
G01X1766739Y-1907982D01*
G01X1768406Y-1907830D01*
G01X1769467Y-1907679D01*
G01X1770679Y-1907376D01*
G01X1772042Y-1906921D01*
G01X1773254Y-1906467D01*
G01X1774467Y-1905709D01*
G01X1775982Y-1904648D01*
G01X1777042Y-1903588D01*
G01X1777648Y-1902830D01*
G01X1778406Y-1901770D01*
G01X1779164Y-1900558D01*
G01X1779618Y-1899497D01*
G01X1780073Y-1898285D01*
G01X1780527Y-1896315D01*
G01X1780830Y-1894497D01*
G01X1780982Y-1891467D01*
G01X1780830Y-1888436D01*
G01X1780527Y-1886921D01*
G01X1780073Y-1885254D01*
G01X1779467Y-1883891D01*
G01X1778861Y-1882679D01*
G01X1778103Y-1881466D01*
G01X1777194Y-1880406D01*
G01X1776436Y-1879648D01*
G01X1775376Y-1878739D01*
G01X1774315Y-1877982D01*
G01X1773254Y-1877375D01*
G01X1772042Y-1876769D01*
G01X1770679Y-1876315D01*
G01X1769315Y-1876012D01*
G01X1767800Y-1875709D01*
G01X1764618Y-1875557D01*
G01X1762042Y-1875709D01*
G01X1760527Y-1876012D01*
G01X1758860Y-1876466D01*
G01X1757345Y-1877072D01*
G01X1755982Y-1877679D01*
G01X1754769Y-1878436D01*
G01X1753709Y-1879194D01*
G01X1753444Y-1879232D01*
G01X1753254Y-1878739D01*
G01X1753103Y-1872072D01*
G01X1753103Y-1866163D01*
G01X1753860Y-1865860D01*
G01X1755072Y-1865254D01*
G01X1756285Y-1864800D01*
G01X1757497Y-1864497D01*
G01X1760527Y-1863891D01*
G01X1763254Y-1863588D01*
G01X1767042Y-1863436D01*
G01X1770830Y-1863588D01*
G01X1773254Y-1863891D01*
G01X1774921Y-1864194D01*
G01X1776739Y-1864648D01*
G01X1778254Y-1865103D01*
G01X1779618Y-1865557D01*
G01X1782345Y-1866769D01*
G01X1783558Y-1867527D01*
G01X1785073Y-1868436D01*
G01X1786588Y-1869497D01*
G01X1787648Y-1870557D01*
G01X1788406Y-1871163D01*
G01X1789315Y-1872072D01*
G01X1791133Y-1874194D01*
G01X1792951Y-1876921D01*
G01X1793709Y-1878436D01*
G01X1794315Y-1879800D01*
G01X1794921Y-1881315D01*
G01X1795527Y-1883133D01*
G01X1795982Y-1885103D01*
G01X1796285Y-1886618D01*
G01X1796588Y-1888436D01*
G01X1796739Y-1890860D01*
G01X1796891Y-1892376D01*
G01X1797042Y-1893588D01*
G01X1796891Y-1894800D01*
G01X1796588Y-1898133D01*
G01X1796285Y-1899800D01*
G01X1795830Y-1901618D01*
G01X1795376Y-1902982D01*
G01X1794921Y-1904194D01*
G01X1794012Y-1906315D01*
G01X1792497Y-1908739D01*
G01X1790679Y-1911164D01*
G01X1789164Y-1912679D01*
G01X1787042Y-1914497D01*
G01X1786285Y-1915103D01*
G01X1785224Y-1915709D01*
G01X1784012Y-1916467D01*
G01X1782951Y-1917073D01*
G01X1780830Y-1917982D01*
G01X1779618Y-1918436D01*
G01X1777194Y-1919042D01*
G37*
G54D10*
G01X1293114Y-2421890D02*
G01X1293114Y-2474214D01*
G01X1310640Y-2421890D02*
G01X1275842Y-2421890D01*
G01X1243584Y-2421890D02*
G01X1208786Y-2474214D01*
G01X1208786Y-2421890D02*
G01X1243584Y-2474214D01*
G01X1176528Y-2421890D02*
G01X1176528Y-2474214D01*
G01X1176528Y-2421890D02*
G01X1159002Y-2421890D01*
G01X1151636Y-2424430D01*
G01X1146556Y-2429510D01*
G01X1144270Y-2434590D01*
G01X1141730Y-2441956D01*
G01X1141730Y-2454402D01*
G01X1144270Y-2461768D01*
G01X1146556Y-2466848D01*
G01X1151636Y-2471928D01*
G01X1159002Y-2474214D01*
G01X1176528Y-2474214D01*
G01X1564640Y-2421890D02*
G01X1564640Y-2474214D01*
G01X1564640Y-2421890D02*
G01X1542288Y-2421890D01*
G01X1534668Y-2424430D01*
G01X1532382Y-2426970D01*
G01X1529842Y-2432050D01*
G01X1529842Y-2436876D01*
G01X1532382Y-2441956D01*
G01X1534668Y-2444496D01*
G01X1542288Y-2447036D01*
G01X1564640Y-2447036D01*
G01X1547114Y-2447036D02*
G01X1529842Y-2474214D01*
G01X1497584Y-2421890D02*
G01X1462786Y-2474214D01*
G01X1462786Y-2421890D02*
G01X1497584Y-2474214D01*
G01X1430528Y-2421890D02*
G01X1430528Y-2474214D01*
G01X1430528Y-2421890D02*
G01X1413002Y-2421890D01*
G01X1405636Y-2424430D01*
G01X1400556Y-2429510D01*
G01X1398270Y-2434590D01*
G01X1395730Y-2441956D01*
G01X1395730Y-2454402D01*
G01X1398270Y-2461768D01*
G01X1400556Y-2466848D01*
G01X1405636Y-2471928D01*
G01X1413002Y-2474214D01*
G01X1430528Y-2474214D01*
G01X1019302Y-2434590D02*
G01X1021842Y-2429510D01*
G01X1026668Y-2424430D01*
G01X1031748Y-2421890D01*
G01X1041654Y-2421890D01*
G01X1046734Y-2424430D01*
G01X1051560Y-2429510D01*
G01X1054100Y-2434590D01*
G01X1056640Y-2441956D01*
G01X1056640Y-2454402D01*
G01X1054100Y-2461768D01*
G01X1051560Y-2466848D01*
G01X1046734Y-2471928D01*
G01X1041654Y-2474214D01*
G01X1031748Y-2474214D01*
G01X1026668Y-2471928D01*
G01X1021842Y-2466848D01*
G01X1019302Y-2461768D01*
G01X1019302Y-2454402D01*
G01X1031748Y-2454402D02*
G01X1019302Y-2454402D01*
G01X987044Y-2421890D02*
G01X987044Y-2474214D01*
G01X987044Y-2421890D02*
G01X952246Y-2474214D01*
G01X952246Y-2421890D02*
G01X952246Y-2474214D01*
G01X919988Y-2421890D02*
G01X919988Y-2474214D01*
G01X919988Y-2421890D02*
G01X902462Y-2421890D01*
G01X895096Y-2424430D01*
G01X890016Y-2429510D01*
G01X887730Y-2434590D01*
G01X885190Y-2441956D01*
G01X885190Y-2454402D01*
G01X887730Y-2461768D01*
G01X890016Y-2466848D01*
G01X895096Y-2471928D01*
G01X902462Y-2474214D01*
G01X919988Y-2474214D01*
G01X1831340Y-2421890D02*
G01X1811528Y-2474214D01*
G01X1791462Y-2421890D02*
G01X1811528Y-2474214D01*
G01X1721866Y-2434590D02*
G01X1724406Y-2429510D01*
G01X1729232Y-2424430D01*
G01X1734312Y-2421890D01*
G01X1744218Y-2421890D01*
G01X1749298Y-2424430D01*
G01X1754124Y-2429510D01*
G01X1756664Y-2434590D01*
G01X1759204Y-2441956D01*
G01X1759204Y-2454402D01*
G01X1756664Y-2461768D01*
G01X1754124Y-2466848D01*
G01X1749298Y-2471928D01*
G01X1744218Y-2474214D01*
G01X1734312Y-2474214D01*
G01X1729232Y-2471928D01*
G01X1724406Y-2466848D01*
G01X1721866Y-2461768D01*
G01X1652270Y-2434590D02*
G01X1654810Y-2429510D01*
G01X1659636Y-2424430D01*
G01X1664716Y-2421890D01*
G01X1674622Y-2421890D01*
G01X1679702Y-2424430D01*
G01X1684528Y-2429510D01*
G01X1687068Y-2434590D01*
G01X1689608Y-2441956D01*
G01X1689608Y-2454402D01*
G01X1687068Y-2461768D01*
G01X1684528Y-2466848D01*
G01X1679702Y-2471928D01*
G01X1674622Y-2474214D01*
G01X1664716Y-2474214D01*
G01X1659636Y-2471928D01*
G01X1654810Y-2466848D01*
G01X1652270Y-2461768D01*
G04 Text End*

G04 Rect Start*
G36*
G01X2134790Y-2170690D02*
G01X2134790Y-1870690D01*
G01X2434790Y-1870690D01*
G01X2434790Y-2170690D01*
G01X2134790Y-2170690D01*
G37*
G36*
G01X554800Y-562800D02*
G01X554800Y-1062800D01*
G01X54800Y-1062800D01*
G01X54800Y-562800D01*
G01X554800Y-562800D01*
G37*
G04 Rect End*

M02*

