G04 Layer: DrillDrawingLayer*
G04 EasyEDA Pro v3.2.149.88089769, 2026-07-13 20:44:55*
G04 Gerber Generator version 0.3*
G04 Scale: 100 percent, Rotated: No, Reflected: No*
G04 Dimensions in millimeters*
G04 Leading zeros omitted, absolute positions, 4 integers and 5 decimals*
G04 Generated by one-click*
G04 Object Configs: Pad,Via,Track,Text,Image,Dimension,BoardOutline,BoardCutout,CopperFilled,SolidRegion,FPCStiffener,Line,PlaneZone,ComponentProperty,ComponentSilkscreen,TearDrop*
G04 Layer Configs: 1,2,3,4,5,6,7,8,9,10,11,13,14,56*
G04 Copper Areas: 0*
%FSLAX45Y45*%
%MOMM*%
%AMIconRect*4,1,4,0.28,-0.28,-0.28,-0.28,-0.28,0.28,0.28,0.28,0.28,-0.28,0*4,0,4,0.233333,-0.233333,0.233333,0.233333,-0.233333,0.233333,-0.233333,-0.233333,0.233333,-0.233333,0*%
%AMIconTriangle*4,1,3,-0.339593,0.240473,0.339593,0.240473,0,-0.37884,-0.339593,0.240473,0*4,0,3,-0.265673,0.19404,0,-0.27342,0.266233,0.19404,-0.265673,0.19404,0*%
%AMIconStar6*4,1,12,0.12068,0.20888,0.298527,0.172713,0.241313,0,0.298527,-0.17206,0.12068,-0.208227,0,-0.344073,-0.120073,-0.208227,-0.298573,-0.17206,-0.240707,0,-0.298573,0.17206,-0.120073,0.20888,0,0.344073,0.12068,0.20888,0*4,0,12,-0.000467,0.273467,-0.090067,0.171733,-0.237533,0.136733,-0.193667,-0.007467,-0.237533,-0.1372,-0.090067,-0.171733,-0.000467,-0.273933,0.090067,-0.171733,0.237533,-0.1372,0.194133,0.007,0.237533,0.1372,0.090067,0.171267,-0.000467,0.273467,0*%
%AMIconStar4*4,1,8,-0.311733,0.311733,0,0.202533,0.311733,0.311733,0.202533,0,0.311733,-0.311733,0,-0.202533,-0.304407,-0.311733,-0.202533,0,-0.311733,0.311733,0*4,0,8,0.233333,-0.233333,0.1512,0,0.233333,0.233333,0,0.1512,-0.233333,0.233333,-0.1512,0,-0.233333,-0.233333,0,-0.1512,0.233333,-0.233333,0*%
%AMIconPlus*4,1,12,0.1736,-0.28,-0.1736,-0.28,-0.1736,-0.1736,-0.28,-0.1736,-0.28,0.1736,-0.1736,0.1736,-0.1736,0.28,0.1736,0.28,0.1736,0.1736,0.28,0.1736,0.28,-0.1736,0.1736,-0.1736,0.1736,-0.28,0*4,0,12,0.126933,-0.233333,0.126933,-0.126933,0.233333,-0.126933,0.233333,0.126933,0.126933,0.126933,0.126933,0.233333,-0.126933,0.233333,-0.126933,0.126933,-0.233333,0.126933,-0.233333,-0.126933,-0.126933,-0.126933,-0.126933,-0.233333,0.126933,-0.233333,0*%
%ADD10IconRect*%
%ADD11C,0.616X0.522667*%
%ADD12IconTriangle*%
%ADD13IconStar6*%
%ADD14IconStar4*%
%ADD15IconPlus*%
%ADD16C,0.2032*%
%ADD17C,0.254*%
G75*


G04 Drill Drawing Start*
G54D10*
G01X2405799Y-1685112D03*
G01X2405799Y-1185113D03*
G54D11*
G01X965200Y-2667000D03*
G01X1219200Y-2667000D03*
G01X1473200Y-2667000D03*
G01X1727200Y-2667000D03*
G54D12*
G01X267406Y-1346004D03*
G01X267406Y-2210001D03*
G01X647405Y-1346004D03*
G01X647405Y-2210001D03*
G54D13*
G01X990600Y-152400D03*
G01X1244600Y-152400D03*
G01X1498600Y-152400D03*
G01X1752600Y-152400D03*
G54D14*
G01X206604Y-2588390D03*
G01X206604Y-208410D03*
G01X2536596Y-2588390D03*
G01X2536596Y-208410D03*
G54D15*
G01X79007Y-1101697D03*
G01X508000Y-533400D03*
G01X608946Y-2671554D03*
G01X635000Y-1930400D03*
G01X635000Y-1625600D03*
G01X649605Y-294259D03*
G01X658056Y-916013D03*
G01X672402Y-1828000D03*
G01X672402Y-1728000D03*
G01X709905Y-1927995D03*
G01X709905Y-1627995D03*
G01X730250Y-1089000D03*
G01X730250Y-1009000D03*
G01X730250Y-849000D03*
G01X730250Y-769000D03*
G01X812800Y-2667000D03*
G01X889000Y-68907D03*
G01X939799Y-2035301D03*
G01X939800Y-2381402D03*
G01X939800Y-1537564D03*
G01X968400Y-1325880D03*
G01X1048400Y-1410881D03*
G01X1128400Y-452120D03*
G01X1206500Y-2089302D03*
G01X1210793Y-1553299D03*
G01X1308100Y-2374900D03*
G01X1384300Y-2374900D03*
G01X1430807Y-1723301D03*
G01X1435100Y-2089302D03*
G01X1531249Y-1435100D03*
G01X1606550Y-1009000D03*
G01X1606550Y-929000D03*
G01X1625600Y-304800D03*
G01X1625600Y-215900D03*
G01X1721002Y-419100D03*
G01X1892300Y-526898D03*
G01X2036788Y-1689100D03*
G01X2040801Y-1185113D03*
G01X2095500Y-526898D03*
G01X2298700Y-526898D03*
G01X2463800Y-2019300D03*
G01X2463800Y-1930400D03*
G01X2463800Y-850900D03*
G01X2464194Y-939800D03*
G01X2552700Y-2019300D03*
G01X2552700Y-1930400D03*
G01X2552700Y-939800D03*
G01X2552700Y-851754D03*
G04 Drill Drawing End*

G04 Text Start*
G54D16*
G01X5031962Y-230141D02*
G01X5031962Y-350283D01*
G01X5031962Y-230141D02*
G01X5077682Y-350283D01*
G01X5123402Y-230141D02*
G01X5077682Y-350283D01*
G01X5123402Y-230141D02*
G01X5123402Y-350283D01*
G01X5239734Y-270273D02*
G01X5239734Y-350283D01*
G01X5239734Y-287291D02*
G01X5228304Y-275861D01*
G01X5216874Y-270273D01*
G01X5199856Y-270273D01*
G01X5188426Y-275861D01*
G01X5176996Y-287291D01*
G01X5171154Y-304563D01*
G01X5171154Y-315993D01*
G01X5176996Y-333011D01*
G01X5188426Y-344441D01*
G01X5199856Y-350283D01*
G01X5216874Y-350283D01*
G01X5228304Y-344441D01*
G01X5239734Y-333011D01*
G01X5287486Y-270273D02*
G01X5287486Y-350283D01*
G01X5287486Y-304563D02*
G01X5293328Y-287291D01*
G01X5304758Y-275861D01*
G01X5316188Y-270273D01*
G01X5333206Y-270273D01*
G01X5380958Y-230141D02*
G01X5380958Y-350283D01*
G01X5438108Y-270273D02*
G01X5380958Y-327423D01*
G01X5403818Y-304563D02*
G01X5443950Y-350283D01*
G01X6569242Y-258843D02*
G01X6563400Y-247413D01*
G01X6551970Y-235983D01*
G01X6540540Y-230141D01*
G01X6517680Y-230141D01*
G01X6506250Y-235983D01*
G01X6494820Y-247413D01*
G01X6489232Y-258843D01*
G01X6483390Y-275861D01*
G01X6483390Y-304563D01*
G01X6489232Y-321581D01*
G01X6494820Y-333011D01*
G01X6506250Y-344441D01*
G01X6517680Y-350283D01*
G01X6540540Y-350283D01*
G01X6551970Y-344441D01*
G01X6563400Y-333011D01*
G01X6569242Y-321581D01*
G01X6645696Y-270273D02*
G01X6634266Y-275861D01*
G01X6622836Y-287291D01*
G01X6616994Y-304563D01*
G01X6616994Y-315993D01*
G01X6622836Y-333011D01*
G01X6634266Y-344441D01*
G01X6645696Y-350283D01*
G01X6662714Y-350283D01*
G01X6674144Y-344441D01*
G01X6685574Y-333011D01*
G01X6691416Y-315993D01*
G01X6691416Y-304563D01*
G01X6685574Y-287291D01*
G01X6674144Y-275861D01*
G01X6662714Y-270273D01*
G01X6645696Y-270273D01*
G01X6739168Y-270273D02*
G01X6739168Y-327423D01*
G01X6745010Y-344441D01*
G01X6756440Y-350283D01*
G01X6773458Y-350283D01*
G01X6784888Y-344441D01*
G01X6802160Y-327423D01*
G01X6802160Y-270273D02*
G01X6802160Y-350283D01*
G01X6849912Y-270273D02*
G01X6849912Y-350283D01*
G01X6849912Y-293133D02*
G01X6867184Y-275861D01*
G01X6878614Y-270273D01*
G01X6895632Y-270273D01*
G01X6907062Y-275861D01*
G01X6912904Y-293133D01*
G01X6912904Y-350283D01*
G01X6977928Y-230141D02*
G01X6977928Y-327423D01*
G01X6983516Y-344441D01*
G01X6994946Y-350283D01*
G01X7006376Y-350283D01*
G01X6960656Y-270273D02*
G01X7000788Y-270273D01*
G01X7977563Y-247413D02*
G01X7966133Y-235983D01*
G01X7949115Y-230141D01*
G01X7926255Y-230141D01*
G01X7908983Y-235983D01*
G01X7897553Y-247413D01*
G01X7897553Y-258843D01*
G01X7903395Y-270273D01*
G01X7908983Y-275861D01*
G01X7920413Y-281703D01*
G01X7954703Y-293133D01*
G01X7966133Y-298721D01*
G01X7971975Y-304563D01*
G01X7977563Y-315993D01*
G01X7977563Y-333011D01*
G01X7966133Y-344441D01*
G01X7949115Y-350283D01*
G01X7926255Y-350283D01*
G01X7908983Y-344441D01*
G01X7897553Y-333011D01*
G01X8025315Y-230141D02*
G01X8031157Y-235983D01*
G01X8036745Y-230141D01*
G01X8031157Y-224553D01*
G01X8025315Y-230141D01*
G01X8031157Y-270273D02*
G01X8031157Y-350283D01*
G01X8147489Y-270273D02*
G01X8084497Y-350283D01*
G01X8084497Y-270273D02*
G01X8147489Y-270273D01*
G01X8084497Y-350283D02*
G01X8147489Y-350283D01*
G01X8195241Y-304563D02*
G01X8263821Y-304563D01*
G01X8263821Y-293133D01*
G01X8258233Y-281703D01*
G01X8252391Y-275861D01*
G01X8240961Y-270273D01*
G01X8223943Y-270273D01*
G01X8212513Y-275861D01*
G01X8201083Y-287291D01*
G01X8195241Y-304563D01*
G01X8195241Y-315993D01*
G01X8201083Y-333011D01*
G01X8212513Y-344441D01*
G01X8223943Y-350283D01*
G01X8240961Y-350283D01*
G01X8252391Y-344441D01*
G01X8263821Y-333011D01*
G01X11700079Y-230141D02*
G01X11700079Y-350283D01*
G01X11700079Y-230141D02*
G01X11751641Y-230141D01*
G01X11768659Y-235983D01*
G01X11774501Y-241571D01*
G01X11780089Y-253001D01*
G01X11780089Y-270273D01*
G01X11774501Y-281703D01*
G01X11768659Y-287291D01*
G01X11751641Y-293133D01*
G01X11700079Y-293133D01*
G01X11827841Y-230141D02*
G01X11827841Y-350283D01*
G01X11944173Y-270273D02*
G01X11944173Y-350283D01*
G01X11944173Y-287291D02*
G01X11932743Y-275861D01*
G01X11921313Y-270273D01*
G01X11904295Y-270273D01*
G01X11892865Y-275861D01*
G01X11881435Y-287291D01*
G01X11875593Y-304563D01*
G01X11875593Y-315993D01*
G01X11881435Y-333011D01*
G01X11892865Y-344441D01*
G01X11904295Y-350283D01*
G01X11921313Y-350283D01*
G01X11932743Y-344441D01*
G01X11944173Y-333011D01*
G01X12009197Y-230141D02*
G01X12009197Y-327423D01*
G01X12014785Y-344441D01*
G01X12026215Y-350283D01*
G01X12037645Y-350283D01*
G01X11991925Y-270273D02*
G01X12032057Y-270273D01*
G01X12085397Y-304563D02*
G01X12153977Y-304563D01*
G01X12153977Y-293133D01*
G01X12148389Y-281703D01*
G01X12142547Y-275861D01*
G01X12131117Y-270273D01*
G01X12114099Y-270273D01*
G01X12102669Y-275861D01*
G01X12091239Y-287291D01*
G01X12085397Y-304563D01*
G01X12085397Y-315993D01*
G01X12091239Y-333011D01*
G01X12102669Y-344441D01*
G01X12114099Y-350283D01*
G01X12131117Y-350283D01*
G01X12142547Y-344441D01*
G01X12153977Y-333011D01*
G01X12270309Y-230141D02*
G01X12270309Y-350283D01*
G01X12270309Y-287291D02*
G01X12258879Y-275861D01*
G01X12247449Y-270273D01*
G01X12230431Y-270273D01*
G01X12219001Y-275861D01*
G01X12207571Y-287291D01*
G01X12201729Y-304563D01*
G01X12201729Y-315993D01*
G01X12207571Y-333011D01*
G01X12219001Y-344441D01*
G01X12230431Y-350283D01*
G01X12247449Y-350283D01*
G01X12258879Y-344441D01*
G01X12270309Y-333011D01*
G01X13241496Y-247413D02*
G01X13230066Y-235983D01*
G01X13213048Y-230141D01*
G01X13190188Y-230141D01*
G01X13172916Y-235983D01*
G01X13161486Y-247413D01*
G01X13161486Y-258843D01*
G01X13167328Y-270273D01*
G01X13172916Y-275861D01*
G01X13184346Y-281703D01*
G01X13218636Y-293133D01*
G01X13230066Y-298721D01*
G01X13235908Y-304563D01*
G01X13241496Y-315993D01*
G01X13241496Y-333011D01*
G01X13230066Y-344441D01*
G01X13213048Y-350283D01*
G01X13190188Y-350283D01*
G01X13172916Y-344441D01*
G01X13161486Y-333011D01*
G01X13289248Y-230141D02*
G01X13289248Y-350283D01*
G01X13289248Y-293133D02*
G01X13306520Y-275861D01*
G01X13317950Y-270273D01*
G01X13334968Y-270273D01*
G01X13346398Y-275861D01*
G01X13352240Y-293133D01*
G01X13352240Y-350283D01*
G01X13468572Y-270273D02*
G01X13468572Y-350283D01*
G01X13468572Y-287291D02*
G01X13457142Y-275861D01*
G01X13445712Y-270273D01*
G01X13428694Y-270273D01*
G01X13417264Y-275861D01*
G01X13405834Y-287291D01*
G01X13399992Y-304563D01*
G01X13399992Y-315993D01*
G01X13405834Y-333011D01*
G01X13417264Y-344441D01*
G01X13428694Y-350283D01*
G01X13445712Y-350283D01*
G01X13457142Y-344441D01*
G01X13468572Y-333011D01*
G01X13516324Y-270273D02*
G01X13516324Y-390161D01*
G01X13516324Y-287291D02*
G01X13527754Y-275861D01*
G01X13539184Y-270273D01*
G01X13556456Y-270273D01*
G01X13567886Y-275861D01*
G01X13579316Y-287291D01*
G01X13584904Y-304563D01*
G01X13584904Y-315993D01*
G01X13579316Y-333011D01*
G01X13567886Y-344441D01*
G01X13556456Y-350283D01*
G01X13539184Y-350283D01*
G01X13527754Y-344441D01*
G01X13516324Y-333011D01*
G01X13632656Y-304563D02*
G01X13701236Y-304563D01*
G01X13701236Y-293133D01*
G01X13695648Y-281703D01*
G01X13689806Y-275861D01*
G01X13678376Y-270273D01*
G01X13661358Y-270273D01*
G01X13649928Y-275861D01*
G01X13638498Y-287291D01*
G01X13632656Y-304563D01*
G01X13632656Y-315993D01*
G01X13638498Y-333011D01*
G01X13649928Y-344441D01*
G01X13661358Y-350283D01*
G01X13678376Y-350283D01*
G01X13689806Y-344441D01*
G01X13701236Y-333011D01*
G01X14592667Y-230141D02*
G01X14638387Y-350283D01*
G01X14684107Y-230141D02*
G01X14638387Y-350283D01*
G01X14731859Y-230141D02*
G01X14737701Y-235983D01*
G01X14743289Y-230141D01*
G01X14737701Y-224553D01*
G01X14731859Y-230141D01*
G01X14737701Y-270273D02*
G01X14737701Y-350283D01*
G01X14859621Y-270273D02*
G01X14859621Y-350283D01*
G01X14859621Y-287291D02*
G01X14848191Y-275861D01*
G01X14836761Y-270273D01*
G01X14819743Y-270273D01*
G01X14808313Y-275861D01*
G01X14796883Y-287291D01*
G01X14791041Y-304563D01*
G01X14791041Y-315993D01*
G01X14796883Y-333011D01*
G01X14808313Y-344441D01*
G01X14819743Y-350283D01*
G01X14836761Y-350283D01*
G01X14848191Y-344441D01*
G01X14859621Y-333011D01*
G01X15010243Y-207281D02*
G01X14907373Y-390161D01*
G01X15057995Y-230141D02*
G01X15057995Y-350283D01*
G01X15057995Y-230141D02*
G01X15109557Y-230141D01*
G01X15126575Y-235983D01*
G01X15132417Y-241571D01*
G01X15138005Y-253001D01*
G01X15138005Y-270273D01*
G01X15132417Y-281703D01*
G01X15126575Y-287291D01*
G01X15109557Y-293133D01*
G01X15057995Y-293133D01*
G01X15254337Y-270273D02*
G01X15254337Y-350283D01*
G01X15254337Y-287291D02*
G01X15242907Y-275861D01*
G01X15231477Y-270273D01*
G01X15214459Y-270273D01*
G01X15203029Y-275861D01*
G01X15191599Y-287291D01*
G01X15185757Y-304563D01*
G01X15185757Y-315993D01*
G01X15191599Y-333011D01*
G01X15203029Y-344441D01*
G01X15214459Y-350283D01*
G01X15231477Y-350283D01*
G01X15242907Y-344441D01*
G01X15254337Y-333011D01*
G01X15370669Y-230141D02*
G01X15370669Y-350283D01*
G01X15370669Y-287291D02*
G01X15359239Y-275861D01*
G01X15347809Y-270273D01*
G01X15330791Y-270273D01*
G01X15319361Y-275861D01*
G01X15307931Y-287291D01*
G01X15302089Y-304563D01*
G01X15302089Y-315993D01*
G01X15307931Y-333011D01*
G01X15319361Y-344441D01*
G01X15330791Y-350283D01*
G01X15347809Y-350283D01*
G01X15359239Y-344441D01*
G01X15370669Y-333011D01*
G01X16261846Y-230141D02*
G01X16261846Y-350283D01*
G01X16261846Y-230141D02*
G01X16313408Y-230141D01*
G01X16330426Y-235983D01*
G01X16336268Y-241571D01*
G01X16341856Y-253001D01*
G01X16341856Y-270273D01*
G01X16336268Y-281703D01*
G01X16330426Y-287291D01*
G01X16313408Y-293133D01*
G01X16261846Y-293133D01*
G01X16458188Y-270273D02*
G01X16458188Y-350283D01*
G01X16458188Y-287291D02*
G01X16446758Y-275861D01*
G01X16435328Y-270273D01*
G01X16418310Y-270273D01*
G01X16406880Y-275861D01*
G01X16395450Y-287291D01*
G01X16389608Y-304563D01*
G01X16389608Y-315993D01*
G01X16395450Y-333011D01*
G01X16406880Y-344441D01*
G01X16418310Y-350283D01*
G01X16435328Y-350283D01*
G01X16446758Y-344441D01*
G01X16458188Y-333011D01*
G01X16574520Y-230141D02*
G01X16574520Y-350283D01*
G01X16574520Y-287291D02*
G01X16563090Y-275861D01*
G01X16551660Y-270273D01*
G01X16534642Y-270273D01*
G01X16523212Y-275861D01*
G01X16511782Y-287291D01*
G01X16505940Y-304563D01*
G01X16505940Y-315993D01*
G01X16511782Y-333011D01*
G01X16523212Y-344441D01*
G01X16534642Y-350283D01*
G01X16551660Y-350283D01*
G01X16563090Y-344441D01*
G01X16574520Y-333011D01*
G01X16830298Y-247413D02*
G01X16818868Y-235983D01*
G01X16801850Y-230141D01*
G01X16778990Y-230141D01*
G01X16761718Y-235983D01*
G01X16750288Y-247413D01*
G01X16750288Y-258843D01*
G01X16756130Y-270273D01*
G01X16761718Y-275861D01*
G01X16773148Y-281703D01*
G01X16807438Y-293133D01*
G01X16818868Y-298721D01*
G01X16824710Y-304563D01*
G01X16830298Y-315993D01*
G01X16830298Y-333011D01*
G01X16818868Y-344441D01*
G01X16801850Y-350283D01*
G01X16778990Y-350283D01*
G01X16761718Y-344441D01*
G01X16750288Y-333011D01*
G01X16878050Y-230141D02*
G01X16878050Y-350283D01*
G01X16878050Y-293133D02*
G01X16895322Y-275861D01*
G01X16906752Y-270273D01*
G01X16923770Y-270273D01*
G01X16935200Y-275861D01*
G01X16941042Y-293133D01*
G01X16941042Y-350283D01*
G01X17057374Y-270273D02*
G01X17057374Y-350283D01*
G01X17057374Y-287291D02*
G01X17045944Y-275861D01*
G01X17034514Y-270273D01*
G01X17017496Y-270273D01*
G01X17006066Y-275861D01*
G01X16994636Y-287291D01*
G01X16988794Y-304563D01*
G01X16988794Y-315993D01*
G01X16994636Y-333011D01*
G01X17006066Y-344441D01*
G01X17017496Y-350283D01*
G01X17034514Y-350283D01*
G01X17045944Y-344441D01*
G01X17057374Y-333011D01*
G01X17105126Y-270273D02*
G01X17105126Y-390161D01*
G01X17105126Y-287291D02*
G01X17116556Y-275861D01*
G01X17127986Y-270273D01*
G01X17145258Y-270273D01*
G01X17156688Y-275861D01*
G01X17168118Y-287291D01*
G01X17173706Y-304563D01*
G01X17173706Y-315993D01*
G01X17168118Y-333011D01*
G01X17156688Y-344441D01*
G01X17145258Y-350283D01*
G01X17127986Y-350283D01*
G01X17116556Y-344441D01*
G01X17105126Y-333011D01*
G01X17221458Y-304563D02*
G01X17290038Y-304563D01*
G01X17290038Y-293133D01*
G01X17284450Y-281703D01*
G01X17278608Y-275861D01*
G01X17267178Y-270273D01*
G01X17250160Y-270273D01*
G01X17238730Y-275861D01*
G01X17227300Y-287291D01*
G01X17221458Y-304563D01*
G01X17221458Y-315993D01*
G01X17227300Y-333011D01*
G01X17238730Y-344441D01*
G01X17250160Y-350283D01*
G01X17267178Y-350283D01*
G01X17278608Y-344441D01*
G01X17290038Y-333011D01*
G01X18181215Y-230141D02*
G01X18181215Y-350283D01*
G01X18181215Y-350283D02*
G01X18249795Y-350283D01*
G01X18366127Y-270273D02*
G01X18366127Y-350283D01*
G01X18366127Y-287291D02*
G01X18354697Y-275861D01*
G01X18343267Y-270273D01*
G01X18326249Y-270273D01*
G01X18314819Y-275861D01*
G01X18303389Y-287291D01*
G01X18297547Y-304563D01*
G01X18297547Y-315993D01*
G01X18303389Y-333011D01*
G01X18314819Y-344441D01*
G01X18326249Y-350283D01*
G01X18343267Y-350283D01*
G01X18354697Y-344441D01*
G01X18366127Y-333011D01*
G01X18419721Y-270273D02*
G01X18454011Y-350283D01*
G01X18488301Y-270273D02*
G01X18454011Y-350283D01*
G01X18442581Y-373143D01*
G01X18431151Y-384573D01*
G01X18419721Y-390161D01*
G01X18413879Y-390161D01*
G01X18536053Y-304563D02*
G01X18604633Y-304563D01*
G01X18604633Y-293133D01*
G01X18599045Y-281703D01*
G01X18593203Y-275861D01*
G01X18581773Y-270273D01*
G01X18564755Y-270273D01*
G01X18553325Y-275861D01*
G01X18541895Y-287291D01*
G01X18536053Y-304563D01*
G01X18536053Y-315993D01*
G01X18541895Y-333011D01*
G01X18553325Y-344441D01*
G01X18564755Y-350283D01*
G01X18581773Y-350283D01*
G01X18593203Y-344441D01*
G01X18604633Y-333011D01*
G01X18652385Y-270273D02*
G01X18652385Y-350283D01*
G01X18652385Y-304563D02*
G01X18658227Y-287291D01*
G01X18669657Y-275861D01*
G01X18681087Y-270273D01*
G01X18698105Y-270273D01*
G01X18873873Y-230141D02*
G01X18873873Y-350283D01*
G01X18873873Y-230141D02*
G01X18925435Y-230141D01*
G01X18942453Y-235983D01*
G01X18948295Y-241571D01*
G01X18953883Y-253001D01*
G01X18953883Y-270273D01*
G01X18948295Y-281703D01*
G01X18942453Y-287291D01*
G01X18925435Y-293133D01*
G01X18873873Y-293133D01*
G01X19070215Y-270273D02*
G01X19070215Y-350283D01*
G01X19070215Y-287291D02*
G01X19058785Y-275861D01*
G01X19047355Y-270273D01*
G01X19030337Y-270273D01*
G01X19018907Y-275861D01*
G01X19007477Y-287291D01*
G01X19001635Y-304563D01*
G01X19001635Y-315993D01*
G01X19007477Y-333011D01*
G01X19018907Y-344441D01*
G01X19030337Y-350283D01*
G01X19047355Y-350283D01*
G01X19058785Y-344441D01*
G01X19070215Y-333011D01*
G01X19117967Y-230141D02*
G01X19123809Y-235983D01*
G01X19129397Y-230141D01*
G01X19123809Y-224553D01*
G01X19117967Y-230141D01*
G01X19123809Y-270273D02*
G01X19123809Y-350283D01*
G01X19177149Y-270273D02*
G01X19177149Y-350283D01*
G01X19177149Y-304563D02*
G01X19182991Y-287291D01*
G01X19194421Y-275861D01*
G01X19205851Y-270273D01*
G01X19222869Y-270273D01*
G01X6489232Y-839414D02*
G01X6489232Y-833572D01*
G01X6494820Y-822142D01*
G01X6500662Y-816554D01*
G01X6512092Y-810712D01*
G01X6534952Y-810712D01*
G01X6546382Y-816554D01*
G01X6551970Y-822142D01*
G01X6557812Y-833572D01*
G01X6557812Y-845002D01*
G01X6551970Y-856432D01*
G01X6540540Y-873704D01*
G01X6483390Y-930854D01*
G01X6563400Y-930854D01*
G01X7954703Y-810712D02*
G01X7897553Y-890722D01*
G01X7983405Y-890722D01*
G01X7954703Y-810712D02*
G01X7954703Y-930854D01*
G01X8031157Y-833572D02*
G01X8042587Y-827984D01*
G01X8059859Y-810712D01*
G01X8059859Y-930854D01*
G01X8113453Y-902152D02*
G01X8107611Y-907994D01*
G01X8113453Y-913582D01*
G01X8119041Y-907994D01*
G01X8113453Y-902152D01*
G01X8178223Y-810712D02*
G01X8241215Y-810712D01*
G01X8206925Y-856432D01*
G01X8223943Y-856432D01*
G01X8235373Y-862274D01*
G01X8241215Y-867862D01*
G01X8246803Y-885134D01*
G01X8246803Y-896564D01*
G01X8241215Y-913582D01*
G01X8229785Y-925012D01*
G01X8212513Y-930854D01*
G01X8195495Y-930854D01*
G01X8178223Y-925012D01*
G01X8172635Y-919424D01*
G01X8166793Y-907994D01*
G01X8294555Y-850844D02*
G01X8294555Y-930854D01*
G01X8294555Y-873704D02*
G01X8311827Y-856432D01*
G01X8323257Y-850844D01*
G01X8340275Y-850844D01*
G01X8351705Y-856432D01*
G01X8357547Y-873704D01*
G01X8357547Y-930854D01*
G01X8357547Y-873704D02*
G01X8374565Y-856432D01*
G01X8385995Y-850844D01*
G01X8403267Y-850844D01*
G01X8414697Y-856432D01*
G01X8420285Y-873704D01*
G01X8420285Y-930854D01*
G01X8468037Y-810712D02*
G01X8473879Y-816554D01*
G01X8479467Y-810712D01*
G01X8473879Y-805124D01*
G01X8468037Y-810712D01*
G01X8473879Y-850844D02*
G01X8473879Y-930854D01*
G01X8527219Y-810712D02*
G01X8527219Y-930854D01*
G01X8615103Y-787852D02*
G01X8603673Y-799282D01*
G01X8592243Y-816554D01*
G01X8580813Y-839414D01*
G01X8574971Y-867862D01*
G01X8574971Y-890722D01*
G01X8580813Y-919424D01*
G01X8592243Y-942284D01*
G01X8603673Y-959302D01*
G01X8615103Y-970732D01*
G01X8662855Y-833572D02*
G01X8674285Y-827984D01*
G01X8691557Y-810712D01*
G01X8691557Y-930854D01*
G01X8745151Y-902152D02*
G01X8739309Y-907994D01*
G01X8745151Y-913582D01*
G01X8750739Y-907994D01*
G01X8745151Y-902152D01*
G01X8832781Y-810712D02*
G01X8815763Y-816554D01*
G01X8804333Y-833572D01*
G01X8798491Y-862274D01*
G01X8798491Y-879292D01*
G01X8804333Y-907994D01*
G01X8815763Y-925012D01*
G01X8832781Y-930854D01*
G01X8844211Y-930854D01*
G01X8861483Y-925012D01*
G01X8872913Y-907994D01*
G01X8878501Y-879292D01*
G01X8878501Y-862274D01*
G01X8872913Y-833572D01*
G01X8861483Y-816554D01*
G01X8844211Y-810712D01*
G01X8832781Y-810712D01*
G01X8994833Y-810712D02*
G01X8937683Y-810712D01*
G01X8932095Y-862274D01*
G01X8937683Y-856432D01*
G01X8954955Y-850844D01*
G01X8971973Y-850844D01*
G01X8989245Y-856432D01*
G01X9000675Y-867862D01*
G01X9006263Y-885134D01*
G01X9006263Y-896564D01*
G01X9000675Y-913582D01*
G01X8989245Y-925012D01*
G01X8971973Y-930854D01*
G01X8954955Y-930854D01*
G01X8937683Y-925012D01*
G01X8932095Y-919424D01*
G01X8926253Y-907994D01*
G01X9088305Y-810712D02*
G01X9071287Y-816554D01*
G01X9059857Y-833572D01*
G01X9054015Y-862274D01*
G01X9054015Y-879292D01*
G01X9059857Y-907994D01*
G01X9071287Y-925012D01*
G01X9088305Y-930854D01*
G01X9099735Y-930854D01*
G01X9117007Y-925012D01*
G01X9128437Y-907994D01*
G01X9134025Y-879292D01*
G01X9134025Y-862274D01*
G01X9128437Y-833572D01*
G01X9117007Y-816554D01*
G01X9099735Y-810712D01*
G01X9088305Y-810712D01*
G01X9181777Y-850844D02*
G01X9181777Y-930854D01*
G01X9181777Y-873704D02*
G01X9199049Y-856432D01*
G01X9210479Y-850844D01*
G01X9227497Y-850844D01*
G01X9238927Y-856432D01*
G01X9244769Y-873704D01*
G01X9244769Y-930854D01*
G01X9244769Y-873704D02*
G01X9261787Y-856432D01*
G01X9273217Y-850844D01*
G01X9290489Y-850844D01*
G01X9301919Y-856432D01*
G01X9307507Y-873704D01*
G01X9307507Y-930854D01*
G01X9355259Y-850844D02*
G01X9355259Y-930854D01*
G01X9355259Y-873704D02*
G01X9372531Y-856432D01*
G01X9383961Y-850844D01*
G01X9400979Y-850844D01*
G01X9412409Y-856432D01*
G01X9418251Y-873704D01*
G01X9418251Y-930854D01*
G01X9418251Y-873704D02*
G01X9435269Y-856432D01*
G01X9446699Y-850844D01*
G01X9463971Y-850844D01*
G01X9475401Y-856432D01*
G01X9480989Y-873704D01*
G01X9480989Y-930854D01*
G01X9528741Y-787852D02*
G01X9540171Y-799282D01*
G01X9551601Y-816554D01*
G01X9563031Y-839414D01*
G01X9568873Y-867862D01*
G01X9568873Y-890722D01*
G01X9563031Y-919424D01*
G01X9551601Y-942284D01*
G01X9540171Y-959302D01*
G01X9528741Y-970732D01*
G01X11700079Y-810712D02*
G01X11700079Y-930854D01*
G01X11700079Y-810712D02*
G01X11780089Y-930854D01*
G01X11780089Y-810712D02*
G01X11780089Y-930854D01*
G01X11827841Y-810712D02*
G01X11827841Y-930854D01*
G01X11827841Y-810712D02*
G01X11879403Y-810712D01*
G01X11896421Y-816554D01*
G01X11902263Y-822142D01*
G01X11907851Y-833572D01*
G01X11907851Y-850844D01*
G01X11902263Y-862274D01*
G01X11896421Y-867862D01*
G01X11879403Y-873704D01*
G01X11827841Y-873704D01*
G01X11995735Y-810712D02*
G01X11995735Y-930854D01*
G01X11955603Y-810712D02*
G01X12035613Y-810712D01*
G01X12083365Y-810712D02*
G01X12083365Y-930854D01*
G01X12163375Y-810712D02*
G01X12163375Y-930854D01*
G01X12083365Y-867862D02*
G01X12163375Y-867862D01*
G01X13161486Y-810712D02*
G01X13161486Y-930854D01*
G01X13161486Y-810712D02*
G01X13213048Y-810712D01*
G01X13230066Y-816554D01*
G01X13235908Y-822142D01*
G01X13241496Y-833572D01*
G01X13241496Y-845002D01*
G01X13235908Y-856432D01*
G01X13230066Y-862274D01*
G01X13213048Y-867862D01*
G01X13161486Y-867862D01*
G01X13201618Y-867862D02*
G01X13241496Y-930854D01*
G01X13317950Y-850844D02*
G01X13306520Y-856432D01*
G01X13295090Y-867862D01*
G01X13289248Y-885134D01*
G01X13289248Y-896564D01*
G01X13295090Y-913582D01*
G01X13306520Y-925012D01*
G01X13317950Y-930854D01*
G01X13334968Y-930854D01*
G01X13346398Y-925012D01*
G01X13357828Y-913582D01*
G01X13363670Y-896564D01*
G01X13363670Y-885134D01*
G01X13357828Y-867862D01*
G01X13346398Y-856432D01*
G01X13334968Y-850844D01*
G01X13317950Y-850844D01*
G01X13411422Y-850844D02*
G01X13411422Y-907994D01*
G01X13417264Y-925012D01*
G01X13428694Y-930854D01*
G01X13445712Y-930854D01*
G01X13457142Y-925012D01*
G01X13474414Y-907994D01*
G01X13474414Y-850844D02*
G01X13474414Y-930854D01*
G01X13522166Y-850844D02*
G01X13522166Y-930854D01*
G01X13522166Y-873704D02*
G01X13539438Y-856432D01*
G01X13550868Y-850844D01*
G01X13567886Y-850844D01*
G01X13579316Y-856432D01*
G01X13585158Y-873704D01*
G01X13585158Y-930854D01*
G01X13701490Y-810712D02*
G01X13701490Y-930854D01*
G01X13701490Y-867862D02*
G01X13690060Y-856432D01*
G01X13678630Y-850844D01*
G01X13661612Y-850844D01*
G01X13650182Y-856432D01*
G01X13638752Y-867862D01*
G01X13632910Y-885134D01*
G01X13632910Y-896564D01*
G01X13638752Y-913582D01*
G01X13650182Y-925012D01*
G01X13661612Y-930854D01*
G01X13678630Y-930854D01*
G01X13690060Y-925012D01*
G01X13701490Y-913582D01*
G01X14592667Y-810712D02*
G01X14638387Y-930854D01*
G01X14684107Y-810712D02*
G01X14638387Y-930854D01*
G01X14731859Y-810712D02*
G01X14737701Y-816554D01*
G01X14743289Y-810712D01*
G01X14737701Y-805124D01*
G01X14731859Y-810712D01*
G01X14737701Y-850844D02*
G01X14737701Y-930854D01*
G01X14859621Y-850844D02*
G01X14859621Y-930854D01*
G01X14859621Y-867862D02*
G01X14848191Y-856432D01*
G01X14836761Y-850844D01*
G01X14819743Y-850844D01*
G01X14808313Y-856432D01*
G01X14796883Y-867862D01*
G01X14791041Y-885134D01*
G01X14791041Y-896564D01*
G01X14796883Y-913582D01*
G01X14808313Y-925012D01*
G01X14819743Y-930854D01*
G01X14836761Y-930854D01*
G01X14848191Y-925012D01*
G01X14859621Y-913582D01*
G01X18221347Y-810712D02*
G01X18221347Y-930854D01*
G01X18181215Y-810712D02*
G01X18261225Y-810712D01*
G01X18337679Y-850844D02*
G01X18326249Y-856432D01*
G01X18314819Y-867862D01*
G01X18308977Y-885134D01*
G01X18308977Y-896564D01*
G01X18314819Y-913582D01*
G01X18326249Y-925012D01*
G01X18337679Y-930854D01*
G01X18354697Y-930854D01*
G01X18366127Y-925012D01*
G01X18377557Y-913582D01*
G01X18383399Y-896564D01*
G01X18383399Y-885134D01*
G01X18377557Y-867862D01*
G01X18366127Y-856432D01*
G01X18354697Y-850844D01*
G01X18337679Y-850844D01*
G01X18431151Y-850844D02*
G01X18431151Y-970732D01*
G01X18431151Y-867862D02*
G01X18442581Y-856432D01*
G01X18454011Y-850844D01*
G01X18471283Y-850844D01*
G01X18482713Y-856432D01*
G01X18494143Y-867862D01*
G01X18499731Y-885134D01*
G01X18499731Y-896564D01*
G01X18494143Y-913582D01*
G01X18482713Y-925012D01*
G01X18471283Y-930854D01*
G01X18454011Y-930854D01*
G01X18442581Y-925012D01*
G01X18431151Y-913582D01*
G01X18675499Y-810712D02*
G01X18675499Y-930854D01*
G01X18675499Y-930854D02*
G01X18744079Y-930854D01*
G01X18860411Y-850844D02*
G01X18860411Y-930854D01*
G01X18860411Y-867862D02*
G01X18848981Y-856432D01*
G01X18837551Y-850844D01*
G01X18820533Y-850844D01*
G01X18809103Y-856432D01*
G01X18797673Y-867862D01*
G01X18791831Y-885134D01*
G01X18791831Y-896564D01*
G01X18797673Y-913582D01*
G01X18809103Y-925012D01*
G01X18820533Y-930854D01*
G01X18837551Y-930854D01*
G01X18848981Y-925012D01*
G01X18860411Y-913582D01*
G01X18914005Y-850844D02*
G01X18948295Y-930854D01*
G01X18982585Y-850844D02*
G01X18948295Y-930854D01*
G01X18936865Y-953714D01*
G01X18925435Y-965144D01*
G01X18914005Y-970732D01*
G01X18908163Y-970732D01*
G01X19030337Y-885134D02*
G01X19098917Y-885134D01*
G01X19098917Y-873704D01*
G01X19093329Y-862274D01*
G01X19087487Y-856432D01*
G01X19076057Y-850844D01*
G01X19059039Y-850844D01*
G01X19047609Y-856432D01*
G01X19036179Y-867862D01*
G01X19030337Y-885134D01*
G01X19030337Y-896564D01*
G01X19036179Y-913582D01*
G01X19047609Y-925012D01*
G01X19059039Y-930854D01*
G01X19076057Y-930854D01*
G01X19087487Y-925012D01*
G01X19098917Y-913582D01*
G01X19146669Y-850844D02*
G01X19146669Y-930854D01*
G01X19146669Y-885134D02*
G01X19152511Y-867862D01*
G01X19163941Y-856432D01*
G01X19175371Y-850844D01*
G01X19192389Y-850844D01*
G01X19240141Y-879292D02*
G01X19343011Y-879292D01*
G01X19390763Y-810712D02*
G01X19390763Y-930854D01*
G01X19390763Y-810712D02*
G01X19442325Y-810712D01*
G01X19459343Y-816554D01*
G01X19465185Y-822142D01*
G01X19470773Y-833572D01*
G01X19470773Y-845002D01*
G01X19465185Y-856432D01*
G01X19459343Y-862274D01*
G01X19442325Y-867862D01*
G01X19390763Y-867862D02*
G01X19442325Y-867862D01*
G01X19459343Y-873704D01*
G01X19465185Y-879292D01*
G01X19470773Y-890722D01*
G01X19470773Y-907994D01*
G01X19465185Y-919424D01*
G01X19459343Y-925012D01*
G01X19442325Y-930854D01*
G01X19390763Y-930854D01*
G01X19547227Y-850844D02*
G01X19535797Y-856432D01*
G01X19524367Y-867862D01*
G01X19518525Y-885134D01*
G01X19518525Y-896564D01*
G01X19524367Y-913582D01*
G01X19535797Y-925012D01*
G01X19547227Y-930854D01*
G01X19564245Y-930854D01*
G01X19575675Y-925012D01*
G01X19587105Y-913582D01*
G01X19592947Y-896564D01*
G01X19592947Y-885134D01*
G01X19587105Y-867862D01*
G01X19575675Y-856432D01*
G01X19564245Y-850844D01*
G01X19547227Y-850844D01*
G01X19657971Y-810712D02*
G01X19657971Y-907994D01*
G01X19663559Y-925012D01*
G01X19674989Y-930854D01*
G01X19686419Y-930854D01*
G01X19640699Y-850844D02*
G01X19680831Y-850844D01*
G01X19751443Y-810712D02*
G01X19751443Y-907994D01*
G01X19757031Y-925012D01*
G01X19768461Y-930854D01*
G01X19779891Y-930854D01*
G01X19734171Y-850844D02*
G01X19774303Y-850844D01*
G01X19856345Y-850844D02*
G01X19844915Y-856432D01*
G01X19833485Y-867862D01*
G01X19827643Y-885134D01*
G01X19827643Y-896564D01*
G01X19833485Y-913582D01*
G01X19844915Y-925012D01*
G01X19856345Y-930854D01*
G01X19873363Y-930854D01*
G01X19884793Y-925012D01*
G01X19896223Y-913582D01*
G01X19902065Y-896564D01*
G01X19902065Y-885134D01*
G01X19896223Y-867862D01*
G01X19884793Y-856432D01*
G01X19873363Y-850844D01*
G01X19856345Y-850844D01*
G01X19949817Y-850844D02*
G01X19949817Y-930854D01*
G01X19949817Y-873704D02*
G01X19967089Y-856432D01*
G01X19978519Y-850844D01*
G01X19995537Y-850844D01*
G01X20006967Y-856432D01*
G01X20012809Y-873704D01*
G01X20012809Y-930854D01*
G01X20012809Y-873704D02*
G01X20029827Y-856432D01*
G01X20041257Y-850844D01*
G01X20058529Y-850844D01*
G01X20069959Y-856432D01*
G01X20075547Y-873704D01*
G01X20075547Y-930854D01*
G01X20251315Y-810712D02*
G01X20251315Y-930854D01*
G01X20251315Y-930854D02*
G01X20319895Y-930854D01*
G01X20436227Y-850844D02*
G01X20436227Y-930854D01*
G01X20436227Y-867862D02*
G01X20424797Y-856432D01*
G01X20413367Y-850844D01*
G01X20396349Y-850844D01*
G01X20384919Y-856432D01*
G01X20373489Y-867862D01*
G01X20367647Y-885134D01*
G01X20367647Y-896564D01*
G01X20373489Y-913582D01*
G01X20384919Y-925012D01*
G01X20396349Y-930854D01*
G01X20413367Y-930854D01*
G01X20424797Y-925012D01*
G01X20436227Y-913582D01*
G01X20489821Y-850844D02*
G01X20524111Y-930854D01*
G01X20558401Y-850844D02*
G01X20524111Y-930854D01*
G01X20512681Y-953714D01*
G01X20501251Y-965144D01*
G01X20489821Y-970732D01*
G01X20483979Y-970732D01*
G01X20606153Y-885134D02*
G01X20674733Y-885134D01*
G01X20674733Y-873704D01*
G01X20669145Y-862274D01*
G01X20663303Y-856432D01*
G01X20651873Y-850844D01*
G01X20634855Y-850844D01*
G01X20623425Y-856432D01*
G01X20611995Y-867862D01*
G01X20606153Y-885134D01*
G01X20606153Y-896564D01*
G01X20611995Y-913582D01*
G01X20623425Y-925012D01*
G01X20634855Y-930854D01*
G01X20651873Y-930854D01*
G01X20663303Y-925012D01*
G01X20674733Y-913582D01*
G01X20722485Y-850844D02*
G01X20722485Y-930854D01*
G01X20722485Y-885134D02*
G01X20728327Y-867862D01*
G01X20739757Y-856432D01*
G01X20751187Y-850844D01*
G01X20768205Y-850844D01*
G01X6540540Y-1391284D02*
G01X6483390Y-1471294D01*
G01X6569242Y-1471294D01*
G01X6540540Y-1391284D02*
G01X6540540Y-1511426D01*
G01X7954703Y-1391284D02*
G01X7897553Y-1471294D01*
G01X7983405Y-1471294D01*
G01X7954703Y-1391284D02*
G01X7954703Y-1511426D01*
G01X8065447Y-1391284D02*
G01X8048429Y-1397126D01*
G01X8036999Y-1414144D01*
G01X8031157Y-1442846D01*
G01X8031157Y-1459864D01*
G01X8036999Y-1488566D01*
G01X8048429Y-1505584D01*
G01X8065447Y-1511426D01*
G01X8076877Y-1511426D01*
G01X8094149Y-1505584D01*
G01X8105579Y-1488566D01*
G01X8111167Y-1459864D01*
G01X8111167Y-1442846D01*
G01X8105579Y-1414144D01*
G01X8094149Y-1397126D01*
G01X8076877Y-1391284D01*
G01X8065447Y-1391284D01*
G01X8164761Y-1482724D02*
G01X8158919Y-1488566D01*
G01X8164761Y-1494154D01*
G01X8170349Y-1488566D01*
G01X8164761Y-1482724D01*
G01X8223943Y-1419986D02*
G01X8223943Y-1414144D01*
G01X8229531Y-1402714D01*
G01X8235373Y-1397126D01*
G01X8246803Y-1391284D01*
G01X8269663Y-1391284D01*
G01X8281093Y-1397126D01*
G01X8286681Y-1402714D01*
G01X8292523Y-1414144D01*
G01X8292523Y-1425574D01*
G01X8286681Y-1437004D01*
G01X8275251Y-1454276D01*
G01X8218101Y-1511426D01*
G01X8298111Y-1511426D01*
G01X8345863Y-1431416D02*
G01X8408855Y-1511426D01*
G01X8408855Y-1431416D02*
G01X8345863Y-1511426D01*
G01X8513757Y-1391284D02*
G01X8456607Y-1471294D01*
G01X8542459Y-1471294D01*
G01X8513757Y-1391284D02*
G01X8513757Y-1511426D01*
G01X8624501Y-1391284D02*
G01X8607483Y-1397126D01*
G01X8596053Y-1414144D01*
G01X8590211Y-1442846D01*
G01X8590211Y-1459864D01*
G01X8596053Y-1488566D01*
G01X8607483Y-1505584D01*
G01X8624501Y-1511426D01*
G01X8635931Y-1511426D01*
G01X8653203Y-1505584D01*
G01X8664633Y-1488566D01*
G01X8670221Y-1459864D01*
G01X8670221Y-1442846D01*
G01X8664633Y-1414144D01*
G01X8653203Y-1397126D01*
G01X8635931Y-1391284D01*
G01X8624501Y-1391284D01*
G01X8723815Y-1482724D02*
G01X8717973Y-1488566D01*
G01X8723815Y-1494154D01*
G01X8729403Y-1488566D01*
G01X8723815Y-1482724D01*
G01X8782997Y-1419986D02*
G01X8782997Y-1414144D01*
G01X8788585Y-1402714D01*
G01X8794427Y-1397126D01*
G01X8805857Y-1391284D01*
G01X8828717Y-1391284D01*
G01X8840147Y-1397126D01*
G01X8845735Y-1402714D01*
G01X8851577Y-1414144D01*
G01X8851577Y-1425574D01*
G01X8845735Y-1437004D01*
G01X8834305Y-1454276D01*
G01X8777155Y-1511426D01*
G01X8857165Y-1511426D01*
G01X8904917Y-1431416D02*
G01X8904917Y-1511426D01*
G01X8904917Y-1454276D02*
G01X8922189Y-1437004D01*
G01X8933619Y-1431416D01*
G01X8950637Y-1431416D01*
G01X8962067Y-1437004D01*
G01X8967909Y-1454276D01*
G01X8967909Y-1511426D01*
G01X8967909Y-1454276D02*
G01X8984927Y-1437004D01*
G01X8996357Y-1431416D01*
G01X9013629Y-1431416D01*
G01X9025059Y-1437004D01*
G01X9030647Y-1454276D01*
G01X9030647Y-1511426D01*
G01X9078399Y-1391284D02*
G01X9084241Y-1397126D01*
G01X9089829Y-1391284D01*
G01X9084241Y-1385696D01*
G01X9078399Y-1391284D01*
G01X9084241Y-1431416D02*
G01X9084241Y-1511426D01*
G01X9137581Y-1391284D02*
G01X9137581Y-1511426D01*
G01X9225465Y-1368424D02*
G01X9214035Y-1379854D01*
G01X9202605Y-1397126D01*
G01X9191175Y-1419986D01*
G01X9185333Y-1448434D01*
G01X9185333Y-1471294D01*
G01X9191175Y-1499996D01*
G01X9202605Y-1522856D01*
G01X9214035Y-1539874D01*
G01X9225465Y-1551304D01*
G01X9273217Y-1414144D02*
G01X9284647Y-1408556D01*
G01X9301919Y-1391284D01*
G01X9301919Y-1511426D01*
G01X9355513Y-1482724D02*
G01X9349671Y-1488566D01*
G01X9355513Y-1494154D01*
G01X9361101Y-1488566D01*
G01X9355513Y-1482724D01*
G01X9443143Y-1391284D02*
G01X9426125Y-1397126D01*
G01X9414695Y-1414144D01*
G01X9408853Y-1442846D01*
G01X9408853Y-1459864D01*
G01X9414695Y-1488566D01*
G01X9426125Y-1505584D01*
G01X9443143Y-1511426D01*
G01X9454573Y-1511426D01*
G01X9471845Y-1505584D01*
G01X9483275Y-1488566D01*
G01X9488863Y-1459864D01*
G01X9488863Y-1442846D01*
G01X9483275Y-1414144D01*
G01X9471845Y-1397126D01*
G01X9454573Y-1391284D01*
G01X9443143Y-1391284D01*
G01X9542457Y-1419986D02*
G01X9542457Y-1414144D01*
G01X9548045Y-1402714D01*
G01X9553887Y-1397126D01*
G01X9565317Y-1391284D01*
G01X9588177Y-1391284D01*
G01X9599607Y-1397126D01*
G01X9605195Y-1402714D01*
G01X9611037Y-1414144D01*
G01X9611037Y-1425574D01*
G01X9605195Y-1437004D01*
G01X9593765Y-1454276D01*
G01X9536615Y-1511426D01*
G01X9616625Y-1511426D01*
G01X9698667Y-1391284D02*
G01X9681649Y-1397126D01*
G01X9670219Y-1414144D01*
G01X9664377Y-1442846D01*
G01X9664377Y-1459864D01*
G01X9670219Y-1488566D01*
G01X9681649Y-1505584D01*
G01X9698667Y-1511426D01*
G01X9710097Y-1511426D01*
G01X9727369Y-1505584D01*
G01X9738799Y-1488566D01*
G01X9744387Y-1459864D01*
G01X9744387Y-1442846D01*
G01X9738799Y-1414144D01*
G01X9727369Y-1397126D01*
G01X9710097Y-1391284D01*
G01X9698667Y-1391284D01*
G01X9792139Y-1431416D02*
G01X9855131Y-1511426D01*
G01X9855131Y-1431416D02*
G01X9792139Y-1511426D01*
G01X9902883Y-1414144D02*
G01X9914313Y-1408556D01*
G01X9931585Y-1391284D01*
G01X9931585Y-1511426D01*
G01X9985179Y-1482724D02*
G01X9979337Y-1488566D01*
G01X9985179Y-1494154D01*
G01X9990767Y-1488566D01*
G01X9985179Y-1482724D01*
G01X10072809Y-1391284D02*
G01X10055791Y-1397126D01*
G01X10044361Y-1414144D01*
G01X10038519Y-1442846D01*
G01X10038519Y-1459864D01*
G01X10044361Y-1488566D01*
G01X10055791Y-1505584D01*
G01X10072809Y-1511426D01*
G01X10084239Y-1511426D01*
G01X10101511Y-1505584D01*
G01X10112941Y-1488566D01*
G01X10118529Y-1459864D01*
G01X10118529Y-1442846D01*
G01X10112941Y-1414144D01*
G01X10101511Y-1397126D01*
G01X10084239Y-1391284D01*
G01X10072809Y-1391284D01*
G01X10172123Y-1419986D02*
G01X10172123Y-1414144D01*
G01X10177711Y-1402714D01*
G01X10183553Y-1397126D01*
G01X10194983Y-1391284D01*
G01X10217843Y-1391284D01*
G01X10229273Y-1397126D01*
G01X10234861Y-1402714D01*
G01X10240703Y-1414144D01*
G01X10240703Y-1425574D01*
G01X10234861Y-1437004D01*
G01X10223431Y-1454276D01*
G01X10166281Y-1511426D01*
G01X10246291Y-1511426D01*
G01X10328333Y-1391284D02*
G01X10311315Y-1397126D01*
G01X10299885Y-1414144D01*
G01X10294043Y-1442846D01*
G01X10294043Y-1459864D01*
G01X10299885Y-1488566D01*
G01X10311315Y-1505584D01*
G01X10328333Y-1511426D01*
G01X10339763Y-1511426D01*
G01X10357035Y-1505584D01*
G01X10368465Y-1488566D01*
G01X10374053Y-1459864D01*
G01X10374053Y-1442846D01*
G01X10368465Y-1414144D01*
G01X10357035Y-1397126D01*
G01X10339763Y-1391284D01*
G01X10328333Y-1391284D01*
G01X10421805Y-1431416D02*
G01X10421805Y-1511426D01*
G01X10421805Y-1454276D02*
G01X10439077Y-1437004D01*
G01X10450507Y-1431416D01*
G01X10467525Y-1431416D01*
G01X10478955Y-1437004D01*
G01X10484797Y-1454276D01*
G01X10484797Y-1511426D01*
G01X10484797Y-1454276D02*
G01X10501815Y-1437004D01*
G01X10513245Y-1431416D01*
G01X10530517Y-1431416D01*
G01X10541947Y-1437004D01*
G01X10547535Y-1454276D01*
G01X10547535Y-1511426D01*
G01X10595287Y-1431416D02*
G01X10595287Y-1511426D01*
G01X10595287Y-1454276D02*
G01X10612559Y-1437004D01*
G01X10623989Y-1431416D01*
G01X10641007Y-1431416D01*
G01X10652437Y-1437004D01*
G01X10658279Y-1454276D01*
G01X10658279Y-1511426D01*
G01X10658279Y-1454276D02*
G01X10675297Y-1437004D01*
G01X10686727Y-1431416D01*
G01X10703999Y-1431416D01*
G01X10715429Y-1437004D01*
G01X10721017Y-1454276D01*
G01X10721017Y-1511426D01*
G01X10768769Y-1368424D02*
G01X10780199Y-1379854D01*
G01X10791629Y-1397126D01*
G01X10803059Y-1419986D01*
G01X10808901Y-1448434D01*
G01X10808901Y-1471294D01*
G01X10803059Y-1499996D01*
G01X10791629Y-1522856D01*
G01X10780199Y-1539874D01*
G01X10768769Y-1551304D01*
G01X11700079Y-1391284D02*
G01X11700079Y-1511426D01*
G01X11700079Y-1391284D02*
G01X11751641Y-1391284D01*
G01X11768659Y-1397126D01*
G01X11774501Y-1402714D01*
G01X11780089Y-1414144D01*
G01X11780089Y-1431416D01*
G01X11774501Y-1442846D01*
G01X11768659Y-1448434D01*
G01X11751641Y-1454276D01*
G01X11700079Y-1454276D01*
G01X11867973Y-1391284D02*
G01X11867973Y-1511426D01*
G01X11827841Y-1391284D02*
G01X11907851Y-1391284D01*
G01X11955603Y-1391284D02*
G01X11955603Y-1511426D01*
G01X12035613Y-1391284D02*
G01X12035613Y-1511426D01*
G01X11955603Y-1448434D02*
G01X12035613Y-1448434D01*
G01X13161486Y-1391284D02*
G01X13161486Y-1511426D01*
G01X13161486Y-1391284D02*
G01X13213048Y-1391284D01*
G01X13230066Y-1397126D01*
G01X13235908Y-1402714D01*
G01X13241496Y-1414144D01*
G01X13241496Y-1425574D01*
G01X13235908Y-1437004D01*
G01X13230066Y-1442846D01*
G01X13213048Y-1448434D01*
G01X13161486Y-1448434D01*
G01X13201618Y-1448434D02*
G01X13241496Y-1511426D01*
G01X13317950Y-1431416D02*
G01X13306520Y-1437004D01*
G01X13295090Y-1448434D01*
G01X13289248Y-1465706D01*
G01X13289248Y-1477136D01*
G01X13295090Y-1494154D01*
G01X13306520Y-1505584D01*
G01X13317950Y-1511426D01*
G01X13334968Y-1511426D01*
G01X13346398Y-1505584D01*
G01X13357828Y-1494154D01*
G01X13363670Y-1477136D01*
G01X13363670Y-1465706D01*
G01X13357828Y-1448434D01*
G01X13346398Y-1437004D01*
G01X13334968Y-1431416D01*
G01X13317950Y-1431416D01*
G01X13411422Y-1431416D02*
G01X13411422Y-1488566D01*
G01X13417264Y-1505584D01*
G01X13428694Y-1511426D01*
G01X13445712Y-1511426D01*
G01X13457142Y-1505584D01*
G01X13474414Y-1488566D01*
G01X13474414Y-1431416D02*
G01X13474414Y-1511426D01*
G01X13522166Y-1431416D02*
G01X13522166Y-1511426D01*
G01X13522166Y-1454276D02*
G01X13539438Y-1437004D01*
G01X13550868Y-1431416D01*
G01X13567886Y-1431416D01*
G01X13579316Y-1437004D01*
G01X13585158Y-1454276D01*
G01X13585158Y-1511426D01*
G01X13701490Y-1391284D02*
G01X13701490Y-1511426D01*
G01X13701490Y-1448434D02*
G01X13690060Y-1437004D01*
G01X13678630Y-1431416D01*
G01X13661612Y-1431416D01*
G01X13650182Y-1437004D01*
G01X13638752Y-1448434D01*
G01X13632910Y-1465706D01*
G01X13632910Y-1477136D01*
G01X13638752Y-1494154D01*
G01X13650182Y-1505584D01*
G01X13661612Y-1511426D01*
G01X13678630Y-1511426D01*
G01X13690060Y-1505584D01*
G01X13701490Y-1494154D01*
G01X14592667Y-1391284D02*
G01X14592667Y-1511426D01*
G01X14592667Y-1391284D02*
G01X14644229Y-1391284D01*
G01X14661247Y-1397126D01*
G01X14667089Y-1402714D01*
G01X14672677Y-1414144D01*
G01X14672677Y-1431416D01*
G01X14667089Y-1442846D01*
G01X14661247Y-1448434D01*
G01X14644229Y-1454276D01*
G01X14592667Y-1454276D01*
G01X14789009Y-1431416D02*
G01X14789009Y-1511426D01*
G01X14789009Y-1448434D02*
G01X14777579Y-1437004D01*
G01X14766149Y-1431416D01*
G01X14749131Y-1431416D01*
G01X14737701Y-1437004D01*
G01X14726271Y-1448434D01*
G01X14720429Y-1465706D01*
G01X14720429Y-1477136D01*
G01X14726271Y-1494154D01*
G01X14737701Y-1505584D01*
G01X14749131Y-1511426D01*
G01X14766149Y-1511426D01*
G01X14777579Y-1505584D01*
G01X14789009Y-1494154D01*
G01X14905341Y-1391284D02*
G01X14905341Y-1511426D01*
G01X14905341Y-1448434D02*
G01X14893911Y-1437004D01*
G01X14882481Y-1431416D01*
G01X14865463Y-1431416D01*
G01X14854033Y-1437004D01*
G01X14842603Y-1448434D01*
G01X14836761Y-1465706D01*
G01X14836761Y-1477136D01*
G01X14842603Y-1494154D01*
G01X14854033Y-1505584D01*
G01X14865463Y-1511426D01*
G01X14882481Y-1511426D01*
G01X14893911Y-1505584D01*
G01X14905341Y-1494154D01*
G01X16301978Y-1368424D02*
G01X16290548Y-1379854D01*
G01X16279118Y-1397126D01*
G01X16267688Y-1419986D01*
G01X16261846Y-1448434D01*
G01X16261846Y-1471294D01*
G01X16267688Y-1499996D01*
G01X16279118Y-1522856D01*
G01X16290548Y-1539874D01*
G01X16301978Y-1551304D01*
G01X16349730Y-1391284D02*
G01X16349730Y-1511426D01*
G01X16349730Y-1391284D02*
G01X16395450Y-1511426D01*
G01X16441170Y-1391284D02*
G01X16395450Y-1511426D01*
G01X16441170Y-1391284D02*
G01X16441170Y-1511426D01*
G01X16488922Y-1391284D02*
G01X16494764Y-1397126D01*
G01X16500352Y-1391284D01*
G01X16494764Y-1385696D01*
G01X16488922Y-1391284D01*
G01X16494764Y-1431416D02*
G01X16494764Y-1511426D01*
G01X16548104Y-1431416D02*
G01X16611096Y-1511426D01*
G01X16611096Y-1431416D02*
G01X16548104Y-1511426D01*
G01X16658848Y-1465706D02*
G01X16727428Y-1465706D01*
G01X16727428Y-1454276D01*
G01X16721840Y-1442846D01*
G01X16715998Y-1437004D01*
G01X16704568Y-1431416D01*
G01X16687550Y-1431416D01*
G01X16676120Y-1437004D01*
G01X16664690Y-1448434D01*
G01X16658848Y-1465706D01*
G01X16658848Y-1477136D01*
G01X16664690Y-1494154D01*
G01X16676120Y-1505584D01*
G01X16687550Y-1511426D01*
G01X16704568Y-1511426D01*
G01X16715998Y-1505584D01*
G01X16727428Y-1494154D01*
G01X16843760Y-1391284D02*
G01X16843760Y-1511426D01*
G01X16843760Y-1448434D02*
G01X16832330Y-1437004D01*
G01X16820900Y-1431416D01*
G01X16803882Y-1431416D01*
G01X16792452Y-1437004D01*
G01X16781022Y-1448434D01*
G01X16775180Y-1465706D01*
G01X16775180Y-1477136D01*
G01X16781022Y-1494154D01*
G01X16792452Y-1505584D01*
G01X16803882Y-1511426D01*
G01X16820900Y-1511426D01*
G01X16832330Y-1505584D01*
G01X16843760Y-1494154D01*
G01X16891512Y-1368424D02*
G01X16902942Y-1379854D01*
G01X16914372Y-1397126D01*
G01X16925802Y-1419986D01*
G01X16931644Y-1448434D01*
G01X16931644Y-1471294D01*
G01X16925802Y-1499996D01*
G01X16914372Y-1522856D01*
G01X16902942Y-1539874D01*
G01X16891512Y-1551304D01*
G01X18221347Y-1391284D02*
G01X18221347Y-1511426D01*
G01X18181215Y-1391284D02*
G01X18261225Y-1391284D01*
G01X18337679Y-1431416D02*
G01X18326249Y-1437004D01*
G01X18314819Y-1448434D01*
G01X18308977Y-1465706D01*
G01X18308977Y-1477136D01*
G01X18314819Y-1494154D01*
G01X18326249Y-1505584D01*
G01X18337679Y-1511426D01*
G01X18354697Y-1511426D01*
G01X18366127Y-1505584D01*
G01X18377557Y-1494154D01*
G01X18383399Y-1477136D01*
G01X18383399Y-1465706D01*
G01X18377557Y-1448434D01*
G01X18366127Y-1437004D01*
G01X18354697Y-1431416D01*
G01X18337679Y-1431416D01*
G01X18431151Y-1431416D02*
G01X18431151Y-1551304D01*
G01X18431151Y-1448434D02*
G01X18442581Y-1437004D01*
G01X18454011Y-1431416D01*
G01X18471283Y-1431416D01*
G01X18482713Y-1437004D01*
G01X18494143Y-1448434D01*
G01X18499731Y-1465706D01*
G01X18499731Y-1477136D01*
G01X18494143Y-1494154D01*
G01X18482713Y-1505584D01*
G01X18471283Y-1511426D01*
G01X18454011Y-1511426D01*
G01X18442581Y-1505584D01*
G01X18431151Y-1494154D01*
G01X18675499Y-1391284D02*
G01X18675499Y-1511426D01*
G01X18675499Y-1511426D02*
G01X18744079Y-1511426D01*
G01X18860411Y-1431416D02*
G01X18860411Y-1511426D01*
G01X18860411Y-1448434D02*
G01X18848981Y-1437004D01*
G01X18837551Y-1431416D01*
G01X18820533Y-1431416D01*
G01X18809103Y-1437004D01*
G01X18797673Y-1448434D01*
G01X18791831Y-1465706D01*
G01X18791831Y-1477136D01*
G01X18797673Y-1494154D01*
G01X18809103Y-1505584D01*
G01X18820533Y-1511426D01*
G01X18837551Y-1511426D01*
G01X18848981Y-1505584D01*
G01X18860411Y-1494154D01*
G01X18914005Y-1431416D02*
G01X18948295Y-1511426D01*
G01X18982585Y-1431416D02*
G01X18948295Y-1511426D01*
G01X18936865Y-1534286D01*
G01X18925435Y-1545716D01*
G01X18914005Y-1551304D01*
G01X18908163Y-1551304D01*
G01X19030337Y-1465706D02*
G01X19098917Y-1465706D01*
G01X19098917Y-1454276D01*
G01X19093329Y-1442846D01*
G01X19087487Y-1437004D01*
G01X19076057Y-1431416D01*
G01X19059039Y-1431416D01*
G01X19047609Y-1437004D01*
G01X19036179Y-1448434D01*
G01X19030337Y-1465706D01*
G01X19030337Y-1477136D01*
G01X19036179Y-1494154D01*
G01X19047609Y-1505584D01*
G01X19059039Y-1511426D01*
G01X19076057Y-1511426D01*
G01X19087487Y-1505584D01*
G01X19098917Y-1494154D01*
G01X19146669Y-1431416D02*
G01X19146669Y-1511426D01*
G01X19146669Y-1465706D02*
G01X19152511Y-1448434D01*
G01X19163941Y-1437004D01*
G01X19175371Y-1431416D01*
G01X19192389Y-1431416D01*
G01X19240141Y-1459864D02*
G01X19343011Y-1459864D01*
G01X19390763Y-1391284D02*
G01X19390763Y-1511426D01*
G01X19390763Y-1391284D02*
G01X19442325Y-1391284D01*
G01X19459343Y-1397126D01*
G01X19465185Y-1402714D01*
G01X19470773Y-1414144D01*
G01X19470773Y-1425574D01*
G01X19465185Y-1437004D01*
G01X19459343Y-1442846D01*
G01X19442325Y-1448434D01*
G01X19390763Y-1448434D02*
G01X19442325Y-1448434D01*
G01X19459343Y-1454276D01*
G01X19465185Y-1459864D01*
G01X19470773Y-1471294D01*
G01X19470773Y-1488566D01*
G01X19465185Y-1499996D01*
G01X19459343Y-1505584D01*
G01X19442325Y-1511426D01*
G01X19390763Y-1511426D01*
G01X19547227Y-1431416D02*
G01X19535797Y-1437004D01*
G01X19524367Y-1448434D01*
G01X19518525Y-1465706D01*
G01X19518525Y-1477136D01*
G01X19524367Y-1494154D01*
G01X19535797Y-1505584D01*
G01X19547227Y-1511426D01*
G01X19564245Y-1511426D01*
G01X19575675Y-1505584D01*
G01X19587105Y-1494154D01*
G01X19592947Y-1477136D01*
G01X19592947Y-1465706D01*
G01X19587105Y-1448434D01*
G01X19575675Y-1437004D01*
G01X19564245Y-1431416D01*
G01X19547227Y-1431416D01*
G01X19657971Y-1391284D02*
G01X19657971Y-1488566D01*
G01X19663559Y-1505584D01*
G01X19674989Y-1511426D01*
G01X19686419Y-1511426D01*
G01X19640699Y-1431416D02*
G01X19680831Y-1431416D01*
G01X19751443Y-1391284D02*
G01X19751443Y-1488566D01*
G01X19757031Y-1505584D01*
G01X19768461Y-1511426D01*
G01X19779891Y-1511426D01*
G01X19734171Y-1431416D02*
G01X19774303Y-1431416D01*
G01X19856345Y-1431416D02*
G01X19844915Y-1437004D01*
G01X19833485Y-1448434D01*
G01X19827643Y-1465706D01*
G01X19827643Y-1477136D01*
G01X19833485Y-1494154D01*
G01X19844915Y-1505584D01*
G01X19856345Y-1511426D01*
G01X19873363Y-1511426D01*
G01X19884793Y-1505584D01*
G01X19896223Y-1494154D01*
G01X19902065Y-1477136D01*
G01X19902065Y-1465706D01*
G01X19896223Y-1448434D01*
G01X19884793Y-1437004D01*
G01X19873363Y-1431416D01*
G01X19856345Y-1431416D01*
G01X19949817Y-1431416D02*
G01X19949817Y-1511426D01*
G01X19949817Y-1454276D02*
G01X19967089Y-1437004D01*
G01X19978519Y-1431416D01*
G01X19995537Y-1431416D01*
G01X20006967Y-1437004D01*
G01X20012809Y-1454276D01*
G01X20012809Y-1511426D01*
G01X20012809Y-1454276D02*
G01X20029827Y-1437004D01*
G01X20041257Y-1431416D01*
G01X20058529Y-1431416D01*
G01X20069959Y-1437004D01*
G01X20075547Y-1454276D01*
G01X20075547Y-1511426D01*
G01X20251315Y-1391284D02*
G01X20251315Y-1511426D01*
G01X20251315Y-1511426D02*
G01X20319895Y-1511426D01*
G01X20436227Y-1431416D02*
G01X20436227Y-1511426D01*
G01X20436227Y-1448434D02*
G01X20424797Y-1437004D01*
G01X20413367Y-1431416D01*
G01X20396349Y-1431416D01*
G01X20384919Y-1437004D01*
G01X20373489Y-1448434D01*
G01X20367647Y-1465706D01*
G01X20367647Y-1477136D01*
G01X20373489Y-1494154D01*
G01X20384919Y-1505584D01*
G01X20396349Y-1511426D01*
G01X20413367Y-1511426D01*
G01X20424797Y-1505584D01*
G01X20436227Y-1494154D01*
G01X20489821Y-1431416D02*
G01X20524111Y-1511426D01*
G01X20558401Y-1431416D02*
G01X20524111Y-1511426D01*
G01X20512681Y-1534286D01*
G01X20501251Y-1545716D01*
G01X20489821Y-1551304D01*
G01X20483979Y-1551304D01*
G01X20606153Y-1465706D02*
G01X20674733Y-1465706D01*
G01X20674733Y-1454276D01*
G01X20669145Y-1442846D01*
G01X20663303Y-1437004D01*
G01X20651873Y-1431416D01*
G01X20634855Y-1431416D01*
G01X20623425Y-1437004D01*
G01X20611995Y-1448434D01*
G01X20606153Y-1465706D01*
G01X20606153Y-1477136D01*
G01X20611995Y-1494154D01*
G01X20623425Y-1505584D01*
G01X20634855Y-1511426D01*
G01X20651873Y-1511426D01*
G01X20663303Y-1505584D01*
G01X20674733Y-1494154D01*
G01X20722485Y-1431416D02*
G01X20722485Y-1511426D01*
G01X20722485Y-1465706D02*
G01X20728327Y-1448434D01*
G01X20739757Y-1437004D01*
G01X20751187Y-1431416D01*
G01X20768205Y-1431416D01*
G01X6540540Y-1971855D02*
G01X6483390Y-2051865D01*
G01X6569242Y-2051865D01*
G01X6540540Y-1971855D02*
G01X6540540Y-2091997D01*
G01X7903395Y-2000557D02*
G01X7903395Y-1994715D01*
G01X7908983Y-1983285D01*
G01X7914825Y-1977697D01*
G01X7926255Y-1971855D01*
G01X7949115Y-1971855D01*
G01X7960545Y-1977697D01*
G01X7966133Y-1983285D01*
G01X7971975Y-1994715D01*
G01X7971975Y-2006145D01*
G01X7966133Y-2017575D01*
G01X7954703Y-2034847D01*
G01X7897553Y-2091997D01*
G01X7977563Y-2091997D01*
G01X8036745Y-1971855D02*
G01X8099737Y-1971855D01*
G01X8065447Y-2017575D01*
G01X8082465Y-2017575D01*
G01X8093895Y-2023417D01*
G01X8099737Y-2029005D01*
G01X8105325Y-2046277D01*
G01X8105325Y-2057707D01*
G01X8099737Y-2074725D01*
G01X8088307Y-2086155D01*
G01X8071035Y-2091997D01*
G01X8054017Y-2091997D01*
G01X8036745Y-2086155D01*
G01X8031157Y-2080567D01*
G01X8025315Y-2069137D01*
G01X8158919Y-2063295D02*
G01X8153077Y-2069137D01*
G01X8158919Y-2074725D01*
G01X8164507Y-2069137D01*
G01X8158919Y-2063295D01*
G01X8280839Y-1989127D02*
G01X8275251Y-1977697D01*
G01X8257979Y-1971855D01*
G01X8246549Y-1971855D01*
G01X8229531Y-1977697D01*
G01X8218101Y-1994715D01*
G01X8212259Y-2023417D01*
G01X8212259Y-2051865D01*
G01X8218101Y-2074725D01*
G01X8229531Y-2086155D01*
G01X8246549Y-2091997D01*
G01X8252391Y-2091997D01*
G01X8269409Y-2086155D01*
G01X8280839Y-2074725D01*
G01X8286681Y-2057707D01*
G01X8286681Y-2051865D01*
G01X8280839Y-2034847D01*
G01X8269409Y-2023417D01*
G01X8252391Y-2017575D01*
G01X8246549Y-2017575D01*
G01X8229531Y-2023417D01*
G01X8218101Y-2034847D01*
G01X8212259Y-2051865D01*
G01X8334433Y-2011987D02*
G01X8397425Y-2091997D01*
G01X8397425Y-2011987D02*
G01X8334433Y-2091997D01*
G01X8513757Y-1971855D02*
G01X8456607Y-1971855D01*
G01X8451019Y-2023417D01*
G01X8456607Y-2017575D01*
G01X8473879Y-2011987D01*
G01X8490897Y-2011987D01*
G01X8508169Y-2017575D01*
G01X8519599Y-2029005D01*
G01X8525187Y-2046277D01*
G01X8525187Y-2057707D01*
G01X8519599Y-2074725D01*
G01X8508169Y-2086155D01*
G01X8490897Y-2091997D01*
G01X8473879Y-2091997D01*
G01X8456607Y-2086155D01*
G01X8451019Y-2080567D01*
G01X8445177Y-2069137D01*
G01X8572939Y-1994715D02*
G01X8584369Y-1989127D01*
G01X8601641Y-1971855D01*
G01X8601641Y-2091997D01*
G01X8655235Y-2063295D02*
G01X8649393Y-2069137D01*
G01X8655235Y-2074725D01*
G01X8660823Y-2069137D01*
G01X8655235Y-2063295D01*
G01X8714417Y-2000557D02*
G01X8714417Y-1994715D01*
G01X8720005Y-1983285D01*
G01X8725847Y-1977697D01*
G01X8737277Y-1971855D01*
G01X8760137Y-1971855D01*
G01X8771567Y-1977697D01*
G01X8777155Y-1983285D01*
G01X8782997Y-1994715D01*
G01X8782997Y-2006145D01*
G01X8777155Y-2017575D01*
G01X8765725Y-2034847D01*
G01X8708575Y-2091997D01*
G01X8788585Y-2091997D01*
G01X8836337Y-2011987D02*
G01X8836337Y-2091997D01*
G01X8836337Y-2034847D02*
G01X8853609Y-2017575D01*
G01X8865039Y-2011987D01*
G01X8882057Y-2011987D01*
G01X8893487Y-2017575D01*
G01X8899329Y-2034847D01*
G01X8899329Y-2091997D01*
G01X8899329Y-2034847D02*
G01X8916347Y-2017575D01*
G01X8927777Y-2011987D01*
G01X8945049Y-2011987D01*
G01X8956479Y-2017575D01*
G01X8962067Y-2034847D01*
G01X8962067Y-2091997D01*
G01X9009819Y-1971855D02*
G01X9015661Y-1977697D01*
G01X9021249Y-1971855D01*
G01X9015661Y-1966267D01*
G01X9009819Y-1971855D01*
G01X9015661Y-2011987D02*
G01X9015661Y-2091997D01*
G01X9069001Y-1971855D02*
G01X9069001Y-2091997D01*
G01X9156885Y-1948995D02*
G01X9145455Y-1960425D01*
G01X9134025Y-1977697D01*
G01X9122595Y-2000557D01*
G01X9116753Y-2029005D01*
G01X9116753Y-2051865D01*
G01X9122595Y-2080567D01*
G01X9134025Y-2103427D01*
G01X9145455Y-2120445D01*
G01X9156885Y-2131875D01*
G01X9238927Y-1971855D02*
G01X9221909Y-1977697D01*
G01X9210479Y-1994715D01*
G01X9204637Y-2023417D01*
G01X9204637Y-2040435D01*
G01X9210479Y-2069137D01*
G01X9221909Y-2086155D01*
G01X9238927Y-2091997D01*
G01X9250357Y-2091997D01*
G01X9267629Y-2086155D01*
G01X9279059Y-2069137D01*
G01X9284647Y-2040435D01*
G01X9284647Y-2023417D01*
G01X9279059Y-1994715D01*
G01X9267629Y-1977697D01*
G01X9250357Y-1971855D01*
G01X9238927Y-1971855D01*
G01X9338241Y-2063295D02*
G01X9332399Y-2069137D01*
G01X9338241Y-2074725D01*
G01X9343829Y-2069137D01*
G01X9338241Y-2063295D01*
G01X9460161Y-1989127D02*
G01X9454573Y-1977697D01*
G01X9437301Y-1971855D01*
G01X9425871Y-1971855D01*
G01X9408853Y-1977697D01*
G01X9397423Y-1994715D01*
G01X9391581Y-2023417D01*
G01X9391581Y-2051865D01*
G01X9397423Y-2074725D01*
G01X9408853Y-2086155D01*
G01X9425871Y-2091997D01*
G01X9431713Y-2091997D01*
G01X9448731Y-2086155D01*
G01X9460161Y-2074725D01*
G01X9466003Y-2057707D01*
G01X9466003Y-2051865D01*
G01X9460161Y-2034847D01*
G01X9448731Y-2023417D01*
G01X9431713Y-2017575D01*
G01X9425871Y-2017575D01*
G01X9408853Y-2023417D01*
G01X9397423Y-2034847D01*
G01X9391581Y-2051865D01*
G01X9548045Y-1971855D02*
G01X9531027Y-1977697D01*
G01X9519597Y-1994715D01*
G01X9513755Y-2023417D01*
G01X9513755Y-2040435D01*
G01X9519597Y-2069137D01*
G01X9531027Y-2086155D01*
G01X9548045Y-2091997D01*
G01X9559475Y-2091997D01*
G01X9576747Y-2086155D01*
G01X9588177Y-2069137D01*
G01X9593765Y-2040435D01*
G01X9593765Y-2023417D01*
G01X9588177Y-1994715D01*
G01X9576747Y-1977697D01*
G01X9559475Y-1971855D01*
G01X9548045Y-1971855D01*
G01X9675807Y-1971855D02*
G01X9658789Y-1977697D01*
G01X9647359Y-1994715D01*
G01X9641517Y-2023417D01*
G01X9641517Y-2040435D01*
G01X9647359Y-2069137D01*
G01X9658789Y-2086155D01*
G01X9675807Y-2091997D01*
G01X9687237Y-2091997D01*
G01X9704509Y-2086155D01*
G01X9715939Y-2069137D01*
G01X9721527Y-2040435D01*
G01X9721527Y-2023417D01*
G01X9715939Y-1994715D01*
G01X9704509Y-1977697D01*
G01X9687237Y-1971855D01*
G01X9675807Y-1971855D01*
G01X9769279Y-2011987D02*
G01X9832271Y-2091997D01*
G01X9832271Y-2011987D02*
G01X9769279Y-2091997D01*
G01X9880023Y-1994715D02*
G01X9891453Y-1989127D01*
G01X9908725Y-1971855D01*
G01X9908725Y-2091997D01*
G01X9962319Y-2063295D02*
G01X9956477Y-2069137D01*
G01X9962319Y-2074725D01*
G01X9967907Y-2069137D01*
G01X9962319Y-2063295D01*
G01X10027089Y-1971855D02*
G01X10090081Y-1971855D01*
G01X10055791Y-2017575D01*
G01X10072809Y-2017575D01*
G01X10084239Y-2023417D01*
G01X10090081Y-2029005D01*
G01X10095669Y-2046277D01*
G01X10095669Y-2057707D01*
G01X10090081Y-2074725D01*
G01X10078651Y-2086155D01*
G01X10061379Y-2091997D01*
G01X10044361Y-2091997D01*
G01X10027089Y-2086155D01*
G01X10021501Y-2080567D01*
G01X10015659Y-2069137D01*
G01X10177711Y-1971855D02*
G01X10160693Y-1977697D01*
G01X10149263Y-1994715D01*
G01X10143421Y-2023417D01*
G01X10143421Y-2040435D01*
G01X10149263Y-2069137D01*
G01X10160693Y-2086155D01*
G01X10177711Y-2091997D01*
G01X10189141Y-2091997D01*
G01X10206413Y-2086155D01*
G01X10217843Y-2069137D01*
G01X10223431Y-2040435D01*
G01X10223431Y-2023417D01*
G01X10217843Y-1994715D01*
G01X10206413Y-1977697D01*
G01X10189141Y-1971855D01*
G01X10177711Y-1971855D01*
G01X10305473Y-1971855D02*
G01X10288455Y-1977697D01*
G01X10277025Y-1994715D01*
G01X10271183Y-2023417D01*
G01X10271183Y-2040435D01*
G01X10277025Y-2069137D01*
G01X10288455Y-2086155D01*
G01X10305473Y-2091997D01*
G01X10316903Y-2091997D01*
G01X10334175Y-2086155D01*
G01X10345605Y-2069137D01*
G01X10351193Y-2040435D01*
G01X10351193Y-2023417D01*
G01X10345605Y-1994715D01*
G01X10334175Y-1977697D01*
G01X10316903Y-1971855D01*
G01X10305473Y-1971855D01*
G01X10398945Y-2011987D02*
G01X10398945Y-2091997D01*
G01X10398945Y-2034847D02*
G01X10416217Y-2017575D01*
G01X10427647Y-2011987D01*
G01X10444665Y-2011987D01*
G01X10456095Y-2017575D01*
G01X10461937Y-2034847D01*
G01X10461937Y-2091997D01*
G01X10461937Y-2034847D02*
G01X10478955Y-2017575D01*
G01X10490385Y-2011987D01*
G01X10507657Y-2011987D01*
G01X10519087Y-2017575D01*
G01X10524675Y-2034847D01*
G01X10524675Y-2091997D01*
G01X10572427Y-2011987D02*
G01X10572427Y-2091997D01*
G01X10572427Y-2034847D02*
G01X10589699Y-2017575D01*
G01X10601129Y-2011987D01*
G01X10618147Y-2011987D01*
G01X10629577Y-2017575D01*
G01X10635419Y-2034847D01*
G01X10635419Y-2091997D01*
G01X10635419Y-2034847D02*
G01X10652437Y-2017575D01*
G01X10663867Y-2011987D01*
G01X10681139Y-2011987D01*
G01X10692569Y-2017575D01*
G01X10698157Y-2034847D01*
G01X10698157Y-2091997D01*
G01X10745909Y-1948995D02*
G01X10757339Y-1960425D01*
G01X10768769Y-1977697D01*
G01X10780199Y-2000557D01*
G01X10786041Y-2029005D01*
G01X10786041Y-2051865D01*
G01X10780199Y-2080567D01*
G01X10768769Y-2103427D01*
G01X10757339Y-2120445D01*
G01X10745909Y-2131875D01*
G01X11700079Y-1971855D02*
G01X11700079Y-2091997D01*
G01X11700079Y-1971855D02*
G01X11751641Y-1971855D01*
G01X11768659Y-1977697D01*
G01X11774501Y-1983285D01*
G01X11780089Y-1994715D01*
G01X11780089Y-2011987D01*
G01X11774501Y-2023417D01*
G01X11768659Y-2029005D01*
G01X11751641Y-2034847D01*
G01X11700079Y-2034847D01*
G01X11867973Y-1971855D02*
G01X11867973Y-2091997D01*
G01X11827841Y-1971855D02*
G01X11907851Y-1971855D01*
G01X11955603Y-1971855D02*
G01X11955603Y-2091997D01*
G01X12035613Y-1971855D02*
G01X12035613Y-2091997D01*
G01X11955603Y-2029005D02*
G01X12035613Y-2029005D01*
G01X13241496Y-1989127D02*
G01X13230066Y-1977697D01*
G01X13213048Y-1971855D01*
G01X13190188Y-1971855D01*
G01X13172916Y-1977697D01*
G01X13161486Y-1989127D01*
G01X13161486Y-2000557D01*
G01X13167328Y-2011987D01*
G01X13172916Y-2017575D01*
G01X13184346Y-2023417D01*
G01X13218636Y-2034847D01*
G01X13230066Y-2040435D01*
G01X13235908Y-2046277D01*
G01X13241496Y-2057707D01*
G01X13241496Y-2074725D01*
G01X13230066Y-2086155D01*
G01X13213048Y-2091997D01*
G01X13190188Y-2091997D01*
G01X13172916Y-2086155D01*
G01X13161486Y-2074725D01*
G01X13289248Y-1971855D02*
G01X13289248Y-2091997D01*
G01X13365702Y-2011987D02*
G01X13354272Y-2017575D01*
G01X13342842Y-2029005D01*
G01X13337000Y-2046277D01*
G01X13337000Y-2057707D01*
G01X13342842Y-2074725D01*
G01X13354272Y-2086155D01*
G01X13365702Y-2091997D01*
G01X13382720Y-2091997D01*
G01X13394150Y-2086155D01*
G01X13405580Y-2074725D01*
G01X13411422Y-2057707D01*
G01X13411422Y-2046277D01*
G01X13405580Y-2029005D01*
G01X13394150Y-2017575D01*
G01X13382720Y-2011987D01*
G01X13365702Y-2011987D01*
G01X13476446Y-1971855D02*
G01X13476446Y-2069137D01*
G01X13482034Y-2086155D01*
G01X13493464Y-2091997D01*
G01X13504894Y-2091997D01*
G01X13459174Y-2011987D02*
G01X13499306Y-2011987D01*
G01X14592667Y-1971855D02*
G01X14592667Y-2091997D01*
G01X14592667Y-1971855D02*
G01X14644229Y-1971855D01*
G01X14661247Y-1977697D01*
G01X14667089Y-1983285D01*
G01X14672677Y-1994715D01*
G01X14672677Y-2011987D01*
G01X14667089Y-2023417D01*
G01X14661247Y-2029005D01*
G01X14644229Y-2034847D01*
G01X14592667Y-2034847D01*
G01X14789009Y-2011987D02*
G01X14789009Y-2091997D01*
G01X14789009Y-2029005D02*
G01X14777579Y-2017575D01*
G01X14766149Y-2011987D01*
G01X14749131Y-2011987D01*
G01X14737701Y-2017575D01*
G01X14726271Y-2029005D01*
G01X14720429Y-2046277D01*
G01X14720429Y-2057707D01*
G01X14726271Y-2074725D01*
G01X14737701Y-2086155D01*
G01X14749131Y-2091997D01*
G01X14766149Y-2091997D01*
G01X14777579Y-2086155D01*
G01X14789009Y-2074725D01*
G01X14905341Y-1971855D02*
G01X14905341Y-2091997D01*
G01X14905341Y-2029005D02*
G01X14893911Y-2017575D01*
G01X14882481Y-2011987D01*
G01X14865463Y-2011987D01*
G01X14854033Y-2017575D01*
G01X14842603Y-2029005D01*
G01X14836761Y-2046277D01*
G01X14836761Y-2057707D01*
G01X14842603Y-2074725D01*
G01X14854033Y-2086155D01*
G01X14865463Y-2091997D01*
G01X14882481Y-2091997D01*
G01X14893911Y-2086155D01*
G01X14905341Y-2074725D01*
G01X16296136Y-1971855D02*
G01X16284706Y-1977697D01*
G01X16273276Y-1989127D01*
G01X16267688Y-2000557D01*
G01X16261846Y-2017575D01*
G01X16261846Y-2046277D01*
G01X16267688Y-2063295D01*
G01X16273276Y-2074725D01*
G01X16284706Y-2086155D01*
G01X16296136Y-2091997D01*
G01X16318996Y-2091997D01*
G01X16330426Y-2086155D01*
G01X16341856Y-2074725D01*
G01X16347698Y-2063295D01*
G01X16353286Y-2046277D01*
G01X16353286Y-2017575D01*
G01X16347698Y-2000557D01*
G01X16341856Y-1989127D01*
G01X16330426Y-1977697D01*
G01X16318996Y-1971855D01*
G01X16296136Y-1971855D01*
G01X16401038Y-2011987D02*
G01X16435328Y-2091997D01*
G01X16469618Y-2011987D02*
G01X16435328Y-2091997D01*
G01X16585950Y-2011987D02*
G01X16585950Y-2091997D01*
G01X16585950Y-2029005D02*
G01X16574520Y-2017575D01*
G01X16563090Y-2011987D01*
G01X16546072Y-2011987D01*
G01X16534642Y-2017575D01*
G01X16523212Y-2029005D01*
G01X16517370Y-2046277D01*
G01X16517370Y-2057707D01*
G01X16523212Y-2074725D01*
G01X16534642Y-2086155D01*
G01X16546072Y-2091997D01*
G01X16563090Y-2091997D01*
G01X16574520Y-2086155D01*
G01X16585950Y-2074725D01*
G01X16633702Y-1971855D02*
G01X16633702Y-2091997D01*
G01X18221347Y-1971855D02*
G01X18221347Y-2091997D01*
G01X18181215Y-1971855D02*
G01X18261225Y-1971855D01*
G01X18337679Y-2011987D02*
G01X18326249Y-2017575D01*
G01X18314819Y-2029005D01*
G01X18308977Y-2046277D01*
G01X18308977Y-2057707D01*
G01X18314819Y-2074725D01*
G01X18326249Y-2086155D01*
G01X18337679Y-2091997D01*
G01X18354697Y-2091997D01*
G01X18366127Y-2086155D01*
G01X18377557Y-2074725D01*
G01X18383399Y-2057707D01*
G01X18383399Y-2046277D01*
G01X18377557Y-2029005D01*
G01X18366127Y-2017575D01*
G01X18354697Y-2011987D01*
G01X18337679Y-2011987D01*
G01X18431151Y-2011987D02*
G01X18431151Y-2131875D01*
G01X18431151Y-2029005D02*
G01X18442581Y-2017575D01*
G01X18454011Y-2011987D01*
G01X18471283Y-2011987D01*
G01X18482713Y-2017575D01*
G01X18494143Y-2029005D01*
G01X18499731Y-2046277D01*
G01X18499731Y-2057707D01*
G01X18494143Y-2074725D01*
G01X18482713Y-2086155D01*
G01X18471283Y-2091997D01*
G01X18454011Y-2091997D01*
G01X18442581Y-2086155D01*
G01X18431151Y-2074725D01*
G01X18675499Y-1971855D02*
G01X18675499Y-2091997D01*
G01X18675499Y-2091997D02*
G01X18744079Y-2091997D01*
G01X18860411Y-2011987D02*
G01X18860411Y-2091997D01*
G01X18860411Y-2029005D02*
G01X18848981Y-2017575D01*
G01X18837551Y-2011987D01*
G01X18820533Y-2011987D01*
G01X18809103Y-2017575D01*
G01X18797673Y-2029005D01*
G01X18791831Y-2046277D01*
G01X18791831Y-2057707D01*
G01X18797673Y-2074725D01*
G01X18809103Y-2086155D01*
G01X18820533Y-2091997D01*
G01X18837551Y-2091997D01*
G01X18848981Y-2086155D01*
G01X18860411Y-2074725D01*
G01X18914005Y-2011987D02*
G01X18948295Y-2091997D01*
G01X18982585Y-2011987D02*
G01X18948295Y-2091997D01*
G01X18936865Y-2114857D01*
G01X18925435Y-2126287D01*
G01X18914005Y-2131875D01*
G01X18908163Y-2131875D01*
G01X19030337Y-2046277D02*
G01X19098917Y-2046277D01*
G01X19098917Y-2034847D01*
G01X19093329Y-2023417D01*
G01X19087487Y-2017575D01*
G01X19076057Y-2011987D01*
G01X19059039Y-2011987D01*
G01X19047609Y-2017575D01*
G01X19036179Y-2029005D01*
G01X19030337Y-2046277D01*
G01X19030337Y-2057707D01*
G01X19036179Y-2074725D01*
G01X19047609Y-2086155D01*
G01X19059039Y-2091997D01*
G01X19076057Y-2091997D01*
G01X19087487Y-2086155D01*
G01X19098917Y-2074725D01*
G01X19146669Y-2011987D02*
G01X19146669Y-2091997D01*
G01X19146669Y-2046277D02*
G01X19152511Y-2029005D01*
G01X19163941Y-2017575D01*
G01X19175371Y-2011987D01*
G01X19192389Y-2011987D01*
G01X19240141Y-2040435D02*
G01X19343011Y-2040435D01*
G01X19390763Y-1971855D02*
G01X19390763Y-2091997D01*
G01X19390763Y-1971855D02*
G01X19442325Y-1971855D01*
G01X19459343Y-1977697D01*
G01X19465185Y-1983285D01*
G01X19470773Y-1994715D01*
G01X19470773Y-2006145D01*
G01X19465185Y-2017575D01*
G01X19459343Y-2023417D01*
G01X19442325Y-2029005D01*
G01X19390763Y-2029005D02*
G01X19442325Y-2029005D01*
G01X19459343Y-2034847D01*
G01X19465185Y-2040435D01*
G01X19470773Y-2051865D01*
G01X19470773Y-2069137D01*
G01X19465185Y-2080567D01*
G01X19459343Y-2086155D01*
G01X19442325Y-2091997D01*
G01X19390763Y-2091997D01*
G01X19547227Y-2011987D02*
G01X19535797Y-2017575D01*
G01X19524367Y-2029005D01*
G01X19518525Y-2046277D01*
G01X19518525Y-2057707D01*
G01X19524367Y-2074725D01*
G01X19535797Y-2086155D01*
G01X19547227Y-2091997D01*
G01X19564245Y-2091997D01*
G01X19575675Y-2086155D01*
G01X19587105Y-2074725D01*
G01X19592947Y-2057707D01*
G01X19592947Y-2046277D01*
G01X19587105Y-2029005D01*
G01X19575675Y-2017575D01*
G01X19564245Y-2011987D01*
G01X19547227Y-2011987D01*
G01X19657971Y-1971855D02*
G01X19657971Y-2069137D01*
G01X19663559Y-2086155D01*
G01X19674989Y-2091997D01*
G01X19686419Y-2091997D01*
G01X19640699Y-2011987D02*
G01X19680831Y-2011987D01*
G01X19751443Y-1971855D02*
G01X19751443Y-2069137D01*
G01X19757031Y-2086155D01*
G01X19768461Y-2091997D01*
G01X19779891Y-2091997D01*
G01X19734171Y-2011987D02*
G01X19774303Y-2011987D01*
G01X19856345Y-2011987D02*
G01X19844915Y-2017575D01*
G01X19833485Y-2029005D01*
G01X19827643Y-2046277D01*
G01X19827643Y-2057707D01*
G01X19833485Y-2074725D01*
G01X19844915Y-2086155D01*
G01X19856345Y-2091997D01*
G01X19873363Y-2091997D01*
G01X19884793Y-2086155D01*
G01X19896223Y-2074725D01*
G01X19902065Y-2057707D01*
G01X19902065Y-2046277D01*
G01X19896223Y-2029005D01*
G01X19884793Y-2017575D01*
G01X19873363Y-2011987D01*
G01X19856345Y-2011987D01*
G01X19949817Y-2011987D02*
G01X19949817Y-2091997D01*
G01X19949817Y-2034847D02*
G01X19967089Y-2017575D01*
G01X19978519Y-2011987D01*
G01X19995537Y-2011987D01*
G01X20006967Y-2017575D01*
G01X20012809Y-2034847D01*
G01X20012809Y-2091997D01*
G01X20012809Y-2034847D02*
G01X20029827Y-2017575D01*
G01X20041257Y-2011987D01*
G01X20058529Y-2011987D01*
G01X20069959Y-2017575D01*
G01X20075547Y-2034847D01*
G01X20075547Y-2091997D01*
G01X20251315Y-1971855D02*
G01X20251315Y-2091997D01*
G01X20251315Y-2091997D02*
G01X20319895Y-2091997D01*
G01X20436227Y-2011987D02*
G01X20436227Y-2091997D01*
G01X20436227Y-2029005D02*
G01X20424797Y-2017575D01*
G01X20413367Y-2011987D01*
G01X20396349Y-2011987D01*
G01X20384919Y-2017575D01*
G01X20373489Y-2029005D01*
G01X20367647Y-2046277D01*
G01X20367647Y-2057707D01*
G01X20373489Y-2074725D01*
G01X20384919Y-2086155D01*
G01X20396349Y-2091997D01*
G01X20413367Y-2091997D01*
G01X20424797Y-2086155D01*
G01X20436227Y-2074725D01*
G01X20489821Y-2011987D02*
G01X20524111Y-2091997D01*
G01X20558401Y-2011987D02*
G01X20524111Y-2091997D01*
G01X20512681Y-2114857D01*
G01X20501251Y-2126287D01*
G01X20489821Y-2131875D01*
G01X20483979Y-2131875D01*
G01X20606153Y-2046277D02*
G01X20674733Y-2046277D01*
G01X20674733Y-2034847D01*
G01X20669145Y-2023417D01*
G01X20663303Y-2017575D01*
G01X20651873Y-2011987D01*
G01X20634855Y-2011987D01*
G01X20623425Y-2017575D01*
G01X20611995Y-2029005D01*
G01X20606153Y-2046277D01*
G01X20606153Y-2057707D01*
G01X20611995Y-2074725D01*
G01X20623425Y-2086155D01*
G01X20634855Y-2091997D01*
G01X20651873Y-2091997D01*
G01X20663303Y-2086155D01*
G01X20674733Y-2074725D01*
G01X20722485Y-2011987D02*
G01X20722485Y-2091997D01*
G01X20722485Y-2046277D02*
G01X20728327Y-2029005D01*
G01X20739757Y-2017575D01*
G01X20751187Y-2011987D01*
G01X20768205Y-2011987D01*
G01X6540540Y-2552427D02*
G01X6483390Y-2632437D01*
G01X6569242Y-2632437D01*
G01X6540540Y-2552427D02*
G01X6540540Y-2672569D01*
G01X7954703Y-2552427D02*
G01X7897553Y-2632437D01*
G01X7983405Y-2632437D01*
G01X7954703Y-2552427D02*
G01X7954703Y-2672569D01*
G01X8031157Y-2575287D02*
G01X8042587Y-2569699D01*
G01X8059859Y-2552427D01*
G01X8059859Y-2672569D01*
G01X8113453Y-2643867D02*
G01X8107611Y-2649709D01*
G01X8113453Y-2655297D01*
G01X8119041Y-2649709D01*
G01X8113453Y-2643867D01*
G01X8178223Y-2552427D02*
G01X8241215Y-2552427D01*
G01X8206925Y-2598147D01*
G01X8223943Y-2598147D01*
G01X8235373Y-2603989D01*
G01X8241215Y-2609577D01*
G01X8246803Y-2626849D01*
G01X8246803Y-2638279D01*
G01X8241215Y-2655297D01*
G01X8229785Y-2666727D01*
G01X8212513Y-2672569D01*
G01X8195495Y-2672569D01*
G01X8178223Y-2666727D01*
G01X8172635Y-2661139D01*
G01X8166793Y-2649709D01*
G01X8294555Y-2592559D02*
G01X8357547Y-2672569D01*
G01X8357547Y-2592559D02*
G01X8294555Y-2672569D01*
G01X8462449Y-2552427D02*
G01X8405299Y-2632437D01*
G01X8491151Y-2632437D01*
G01X8462449Y-2552427D02*
G01X8462449Y-2672569D01*
G01X8538903Y-2575287D02*
G01X8550333Y-2569699D01*
G01X8567605Y-2552427D01*
G01X8567605Y-2672569D01*
G01X8621199Y-2643867D02*
G01X8615357Y-2649709D01*
G01X8621199Y-2655297D01*
G01X8626787Y-2649709D01*
G01X8621199Y-2643867D01*
G01X8685969Y-2552427D02*
G01X8748961Y-2552427D01*
G01X8714671Y-2598147D01*
G01X8731689Y-2598147D01*
G01X8743119Y-2603989D01*
G01X8748961Y-2609577D01*
G01X8754549Y-2626849D01*
G01X8754549Y-2638279D01*
G01X8748961Y-2655297D01*
G01X8737531Y-2666727D01*
G01X8720259Y-2672569D01*
G01X8703241Y-2672569D01*
G01X8685969Y-2666727D01*
G01X8680381Y-2661139D01*
G01X8674539Y-2649709D01*
G01X8802301Y-2592559D02*
G01X8802301Y-2672569D01*
G01X8802301Y-2615419D02*
G01X8819573Y-2598147D01*
G01X8831003Y-2592559D01*
G01X8848021Y-2592559D01*
G01X8859451Y-2598147D01*
G01X8865293Y-2615419D01*
G01X8865293Y-2672569D01*
G01X8865293Y-2615419D02*
G01X8882311Y-2598147D01*
G01X8893741Y-2592559D01*
G01X8911013Y-2592559D01*
G01X8922443Y-2598147D01*
G01X8928031Y-2615419D01*
G01X8928031Y-2672569D01*
G01X8975783Y-2552427D02*
G01X8981625Y-2558269D01*
G01X8987213Y-2552427D01*
G01X8981625Y-2546839D01*
G01X8975783Y-2552427D01*
G01X8981625Y-2592559D02*
G01X8981625Y-2672569D01*
G01X9034965Y-2552427D02*
G01X9034965Y-2672569D01*
G01X9122849Y-2529567D02*
G01X9111419Y-2540997D01*
G01X9099989Y-2558269D01*
G01X9088559Y-2581129D01*
G01X9082717Y-2609577D01*
G01X9082717Y-2632437D01*
G01X9088559Y-2661139D01*
G01X9099989Y-2683999D01*
G01X9111419Y-2701017D01*
G01X9122849Y-2712447D01*
G01X9170601Y-2575287D02*
G01X9182031Y-2569699D01*
G01X9199303Y-2552427D01*
G01X9199303Y-2672569D01*
G01X9252897Y-2643867D02*
G01X9247055Y-2649709D01*
G01X9252897Y-2655297D01*
G01X9258485Y-2649709D01*
G01X9252897Y-2643867D01*
G01X9340527Y-2552427D02*
G01X9323509Y-2558269D01*
G01X9312079Y-2575287D01*
G01X9306237Y-2603989D01*
G01X9306237Y-2621007D01*
G01X9312079Y-2649709D01*
G01X9323509Y-2666727D01*
G01X9340527Y-2672569D01*
G01X9351957Y-2672569D01*
G01X9369229Y-2666727D01*
G01X9380659Y-2649709D01*
G01X9386247Y-2621007D01*
G01X9386247Y-2603989D01*
G01X9380659Y-2575287D01*
G01X9369229Y-2558269D01*
G01X9351957Y-2552427D01*
G01X9340527Y-2552427D01*
G01X9502579Y-2552427D02*
G01X9445429Y-2552427D01*
G01X9439841Y-2603989D01*
G01X9445429Y-2598147D01*
G01X9462701Y-2592559D01*
G01X9479719Y-2592559D01*
G01X9496991Y-2598147D01*
G01X9508421Y-2609577D01*
G01X9514009Y-2626849D01*
G01X9514009Y-2638279D01*
G01X9508421Y-2655297D01*
G01X9496991Y-2666727D01*
G01X9479719Y-2672569D01*
G01X9462701Y-2672569D01*
G01X9445429Y-2666727D01*
G01X9439841Y-2661139D01*
G01X9433999Y-2649709D01*
G01X9596051Y-2552427D02*
G01X9579033Y-2558269D01*
G01X9567603Y-2575287D01*
G01X9561761Y-2603989D01*
G01X9561761Y-2621007D01*
G01X9567603Y-2649709D01*
G01X9579033Y-2666727D01*
G01X9596051Y-2672569D01*
G01X9607481Y-2672569D01*
G01X9624753Y-2666727D01*
G01X9636183Y-2649709D01*
G01X9641771Y-2621007D01*
G01X9641771Y-2603989D01*
G01X9636183Y-2575287D01*
G01X9624753Y-2558269D01*
G01X9607481Y-2552427D01*
G01X9596051Y-2552427D01*
G01X9689523Y-2592559D02*
G01X9752515Y-2672569D01*
G01X9752515Y-2592559D02*
G01X9689523Y-2672569D01*
G01X9800267Y-2575287D02*
G01X9811697Y-2569699D01*
G01X9828969Y-2552427D01*
G01X9828969Y-2672569D01*
G01X9882563Y-2643867D02*
G01X9876721Y-2649709D01*
G01X9882563Y-2655297D01*
G01X9888151Y-2649709D01*
G01X9882563Y-2643867D01*
G01X9970193Y-2552427D02*
G01X9953175Y-2558269D01*
G01X9941745Y-2575287D01*
G01X9935903Y-2603989D01*
G01X9935903Y-2621007D01*
G01X9941745Y-2649709D01*
G01X9953175Y-2666727D01*
G01X9970193Y-2672569D01*
G01X9981623Y-2672569D01*
G01X9998895Y-2666727D01*
G01X10010325Y-2649709D01*
G01X10015913Y-2621007D01*
G01X10015913Y-2603989D01*
G01X10010325Y-2575287D01*
G01X9998895Y-2558269D01*
G01X9981623Y-2552427D01*
G01X9970193Y-2552427D01*
G01X10132245Y-2552427D02*
G01X10075095Y-2552427D01*
G01X10069507Y-2603989D01*
G01X10075095Y-2598147D01*
G01X10092367Y-2592559D01*
G01X10109385Y-2592559D01*
G01X10126657Y-2598147D01*
G01X10138087Y-2609577D01*
G01X10143675Y-2626849D01*
G01X10143675Y-2638279D01*
G01X10138087Y-2655297D01*
G01X10126657Y-2666727D01*
G01X10109385Y-2672569D01*
G01X10092367Y-2672569D01*
G01X10075095Y-2666727D01*
G01X10069507Y-2661139D01*
G01X10063665Y-2649709D01*
G01X10225717Y-2552427D02*
G01X10208699Y-2558269D01*
G01X10197269Y-2575287D01*
G01X10191427Y-2603989D01*
G01X10191427Y-2621007D01*
G01X10197269Y-2649709D01*
G01X10208699Y-2666727D01*
G01X10225717Y-2672569D01*
G01X10237147Y-2672569D01*
G01X10254419Y-2666727D01*
G01X10265849Y-2649709D01*
G01X10271437Y-2621007D01*
G01X10271437Y-2603989D01*
G01X10265849Y-2575287D01*
G01X10254419Y-2558269D01*
G01X10237147Y-2552427D01*
G01X10225717Y-2552427D01*
G01X10319189Y-2592559D02*
G01X10319189Y-2672569D01*
G01X10319189Y-2615419D02*
G01X10336461Y-2598147D01*
G01X10347891Y-2592559D01*
G01X10364909Y-2592559D01*
G01X10376339Y-2598147D01*
G01X10382181Y-2615419D01*
G01X10382181Y-2672569D01*
G01X10382181Y-2615419D02*
G01X10399199Y-2598147D01*
G01X10410629Y-2592559D01*
G01X10427901Y-2592559D01*
G01X10439331Y-2598147D01*
G01X10444919Y-2615419D01*
G01X10444919Y-2672569D01*
G01X10492671Y-2592559D02*
G01X10492671Y-2672569D01*
G01X10492671Y-2615419D02*
G01X10509943Y-2598147D01*
G01X10521373Y-2592559D01*
G01X10538391Y-2592559D01*
G01X10549821Y-2598147D01*
G01X10555663Y-2615419D01*
G01X10555663Y-2672569D01*
G01X10555663Y-2615419D02*
G01X10572681Y-2598147D01*
G01X10584111Y-2592559D01*
G01X10601383Y-2592559D01*
G01X10612813Y-2598147D01*
G01X10618401Y-2615419D01*
G01X10618401Y-2672569D01*
G01X10666153Y-2529567D02*
G01X10677583Y-2540997D01*
G01X10689013Y-2558269D01*
G01X10700443Y-2581129D01*
G01X10706285Y-2609577D01*
G01X10706285Y-2632437D01*
G01X10700443Y-2661139D01*
G01X10689013Y-2683999D01*
G01X10677583Y-2701017D01*
G01X10666153Y-2712447D01*
G01X11700079Y-2552427D02*
G01X11700079Y-2672569D01*
G01X11700079Y-2552427D02*
G01X11751641Y-2552427D01*
G01X11768659Y-2558269D01*
G01X11774501Y-2563857D01*
G01X11780089Y-2575287D01*
G01X11780089Y-2592559D01*
G01X11774501Y-2603989D01*
G01X11768659Y-2609577D01*
G01X11751641Y-2615419D01*
G01X11700079Y-2615419D01*
G01X11867973Y-2552427D02*
G01X11867973Y-2672569D01*
G01X11827841Y-2552427D02*
G01X11907851Y-2552427D01*
G01X11955603Y-2552427D02*
G01X11955603Y-2672569D01*
G01X12035613Y-2552427D02*
G01X12035613Y-2672569D01*
G01X11955603Y-2609577D02*
G01X12035613Y-2609577D01*
G01X13161486Y-2552427D02*
G01X13161486Y-2672569D01*
G01X13161486Y-2552427D02*
G01X13213048Y-2552427D01*
G01X13230066Y-2558269D01*
G01X13235908Y-2563857D01*
G01X13241496Y-2575287D01*
G01X13241496Y-2586717D01*
G01X13235908Y-2598147D01*
G01X13230066Y-2603989D01*
G01X13213048Y-2609577D01*
G01X13161486Y-2609577D01*
G01X13201618Y-2609577D02*
G01X13241496Y-2672569D01*
G01X13317950Y-2592559D02*
G01X13306520Y-2598147D01*
G01X13295090Y-2609577D01*
G01X13289248Y-2626849D01*
G01X13289248Y-2638279D01*
G01X13295090Y-2655297D01*
G01X13306520Y-2666727D01*
G01X13317950Y-2672569D01*
G01X13334968Y-2672569D01*
G01X13346398Y-2666727D01*
G01X13357828Y-2655297D01*
G01X13363670Y-2638279D01*
G01X13363670Y-2626849D01*
G01X13357828Y-2609577D01*
G01X13346398Y-2598147D01*
G01X13334968Y-2592559D01*
G01X13317950Y-2592559D01*
G01X13411422Y-2592559D02*
G01X13411422Y-2649709D01*
G01X13417264Y-2666727D01*
G01X13428694Y-2672569D01*
G01X13445712Y-2672569D01*
G01X13457142Y-2666727D01*
G01X13474414Y-2649709D01*
G01X13474414Y-2592559D02*
G01X13474414Y-2672569D01*
G01X13522166Y-2592559D02*
G01X13522166Y-2672569D01*
G01X13522166Y-2615419D02*
G01X13539438Y-2598147D01*
G01X13550868Y-2592559D01*
G01X13567886Y-2592559D01*
G01X13579316Y-2598147D01*
G01X13585158Y-2615419D01*
G01X13585158Y-2672569D01*
G01X13701490Y-2552427D02*
G01X13701490Y-2672569D01*
G01X13701490Y-2609577D02*
G01X13690060Y-2598147D01*
G01X13678630Y-2592559D01*
G01X13661612Y-2592559D01*
G01X13650182Y-2598147D01*
G01X13638752Y-2609577D01*
G01X13632910Y-2626849D01*
G01X13632910Y-2638279D01*
G01X13638752Y-2655297D01*
G01X13650182Y-2666727D01*
G01X13661612Y-2672569D01*
G01X13678630Y-2672569D01*
G01X13690060Y-2666727D01*
G01X13701490Y-2655297D01*
G01X14592667Y-2552427D02*
G01X14592667Y-2672569D01*
G01X14592667Y-2552427D02*
G01X14644229Y-2552427D01*
G01X14661247Y-2558269D01*
G01X14667089Y-2563857D01*
G01X14672677Y-2575287D01*
G01X14672677Y-2592559D01*
G01X14667089Y-2603989D01*
G01X14661247Y-2609577D01*
G01X14644229Y-2615419D01*
G01X14592667Y-2615419D01*
G01X14789009Y-2592559D02*
G01X14789009Y-2672569D01*
G01X14789009Y-2609577D02*
G01X14777579Y-2598147D01*
G01X14766149Y-2592559D01*
G01X14749131Y-2592559D01*
G01X14737701Y-2598147D01*
G01X14726271Y-2609577D01*
G01X14720429Y-2626849D01*
G01X14720429Y-2638279D01*
G01X14726271Y-2655297D01*
G01X14737701Y-2666727D01*
G01X14749131Y-2672569D01*
G01X14766149Y-2672569D01*
G01X14777579Y-2666727D01*
G01X14789009Y-2655297D01*
G01X14905341Y-2552427D02*
G01X14905341Y-2672569D01*
G01X14905341Y-2609577D02*
G01X14893911Y-2598147D01*
G01X14882481Y-2592559D01*
G01X14865463Y-2592559D01*
G01X14854033Y-2598147D01*
G01X14842603Y-2609577D01*
G01X14836761Y-2626849D01*
G01X14836761Y-2638279D01*
G01X14842603Y-2655297D01*
G01X14854033Y-2666727D01*
G01X14865463Y-2672569D01*
G01X14882481Y-2672569D01*
G01X14893911Y-2666727D01*
G01X14905341Y-2655297D01*
G01X16261846Y-2552427D02*
G01X16261846Y-2672569D01*
G01X16261846Y-2552427D02*
G01X16313408Y-2552427D01*
G01X16330426Y-2558269D01*
G01X16336268Y-2563857D01*
G01X16341856Y-2575287D01*
G01X16341856Y-2586717D01*
G01X16336268Y-2598147D01*
G01X16330426Y-2603989D01*
G01X16313408Y-2609577D01*
G01X16261846Y-2609577D01*
G01X16301978Y-2609577D02*
G01X16341856Y-2672569D01*
G01X16418310Y-2592559D02*
G01X16406880Y-2598147D01*
G01X16395450Y-2609577D01*
G01X16389608Y-2626849D01*
G01X16389608Y-2638279D01*
G01X16395450Y-2655297D01*
G01X16406880Y-2666727D01*
G01X16418310Y-2672569D01*
G01X16435328Y-2672569D01*
G01X16446758Y-2666727D01*
G01X16458188Y-2655297D01*
G01X16464030Y-2638279D01*
G01X16464030Y-2626849D01*
G01X16458188Y-2609577D01*
G01X16446758Y-2598147D01*
G01X16435328Y-2592559D01*
G01X16418310Y-2592559D01*
G01X16511782Y-2592559D02*
G01X16511782Y-2649709D01*
G01X16517624Y-2666727D01*
G01X16529054Y-2672569D01*
G01X16546072Y-2672569D01*
G01X16557502Y-2666727D01*
G01X16574774Y-2649709D01*
G01X16574774Y-2592559D02*
G01X16574774Y-2672569D01*
G01X16622526Y-2592559D02*
G01X16622526Y-2672569D01*
G01X16622526Y-2615419D02*
G01X16639798Y-2598147D01*
G01X16651228Y-2592559D01*
G01X16668246Y-2592559D01*
G01X16679676Y-2598147D01*
G01X16685518Y-2615419D01*
G01X16685518Y-2672569D01*
G01X16801850Y-2552427D02*
G01X16801850Y-2672569D01*
G01X16801850Y-2609577D02*
G01X16790420Y-2598147D01*
G01X16778990Y-2592559D01*
G01X16761972Y-2592559D01*
G01X16750542Y-2598147D01*
G01X16739112Y-2609577D01*
G01X16733270Y-2626849D01*
G01X16733270Y-2638279D01*
G01X16739112Y-2655297D01*
G01X16750542Y-2666727D01*
G01X16761972Y-2672569D01*
G01X16778990Y-2672569D01*
G01X16790420Y-2666727D01*
G01X16801850Y-2655297D01*
G01X18221347Y-2552427D02*
G01X18221347Y-2672569D01*
G01X18181215Y-2552427D02*
G01X18261225Y-2552427D01*
G01X18337679Y-2592559D02*
G01X18326249Y-2598147D01*
G01X18314819Y-2609577D01*
G01X18308977Y-2626849D01*
G01X18308977Y-2638279D01*
G01X18314819Y-2655297D01*
G01X18326249Y-2666727D01*
G01X18337679Y-2672569D01*
G01X18354697Y-2672569D01*
G01X18366127Y-2666727D01*
G01X18377557Y-2655297D01*
G01X18383399Y-2638279D01*
G01X18383399Y-2626849D01*
G01X18377557Y-2609577D01*
G01X18366127Y-2598147D01*
G01X18354697Y-2592559D01*
G01X18337679Y-2592559D01*
G01X18431151Y-2592559D02*
G01X18431151Y-2712447D01*
G01X18431151Y-2609577D02*
G01X18442581Y-2598147D01*
G01X18454011Y-2592559D01*
G01X18471283Y-2592559D01*
G01X18482713Y-2598147D01*
G01X18494143Y-2609577D01*
G01X18499731Y-2626849D01*
G01X18499731Y-2638279D01*
G01X18494143Y-2655297D01*
G01X18482713Y-2666727D01*
G01X18471283Y-2672569D01*
G01X18454011Y-2672569D01*
G01X18442581Y-2666727D01*
G01X18431151Y-2655297D01*
G01X18675499Y-2552427D02*
G01X18675499Y-2672569D01*
G01X18675499Y-2672569D02*
G01X18744079Y-2672569D01*
G01X18860411Y-2592559D02*
G01X18860411Y-2672569D01*
G01X18860411Y-2609577D02*
G01X18848981Y-2598147D01*
G01X18837551Y-2592559D01*
G01X18820533Y-2592559D01*
G01X18809103Y-2598147D01*
G01X18797673Y-2609577D01*
G01X18791831Y-2626849D01*
G01X18791831Y-2638279D01*
G01X18797673Y-2655297D01*
G01X18809103Y-2666727D01*
G01X18820533Y-2672569D01*
G01X18837551Y-2672569D01*
G01X18848981Y-2666727D01*
G01X18860411Y-2655297D01*
G01X18914005Y-2592559D02*
G01X18948295Y-2672569D01*
G01X18982585Y-2592559D02*
G01X18948295Y-2672569D01*
G01X18936865Y-2695429D01*
G01X18925435Y-2706859D01*
G01X18914005Y-2712447D01*
G01X18908163Y-2712447D01*
G01X19030337Y-2626849D02*
G01X19098917Y-2626849D01*
G01X19098917Y-2615419D01*
G01X19093329Y-2603989D01*
G01X19087487Y-2598147D01*
G01X19076057Y-2592559D01*
G01X19059039Y-2592559D01*
G01X19047609Y-2598147D01*
G01X19036179Y-2609577D01*
G01X19030337Y-2626849D01*
G01X19030337Y-2638279D01*
G01X19036179Y-2655297D01*
G01X19047609Y-2666727D01*
G01X19059039Y-2672569D01*
G01X19076057Y-2672569D01*
G01X19087487Y-2666727D01*
G01X19098917Y-2655297D01*
G01X19146669Y-2592559D02*
G01X19146669Y-2672569D01*
G01X19146669Y-2626849D02*
G01X19152511Y-2609577D01*
G01X19163941Y-2598147D01*
G01X19175371Y-2592559D01*
G01X19192389Y-2592559D01*
G01X19240141Y-2621007D02*
G01X19343011Y-2621007D01*
G01X19390763Y-2552427D02*
G01X19390763Y-2672569D01*
G01X19390763Y-2552427D02*
G01X19442325Y-2552427D01*
G01X19459343Y-2558269D01*
G01X19465185Y-2563857D01*
G01X19470773Y-2575287D01*
G01X19470773Y-2586717D01*
G01X19465185Y-2598147D01*
G01X19459343Y-2603989D01*
G01X19442325Y-2609577D01*
G01X19390763Y-2609577D02*
G01X19442325Y-2609577D01*
G01X19459343Y-2615419D01*
G01X19465185Y-2621007D01*
G01X19470773Y-2632437D01*
G01X19470773Y-2649709D01*
G01X19465185Y-2661139D01*
G01X19459343Y-2666727D01*
G01X19442325Y-2672569D01*
G01X19390763Y-2672569D01*
G01X19547227Y-2592559D02*
G01X19535797Y-2598147D01*
G01X19524367Y-2609577D01*
G01X19518525Y-2626849D01*
G01X19518525Y-2638279D01*
G01X19524367Y-2655297D01*
G01X19535797Y-2666727D01*
G01X19547227Y-2672569D01*
G01X19564245Y-2672569D01*
G01X19575675Y-2666727D01*
G01X19587105Y-2655297D01*
G01X19592947Y-2638279D01*
G01X19592947Y-2626849D01*
G01X19587105Y-2609577D01*
G01X19575675Y-2598147D01*
G01X19564245Y-2592559D01*
G01X19547227Y-2592559D01*
G01X19657971Y-2552427D02*
G01X19657971Y-2649709D01*
G01X19663559Y-2666727D01*
G01X19674989Y-2672569D01*
G01X19686419Y-2672569D01*
G01X19640699Y-2592559D02*
G01X19680831Y-2592559D01*
G01X19751443Y-2552427D02*
G01X19751443Y-2649709D01*
G01X19757031Y-2666727D01*
G01X19768461Y-2672569D01*
G01X19779891Y-2672569D01*
G01X19734171Y-2592559D02*
G01X19774303Y-2592559D01*
G01X19856345Y-2592559D02*
G01X19844915Y-2598147D01*
G01X19833485Y-2609577D01*
G01X19827643Y-2626849D01*
G01X19827643Y-2638279D01*
G01X19833485Y-2655297D01*
G01X19844915Y-2666727D01*
G01X19856345Y-2672569D01*
G01X19873363Y-2672569D01*
G01X19884793Y-2666727D01*
G01X19896223Y-2655297D01*
G01X19902065Y-2638279D01*
G01X19902065Y-2626849D01*
G01X19896223Y-2609577D01*
G01X19884793Y-2598147D01*
G01X19873363Y-2592559D01*
G01X19856345Y-2592559D01*
G01X19949817Y-2592559D02*
G01X19949817Y-2672569D01*
G01X19949817Y-2615419D02*
G01X19967089Y-2598147D01*
G01X19978519Y-2592559D01*
G01X19995537Y-2592559D01*
G01X20006967Y-2598147D01*
G01X20012809Y-2615419D01*
G01X20012809Y-2672569D01*
G01X20012809Y-2615419D02*
G01X20029827Y-2598147D01*
G01X20041257Y-2592559D01*
G01X20058529Y-2592559D01*
G01X20069959Y-2598147D01*
G01X20075547Y-2615419D01*
G01X20075547Y-2672569D01*
G01X20251315Y-2552427D02*
G01X20251315Y-2672569D01*
G01X20251315Y-2672569D02*
G01X20319895Y-2672569D01*
G01X20436227Y-2592559D02*
G01X20436227Y-2672569D01*
G01X20436227Y-2609577D02*
G01X20424797Y-2598147D01*
G01X20413367Y-2592559D01*
G01X20396349Y-2592559D01*
G01X20384919Y-2598147D01*
G01X20373489Y-2609577D01*
G01X20367647Y-2626849D01*
G01X20367647Y-2638279D01*
G01X20373489Y-2655297D01*
G01X20384919Y-2666727D01*
G01X20396349Y-2672569D01*
G01X20413367Y-2672569D01*
G01X20424797Y-2666727D01*
G01X20436227Y-2655297D01*
G01X20489821Y-2592559D02*
G01X20524111Y-2672569D01*
G01X20558401Y-2592559D02*
G01X20524111Y-2672569D01*
G01X20512681Y-2695429D01*
G01X20501251Y-2706859D01*
G01X20489821Y-2712447D01*
G01X20483979Y-2712447D01*
G01X20606153Y-2626849D02*
G01X20674733Y-2626849D01*
G01X20674733Y-2615419D01*
G01X20669145Y-2603989D01*
G01X20663303Y-2598147D01*
G01X20651873Y-2592559D01*
G01X20634855Y-2592559D01*
G01X20623425Y-2598147D01*
G01X20611995Y-2609577D01*
G01X20606153Y-2626849D01*
G01X20606153Y-2638279D01*
G01X20611995Y-2655297D01*
G01X20623425Y-2666727D01*
G01X20634855Y-2672569D01*
G01X20651873Y-2672569D01*
G01X20663303Y-2666727D01*
G01X20674733Y-2655297D01*
G01X20722485Y-2592559D02*
G01X20722485Y-2672569D01*
G01X20722485Y-2626849D02*
G01X20728327Y-2609577D01*
G01X20739757Y-2598147D01*
G01X20751187Y-2592559D01*
G01X20768205Y-2592559D01*
G01X6540540Y-3132998D02*
G01X6483390Y-3213008D01*
G01X6569242Y-3213008D01*
G01X6540540Y-3132998D02*
G01X6540540Y-3253140D01*
G01X7971975Y-3173130D02*
G01X7966133Y-3190148D01*
G01X7954703Y-3201578D01*
G01X7937685Y-3207420D01*
G01X7931843Y-3207420D01*
G01X7914825Y-3201578D01*
G01X7903395Y-3190148D01*
G01X7897553Y-3173130D01*
G01X7897553Y-3167288D01*
G01X7903395Y-3150270D01*
G01X7914825Y-3138840D01*
G01X7931843Y-3132998D01*
G01X7937685Y-3132998D01*
G01X7954703Y-3138840D01*
G01X7966133Y-3150270D01*
G01X7971975Y-3173130D01*
G01X7971975Y-3201578D01*
G01X7966133Y-3230280D01*
G01X7954703Y-3247298D01*
G01X7937685Y-3253140D01*
G01X7926255Y-3253140D01*
G01X7908983Y-3247298D01*
G01X7903395Y-3235868D01*
G01X8048429Y-3132998D02*
G01X8031157Y-3138840D01*
G01X8025569Y-3150270D01*
G01X8025569Y-3161700D01*
G01X8031157Y-3173130D01*
G01X8042587Y-3178718D01*
G01X8065447Y-3184560D01*
G01X8082719Y-3190148D01*
G01X8094149Y-3201578D01*
G01X8099737Y-3213008D01*
G01X8099737Y-3230280D01*
G01X8094149Y-3241710D01*
G01X8088307Y-3247298D01*
G01X8071289Y-3253140D01*
G01X8048429Y-3253140D01*
G01X8031157Y-3247298D01*
G01X8025569Y-3241710D01*
G01X8019727Y-3230280D01*
G01X8019727Y-3213008D01*
G01X8025569Y-3201578D01*
G01X8036999Y-3190148D01*
G01X8054017Y-3184560D01*
G01X8076877Y-3178718D01*
G01X8088307Y-3173130D01*
G01X8094149Y-3161700D01*
G01X8094149Y-3150270D01*
G01X8088307Y-3138840D01*
G01X8071289Y-3132998D01*
G01X8048429Y-3132998D01*
G01X8153331Y-3224438D02*
G01X8147489Y-3230280D01*
G01X8153331Y-3235868D01*
G01X8158919Y-3230280D01*
G01X8153331Y-3224438D01*
G01X8263821Y-3132998D02*
G01X8206671Y-3213008D01*
G01X8292523Y-3213008D01*
G01X8263821Y-3132998D02*
G01X8263821Y-3253140D01*
G01X8340275Y-3173130D02*
G01X8340275Y-3253140D01*
G01X8340275Y-3195990D02*
G01X8357547Y-3178718D01*
G01X8368977Y-3173130D01*
G01X8385995Y-3173130D01*
G01X8397425Y-3178718D01*
G01X8403267Y-3195990D01*
G01X8403267Y-3253140D01*
G01X8403267Y-3195990D02*
G01X8420285Y-3178718D01*
G01X8431715Y-3173130D01*
G01X8448987Y-3173130D01*
G01X8460417Y-3178718D01*
G01X8466005Y-3195990D01*
G01X8466005Y-3253140D01*
G01X8513757Y-3132998D02*
G01X8519599Y-3138840D01*
G01X8525187Y-3132998D01*
G01X8519599Y-3127410D01*
G01X8513757Y-3132998D01*
G01X8519599Y-3173130D02*
G01X8519599Y-3253140D01*
G01X8572939Y-3132998D02*
G01X8572939Y-3253140D01*
G01X8660823Y-3110138D02*
G01X8649393Y-3121568D01*
G01X8637963Y-3138840D01*
G01X8626533Y-3161700D01*
G01X8620691Y-3190148D01*
G01X8620691Y-3213008D01*
G01X8626533Y-3241710D01*
G01X8637963Y-3264570D01*
G01X8649393Y-3281588D01*
G01X8660823Y-3293018D01*
G01X8714417Y-3161700D02*
G01X8714417Y-3155858D01*
G01X8720005Y-3144428D01*
G01X8725847Y-3138840D01*
G01X8737277Y-3132998D01*
G01X8760137Y-3132998D01*
G01X8771567Y-3138840D01*
G01X8777155Y-3144428D01*
G01X8782997Y-3155858D01*
G01X8782997Y-3167288D01*
G01X8777155Y-3178718D01*
G01X8765725Y-3195990D01*
G01X8708575Y-3253140D01*
G01X8788585Y-3253140D01*
G01X8842179Y-3224438D02*
G01X8836337Y-3230280D01*
G01X8842179Y-3235868D01*
G01X8847767Y-3230280D01*
G01X8842179Y-3224438D01*
G01X8964099Y-3132998D02*
G01X8906949Y-3132998D01*
G01X8901361Y-3184560D01*
G01X8906949Y-3178718D01*
G01X8924221Y-3173130D01*
G01X8941239Y-3173130D01*
G01X8958511Y-3178718D01*
G01X8969941Y-3190148D01*
G01X8975529Y-3207420D01*
G01X8975529Y-3218850D01*
G01X8969941Y-3235868D01*
G01X8958511Y-3247298D01*
G01X8941239Y-3253140D01*
G01X8924221Y-3253140D01*
G01X8906949Y-3247298D01*
G01X8901361Y-3241710D01*
G01X8895519Y-3230280D01*
G01X9057571Y-3132998D02*
G01X9040553Y-3138840D01*
G01X9029123Y-3155858D01*
G01X9023281Y-3184560D01*
G01X9023281Y-3201578D01*
G01X9029123Y-3230280D01*
G01X9040553Y-3247298D01*
G01X9057571Y-3253140D01*
G01X9069001Y-3253140D01*
G01X9086273Y-3247298D01*
G01X9097703Y-3230280D01*
G01X9103291Y-3201578D01*
G01X9103291Y-3184560D01*
G01X9097703Y-3155858D01*
G01X9086273Y-3138840D01*
G01X9069001Y-3132998D01*
G01X9057571Y-3132998D01*
G01X9185333Y-3132998D02*
G01X9168315Y-3138840D01*
G01X9156885Y-3155858D01*
G01X9151043Y-3184560D01*
G01X9151043Y-3201578D01*
G01X9156885Y-3230280D01*
G01X9168315Y-3247298D01*
G01X9185333Y-3253140D01*
G01X9196763Y-3253140D01*
G01X9214035Y-3247298D01*
G01X9225465Y-3230280D01*
G01X9231053Y-3201578D01*
G01X9231053Y-3184560D01*
G01X9225465Y-3155858D01*
G01X9214035Y-3138840D01*
G01X9196763Y-3132998D01*
G01X9185333Y-3132998D01*
G01X9278805Y-3173130D02*
G01X9278805Y-3253140D01*
G01X9278805Y-3195990D02*
G01X9296077Y-3178718D01*
G01X9307507Y-3173130D01*
G01X9324525Y-3173130D01*
G01X9335955Y-3178718D01*
G01X9341797Y-3195990D01*
G01X9341797Y-3253140D01*
G01X9341797Y-3195990D02*
G01X9358815Y-3178718D01*
G01X9370245Y-3173130D01*
G01X9387517Y-3173130D01*
G01X9398947Y-3178718D01*
G01X9404535Y-3195990D01*
G01X9404535Y-3253140D01*
G01X9452287Y-3173130D02*
G01X9452287Y-3253140D01*
G01X9452287Y-3195990D02*
G01X9469559Y-3178718D01*
G01X9480989Y-3173130D01*
G01X9498007Y-3173130D01*
G01X9509437Y-3178718D01*
G01X9515279Y-3195990D01*
G01X9515279Y-3253140D01*
G01X9515279Y-3195990D02*
G01X9532297Y-3178718D01*
G01X9543727Y-3173130D01*
G01X9560999Y-3173130D01*
G01X9572429Y-3178718D01*
G01X9578017Y-3195990D01*
G01X9578017Y-3253140D01*
G01X9625769Y-3110138D02*
G01X9637199Y-3121568D01*
G01X9648629Y-3138840D01*
G01X9660059Y-3161700D01*
G01X9665901Y-3190148D01*
G01X9665901Y-3213008D01*
G01X9660059Y-3241710D01*
G01X9648629Y-3264570D01*
G01X9637199Y-3281588D01*
G01X9625769Y-3293018D01*
G01X11700079Y-3132998D02*
G01X11700079Y-3253140D01*
G01X11700079Y-3132998D02*
G01X11780089Y-3253140D01*
G01X11780089Y-3132998D02*
G01X11780089Y-3253140D01*
G01X11827841Y-3132998D02*
G01X11827841Y-3253140D01*
G01X11827841Y-3132998D02*
G01X11879403Y-3132998D01*
G01X11896421Y-3138840D01*
G01X11902263Y-3144428D01*
G01X11907851Y-3155858D01*
G01X11907851Y-3173130D01*
G01X11902263Y-3184560D01*
G01X11896421Y-3190148D01*
G01X11879403Y-3195990D01*
G01X11827841Y-3195990D01*
G01X11995735Y-3132998D02*
G01X11995735Y-3253140D01*
G01X11955603Y-3132998D02*
G01X12035613Y-3132998D01*
G01X12083365Y-3132998D02*
G01X12083365Y-3253140D01*
G01X12163375Y-3132998D02*
G01X12163375Y-3253140D01*
G01X12083365Y-3190148D02*
G01X12163375Y-3190148D01*
G01X13161486Y-3132998D02*
G01X13161486Y-3253140D01*
G01X13161486Y-3132998D02*
G01X13213048Y-3132998D01*
G01X13230066Y-3138840D01*
G01X13235908Y-3144428D01*
G01X13241496Y-3155858D01*
G01X13241496Y-3167288D01*
G01X13235908Y-3178718D01*
G01X13230066Y-3184560D01*
G01X13213048Y-3190148D01*
G01X13161486Y-3190148D01*
G01X13201618Y-3190148D02*
G01X13241496Y-3253140D01*
G01X13317950Y-3173130D02*
G01X13306520Y-3178718D01*
G01X13295090Y-3190148D01*
G01X13289248Y-3207420D01*
G01X13289248Y-3218850D01*
G01X13295090Y-3235868D01*
G01X13306520Y-3247298D01*
G01X13317950Y-3253140D01*
G01X13334968Y-3253140D01*
G01X13346398Y-3247298D01*
G01X13357828Y-3235868D01*
G01X13363670Y-3218850D01*
G01X13363670Y-3207420D01*
G01X13357828Y-3190148D01*
G01X13346398Y-3178718D01*
G01X13334968Y-3173130D01*
G01X13317950Y-3173130D01*
G01X13411422Y-3173130D02*
G01X13411422Y-3230280D01*
G01X13417264Y-3247298D01*
G01X13428694Y-3253140D01*
G01X13445712Y-3253140D01*
G01X13457142Y-3247298D01*
G01X13474414Y-3230280D01*
G01X13474414Y-3173130D02*
G01X13474414Y-3253140D01*
G01X13522166Y-3173130D02*
G01X13522166Y-3253140D01*
G01X13522166Y-3195990D02*
G01X13539438Y-3178718D01*
G01X13550868Y-3173130D01*
G01X13567886Y-3173130D01*
G01X13579316Y-3178718D01*
G01X13585158Y-3195990D01*
G01X13585158Y-3253140D01*
G01X13701490Y-3132998D02*
G01X13701490Y-3253140D01*
G01X13701490Y-3190148D02*
G01X13690060Y-3178718D01*
G01X13678630Y-3173130D01*
G01X13661612Y-3173130D01*
G01X13650182Y-3178718D01*
G01X13638752Y-3190148D01*
G01X13632910Y-3207420D01*
G01X13632910Y-3218850D01*
G01X13638752Y-3235868D01*
G01X13650182Y-3247298D01*
G01X13661612Y-3253140D01*
G01X13678630Y-3253140D01*
G01X13690060Y-3247298D01*
G01X13701490Y-3235868D01*
G01X14592667Y-3132998D02*
G01X14638387Y-3253140D01*
G01X14684107Y-3132998D02*
G01X14638387Y-3253140D01*
G01X14731859Y-3132998D02*
G01X14737701Y-3138840D01*
G01X14743289Y-3132998D01*
G01X14737701Y-3127410D01*
G01X14731859Y-3132998D01*
G01X14737701Y-3173130D02*
G01X14737701Y-3253140D01*
G01X14859621Y-3173130D02*
G01X14859621Y-3253140D01*
G01X14859621Y-3190148D02*
G01X14848191Y-3178718D01*
G01X14836761Y-3173130D01*
G01X14819743Y-3173130D01*
G01X14808313Y-3178718D01*
G01X14796883Y-3190148D01*
G01X14791041Y-3207420D01*
G01X14791041Y-3218850D01*
G01X14796883Y-3235868D01*
G01X14808313Y-3247298D01*
G01X14819743Y-3253140D01*
G01X14836761Y-3253140D01*
G01X14848191Y-3247298D01*
G01X14859621Y-3235868D01*
G01X18221347Y-3132998D02*
G01X18221347Y-3253140D01*
G01X18181215Y-3132998D02*
G01X18261225Y-3132998D01*
G01X18337679Y-3173130D02*
G01X18326249Y-3178718D01*
G01X18314819Y-3190148D01*
G01X18308977Y-3207420D01*
G01X18308977Y-3218850D01*
G01X18314819Y-3235868D01*
G01X18326249Y-3247298D01*
G01X18337679Y-3253140D01*
G01X18354697Y-3253140D01*
G01X18366127Y-3247298D01*
G01X18377557Y-3235868D01*
G01X18383399Y-3218850D01*
G01X18383399Y-3207420D01*
G01X18377557Y-3190148D01*
G01X18366127Y-3178718D01*
G01X18354697Y-3173130D01*
G01X18337679Y-3173130D01*
G01X18431151Y-3173130D02*
G01X18431151Y-3293018D01*
G01X18431151Y-3190148D02*
G01X18442581Y-3178718D01*
G01X18454011Y-3173130D01*
G01X18471283Y-3173130D01*
G01X18482713Y-3178718D01*
G01X18494143Y-3190148D01*
G01X18499731Y-3207420D01*
G01X18499731Y-3218850D01*
G01X18494143Y-3235868D01*
G01X18482713Y-3247298D01*
G01X18471283Y-3253140D01*
G01X18454011Y-3253140D01*
G01X18442581Y-3247298D01*
G01X18431151Y-3235868D01*
G01X18675499Y-3132998D02*
G01X18675499Y-3253140D01*
G01X18675499Y-3253140D02*
G01X18744079Y-3253140D01*
G01X18860411Y-3173130D02*
G01X18860411Y-3253140D01*
G01X18860411Y-3190148D02*
G01X18848981Y-3178718D01*
G01X18837551Y-3173130D01*
G01X18820533Y-3173130D01*
G01X18809103Y-3178718D01*
G01X18797673Y-3190148D01*
G01X18791831Y-3207420D01*
G01X18791831Y-3218850D01*
G01X18797673Y-3235868D01*
G01X18809103Y-3247298D01*
G01X18820533Y-3253140D01*
G01X18837551Y-3253140D01*
G01X18848981Y-3247298D01*
G01X18860411Y-3235868D01*
G01X18914005Y-3173130D02*
G01X18948295Y-3253140D01*
G01X18982585Y-3173130D02*
G01X18948295Y-3253140D01*
G01X18936865Y-3276000D01*
G01X18925435Y-3287430D01*
G01X18914005Y-3293018D01*
G01X18908163Y-3293018D01*
G01X19030337Y-3207420D02*
G01X19098917Y-3207420D01*
G01X19098917Y-3195990D01*
G01X19093329Y-3184560D01*
G01X19087487Y-3178718D01*
G01X19076057Y-3173130D01*
G01X19059039Y-3173130D01*
G01X19047609Y-3178718D01*
G01X19036179Y-3190148D01*
G01X19030337Y-3207420D01*
G01X19030337Y-3218850D01*
G01X19036179Y-3235868D01*
G01X19047609Y-3247298D01*
G01X19059039Y-3253140D01*
G01X19076057Y-3253140D01*
G01X19087487Y-3247298D01*
G01X19098917Y-3235868D01*
G01X19146669Y-3173130D02*
G01X19146669Y-3253140D01*
G01X19146669Y-3207420D02*
G01X19152511Y-3190148D01*
G01X19163941Y-3178718D01*
G01X19175371Y-3173130D01*
G01X19192389Y-3173130D01*
G01X19240141Y-3201578D02*
G01X19343011Y-3201578D01*
G01X19390763Y-3132998D02*
G01X19390763Y-3253140D01*
G01X19390763Y-3132998D02*
G01X19442325Y-3132998D01*
G01X19459343Y-3138840D01*
G01X19465185Y-3144428D01*
G01X19470773Y-3155858D01*
G01X19470773Y-3167288D01*
G01X19465185Y-3178718D01*
G01X19459343Y-3184560D01*
G01X19442325Y-3190148D01*
G01X19390763Y-3190148D02*
G01X19442325Y-3190148D01*
G01X19459343Y-3195990D01*
G01X19465185Y-3201578D01*
G01X19470773Y-3213008D01*
G01X19470773Y-3230280D01*
G01X19465185Y-3241710D01*
G01X19459343Y-3247298D01*
G01X19442325Y-3253140D01*
G01X19390763Y-3253140D01*
G01X19547227Y-3173130D02*
G01X19535797Y-3178718D01*
G01X19524367Y-3190148D01*
G01X19518525Y-3207420D01*
G01X19518525Y-3218850D01*
G01X19524367Y-3235868D01*
G01X19535797Y-3247298D01*
G01X19547227Y-3253140D01*
G01X19564245Y-3253140D01*
G01X19575675Y-3247298D01*
G01X19587105Y-3235868D01*
G01X19592947Y-3218850D01*
G01X19592947Y-3207420D01*
G01X19587105Y-3190148D01*
G01X19575675Y-3178718D01*
G01X19564245Y-3173130D01*
G01X19547227Y-3173130D01*
G01X19657971Y-3132998D02*
G01X19657971Y-3230280D01*
G01X19663559Y-3247298D01*
G01X19674989Y-3253140D01*
G01X19686419Y-3253140D01*
G01X19640699Y-3173130D02*
G01X19680831Y-3173130D01*
G01X19751443Y-3132998D02*
G01X19751443Y-3230280D01*
G01X19757031Y-3247298D01*
G01X19768461Y-3253140D01*
G01X19779891Y-3253140D01*
G01X19734171Y-3173130D02*
G01X19774303Y-3173130D01*
G01X19856345Y-3173130D02*
G01X19844915Y-3178718D01*
G01X19833485Y-3190148D01*
G01X19827643Y-3207420D01*
G01X19827643Y-3218850D01*
G01X19833485Y-3235868D01*
G01X19844915Y-3247298D01*
G01X19856345Y-3253140D01*
G01X19873363Y-3253140D01*
G01X19884793Y-3247298D01*
G01X19896223Y-3235868D01*
G01X19902065Y-3218850D01*
G01X19902065Y-3207420D01*
G01X19896223Y-3190148D01*
G01X19884793Y-3178718D01*
G01X19873363Y-3173130D01*
G01X19856345Y-3173130D01*
G01X19949817Y-3173130D02*
G01X19949817Y-3253140D01*
G01X19949817Y-3195990D02*
G01X19967089Y-3178718D01*
G01X19978519Y-3173130D01*
G01X19995537Y-3173130D01*
G01X20006967Y-3178718D01*
G01X20012809Y-3195990D01*
G01X20012809Y-3253140D01*
G01X20012809Y-3195990D02*
G01X20029827Y-3178718D01*
G01X20041257Y-3173130D01*
G01X20058529Y-3173130D01*
G01X20069959Y-3178718D01*
G01X20075547Y-3195990D01*
G01X20075547Y-3253140D01*
G01X20251315Y-3132998D02*
G01X20251315Y-3253140D01*
G01X20251315Y-3253140D02*
G01X20319895Y-3253140D01*
G01X20436227Y-3173130D02*
G01X20436227Y-3253140D01*
G01X20436227Y-3190148D02*
G01X20424797Y-3178718D01*
G01X20413367Y-3173130D01*
G01X20396349Y-3173130D01*
G01X20384919Y-3178718D01*
G01X20373489Y-3190148D01*
G01X20367647Y-3207420D01*
G01X20367647Y-3218850D01*
G01X20373489Y-3235868D01*
G01X20384919Y-3247298D01*
G01X20396349Y-3253140D01*
G01X20413367Y-3253140D01*
G01X20424797Y-3247298D01*
G01X20436227Y-3235868D01*
G01X20489821Y-3173130D02*
G01X20524111Y-3253140D01*
G01X20558401Y-3173130D02*
G01X20524111Y-3253140D01*
G01X20512681Y-3276000D01*
G01X20501251Y-3287430D01*
G01X20489821Y-3293018D01*
G01X20483979Y-3293018D01*
G01X20606153Y-3207420D02*
G01X20674733Y-3207420D01*
G01X20674733Y-3195990D01*
G01X20669145Y-3184560D01*
G01X20663303Y-3178718D01*
G01X20651873Y-3173130D01*
G01X20634855Y-3173130D01*
G01X20623425Y-3178718D01*
G01X20611995Y-3190148D01*
G01X20606153Y-3207420D01*
G01X20606153Y-3218850D01*
G01X20611995Y-3235868D01*
G01X20623425Y-3247298D01*
G01X20634855Y-3253140D01*
G01X20651873Y-3253140D01*
G01X20663303Y-3247298D01*
G01X20674733Y-3235868D01*
G01X20722485Y-3173130D02*
G01X20722485Y-3253140D01*
G01X20722485Y-3207420D02*
G01X20728327Y-3190148D01*
G01X20739757Y-3178718D01*
G01X20751187Y-3173130D01*
G01X20768205Y-3173130D01*
G01X6540540Y-3713570D02*
G01X6483390Y-3793580D01*
G01X6569242Y-3793580D01*
G01X6540540Y-3713570D02*
G01X6540540Y-3833712D01*
G01X6645696Y-3713570D02*
G01X6628424Y-3719412D01*
G01X6622836Y-3730842D01*
G01X6622836Y-3742272D01*
G01X6628424Y-3753702D01*
G01X6639854Y-3759290D01*
G01X6662714Y-3765132D01*
G01X6679986Y-3770720D01*
G01X6691416Y-3782150D01*
G01X6697004Y-3793580D01*
G01X6697004Y-3810852D01*
G01X6691416Y-3822282D01*
G01X6685574Y-3827870D01*
G01X6668556Y-3833712D01*
G01X6645696Y-3833712D01*
G01X6628424Y-3827870D01*
G01X6622836Y-3822282D01*
G01X6616994Y-3810852D01*
G01X6616994Y-3793580D01*
G01X6622836Y-3782150D01*
G01X6634266Y-3770720D01*
G01X6651284Y-3765132D01*
G01X6674144Y-3759290D01*
G01X6685574Y-3753702D01*
G01X6691416Y-3742272D01*
G01X6691416Y-3730842D01*
G01X6685574Y-3719412D01*
G01X6668556Y-3713570D01*
G01X6645696Y-3713570D01*
G01X7897553Y-3736430D02*
G01X7908983Y-3730842D01*
G01X7926255Y-3713570D01*
G01X7926255Y-3833712D01*
G01X7979849Y-3742272D02*
G01X7979849Y-3736430D01*
G01X7985437Y-3725000D01*
G01X7991279Y-3719412D01*
G01X8002709Y-3713570D01*
G01X8025569Y-3713570D01*
G01X8036999Y-3719412D01*
G01X8042587Y-3725000D01*
G01X8048429Y-3736430D01*
G01X8048429Y-3747860D01*
G01X8042587Y-3759290D01*
G01X8031157Y-3776562D01*
G01X7974007Y-3833712D01*
G01X8054017Y-3833712D01*
G01X8107611Y-3805010D02*
G01X8101769Y-3810852D01*
G01X8107611Y-3816440D01*
G01X8113199Y-3810852D01*
G01X8107611Y-3805010D01*
G01X8195241Y-3713570D02*
G01X8178223Y-3719412D01*
G01X8166793Y-3736430D01*
G01X8160951Y-3765132D01*
G01X8160951Y-3782150D01*
G01X8166793Y-3810852D01*
G01X8178223Y-3827870D01*
G01X8195241Y-3833712D01*
G01X8206671Y-3833712D01*
G01X8223943Y-3827870D01*
G01X8235373Y-3810852D01*
G01X8240961Y-3782150D01*
G01X8240961Y-3765132D01*
G01X8235373Y-3736430D01*
G01X8223943Y-3719412D01*
G01X8206671Y-3713570D01*
G01X8195241Y-3713570D01*
G01X8288713Y-3753702D02*
G01X8288713Y-3833712D01*
G01X8288713Y-3776562D02*
G01X8305985Y-3759290D01*
G01X8317415Y-3753702D01*
G01X8334433Y-3753702D01*
G01X8345863Y-3759290D01*
G01X8351705Y-3776562D01*
G01X8351705Y-3833712D01*
G01X8351705Y-3776562D02*
G01X8368723Y-3759290D01*
G01X8380153Y-3753702D01*
G01X8397425Y-3753702D01*
G01X8408855Y-3759290D01*
G01X8414443Y-3776562D01*
G01X8414443Y-3833712D01*
G01X8462195Y-3713570D02*
G01X8468037Y-3719412D01*
G01X8473625Y-3713570D01*
G01X8468037Y-3707982D01*
G01X8462195Y-3713570D01*
G01X8468037Y-3753702D02*
G01X8468037Y-3833712D01*
G01X8521377Y-3713570D02*
G01X8521377Y-3833712D01*
G01X8609261Y-3690710D02*
G01X8597831Y-3702140D01*
G01X8586401Y-3719412D01*
G01X8574971Y-3742272D01*
G01X8569129Y-3770720D01*
G01X8569129Y-3793580D01*
G01X8574971Y-3822282D01*
G01X8586401Y-3845142D01*
G01X8597831Y-3862160D01*
G01X8609261Y-3873590D01*
G01X8691303Y-3713570D02*
G01X8674285Y-3719412D01*
G01X8662855Y-3736430D01*
G01X8657013Y-3765132D01*
G01X8657013Y-3782150D01*
G01X8662855Y-3810852D01*
G01X8674285Y-3827870D01*
G01X8691303Y-3833712D01*
G01X8702733Y-3833712D01*
G01X8720005Y-3827870D01*
G01X8731435Y-3810852D01*
G01X8737023Y-3782150D01*
G01X8737023Y-3765132D01*
G01X8731435Y-3736430D01*
G01X8720005Y-3719412D01*
G01X8702733Y-3713570D01*
G01X8691303Y-3713570D01*
G01X8790617Y-3805010D02*
G01X8784775Y-3810852D01*
G01X8790617Y-3816440D01*
G01X8796205Y-3810852D01*
G01X8790617Y-3805010D01*
G01X8855387Y-3713570D02*
G01X8918379Y-3713570D01*
G01X8884089Y-3759290D01*
G01X8901107Y-3759290D01*
G01X8912537Y-3765132D01*
G01X8918379Y-3770720D01*
G01X8923967Y-3787992D01*
G01X8923967Y-3799422D01*
G01X8918379Y-3816440D01*
G01X8906949Y-3827870D01*
G01X8889677Y-3833712D01*
G01X8872659Y-3833712D01*
G01X8855387Y-3827870D01*
G01X8849799Y-3822282D01*
G01X8843957Y-3810852D01*
G01X9006009Y-3713570D02*
G01X8988991Y-3719412D01*
G01X8977561Y-3736430D01*
G01X8971719Y-3765132D01*
G01X8971719Y-3782150D01*
G01X8977561Y-3810852D01*
G01X8988991Y-3827870D01*
G01X9006009Y-3833712D01*
G01X9017439Y-3833712D01*
G01X9034711Y-3827870D01*
G01X9046141Y-3810852D01*
G01X9051729Y-3782150D01*
G01X9051729Y-3765132D01*
G01X9046141Y-3736430D01*
G01X9034711Y-3719412D01*
G01X9017439Y-3713570D01*
G01X9006009Y-3713570D01*
G01X9168061Y-3713570D02*
G01X9110911Y-3713570D01*
G01X9105323Y-3765132D01*
G01X9110911Y-3759290D01*
G01X9128183Y-3753702D01*
G01X9145201Y-3753702D01*
G01X9162473Y-3759290D01*
G01X9173903Y-3770720D01*
G01X9179491Y-3787992D01*
G01X9179491Y-3799422D01*
G01X9173903Y-3816440D01*
G01X9162473Y-3827870D01*
G01X9145201Y-3833712D01*
G01X9128183Y-3833712D01*
G01X9110911Y-3827870D01*
G01X9105323Y-3822282D01*
G01X9099481Y-3810852D01*
G01X9227243Y-3753702D02*
G01X9227243Y-3833712D01*
G01X9227243Y-3776562D02*
G01X9244515Y-3759290D01*
G01X9255945Y-3753702D01*
G01X9272963Y-3753702D01*
G01X9284393Y-3759290D01*
G01X9290235Y-3776562D01*
G01X9290235Y-3833712D01*
G01X9290235Y-3776562D02*
G01X9307253Y-3759290D01*
G01X9318683Y-3753702D01*
G01X9335955Y-3753702D01*
G01X9347385Y-3759290D01*
G01X9352973Y-3776562D01*
G01X9352973Y-3833712D01*
G01X9400725Y-3753702D02*
G01X9400725Y-3833712D01*
G01X9400725Y-3776562D02*
G01X9417997Y-3759290D01*
G01X9429427Y-3753702D01*
G01X9446445Y-3753702D01*
G01X9457875Y-3759290D01*
G01X9463717Y-3776562D01*
G01X9463717Y-3833712D01*
G01X9463717Y-3776562D02*
G01X9480735Y-3759290D01*
G01X9492165Y-3753702D01*
G01X9509437Y-3753702D01*
G01X9520867Y-3759290D01*
G01X9526455Y-3776562D01*
G01X9526455Y-3833712D01*
G01X9574207Y-3690710D02*
G01X9585637Y-3702140D01*
G01X9597067Y-3719412D01*
G01X9608497Y-3742272D01*
G01X9614339Y-3770720D01*
G01X9614339Y-3793580D01*
G01X9608497Y-3822282D01*
G01X9597067Y-3845142D01*
G01X9585637Y-3862160D01*
G01X9574207Y-3873590D01*
G01X11700079Y-3713570D02*
G01X11700079Y-3833712D01*
G01X11700079Y-3713570D02*
G01X11751641Y-3713570D01*
G01X11768659Y-3719412D01*
G01X11774501Y-3725000D01*
G01X11780089Y-3736430D01*
G01X11780089Y-3753702D01*
G01X11774501Y-3765132D01*
G01X11768659Y-3770720D01*
G01X11751641Y-3776562D01*
G01X11700079Y-3776562D01*
G01X11867973Y-3713570D02*
G01X11867973Y-3833712D01*
G01X11827841Y-3713570D02*
G01X11907851Y-3713570D01*
G01X11955603Y-3713570D02*
G01X11955603Y-3833712D01*
G01X12035613Y-3713570D02*
G01X12035613Y-3833712D01*
G01X11955603Y-3770720D02*
G01X12035613Y-3770720D01*
G01X13161486Y-3713570D02*
G01X13161486Y-3833712D01*
G01X13161486Y-3713570D02*
G01X13213048Y-3713570D01*
G01X13230066Y-3719412D01*
G01X13235908Y-3725000D01*
G01X13241496Y-3736430D01*
G01X13241496Y-3747860D01*
G01X13235908Y-3759290D01*
G01X13230066Y-3765132D01*
G01X13213048Y-3770720D01*
G01X13161486Y-3770720D01*
G01X13201618Y-3770720D02*
G01X13241496Y-3833712D01*
G01X13317950Y-3753702D02*
G01X13306520Y-3759290D01*
G01X13295090Y-3770720D01*
G01X13289248Y-3787992D01*
G01X13289248Y-3799422D01*
G01X13295090Y-3816440D01*
G01X13306520Y-3827870D01*
G01X13317950Y-3833712D01*
G01X13334968Y-3833712D01*
G01X13346398Y-3827870D01*
G01X13357828Y-3816440D01*
G01X13363670Y-3799422D01*
G01X13363670Y-3787992D01*
G01X13357828Y-3770720D01*
G01X13346398Y-3759290D01*
G01X13334968Y-3753702D01*
G01X13317950Y-3753702D01*
G01X13411422Y-3753702D02*
G01X13411422Y-3810852D01*
G01X13417264Y-3827870D01*
G01X13428694Y-3833712D01*
G01X13445712Y-3833712D01*
G01X13457142Y-3827870D01*
G01X13474414Y-3810852D01*
G01X13474414Y-3753702D02*
G01X13474414Y-3833712D01*
G01X13522166Y-3753702D02*
G01X13522166Y-3833712D01*
G01X13522166Y-3776562D02*
G01X13539438Y-3759290D01*
G01X13550868Y-3753702D01*
G01X13567886Y-3753702D01*
G01X13579316Y-3759290D01*
G01X13585158Y-3776562D01*
G01X13585158Y-3833712D01*
G01X13701490Y-3713570D02*
G01X13701490Y-3833712D01*
G01X13701490Y-3770720D02*
G01X13690060Y-3759290D01*
G01X13678630Y-3753702D01*
G01X13661612Y-3753702D01*
G01X13650182Y-3759290D01*
G01X13638752Y-3770720D01*
G01X13632910Y-3787992D01*
G01X13632910Y-3799422D01*
G01X13638752Y-3816440D01*
G01X13650182Y-3827870D01*
G01X13661612Y-3833712D01*
G01X13678630Y-3833712D01*
G01X13690060Y-3827870D01*
G01X13701490Y-3816440D01*
G01X14592667Y-3713570D02*
G01X14638387Y-3833712D01*
G01X14684107Y-3713570D02*
G01X14638387Y-3833712D01*
G01X14731859Y-3713570D02*
G01X14737701Y-3719412D01*
G01X14743289Y-3713570D01*
G01X14737701Y-3707982D01*
G01X14731859Y-3713570D01*
G01X14737701Y-3753702D02*
G01X14737701Y-3833712D01*
G01X14859621Y-3753702D02*
G01X14859621Y-3833712D01*
G01X14859621Y-3770720D02*
G01X14848191Y-3759290D01*
G01X14836761Y-3753702D01*
G01X14819743Y-3753702D01*
G01X14808313Y-3759290D01*
G01X14796883Y-3770720D01*
G01X14791041Y-3787992D01*
G01X14791041Y-3799422D01*
G01X14796883Y-3816440D01*
G01X14808313Y-3827870D01*
G01X14819743Y-3833712D01*
G01X14836761Y-3833712D01*
G01X14848191Y-3827870D01*
G01X14859621Y-3816440D01*
G01X18221347Y-3713570D02*
G01X18221347Y-3833712D01*
G01X18181215Y-3713570D02*
G01X18261225Y-3713570D01*
G01X18337679Y-3753702D02*
G01X18326249Y-3759290D01*
G01X18314819Y-3770720D01*
G01X18308977Y-3787992D01*
G01X18308977Y-3799422D01*
G01X18314819Y-3816440D01*
G01X18326249Y-3827870D01*
G01X18337679Y-3833712D01*
G01X18354697Y-3833712D01*
G01X18366127Y-3827870D01*
G01X18377557Y-3816440D01*
G01X18383399Y-3799422D01*
G01X18383399Y-3787992D01*
G01X18377557Y-3770720D01*
G01X18366127Y-3759290D01*
G01X18354697Y-3753702D01*
G01X18337679Y-3753702D01*
G01X18431151Y-3753702D02*
G01X18431151Y-3873590D01*
G01X18431151Y-3770720D02*
G01X18442581Y-3759290D01*
G01X18454011Y-3753702D01*
G01X18471283Y-3753702D01*
G01X18482713Y-3759290D01*
G01X18494143Y-3770720D01*
G01X18499731Y-3787992D01*
G01X18499731Y-3799422D01*
G01X18494143Y-3816440D01*
G01X18482713Y-3827870D01*
G01X18471283Y-3833712D01*
G01X18454011Y-3833712D01*
G01X18442581Y-3827870D01*
G01X18431151Y-3816440D01*
G01X18675499Y-3713570D02*
G01X18675499Y-3833712D01*
G01X18675499Y-3833712D02*
G01X18744079Y-3833712D01*
G01X18860411Y-3753702D02*
G01X18860411Y-3833712D01*
G01X18860411Y-3770720D02*
G01X18848981Y-3759290D01*
G01X18837551Y-3753702D01*
G01X18820533Y-3753702D01*
G01X18809103Y-3759290D01*
G01X18797673Y-3770720D01*
G01X18791831Y-3787992D01*
G01X18791831Y-3799422D01*
G01X18797673Y-3816440D01*
G01X18809103Y-3827870D01*
G01X18820533Y-3833712D01*
G01X18837551Y-3833712D01*
G01X18848981Y-3827870D01*
G01X18860411Y-3816440D01*
G01X18914005Y-3753702D02*
G01X18948295Y-3833712D01*
G01X18982585Y-3753702D02*
G01X18948295Y-3833712D01*
G01X18936865Y-3856572D01*
G01X18925435Y-3868002D01*
G01X18914005Y-3873590D01*
G01X18908163Y-3873590D01*
G01X19030337Y-3787992D02*
G01X19098917Y-3787992D01*
G01X19098917Y-3776562D01*
G01X19093329Y-3765132D01*
G01X19087487Y-3759290D01*
G01X19076057Y-3753702D01*
G01X19059039Y-3753702D01*
G01X19047609Y-3759290D01*
G01X19036179Y-3770720D01*
G01X19030337Y-3787992D01*
G01X19030337Y-3799422D01*
G01X19036179Y-3816440D01*
G01X19047609Y-3827870D01*
G01X19059039Y-3833712D01*
G01X19076057Y-3833712D01*
G01X19087487Y-3827870D01*
G01X19098917Y-3816440D01*
G01X19146669Y-3753702D02*
G01X19146669Y-3833712D01*
G01X19146669Y-3787992D02*
G01X19152511Y-3770720D01*
G01X19163941Y-3759290D01*
G01X19175371Y-3753702D01*
G01X19192389Y-3753702D01*
G01X19240141Y-3782150D02*
G01X19343011Y-3782150D01*
G01X19390763Y-3713570D02*
G01X19390763Y-3833712D01*
G01X19390763Y-3713570D02*
G01X19442325Y-3713570D01*
G01X19459343Y-3719412D01*
G01X19465185Y-3725000D01*
G01X19470773Y-3736430D01*
G01X19470773Y-3747860D01*
G01X19465185Y-3759290D01*
G01X19459343Y-3765132D01*
G01X19442325Y-3770720D01*
G01X19390763Y-3770720D02*
G01X19442325Y-3770720D01*
G01X19459343Y-3776562D01*
G01X19465185Y-3782150D01*
G01X19470773Y-3793580D01*
G01X19470773Y-3810852D01*
G01X19465185Y-3822282D01*
G01X19459343Y-3827870D01*
G01X19442325Y-3833712D01*
G01X19390763Y-3833712D01*
G01X19547227Y-3753702D02*
G01X19535797Y-3759290D01*
G01X19524367Y-3770720D01*
G01X19518525Y-3787992D01*
G01X19518525Y-3799422D01*
G01X19524367Y-3816440D01*
G01X19535797Y-3827870D01*
G01X19547227Y-3833712D01*
G01X19564245Y-3833712D01*
G01X19575675Y-3827870D01*
G01X19587105Y-3816440D01*
G01X19592947Y-3799422D01*
G01X19592947Y-3787992D01*
G01X19587105Y-3770720D01*
G01X19575675Y-3759290D01*
G01X19564245Y-3753702D01*
G01X19547227Y-3753702D01*
G01X19657971Y-3713570D02*
G01X19657971Y-3810852D01*
G01X19663559Y-3827870D01*
G01X19674989Y-3833712D01*
G01X19686419Y-3833712D01*
G01X19640699Y-3753702D02*
G01X19680831Y-3753702D01*
G01X19751443Y-3713570D02*
G01X19751443Y-3810852D01*
G01X19757031Y-3827870D01*
G01X19768461Y-3833712D01*
G01X19779891Y-3833712D01*
G01X19734171Y-3753702D02*
G01X19774303Y-3753702D01*
G01X19856345Y-3753702D02*
G01X19844915Y-3759290D01*
G01X19833485Y-3770720D01*
G01X19827643Y-3787992D01*
G01X19827643Y-3799422D01*
G01X19833485Y-3816440D01*
G01X19844915Y-3827870D01*
G01X19856345Y-3833712D01*
G01X19873363Y-3833712D01*
G01X19884793Y-3827870D01*
G01X19896223Y-3816440D01*
G01X19902065Y-3799422D01*
G01X19902065Y-3787992D01*
G01X19896223Y-3770720D01*
G01X19884793Y-3759290D01*
G01X19873363Y-3753702D01*
G01X19856345Y-3753702D01*
G01X19949817Y-3753702D02*
G01X19949817Y-3833712D01*
G01X19949817Y-3776562D02*
G01X19967089Y-3759290D01*
G01X19978519Y-3753702D01*
G01X19995537Y-3753702D01*
G01X20006967Y-3759290D01*
G01X20012809Y-3776562D01*
G01X20012809Y-3833712D01*
G01X20012809Y-3776562D02*
G01X20029827Y-3759290D01*
G01X20041257Y-3753702D01*
G01X20058529Y-3753702D01*
G01X20069959Y-3759290D01*
G01X20075547Y-3776562D01*
G01X20075547Y-3833712D01*
G01X20251315Y-3713570D02*
G01X20251315Y-3833712D01*
G01X20251315Y-3833712D02*
G01X20319895Y-3833712D01*
G01X20436227Y-3753702D02*
G01X20436227Y-3833712D01*
G01X20436227Y-3770720D02*
G01X20424797Y-3759290D01*
G01X20413367Y-3753702D01*
G01X20396349Y-3753702D01*
G01X20384919Y-3759290D01*
G01X20373489Y-3770720D01*
G01X20367647Y-3787992D01*
G01X20367647Y-3799422D01*
G01X20373489Y-3816440D01*
G01X20384919Y-3827870D01*
G01X20396349Y-3833712D01*
G01X20413367Y-3833712D01*
G01X20424797Y-3827870D01*
G01X20436227Y-3816440D01*
G01X20489821Y-3753702D02*
G01X20524111Y-3833712D01*
G01X20558401Y-3753702D02*
G01X20524111Y-3833712D01*
G01X20512681Y-3856572D01*
G01X20501251Y-3868002D01*
G01X20489821Y-3873590D01*
G01X20483979Y-3873590D01*
G01X20606153Y-3787992D02*
G01X20674733Y-3787992D01*
G01X20674733Y-3776562D01*
G01X20669145Y-3765132D01*
G01X20663303Y-3759290D01*
G01X20651873Y-3753702D01*
G01X20634855Y-3753702D01*
G01X20623425Y-3759290D01*
G01X20611995Y-3770720D01*
G01X20606153Y-3787992D01*
G01X20606153Y-3799422D01*
G01X20611995Y-3816440D01*
G01X20623425Y-3827870D01*
G01X20634855Y-3833712D01*
G01X20651873Y-3833712D01*
G01X20663303Y-3827870D01*
G01X20674733Y-3816440D01*
G01X20722485Y-3753702D02*
G01X20722485Y-3833712D01*
G01X20722485Y-3787992D02*
G01X20728327Y-3770720D01*
G01X20739757Y-3759290D01*
G01X20751187Y-3753702D01*
G01X20768205Y-3753702D01*

G04 Image Start*
G36*
G01X5318779Y-2733039D02*
G01X5213165Y-2721558D01*
G01X5170290Y-2818764D01*
G01X5127415Y-2721558D01*
G01X5021802Y-2733039D01*
G01X5084565Y-2647314D01*
G01X5044843Y-2593060D01*
G01X5076336Y-2593060D01*
G01X5116036Y-2647314D01*
G01X5076336Y-2701568D01*
G01X5143163Y-2694304D01*
G01X5143163Y-2694304D01*
G01X5170290Y-2755797D01*
G01X5197417Y-2694304D01*
G01X5264245Y-2701568D01*
G01X5224545Y-2647314D01*
G01X5264219Y-2593085D01*
G01X5197392Y-2600349D01*
G01X5170290Y-2538831D01*
G01X5143163Y-2600324D01*
G01X5076336Y-2593060D01*
G01X5044843Y-2593060D01*
G01X5021802Y-2561589D01*
G01X5127440Y-2573070D01*
G01X5170290Y-2475864D01*
G01X5213165Y-2573070D01*
G01X5318779Y-2561589D01*
G01X5256015Y-2647314D01*
G01X5318779Y-2733039D01*
G37*
G36*
G01X5189785Y-1618734D02*
G01X5182045Y-1619323D01*
G01X5174202Y-1619521D01*
G01X5166359Y-1619323D01*
G01X5158618Y-1618734D01*
G01X5150991Y-1617765D01*
G01X5143486Y-1616425D01*
G01X5128880Y-1612670D01*
G01X5114878Y-1607546D01*
G01X5101556Y-1601129D01*
G01X5088990Y-1593495D01*
G01X5077258Y-1584723D01*
G01X5066436Y-1574887D01*
G01X5056600Y-1564065D01*
G01X5047827Y-1552333D01*
G01X5040194Y-1539767D01*
G01X5033777Y-1526445D01*
G01X5028653Y-1512443D01*
G01X5024898Y-1497837D01*
G01X5023558Y-1490332D01*
G01X5022588Y-1482704D01*
G01X5022000Y-1474964D01*
G01X5021802Y-1467121D01*
G01X5047202Y-1467121D01*
G01X5047859Y-1480088D01*
G01X5049786Y-1492684D01*
G01X5052921Y-1504845D01*
G01X5057198Y-1516508D01*
G01X5062553Y-1527607D01*
G01X5068921Y-1538079D01*
G01X5076239Y-1547858D01*
G01X5084441Y-1556881D01*
G01X5093465Y-1565084D01*
G01X5103244Y-1572402D01*
G01X5113716Y-1578770D01*
G01X5124815Y-1584125D01*
G01X5136478Y-1588402D01*
G01X5148639Y-1591536D01*
G01X5148639Y-1591536D01*
G01X5161235Y-1593464D01*
G01X5174202Y-1594121D01*
G01X5187168Y-1593464D01*
G01X5199764Y-1591536D01*
G01X5211926Y-1588402D01*
G01X5223588Y-1584125D01*
G01X5234688Y-1578770D01*
G01X5245159Y-1572402D01*
G01X5254939Y-1565084D01*
G01X5263962Y-1556881D01*
G01X5272165Y-1547858D01*
G01X5279482Y-1538079D01*
G01X5285851Y-1527607D01*
G01X5291206Y-1516508D01*
G01X5295482Y-1504845D01*
G01X5298617Y-1492684D01*
G01X5300545Y-1480088D01*
G01X5301202Y-1467121D01*
G01X5300545Y-1454155D01*
G01X5298617Y-1441558D01*
G01X5295482Y-1429397D01*
G01X5291206Y-1417734D01*
G01X5285851Y-1406635D01*
G01X5279482Y-1396164D01*
G01X5272165Y-1386384D01*
G01X5263962Y-1377361D01*
G01X5254939Y-1369158D01*
G01X5245159Y-1361840D01*
G01X5234688Y-1355472D01*
G01X5223588Y-1350117D01*
G01X5211926Y-1345840D01*
G01X5199764Y-1342706D01*
G01X5187168Y-1340778D01*
G01X5174202Y-1340121D01*
G01X5161235Y-1340778D01*
G01X5148639Y-1342706D01*
G01X5136478Y-1345840D01*
G01X5124815Y-1350117D01*
G01X5113716Y-1355472D01*
G01X5103244Y-1361840D01*
G01X5093465Y-1369158D01*
G01X5084441Y-1377361D01*
G01X5076239Y-1386384D01*
G01X5068921Y-1396164D01*
G01X5062553Y-1406635D01*
G01X5057198Y-1417734D01*
G01X5052921Y-1429397D01*
G01X5049786Y-1441558D01*
G01X5047859Y-1454155D01*
G01X5047202Y-1467121D01*
G01X5021802Y-1467121D01*
G01X5022000Y-1459278D01*
G01X5022588Y-1451538D01*
G01X5023558Y-1443910D01*
G01X5024898Y-1436405D01*
G01X5028653Y-1421799D01*
G01X5033777Y-1407797D01*
G01X5040194Y-1394475D01*
G01X5047827Y-1381910D01*
G01X5056600Y-1370177D01*
G01X5066436Y-1359355D01*
G01X5077258Y-1349519D01*
G01X5088990Y-1340747D01*
G01X5101556Y-1333113D01*
G01X5114878Y-1326696D01*
G01X5128880Y-1321572D01*
G01X5143486Y-1317817D01*
G01X5150991Y-1316477D01*
G01X5158618Y-1315508D01*
G01X5166359Y-1314919D01*
G01X5174202Y-1314721D01*
G01X5182045Y-1314919D01*
G01X5189785Y-1315508D01*
G01X5197412Y-1316477D01*
G01X5204918Y-1317817D01*
G01X5219524Y-1321572D01*
G01X5233526Y-1326696D01*
G01X5246848Y-1333113D01*
G01X5259413Y-1340747D01*
G01X5271145Y-1349519D01*
G01X5281968Y-1359355D01*
G01X5291803Y-1370177D01*
G01X5300576Y-1381910D01*
G01X5308209Y-1394475D01*
G01X5314626Y-1407797D01*
G01X5319751Y-1421799D01*
G01X5323506Y-1436405D01*
G01X5324846Y-1443910D01*
G01X5325815Y-1451538D01*
G01X5326403Y-1459278D01*
G01X5326602Y-1467121D01*
G01X5326403Y-1474964D01*
G01X5325815Y-1482704D01*
G01X5324846Y-1490332D01*
G01X5323506Y-1497837D01*
G01X5319751Y-1512443D01*
G01X5314626Y-1526445D01*
G01X5308209Y-1539767D01*
G01X5300576Y-1552333D01*
G01X5291803Y-1564065D01*
G01X5281968Y-1574887D01*
G01X5271145Y-1584723D01*
G01X5259413Y-1593495D01*
G01X5246848Y-1601129D01*
G01X5233526Y-1607546D01*
G01X5219524Y-1612670D01*
G01X5204918Y-1616425D01*
G01X5197412Y-1617765D01*
G01X5189785Y-1618734D01*
G37*
G36*
G01X5326602Y-3858673D02*
G01X5243493Y-3858673D01*
G01X5243493Y-3941807D01*
G01X5104936Y-3941807D01*
G01X5104936Y-3858698D01*
G01X5021802Y-3858698D01*
G01X5021802Y-3745541D01*
G01X5047202Y-3745541D01*
G01X5047202Y-3833273D01*
G01X5130336Y-3833273D01*
G01X5130336Y-3916407D01*
G01X5130336Y-3916407D01*
G01X5218068Y-3916407D01*
G01X5218068Y-3833298D01*
G01X5301202Y-3833298D01*
G01X5301202Y-3745541D01*
G01X5218068Y-3745541D01*
G01X5218068Y-3662407D01*
G01X5130336Y-3662407D01*
G01X5130336Y-3745541D01*
G01X5047202Y-3745541D01*
G01X5021802Y-3745541D01*
G01X5021802Y-3720141D01*
G01X5104936Y-3720141D01*
G01X5104936Y-3637007D01*
G01X5243468Y-3637007D01*
G01X5243468Y-3720141D01*
G01X5326602Y-3720141D01*
G01X5326602Y-3858673D01*
G37*
G36*
G01X5326602Y-3056435D02*
G01X5256574Y-3208835D01*
G01X5326602Y-3361235D01*
G01X5174202Y-3291208D01*
G01X5021802Y-3361235D01*
G01X5045564Y-3309521D01*
G01X5073516Y-3309521D01*
G01X5163585Y-3268119D01*
G01X5174202Y-3263242D01*
G01X5184819Y-3268119D01*
G01X5274887Y-3309521D01*
G01X5233485Y-3219453D01*
G01X5228609Y-3208835D01*
G01X5233485Y-3198218D01*
G01X5274887Y-3108150D01*
G01X5184819Y-3149552D01*
G01X5174202Y-3154429D01*
G01X5163585Y-3149552D01*
G01X5073516Y-3108150D01*
G01X5114918Y-3198218D01*
G01X5119795Y-3208835D01*
G01X5119795Y-3208835D01*
G01X5114918Y-3219453D01*
G01X5073516Y-3309521D01*
G01X5045564Y-3309521D01*
G01X5091830Y-3208835D01*
G01X5021802Y-3056435D01*
G01X5174202Y-3126463D01*
G01X5326602Y-3056435D01*
G37*
G36*
G01X5021802Y-1895292D02*
G01X5326602Y-1895292D01*
G01X5174202Y-2159249D01*
G01X5036467Y-1920692D01*
G01X5065795Y-1920692D01*
G01X5174202Y-2108449D01*
G01X5282609Y-1920692D01*
G01X5282609Y-1920692D01*
G01X5065795Y-1920692D01*
G01X5036467Y-1920692D01*
G01X5021802Y-1895292D01*
G37*
G36*
G01X5021802Y-734150D02*
G01X5301202Y-734150D01*
G01X5301202Y-1013550D01*
G01X5021802Y-1013550D01*
G01X5021802Y-759550D01*
G01X5047202Y-759550D01*
G01X5047202Y-988150D01*
G01X5275802Y-988150D01*
G01X5275802Y-759550D01*
G01X5275802Y-759550D01*
G01X5047202Y-759550D01*
G01X5021802Y-759550D01*
G01X5021802Y-734150D01*
G37*

G04 PolygonModel Start*
G54D17*
G01X4731516Y-4072435D02*
G01X21358937Y-4072435D01*
G01X4731516Y-3491864D02*
G01X21358937Y-3491864D01*
G01X4731516Y-2911292D02*
G01X21358937Y-2911292D01*
G01X4731516Y-2330721D02*
G01X21358937Y-2330721D01*
G01X4731516Y-1750150D02*
G01X21358937Y-1750150D01*
G01X4731516Y-1169578D02*
G01X21358937Y-1169578D01*
G01X4731516Y-589007D02*
G01X21358937Y-589007D01*
G01X4731516Y-8435D02*
G01X21358937Y-8435D01*
G01X4731516Y-8435D02*
G01X4731516Y-4047035D01*
G01X6182945Y-8435D02*
G01X6182945Y-4047035D01*
G01X7597108Y-8435D02*
G01X7597108Y-4047035D01*
G01X11399633Y-8435D02*
G01X11399633Y-4047035D01*
G01X12861040Y-8435D02*
G01X12861040Y-4047035D01*
G01X14292221Y-8435D02*
G01X14292221Y-4047035D01*
G01X15961400Y-8435D02*
G01X15961400Y-4047035D01*
G01X17880769Y-8435D02*
G01X17880769Y-4047035D01*
G01X21358937Y-8435D02*
G01X21358937Y-4047035D01*

M02*

